<?xml version="1.0" encoding="UTF-8"?>
<svg xmlns="http://www.w3.org/2000/svg" xmlns:xlink="http://www.w3.org/1999/xlink" width="419.25pt" height="297.75pt" viewBox="0 0 419.25 297.75" version="1.2">
<defs>
<clipPath id="clip1">
  <path d="M 163 201 L 289 201 L 289 297.359375 L 163 297.359375 Z M 163 201 "/>
</clipPath>
<clipPath id="clip2">
  <path d="M 163 281 L 289 281 L 289 297.359375 L 163 297.359375 Z M 163 281 "/>
</clipPath>
<clipPath id="clip3">
  <path d="M 163 279 L 289 279 L 289 297.359375 L 163 297.359375 Z M 163 279 "/>
</clipPath>
<clipPath id="clip4">
  <path d="M 266 267 L 325 267 L 325 297.359375 L 266 297.359375 Z M 266 267 "/>
</clipPath>
<clipPath id="clip5">
  <path d="M 124 267 L 184 267 L 184 297.359375 L 124 297.359375 Z M 124 267 "/>
</clipPath>
</defs>
<g id="surface1">
<path style=" stroke:none;fill-rule:nonzero;fill:rgb(25.878906%,63.919067%,67.059326%);fill-opacity:1;" d="M 191.523438 203.84375 C 150.355469 196.046875 120.207031 256.726562 122.320312 262.136719 C 124.4375 267.539062 154.527344 283.160156 158.464844 283.160156 C 162.40625 283.160156 174.152344 277.75 172.550781 261.535156 C 170.929688 245.308594 236.875 212.429688 191.523438 203.84375 "/>
<path style=" stroke:none;fill-rule:nonzero;fill:rgb(100%,100%,100%);fill-opacity:1;" d="M 140.902344 275.328125 C 139.15625 274.375 137.410156 273.394531 135.722656 272.402344 C 137.410156 273.394531 139.15625 274.375 140.898438 275.324219 L 140.902344 275.328125 M 130.230469 269 C 126.074219 266.265625 122.964844 263.753906 122.328125 262.144531 C 122.964844 263.753906 126.074219 266.265625 130.230469 269 M 122.320312 262.136719 C 122.105469 261.566406 122.234375 260.386719 122.703125 258.742188 C 122.234375 260.386719 122.105469 261.566406 122.320312 262.136719 "/>
<path style=" stroke:none;fill-rule:nonzero;fill:rgb(30.198669%,67.449951%,72.158813%);fill-opacity:1;" d="M 140.898438 275.324219 C 139.15625 274.375 137.410156 273.394531 135.722656 272.402344 C 133.78125 271.261719 131.917969 270.109375 130.230469 269 C 126.074219 266.265625 122.964844 263.753906 122.328125 262.144531 C 122.328125 262.140625 122.328125 262.136719 122.320312 262.136719 C 122.105469 261.566406 122.234375 260.386719 122.703125 258.742188 C 125.015625 250.5625 135.542969 230.832031 151.234375 217.226562 C 150.75 225.222656 141.953125 237.84375 140.21875 243.171875 C 137.796875 250.617188 138.207031 259.117188 138.898438 266.765625 C 139.191406 270.019531 139.933594 272.757812 140.898438 275.324219 "/>
<path style=" stroke:none;fill-rule:nonzero;fill:rgb(23.529053%,58.039856%,61.178589%);fill-opacity:1;" d="M 163.980469 280.257812 C 162.828125 277.714844 161.515625 275.316406 160.042969 272.832031 C 156.125 266.226562 157.199219 255.449219 158.816406 248.28125 C 161.078125 238.257812 169.085938 230.875 170.75 220.546875 C 171.605469 215.253906 170.832031 210.390625 168.875 206.191406 C 171.867188 205.015625 174.964844 204.140625 178.148438 203.636719 C 178.15625 203.640625 178.15625 203.640625 178.164062 203.640625 C 176.871094 203.84375 175.59375 204.109375 174.332031 204.429688 C 177.386719 209.675781 178.371094 216.121094 176.140625 221.925781 C 171.625 233.660156 165.617188 242.011719 165.984375 255.191406 C 166.015625 256.390625 166.039062 257.699219 166.085938 259.066406 C 165.175781 264.355469 164.523438 269.914062 164.21875 275.652344 C 164.128906 277.222656 164.050781 278.757812 163.980469 280.257812 "/>
<path style=" stroke:none;fill-rule:nonzero;fill:rgb(21.569824%,52.938843%,56.079102%);fill-opacity:1;" d="M 166.085938 259.066406 C 166.039062 257.699219 166.015625 256.390625 165.984375 255.191406 C 165.617188 242.011719 171.625 233.660156 176.140625 221.925781 C 178.371094 216.121094 177.386719 209.675781 174.332031 204.429688 C 175.59375 204.109375 176.871094 203.84375 178.164062 203.640625 C 182.40625 204.734375 186.804688 205.648438 191.335938 206.386719 C 188.589844 207.75 186.089844 209.480469 184.101562 211.667969 C 179.144531 217.125 170.132812 235.453125 166.085938 259.066406 "/>
<path style=" stroke:none;fill-rule:nonzero;fill:rgb(25.878906%,63.919067%,67.059326%);fill-opacity:1;" d="M 257.316406 203.84375 C 298.480469 196.046875 328.625 256.726562 326.511719 262.136719 C 324.394531 267.539062 294.3125 283.160156 290.367188 283.160156 C 286.429688 283.160156 274.679688 277.75 276.292969 261.535156 C 277.902344 245.308594 211.964844 212.429688 257.316406 203.84375 "/>
<path style=" stroke:none;fill-rule:nonzero;fill:rgb(100%,100%,100%);fill-opacity:1;" d="M 307.9375 275.328125 C 307.9375 275.324219 307.9375 275.324219 307.9375 275.324219 C 316.621094 270.601562 325.40625 264.964844 326.511719 262.136719 C 326.707031 261.648438 326.632812 260.71875 326.316406 259.429688 C 326.632812 260.71875 326.707031 261.648438 326.511719 262.136719 C 325.40625 264.964844 316.617188 270.597656 307.9375 275.328125 "/>
<path style=" stroke:none;fill-rule:nonzero;fill:rgb(30.198669%,67.449951%,72.158813%);fill-opacity:1;" d="M 307.9375 275.324219 C 308.898438 272.753906 309.640625 270.019531 309.9375 266.765625 C 310.628906 259.117188 311.039062 250.617188 308.617188 243.171875 C 306.882812 237.84375 298.085938 225.222656 297.605469 217.226562 C 313.753906 231.230469 324.429688 251.714844 326.316406 259.429688 C 326.632812 260.71875 326.707031 261.648438 326.511719 262.136719 C 325.40625 264.964844 316.621094 270.601562 307.9375 275.324219 "/>
<path style=" stroke:none;fill-rule:nonzero;fill:rgb(23.529053%,58.039856%,61.178589%);fill-opacity:1;" d="M 284.875 280.214844 C 284.789062 278.722656 284.707031 277.203125 284.625 275.652344 C 284.316406 269.914062 283.660156 264.351562 282.75 259.066406 C 282.796875 257.699219 282.820312 256.390625 282.851562 255.191406 C 283.222656 242.011719 277.210938 233.660156 272.695312 221.925781 C 270.457031 216.121094 271.449219 209.675781 274.507812 204.429688 C 273.023438 204.054688 271.519531 203.753906 269.992188 203.539062 C 269.996094 203.535156 269.996094 203.535156 270.003906 203.535156 C 273.433594 204.015625 276.753906 204.933594 279.960938 206.191406 C 278 210.390625 277.234375 215.253906 278.085938 220.546875 C 279.75 230.875 287.757812 238.257812 290.023438 248.28125 C 291.636719 255.449219 292.710938 266.226562 288.792969 272.832031 C 287.328125 275.304688 286.023438 277.691406 284.875 280.214844 "/>
<path style=" stroke:none;fill-rule:nonzero;fill:rgb(21.569824%,52.938843%,56.079102%);fill-opacity:1;" d="M 282.75 259.066406 C 278.703125 235.445312 269.691406 217.125 264.734375 211.667969 C 262.679688 209.40625 260.085938 207.636719 257.226562 206.253906 C 258.792969 205.992188 260.347656 205.707031 261.882812 205.398438 C 261.890625 205.398438 261.90625 205.398438 261.910156 205.394531 C 261.925781 205.386719 261.945312 205.386719 261.960938 205.382812 C 261.984375 205.378906 262.003906 205.375 262.027344 205.371094 C 262.035156 205.371094 262.039062 205.367188 262.046875 205.367188 C 262.074219 205.363281 262.097656 205.359375 262.117188 205.355469 C 262.121094 205.347656 262.128906 205.347656 262.132812 205.347656 C 264.804688 204.8125 267.425781 204.210938 269.992188 203.539062 C 271.519531 203.753906 273.023438 204.054688 274.507812 204.429688 C 271.449219 209.675781 270.457031 216.121094 272.695312 221.925781 C 277.210938 233.660156 283.222656 242.011719 282.851562 255.191406 C 282.820312 256.390625 282.796875 257.699219 282.75 259.066406 "/>
<g clip-path="url(#clip1)" clip-rule="nonzero">
<path style=" stroke:none;fill-rule:nonzero;fill:rgb(75.289917%,14.509583%,23.139954%);fill-opacity:1;" d="M 284.625 275.652344 C 282.953125 244.308594 270.800781 218.347656 264.734375 211.667969 C 254 199.855469 228.441406 201.453125 228.441406 201.453125 L 220.390625 201.453125 C 220.390625 201.453125 194.835938 199.855469 184.101562 211.667969 C 178.035156 218.347656 165.886719 244.308594 164.21875 275.652344 C 162.367188 310.199219 163.636719 327.78125 163.636719 327.78125 C 163.636719 327.78125 167.792969 326.296875 179.003906 325.375 C 189.789062 324.496094 208.476562 331.984375 227.21875 331.984375 C 247.761719 331.984375 263.355469 324.875 274.527344 325.675781 C 284.140625 326.367188 288.988281 328.378906 288.988281 328.378906 C 288.988281 328.378906 286.464844 310.199219 284.625 275.652344 "/>
</g>
<g clip-path="url(#clip2)" clip-rule="nonzero">
<path style=" stroke:none;fill-rule:nonzero;fill:rgb(91.369629%,91.369629%,91.369629%);fill-opacity:1;" d="M 288.988281 328.378906 C 288.984375 328.359375 287.472656 317.441406 285.9375 296.476562 C 285.9375 296.472656 285.9375 296.464844 285.9375 296.460938 C 287.476562 317.402344 288.984375 328.359375 288.988281 328.378906 M 163.679688 287.304688 C 163.75 285.386719 163.832031 283.402344 163.933594 281.335938 C 163.835938 283.390625 163.753906 285.382812 163.679688 287.304688 "/>
</g>
<g clip-path="url(#clip3)" clip-rule="nonzero">
<path style=" stroke:none;fill-rule:nonzero;fill:rgb(69.018555%,12.939453%,21.179199%);fill-opacity:1;" d="M 227.21875 331.984375 C 209.519531 331.984375 191.871094 325.304688 180.875 325.304688 C 180.230469 325.304688 179.605469 325.328125 179.003906 325.375 C 167.792969 326.296875 163.941406 326.578125 163.941406 326.578125 C 163.941406 326.578125 162.675781 314 163.679688 287.304688 C 163.753906 285.382812 163.835938 283.390625 163.933594 281.335938 C 163.964844 280.667969 163.996094 279.992188 164.03125 279.308594 C 168.554688 284.941406 168.371094 297.085938 168.679688 302.261719 C 169.0625 308.640625 173.101562 312.199219 178.539062 314.667969 C 186.394531 318.246094 196.832031 317.542969 205.214844 318.035156 C 217.359375 318.746094 229.527344 318.976562 241.679688 319.363281 C 246.867188 319.535156 252.527344 320.105469 258.027344 320.105469 C 268.519531 320.105469 278.441406 318.019531 283.433594 307.070312 C 284.914062 303.808594 285.554688 300.179688 285.9375 296.476562 C 287.472656 317.441406 288.984375 328.359375 288.988281 328.378906 C 288.988281 328.378906 288.671875 328.246094 288.035156 328.035156 C 286.1875 327.429688 281.675781 326.1875 274.527344 325.675781 C 273.929688 325.636719 273.320312 325.613281 272.695312 325.613281 C 266.191406 325.613281 258.304688 327.832031 248.9375 329.648438 C 242.421875 330.910156 235.195312 331.984375 227.21875 331.984375 "/>
</g>
<path style=" stroke:none;fill-rule:nonzero;fill:rgb(69.018555%,12.939453%,21.179199%);fill-opacity:1;" d="M 230.34375 252.429688 C 225.113281 252.429688 219.621094 250.171875 214.542969 244.960938 C 204.109375 234.253906 197.667969 220.082031 189.472656 207.40625 C 190.085938 207.046875 190.714844 206.710938 191.355469 206.394531 C 191.390625 206.398438 191.425781 206.402344 191.460938 206.40625 C 191.601562 207.644531 191.957031 209.03125 192.492188 210.515625 C 196.417969 221.351562 210.171875 237.300781 223.640625 237.347656 C 223.640625 237.347656 223.644531 237.347656 223.648438 237.347656 C 223.652344 237.347656 223.65625 237.347656 223.664062 237.347656 C 223.675781 237.347656 223.6875 237.347656 223.695312 237.347656 C 223.695312 237.347656 223.699219 237.347656 223.699219 237.347656 C 223.714844 237.347656 223.726562 237.347656 223.738281 237.347656 C 223.742188 237.347656 223.75 237.347656 223.753906 237.347656 C 223.761719 237.347656 223.773438 237.347656 223.78125 237.347656 C 223.789062 237.347656 223.789062 237.347656 223.792969 237.347656 C 223.804688 237.347656 223.816406 237.347656 223.828125 237.347656 C 223.832031 237.347656 223.839844 237.347656 223.84375 237.347656 C 223.851562 237.347656 223.855469 237.347656 223.867188 237.347656 C 223.875 237.347656 223.878906 237.347656 223.882812 237.347656 C 223.890625 237.347656 223.90625 237.347656 223.917969 237.347656 C 223.921875 237.347656 223.929688 237.347656 223.9375 237.347656 C 223.941406 237.347656 223.949219 237.347656 223.953125 237.347656 C 223.960938 237.347656 223.964844 237.347656 223.976562 237.347656 C 223.980469 237.347656 223.984375 237.347656 223.988281 237.347656 C 224.003906 237.347656 224.019531 237.347656 224.03125 237.347656 C 224.03125 237.347656 224.035156 237.347656 224.039062 237.347656 C 224.050781 237.347656 224.058594 237.347656 224.066406 237.347656 C 224.066406 237.347656 224.066406 237.347656 224.070312 237.347656 C 224.089844 237.347656 224.105469 237.347656 224.125 237.34375 C 224.128906 237.34375 224.128906 237.34375 224.128906 237.34375 C 232.335938 237.1875 239.34375 232.390625 244.644531 226.355469 C 250.410156 219.78125 254.148438 211.738281 255.199219 206.585938 C 255.820312 206.488281 256.433594 206.386719 257.054688 206.285156 C 255.519531 213.792969 255.015625 221.695312 253.75 228.738281 C 251.304688 242.355469 241.398438 252.433594 230.34375 252.429688 "/>
<path style=" stroke:none;fill-rule:nonzero;fill:rgb(97.648621%,66.668701%,47.059631%);fill-opacity:1;" d="M 255.15625 159.164062 C 267.441406 144.144531 183.035156 143.246094 192.238281 159.164062 C 201.449219 175.085938 199.625 192.371094 192.238281 202.117188 C 187.144531 208.851562 205.6875 237.34375 223.695312 237.347656 C 244.582031 237.351562 257.847656 207.28125 255.15625 202.117188 C 249.664062 191.605469 242.867188 174.1875 255.15625 159.164062 "/>
<path style=" stroke:none;fill-rule:nonzero;fill:rgb(65.489197%,12.159729%,18.818665%);fill-opacity:1;" d="M 223.738281 237.347656 C 223.742188 237.347656 223.75 237.347656 223.753906 237.347656 C 223.75 237.347656 223.742188 237.347656 223.738281 237.347656 M 223.664062 237.347656 C 223.65625 237.347656 223.652344 237.347656 223.648438 237.347656 C 223.652344 237.347656 223.65625 237.347656 223.664062 237.347656 M 223.640625 237.347656 C 210.171875 237.300781 196.417969 221.351562 192.492188 210.515625 C 196.421875 221.347656 210.171875 237.300781 223.640625 237.347656 M 223.78125 237.347656 C 223.789062 237.347656 223.789062 237.347656 223.792969 237.347656 C 223.789062 237.347656 223.789062 237.347656 223.78125 237.347656 M 223.828125 237.347656 C 223.835938 237.347656 223.839844 237.347656 223.84375 237.347656 C 223.839844 237.347656 223.832031 237.347656 223.828125 237.347656 M 223.867188 237.347656 C 223.875 237.347656 223.878906 237.347656 223.882812 237.347656 C 223.878906 237.347656 223.875 237.347656 223.867188 237.347656 M 223.917969 237.347656 C 223.921875 237.347656 223.929688 237.347656 223.9375 237.347656 C 223.929688 237.347656 223.921875 237.347656 223.917969 237.347656 M 223.953125 237.347656 C 223.960938 237.347656 223.964844 237.347656 223.976562 237.347656 C 223.964844 237.347656 223.960938 237.347656 223.953125 237.347656 M 223.988281 237.347656 C 224 237.347656 224.019531 237.347656 224.03125 237.347656 C 224.019531 237.347656 224.003906 237.347656 223.988281 237.347656 M 224.039062 237.347656 C 224.050781 237.347656 224.058594 237.347656 224.066406 237.347656 C 224.058594 237.347656 224.050781 237.347656 224.039062 237.347656 M 224.070312 237.347656 C 224.089844 237.347656 224.105469 237.347656 224.125 237.34375 C 224.105469 237.347656 224.089844 237.347656 224.070312 237.347656 M 224.128906 237.34375 C 232.332031 237.1875 239.34375 232.390625 244.644531 226.355469 C 239.34375 232.390625 232.335938 237.1875 224.128906 237.34375 "/>
<path style=" stroke:none;fill-rule:nonzero;fill:rgb(92.158508%,58.81958%,39.219666%);fill-opacity:1;" d="M 223.699219 237.347656 C 223.699219 237.347656 223.695312 237.347656 223.695312 237.347656 C 223.6875 237.347656 223.675781 237.347656 223.664062 237.347656 C 223.65625 237.347656 223.652344 237.347656 223.648438 237.347656 C 223.644531 237.347656 223.640625 237.347656 223.640625 237.347656 C 210.171875 237.300781 196.421875 221.347656 192.492188 210.515625 C 198.046875 215.65625 204.269531 220.351562 209.671875 224.476562 C 214.863281 228.441406 219.945312 230.457031 224.984375 230.457031 C 230.089844 230.457031 235.15625 228.378906 240.230469 224.148438 C 244.378906 220.6875 249.847656 216.089844 253.933594 210.867188 C 252.171875 215.621094 248.984375 221.40625 244.644531 226.355469 C 239.34375 232.390625 232.332031 237.1875 224.128906 237.34375 C 224.128906 237.34375 224.128906 237.34375 224.125 237.34375 C 224.105469 237.347656 224.089844 237.347656 224.070312 237.347656 C 224.070312 237.347656 224.066406 237.347656 224.066406 237.347656 C 224.058594 237.347656 224.050781 237.347656 224.039062 237.347656 C 224.035156 237.347656 224.03125 237.347656 224.03125 237.347656 C 224.019531 237.347656 224 237.347656 223.988281 237.347656 C 223.984375 237.347656 223.980469 237.347656 223.976562 237.347656 C 223.964844 237.347656 223.960938 237.347656 223.953125 237.347656 C 223.949219 237.347656 223.941406 237.347656 223.9375 237.347656 C 223.929688 237.347656 223.921875 237.347656 223.917969 237.347656 C 223.90625 237.347656 223.890625 237.347656 223.882812 237.347656 C 223.878906 237.347656 223.875 237.347656 223.867188 237.347656 C 223.863281 237.347656 223.851562 237.347656 223.84375 237.347656 C 223.839844 237.347656 223.835938 237.347656 223.828125 237.347656 C 223.816406 237.347656 223.804688 237.347656 223.792969 237.347656 C 223.789062 237.347656 223.789062 237.347656 223.78125 237.347656 C 223.773438 237.347656 223.761719 237.347656 223.753906 237.347656 C 223.75 237.347656 223.742188 237.347656 223.738281 237.347656 C 223.726562 237.347656 223.71875 237.347656 223.699219 237.347656 "/>
<path style=" stroke:none;fill-rule:nonzero;fill:rgb(35.289001%,19.219971%,7.839966%);fill-opacity:1;" d="M 199.863281 172.480469 C 199.863281 194.03125 212.058594 201.453125 186.859375 201.453125 C 161.664062 201.453125 106.4375 181.726562 103.949219 139.484375 C 102.679688 117.972656 129.042969 133.464844 154.246094 133.464844 C 179.441406 133.464844 199.863281 150.933594 199.863281 172.480469 "/>
<path style=" stroke:none;fill-rule:nonzero;fill:rgb(35.289001%,19.219971%,7.839966%);fill-opacity:1;" d="M 246.265625 172.480469 C 246.265625 194.03125 228.964844 201.453125 253.925781 201.453125 C 278.890625 201.453125 338.824219 181.726562 341.292969 139.484375 C 342.550781 117.972656 316.429688 133.464844 291.46875 133.464844 C 266.503906 133.464844 246.265625 150.933594 246.265625 172.480469 "/>
<path style=" stroke:none;fill-rule:nonzero;fill:rgb(97.648621%,66.668701%,47.059631%);fill-opacity:1;" d="M 331.164062 130.042969 C 331.164062 72.707031 283.132812 26.222656 223.878906 26.222656 C 164.632812 26.222656 116.597656 72.707031 116.597656 130.042969 C 116.597656 176.996094 148.8125 199.890625 193.011719 206.652344 C 197.664062 212.152344 209.703125 216.074219 223.878906 216.074219 C 238.054688 216.074219 250.105469 212.152344 254.753906 206.652344 C 298.949219 199.890625 331.164062 176.996094 331.164062 130.042969 "/>
<path style=" stroke:none;fill-rule:nonzero;fill:rgb(92.158508%,58.81958%,39.219666%);fill-opacity:1;" d="M 316.742188 156.683594 C 313.601562 142.480469 304.367188 130.664062 303.628906 115.539062 C 303.386719 110.59375 299.222656 105.785156 294.191406 105.785156 C 293.285156 105.785156 292.363281 105.941406 291.421875 106.273438 C 284.816406 108.621094 279.746094 109.523438 273.835938 109.523438 C 271.492188 109.523438 269.019531 109.386719 266.265625 109.132812 C 255.574219 108.164062 245.125 105.738281 234.71875 103.210938 C 215.875 98.632812 194.792969 95.523438 178.324219 84.8125 C 176.941406 83.914062 175.316406 83.5 173.660156 83.5 C 169.398438 83.5 164.957031 86.25 164.15625 90.554688 C 162.984375 96.871094 155.8125 99.992188 151.316406 104.085938 C 146.050781 108.882812 143.589844 116.386719 142.210938 123.105469 C 139.875 134.46875 142.785156 148.046875 135.136719 153.882812 C 138.179688 146.300781 134.40625 125.585938 140.441406 111.789062 C 147.675781 95.269531 157.320312 98.871094 159.433594 77.84375 C 161.054688 77.347656 162.910156 77.121094 164.957031 77.121094 C 176.015625 77.121094 192.925781 83.71875 211.933594 90.320312 C 230.945312 96.917969 252.054688 103.519531 271.519531 103.519531 C 273.035156 103.519531 274.546875 103.476562 276.042969 103.394531 C 276.179688 103.464844 276.304688 103.53125 276.417969 103.597656 C 276.710938 103.765625 276.9375 103.898438 277.097656 103.988281 C 277.234375 104.070312 277.28125 104.097656 277.285156 104.097656 C 277.699219 104.429688 278.199219 104.589844 278.695312 104.589844 C 279.355469 104.589844 280.011719 104.300781 280.457031 103.746094 C 280.648438 103.507812 280.785156 103.242188 280.863281 102.964844 C 288.132812 102.070312 295.070312 100.03125 301.453125 96.46875 C 303.753906 97.917969 304.917969 100.054688 305.496094 102.679688 C 306.714844 108.429688 305.238281 116.464844 306.84375 124.753906 C 306.890625 125.011719 306.945312 125.261719 307 125.507812 C 308.234375 130.941406 311.40625 133.898438 314.015625 137.339844 C 314.335938 138.148438 314.722656 138.941406 315.1875 139.703125 C 315.96875 140.992188 316.585938 142.039062 317.109375 142.910156 C 317.265625 143.386719 317.40625 143.886719 317.523438 144.410156 C 318.101562 147.132812 318.089844 150.507812 317.085938 154.996094 C 317.121094 154.957031 317.152344 154.917969 317.179688 154.878906 C 317.160156 154.964844 317.140625 155.054688 317.121094 155.148438 C 317.132812 155.128906 317.144531 155.117188 317.15625 155.105469 C 317.027344 155.628906 316.886719 156.15625 316.742188 156.683594 M 132.800781 155.269531 C 133.0625 154.644531 133.300781 154 133.488281 153.3125 C 133.390625 153.914062 133.222656 154.535156 132.988281 155.183594 C 132.921875 155.210938 132.863281 155.238281 132.800781 155.269531 "/>
<path style=" stroke:none;fill-rule:nonzero;fill:rgb(21.179199%,47.059631%,47.839355%);fill-opacity:1;" d="M 257.226562 206.253906 C 258.796875 205.988281 260.347656 205.707031 261.882812 205.398438 C 260.347656 205.707031 258.792969 205.992188 257.226562 206.253906 M 261.910156 205.394531 C 261.929688 205.386719 261.945312 205.386719 261.960938 205.382812 C 261.945312 205.386719 261.925781 205.386719 261.910156 205.394531 M 262.027344 205.371094 C 262.035156 205.371094 262.042969 205.367188 262.046875 205.367188 C 262.039062 205.367188 262.035156 205.371094 262.027344 205.371094 M 262.117188 205.355469 C 262.121094 205.347656 262.128906 205.347656 262.132812 205.347656 C 262.128906 205.347656 262.121094 205.347656 262.117188 205.355469 "/>
<path style=" stroke:none;fill-rule:nonzero;fill:rgb(71.369934%,13.328552%,20.779419%);fill-opacity:1;" d="M 257.054688 206.285156 C 257.109375 206.277344 257.167969 206.265625 257.226562 206.253906 C 257.171875 206.265625 257.109375 206.277344 257.054688 206.285156 "/>
<path style=" stroke:none;fill-rule:nonzero;fill:rgb(65.489197%,12.159729%,18.818665%);fill-opacity:1;" d="M 255.199219 206.585938 C 255.820312 206.488281 256.4375 206.386719 257.054688 206.285156 C 256.433594 206.386719 255.820312 206.488281 255.199219 206.585938 "/>
<path style=" stroke:none;fill-rule:nonzero;fill:rgb(92.158508%,58.81958%,39.219666%);fill-opacity:1;" d="M 254.828125 206.640625 C 254.847656 206.640625 254.859375 206.636719 254.871094 206.636719 C 254.859375 206.636719 254.84375 206.640625 254.828125 206.640625 M 254.894531 206.632812 C 254.996094 206.613281 255.09375 206.601562 255.199219 206.585938 C 255.097656 206.601562 254.996094 206.613281 254.894531 206.632812 "/>
<path style=" stroke:none;fill-rule:nonzero;fill:rgb(92.158508%,58.81958%,39.219666%);fill-opacity:1;" d="M 223.878906 216.074219 C 209.703125 216.074219 197.664062 212.152344 193.011719 206.652344 C 155.746094 200.953125 127.007812 183.785156 118.902344 150.402344 C 122.75 148.820312 124.769531 148.101562 126.140625 147.277344 C 128.042969 150.4375 130.125 153.523438 132.386719 156.550781 C 150.683594 181.074219 190.363281 203.359375 220.390625 205.65625 C 222.554688 205.824219 224.652344 205.902344 226.691406 205.902344 C 255.5625 205.902344 273.675781 190.117188 301.558594 178.335938 C 309.953125 174.789062 317.375 169.664062 324.183594 163.644531 C 313.335938 186.480469 290.652344 199.605469 262.132812 205.347656 C 262.128906 205.347656 262.121094 205.347656 262.117188 205.355469 C 262.097656 205.359375 262.074219 205.363281 262.046875 205.367188 C 262.042969 205.367188 262.035156 205.371094 262.027344 205.371094 C 262.003906 205.375 261.984375 205.378906 261.960938 205.382812 C 261.945312 205.386719 261.929688 205.386719 261.910156 205.394531 C 261.898438 205.398438 261.890625 205.398438 261.882812 205.398438 C 260.347656 205.707031 258.796875 205.988281 257.226562 206.253906 C 257.167969 206.265625 257.109375 206.277344 257.054688 206.285156 C 256.4375 206.386719 255.820312 206.488281 255.199219 206.585938 C 255.09375 206.601562 254.996094 206.613281 254.894531 206.632812 C 254.886719 206.632812 254.882812 206.632812 254.871094 206.636719 C 254.859375 206.636719 254.847656 206.640625 254.828125 206.640625 C 254.804688 206.644531 254.777344 206.648438 254.753906 206.652344 C 250.105469 212.152344 238.054688 216.074219 223.878906 216.074219 "/>
<path style=" stroke:none;fill-rule:nonzero;fill:rgb(97.648621%,66.668701%,47.059631%);fill-opacity:1;" d="M 352.136719 117.417969 C 357.316406 125.949219 343.703125 156.957031 329.3125 150.945312 C 318.320312 146.34375 320.363281 148.234375 315.1875 139.703125 C 310.007812 131.175781 314.085938 119.269531 324.289062 113.121094 C 334.492188 106.96875 346.960938 108.886719 352.136719 117.417969 "/>
<path style=" stroke:none;fill-rule:nonzero;fill:rgb(92.158508%,58.81958%,39.219666%);fill-opacity:1;" d="M 331.152344 139.484375 C 326.601562 136.238281 331.398438 121.75 336.011719 118.011719 C 337.933594 116.453125 339.917969 115.710938 341.679688 115.710938 C 344.136719 115.710938 346.160156 117.152344 346.984375 119.832031 C 348.394531 124.433594 343.921875 131.117188 341.566406 135.203125 C 340.75 134.988281 339.878906 134.855469 338.980469 134.855469 C 336.339844 134.855469 333.488281 136 331.152344 139.484375 "/>
<path style=" stroke:none;fill-rule:nonzero;fill:rgb(84.309387%,50.19989%,36.079407%);fill-opacity:1;" d="M 329.859375 144.355469 C 326.710938 136.433594 330.0625 115.183594 338.753906 113.941406 C 348.746094 112.519531 349.960938 124.644531 349.960938 124.644531 C 349.960938 124.644531 349.089844 113.835938 338.394531 118.417969 C 333.523438 120.503906 330.277344 135.679688 330.804688 137.9375 C 335.800781 129.523438 341.566406 135.203125 341.566406 135.203125 C 341.566406 135.203125 332.777344 135.339844 329.859375 144.355469 "/>
<path style=" stroke:none;fill-rule:nonzero;fill:rgb(97.648621%,66.668701%,47.059631%);fill-opacity:1;" d="M 94.769531 117.417969 C 89.59375 125.949219 103.199219 156.957031 117.589844 150.945312 C 128.589844 146.34375 126.539062 148.234375 131.71875 139.703125 C 136.894531 131.175781 132.816406 119.269531 122.617188 113.121094 C 112.410156 106.96875 99.949219 108.886719 94.769531 117.417969 "/>
<path style=" stroke:none;fill-rule:nonzero;fill:rgb(92.158508%,58.81958%,39.219666%);fill-opacity:1;" d="M 115.753906 139.484375 C 113.417969 136 110.566406 134.855469 107.921875 134.855469 C 107.027344 134.855469 106.15625 134.988281 105.335938 135.203125 C 102.984375 131.117188 98.515625 124.433594 99.921875 119.832031 C 100.746094 117.152344 102.769531 115.710938 105.226562 115.710938 C 106.988281 115.710938 108.972656 116.453125 110.898438 118.011719 C 115.507812 121.75 120.3125 136.238281 115.753906 139.484375 "/>
<path style=" stroke:none;fill-rule:nonzero;fill:rgb(84.309387%,50.19989%,36.079407%);fill-opacity:1;" d="M 117.046875 144.355469 C 120.199219 136.433594 116.84375 115.183594 108.15625 113.941406 C 98.15625 112.519531 96.945312 124.644531 96.945312 124.644531 C 96.945312 124.644531 97.820312 113.835938 108.503906 118.417969 C 113.378906 120.503906 116.628906 135.679688 116.097656 137.9375 C 111.105469 129.523438 105.335938 135.203125 105.335938 135.203125 C 105.335938 135.203125 114.128906 135.339844 117.046875 144.355469 "/>
<path style=" stroke:none;fill-rule:nonzero;fill:rgb(92.158508%,58.81958%,39.219666%);fill-opacity:1;" d="M 225.546875 157.308594 C 221.855469 157.308594 218.5625 155.625 216.390625 152.980469 C 217.980469 153.777344 219.777344 154.242188 221.6875 154.242188 C 228.199219 154.242188 233.472656 148.984375 233.472656 142.492188 C 233.472656 139.609375 232.433594 136.972656 230.707031 134.929688 C 234.644531 136.839844 237.371094 140.855469 237.371094 145.523438 C 237.371094 152.035156 232.074219 157.308594 225.546875 157.308594 "/>
<path style=" stroke:none;fill-rule:nonzero;fill:rgb(20.779419%,12.159729%,9.01947%);fill-opacity:1;" d="M 277.539062 124.035156 C 277.539062 131.316406 270.613281 138.6875 262.589844 138.6875 C 254.558594 138.6875 250.40625 127.886719 250.40625 120.601562 C 250.40625 116.867188 254.972656 110.851562 263.007812 110.851562 C 271.03125 110.851562 277.539062 116.753906 277.539062 124.035156 "/>
<path style=" stroke:none;fill-rule:nonzero;fill:rgb(100%,100%,100%);fill-opacity:1;" d="M 274.808594 126.566406 C 274.808594 133.6875 269.011719 139.457031 261.875 139.457031 C 254.730469 139.457031 248.941406 133.6875 248.941406 126.566406 C 248.941406 119.453125 254.730469 113.675781 261.875 113.675781 C 269.011719 113.675781 274.808594 119.453125 274.808594 126.566406 "/>
<path style=" stroke:none;fill-rule:nonzero;fill:rgb(23.139954%,52.549744%,60.389709%);fill-opacity:1;" d="M 257.054688 118.230469 C 254.511719 118.230469 252.171875 119.042969 250.40625 120.601562 C 249.476562 122.382812 248.941406 124.53125 248.941406 126.679688 C 248.941406 131.660156 251.804688 135.929688 255.949219 138.078125 C 256.320312 138.117188 256.679688 138.1875 257.054688 138.1875 C 262.585938 138.1875 267.066406 133.722656 267.066406 128.210938 C 267.066406 122.695312 262.585938 118.230469 257.054688 118.230469 "/>
<path style=" stroke:none;fill-rule:nonzero;fill:rgb(29.40979%,56.469727%,63.919067%);fill-opacity:1;" d="M 261.460938 126.355469 C 261.195312 125.765625 260.820312 125.242188 260.363281 124.796875 C 261.289062 123.265625 262.074219 121.648438 262.703125 119.976562 C 264.085938 120.917969 265.214844 122.199219 265.972656 123.695312 C 266.378906 124.5 263.871094 125.71875 261.460938 126.355469 "/>
<path style=" stroke:none;fill-rule:nonzero;fill:rgb(20.779419%,12.159729%,9.01947%);fill-opacity:1;" d="M 276.75 126.894531 C 281.570312 128.210938 281.832031 122.304688 281.832031 122.304688 C 281.832031 122.304688 279.460938 124.765625 277.203125 122.765625 C 275.449219 121.210938 275.394531 126.144531 276.75 126.894531 "/>
<path style=" stroke:none;fill-rule:nonzero;fill:rgb(13.729858%,30.979919%,36.079407%);fill-opacity:1;" d="M 261.925781 128.511719 C 261.925781 131.382812 259.597656 133.710938 256.714844 133.710938 C 253.835938 133.710938 251.496094 131.382812 251.496094 128.511719 C 251.496094 125.636719 253.835938 123.308594 256.714844 123.308594 C 259.597656 123.308594 261.925781 125.636719 261.925781 128.511719 "/>
<path style=" stroke:none;fill-rule:nonzero;fill:rgb(18.03894%,43.528748%,50.588989%);fill-opacity:1;" d="M 251.753906 134.621094 C 250.027344 132.464844 248.964844 129.757812 248.941406 126.789062 C 248.941406 126.785156 248.941406 126.785156 248.941406 126.785156 C 248.941406 126.773438 248.941406 126.761719 248.941406 126.753906 C 248.941406 126.753906 248.941406 126.75 248.941406 126.746094 C 248.941406 126.738281 248.941406 126.726562 248.941406 126.722656 C 248.941406 126.71875 248.941406 126.714844 248.941406 126.710938 C 248.941406 126.703125 248.941406 126.6875 248.941406 126.679688 C 248.941406 124.53125 249.476562 122.382812 250.40625 120.601562 C 252.125 119.09375 254.378906 118.296875 256.832031 118.25 C 257.253906 119.878906 257.511719 121.628906 257.53125 123.371094 C 257.261719 123.332031 256.988281 123.308594 256.714844 123.308594 C 253.835938 123.308594 251.496094 125.636719 251.496094 128.511719 C 251.496094 130.394531 252.503906 132.046875 254.007812 132.960938 C 253.625 133.308594 253.203125 133.625 252.742188 133.914062 C 252.394531 134.136719 252.066406 134.378906 251.753906 134.621094 "/>
<path style=" stroke:none;fill-rule:nonzero;fill:rgb(10.978699%,26.269531%,30.589294%);fill-opacity:1;" d="M 254.007812 132.960938 C 252.503906 132.046875 251.496094 130.394531 251.496094 128.511719 C 251.496094 125.636719 253.835938 123.308594 256.714844 123.308594 C 256.988281 123.308594 257.261719 123.332031 257.53125 123.371094 C 257.574219 127.019531 256.589844 130.617188 254.007812 132.960938 "/>
<path style=" stroke:none;fill-rule:nonzero;fill:rgb(100%,100%,100%);fill-opacity:1;" d="M 269.230469 129.742188 L 258.828125 128.210938 L 269.296875 127.558594 Z M 269.230469 129.742188 "/>
<path style=" stroke:none;fill-rule:nonzero;fill:rgb(100%,100%,100%);fill-opacity:1;" d="M 270.46875 126.394531 L 260.007812 127.386719 L 268.546875 125.824219 Z M 270.46875 126.394531 "/>
<path style=" stroke:none;fill-rule:nonzero;fill:rgb(100%,100%,100%);fill-opacity:1;" d="M 266.96875 138.1875 L 258.828125 131.558594 L 266.003906 136.4375 Z M 266.96875 138.1875 "/>
<path style=" stroke:none;fill-rule:nonzero;fill:rgb(92.158508%,58.81958%,39.219666%);fill-opacity:1;" d="M 250.472656 149.46875 C 248.890625 149.46875 247.605469 148.792969 247.605469 147.96875 C 247.605469 147.136719 248.890625 146.460938 250.472656 146.460938 C 252.054688 146.460938 253.332031 147.136719 253.332031 147.96875 C 253.332031 148.792969 252.054688 149.46875 250.472656 149.46875 "/>
<path style=" stroke:none;fill-rule:nonzero;fill:rgb(92.158508%,58.81958%,39.219666%);fill-opacity:1;" d="M 258.003906 152.171875 C 256.585938 152.171875 255.441406 151.5625 255.441406 150.820312 C 255.441406 150.074219 256.585938 149.46875 258.003906 149.46875 C 259.417969 149.46875 260.566406 150.074219 260.566406 150.820312 C 260.566406 151.5625 259.417969 152.171875 258.003906 152.171875 "/>
<path style=" stroke:none;fill-rule:nonzero;fill:rgb(92.158508%,58.81958%,39.219666%);fill-opacity:1;" d="M 259.839844 146.460938 C 258.007812 146.460938 256.527344 145.792969 256.527344 144.957031 C 256.527344 144.132812 258.007812 143.457031 259.839844 143.457031 C 261.664062 143.457031 263.148438 144.132812 263.148438 144.957031 C 263.148438 145.792969 261.664062 146.460938 259.839844 146.460938 "/>
<path style=" stroke:none;fill-rule:nonzero;fill:rgb(92.158508%,58.81958%,39.219666%);fill-opacity:1;" d="M 265.773438 150.820312 C 264.320312 150.820312 263.148438 150.179688 263.148438 149.394531 C 263.148438 148.601562 264.320312 147.96875 265.773438 147.96875 C 267.226562 147.96875 268.398438 148.601562 268.398438 149.394531 C 268.398438 150.179688 267.226562 150.820312 265.773438 150.820312 "/>
<path style=" stroke:none;fill-rule:nonzero;fill:rgb(20.779419%,12.159729%,9.01947%);fill-opacity:1;" d="M 173.816406 124.035156 C 173.816406 131.316406 180.746094 138.6875 188.777344 138.6875 C 196.804688 138.6875 200.953125 127.886719 200.953125 120.601562 C 200.953125 116.867188 196.382812 110.851562 188.359375 110.851562 C 180.328125 110.851562 173.816406 116.753906 173.816406 124.035156 "/>
<path style=" stroke:none;fill-rule:nonzero;fill:rgb(100%,100%,100%);fill-opacity:1;" d="M 176.558594 126.566406 C 176.558594 133.6875 182.347656 139.457031 189.488281 139.457031 C 196.628906 139.457031 202.417969 133.6875 202.417969 126.566406 C 202.417969 119.453125 196.628906 113.675781 189.488281 113.675781 C 182.347656 113.675781 176.558594 119.453125 176.558594 126.566406 "/>
<path style=" stroke:none;fill-rule:nonzero;fill:rgb(23.139954%,52.549744%,60.389709%);fill-opacity:1;" d="M 194.304688 118.230469 C 196.847656 118.230469 199.179688 119.042969 200.953125 120.601562 C 201.878906 122.382812 202.417969 124.53125 202.417969 126.679688 C 202.417969 131.660156 199.550781 135.929688 195.40625 138.078125 C 195.039062 138.117188 194.683594 138.1875 194.304688 138.1875 C 188.78125 138.1875 184.292969 133.722656 184.292969 128.210938 C 184.292969 122.695312 188.78125 118.230469 194.304688 118.230469 "/>
<path style=" stroke:none;fill-rule:nonzero;fill:rgb(29.40979%,56.469727%,63.919067%);fill-opacity:1;" d="M 189.898438 126.355469 C 187.484375 125.71875 184.976562 124.5 185.386719 123.695312 C 186.140625 122.199219 187.269531 120.917969 188.652344 119.976562 C 189.28125 121.648438 190.070312 123.265625 190.996094 124.796875 C 190.542969 125.242188 190.167969 125.765625 189.898438 126.355469 "/>
<path style=" stroke:none;fill-rule:nonzero;fill:rgb(20.779419%,12.159729%,9.01947%);fill-opacity:1;" d="M 174.613281 126.894531 C 169.792969 128.210938 169.53125 122.304688 169.53125 122.304688 C 169.53125 122.304688 171.902344 124.765625 174.164062 122.765625 C 175.914062 121.210938 175.96875 126.144531 174.613281 126.894531 "/>
<path style=" stroke:none;fill-rule:nonzero;fill:rgb(13.729858%,30.979919%,36.079407%);fill-opacity:1;" d="M 189.429688 128.511719 C 189.429688 131.382812 191.769531 133.710938 194.652344 133.710938 C 197.53125 133.710938 199.863281 131.382812 199.863281 128.511719 C 199.863281 125.636719 197.53125 123.308594 194.652344 123.308594 C 191.769531 123.308594 189.429688 125.636719 189.429688 128.511719 "/>
<path style=" stroke:none;fill-rule:nonzero;fill:rgb(76.078796%,54.899597%,39.99939%);fill-opacity:1;" d="M 202.414062 126.789062 C 202.414062 126.785156 202.414062 126.785156 202.414062 126.78125 C 202.414062 126.785156 202.414062 126.785156 202.414062 126.789062 M 202.417969 126.753906 C 202.417969 126.753906 202.417969 126.75 202.417969 126.746094 C 202.417969 126.75 202.417969 126.753906 202.417969 126.753906 M 202.417969 126.71875 C 202.417969 126.71875 202.417969 126.714844 202.417969 126.710938 C 202.417969 126.714844 202.417969 126.71875 202.417969 126.71875 "/>
<path style=" stroke:none;fill-rule:nonzero;fill:rgb(17.248535%,10.5896%,7.449341%);fill-opacity:1;" d="M 200.953125 120.601562 C 200.953125 120.601562 200.945312 120.597656 200.945312 120.597656 C 200.945312 120.597656 200.953125 120.601562 200.953125 120.601562 "/>
<path style=" stroke:none;fill-rule:nonzero;fill:rgb(77.648926%,81.959534%,83.918762%);fill-opacity:1;" d="M 200.945312 120.597656 C 200.710938 120.390625 200.472656 120.199219 200.21875 120.023438 C 200.472656 120.199219 200.710938 120.390625 200.945312 120.597656 "/>
<path style=" stroke:none;fill-rule:nonzero;fill:rgb(18.03894%,43.528748%,50.588989%);fill-opacity:1;" d="M 199.609375 134.621094 C 199.296875 134.378906 198.964844 134.136719 198.613281 133.914062 C 198.15625 133.625 197.738281 133.308594 197.351562 132.960938 C 198.859375 132.046875 199.863281 130.394531 199.863281 128.511719 C 199.863281 125.636719 197.53125 123.308594 194.652344 123.308594 C 194.375 123.308594 194.097656 123.332031 193.828125 123.371094 C 193.847656 121.632812 194.101562 119.878906 194.527344 118.25 C 196.644531 118.289062 198.617188 118.886719 200.21875 120.023438 C 200.472656 120.199219 200.710938 120.390625 200.945312 120.597656 C 200.945312 120.597656 200.953125 120.601562 200.953125 120.601562 C 201.878906 122.382812 202.417969 124.53125 202.417969 126.679688 C 202.417969 126.695312 202.417969 126.703125 202.417969 126.710938 C 202.417969 126.714844 202.417969 126.71875 202.417969 126.71875 C 202.417969 126.726562 202.417969 126.738281 202.417969 126.746094 C 202.417969 126.75 202.417969 126.753906 202.417969 126.753906 C 202.417969 126.761719 202.414062 126.773438 202.414062 126.78125 C 202.414062 126.785156 202.414062 126.785156 202.414062 126.789062 C 202.390625 129.757812 201.335938 132.464844 199.609375 134.621094 "/>
<path style=" stroke:none;fill-rule:nonzero;fill:rgb(10.978699%,26.269531%,30.589294%);fill-opacity:1;" d="M 197.351562 132.960938 C 194.765625 130.621094 193.789062 127.019531 193.828125 123.371094 C 194.097656 123.332031 194.375 123.308594 194.652344 123.308594 C 197.53125 123.308594 199.863281 125.636719 199.863281 128.511719 C 199.863281 130.394531 198.859375 132.046875 197.351562 132.960938 "/>
<path style=" stroke:none;fill-rule:nonzero;fill:rgb(100%,100%,100%);fill-opacity:1;" d="M 182.136719 129.742188 L 192.527344 128.210938 L 182.054688 127.558594 Z M 182.136719 129.742188 "/>
<path style=" stroke:none;fill-rule:nonzero;fill:rgb(100%,100%,100%);fill-opacity:1;" d="M 180.894531 126.394531 L 191.355469 127.386719 L 182.808594 125.824219 Z M 180.894531 126.394531 "/>
<path style=" stroke:none;fill-rule:nonzero;fill:rgb(100%,100%,100%);fill-opacity:1;" d="M 184.390625 138.1875 L 192.527344 131.558594 L 185.351562 136.4375 Z M 184.390625 138.1875 "/>
<path style=" stroke:none;fill-rule:nonzero;fill:rgb(92.158508%,58.81958%,39.219666%);fill-opacity:1;" d="M 200.890625 149.46875 C 199.3125 149.46875 198.023438 148.792969 198.023438 147.96875 C 198.023438 147.136719 199.3125 146.460938 200.890625 146.460938 C 202.472656 146.460938 203.746094 147.136719 203.746094 147.96875 C 203.746094 148.792969 202.472656 149.46875 200.890625 149.46875 "/>
<path style=" stroke:none;fill-rule:nonzero;fill:rgb(92.158508%,58.81958%,39.219666%);fill-opacity:1;" d="M 193.351562 152.171875 C 191.9375 152.171875 190.796875 151.5625 190.796875 150.820312 C 190.796875 150.074219 191.9375 149.46875 193.351562 149.46875 C 194.769531 149.46875 195.917969 150.074219 195.917969 150.820312 C 195.917969 151.5625 194.769531 152.171875 193.351562 152.171875 "/>
<path style=" stroke:none;fill-rule:nonzero;fill:rgb(92.158508%,58.81958%,39.219666%);fill-opacity:1;" d="M 191.523438 146.460938 C 189.691406 146.460938 188.214844 145.792969 188.214844 144.957031 C 188.214844 144.132812 189.691406 143.457031 191.523438 143.457031 C 193.351562 143.457031 194.835938 144.132812 194.835938 144.957031 C 194.835938 145.792969 193.351562 146.460938 191.523438 146.460938 "/>
<path style=" stroke:none;fill-rule:nonzero;fill:rgb(92.158508%,58.81958%,39.219666%);fill-opacity:1;" d="M 185.585938 150.820312 C 184.140625 150.820312 182.960938 150.179688 182.960938 149.394531 C 182.960938 148.601562 184.140625 147.96875 185.585938 147.96875 C 187.035156 147.96875 188.214844 148.601562 188.214844 149.394531 C 188.214844 150.179688 187.035156 150.820312 185.585938 150.820312 "/>
<path style=" stroke:none;fill-rule:nonzero;fill:rgb(35.289001%,19.219971%,7.839966%);fill-opacity:1;" d="M 251.644531 100.949219 C 251.644531 100.949219 252.984375 99.65625 255.46875 98.371094 C 256.085938 98.046875 256.769531 97.714844 257.519531 97.40625 C 258.261719 97.089844 259.074219 96.8125 259.9375 96.578125 C 260.789062 96.320312 261.699219 96.117188 262.632812 95.988281 C 263.570312 95.839844 264.535156 95.773438 265.507812 95.726562 L 266.964844 95.730469 C 267.4375 95.761719 267.902344 95.785156 268.363281 95.8125 C 268.828125 95.851562 269.335938 95.917969 269.816406 95.992188 C 270.28125 96.078125 270.738281 96.160156 271.191406 96.242188 C 272.074219 96.46875 272.929688 96.691406 273.714844 96.988281 C 274.5 97.28125 275.230469 97.582031 275.894531 97.890625 C 276.558594 98.195312 277.136719 98.53125 277.65625 98.835938 C 278.171875 99.132812 278.609375 99.421875 278.960938 99.679688 C 279.308594 99.9375 279.589844 100.144531 279.78125 100.304688 C 279.996094 100.484375 280.105469 100.582031 280.105469 100.582031 C 281.078125 101.359375 281.238281 102.773438 280.457031 103.746094 C 279.679688 104.714844 278.257812 104.871094 277.285156 104.097656 C 277.292969 104.105469 277.25 104.078125 277.097656 103.988281 C 276.9375 103.898438 276.710938 103.765625 276.417969 103.597656 C 276.113281 103.433594 275.738281 103.226562 275.304688 102.996094 C 274.878906 102.761719 274.363281 102.535156 273.816406 102.269531 C 273.273438 102.003906 272.667969 101.75 272.015625 101.492188 C 271.363281 101.253906 270.675781 100.980469 269.949219 100.75 C 269.585938 100.636719 269.21875 100.519531 268.84375 100.398438 C 268.484375 100.292969 268.113281 100.183594 267.738281 100.074219 C 267.332031 99.980469 266.917969 99.882812 266.507812 99.789062 L 265.296875 99.574219 C 264.492188 99.464844 263.664062 99.367188 262.847656 99.347656 C 262.5625 99.328125 262.285156 99.332031 262.003906 99.332031 C 261.878906 99.335938 261.753906 99.335938 261.625 99.335938 C 261.21875 99.324219 260.820312 99.335938 260.421875 99.367188 C 259.628906 99.394531 258.867188 99.5 258.136719 99.597656 C 257.402344 99.695312 256.714844 99.832031 256.078125 99.976562 C 254.804688 100.261719 253.765625 100.632812 253.039062 100.886719 C 252.308594 101.152344 251.914062 101.34375 251.914062 101.34375 C 251.796875 101.402344 251.648438 101.351562 251.59375 101.230469 L 251.640625 100.953125 L 251.644531 100.949219 "/>
<path style=" stroke:none;fill-rule:nonzero;fill:rgb(35.289001%,19.219971%,7.839966%);fill-opacity:1;" d="M 196.28125 101.34375 C 196.28125 101.34375 195.886719 101.152344 195.160156 100.886719 C 194.425781 100.632812 193.390625 100.261719 192.117188 99.976562 C 191.484375 99.832031 190.796875 99.695312 190.058594 99.597656 C 189.332031 99.5 188.566406 99.394531 187.773438 99.367188 C 187.378906 99.335938 186.980469 99.324219 186.570312 99.335938 C 186.167969 99.335938 185.761719 99.316406 185.351562 99.347656 C 184.53125 99.367188 183.710938 99.464844 182.894531 99.574219 L 181.691406 99.789062 C 181.28125 99.882812 180.871094 99.980469 180.460938 100.074219 C 180.089844 100.183594 179.71875 100.292969 179.355469 100.398438 C 178.980469 100.515625 178.613281 100.636719 178.25 100.75 C 177.523438 100.980469 176.835938 101.253906 176.183594 101.492188 C 175.53125 101.75 174.925781 102.003906 174.382812 102.269531 C 173.835938 102.535156 173.324219 102.761719 172.894531 102.996094 C 172.464844 103.226562 172.089844 103.425781 171.785156 103.597656 C 171.492188 103.765625 171.265625 103.898438 171.109375 103.988281 C 170.953125 104.078125 170.914062 104.101562 170.921875 104.097656 C 169.949219 104.871094 168.523438 104.714844 167.746094 103.746094 C 166.96875 102.773438 167.121094 101.359375 168.09375 100.582031 C 168.09375 100.582031 168.210938 100.488281 168.421875 100.304688 C 168.609375 100.144531 168.890625 99.9375 169.242188 99.679688 C 169.59375 99.421875 170.03125 99.132812 170.546875 98.835938 C 171.066406 98.53125 171.640625 98.195312 172.308594 97.890625 C 172.972656 97.582031 173.703125 97.277344 174.484375 96.988281 C 175.265625 96.691406 176.125 96.46875 177.011719 96.242188 C 177.460938 96.160156 177.917969 96.074219 178.382812 95.992188 C 178.855469 95.917969 179.375 95.851562 179.832031 95.8125 C 180.296875 95.785156 180.761719 95.761719 181.230469 95.730469 L 182.691406 95.726562 C 183.664062 95.773438 184.628906 95.839844 185.566406 95.992188 C 186.5 96.117188 187.40625 96.320312 188.261719 96.578125 C 189.121094 96.816406 189.933594 97.089844 190.679688 97.40625 C 191.425781 97.714844 192.109375 98.046875 192.726562 98.371094 C 195.210938 99.65625 196.550781 100.949219 196.550781 100.949219 L 196.554688 100.953125 L 196.5625 101.292969 L 196.28125 101.34375 "/>
<path style=" stroke:none;fill-rule:nonzero;fill:rgb(35.289001%,19.219971%,7.839966%);fill-opacity:1;" d="M 342.265625 110.234375 C 342.222656 52.929688 287.152344 9.503906 225.984375 7.097656 C 193.382812 5.816406 152.5625 9.402344 131.671875 36.238281 C 111.179688 37.433594 90.085938 90.582031 97.8125 113.828125 C 97.8125 113.828125 108.625 103.328125 123.835938 115.707031 C 124.1875 115.996094 124.070312 129.214844 126.25 135.667969 C 129.222656 144.492188 136.476562 148.476562 132.386719 156.550781 C 140.03125 154.625 133.179688 128.160156 140.40625 111.632812 C 147.640625 95.113281 157.285156 98.722656 159.390625 77.691406 C 169.777344 74.515625 189.367188 82.339844 211.902344 90.167969 C 241.335938 100.386719 275.816406 110.605469 301.417969 96.316406 C 308.773438 100.953125 304.488281 112.578125 306.84375 124.753906 C 309.203125 136.945312 321.109375 136.96875 317.085938 154.996094 C 327.734375 141.574219 320.507812 118.148438 329.320312 110.789062 C 336.832031 108.171875 342.265625 110.234375 342.265625 110.234375 "/>
<path style=" stroke:none;fill-rule:nonzero;fill:rgb(82.749939%,50.19989%,35.688782%);fill-opacity:1;" d="M 132.820312 156.550781 C 132.835938 156.5 132.84375 156.449219 132.851562 156.394531 C 133.808594 155.996094 134.507812 155.160156 135.019531 153.972656 C 135.058594 153.941406 135.097656 153.914062 135.136719 153.882812 C 134.605469 155.210938 133.863281 156.132812 132.820312 156.550781 "/>
<path style=" stroke:none;fill-rule:nonzero;fill:rgb(78.42865%,44.709778%,30.198669%);fill-opacity:1;" d="M 135.019531 153.972656 C 138.230469 146.582031 134.308594 125.570312 140.40625 111.632812 C 147.640625 95.113281 157.285156 98.722656 159.390625 77.691406 C 161.019531 77.195312 162.867188 76.96875 164.921875 76.96875 C 175.980469 76.96875 192.890625 83.566406 211.902344 90.167969 C 230.90625 96.765625 252.019531 103.367188 271.484375 103.367188 C 272.929688 103.367188 274.363281 103.332031 275.785156 103.253906 C 275.871094 103.300781 275.960938 103.347656 276.042969 103.394531 C 274.546875 103.476562 273.035156 103.519531 271.519531 103.519531 C 252.054688 103.519531 230.945312 96.917969 211.933594 90.320312 C 192.925781 83.71875 176.015625 77.121094 164.957031 77.121094 C 162.910156 77.121094 161.054688 77.347656 159.433594 77.84375 C 157.320312 98.871094 147.675781 95.269531 140.441406 111.789062 C 134.40625 125.585938 138.179688 146.300781 135.136719 153.882812 C 135.097656 153.914062 135.058594 153.941406 135.019531 153.972656 "/>
<path style=" stroke:none;fill-rule:nonzero;fill:rgb(82.749939%,50.19989%,35.688782%);fill-opacity:1;" d="M 317.15625 155.105469 C 317.179688 155.007812 317.203125 154.914062 317.226562 154.820312 C 318.136719 153.648438 318.914062 152.402344 319.578125 151.097656 C 319.566406 151.164062 319.550781 151.234375 319.535156 151.296875 C 318.847656 152.625 318.09375 153.914062 317.15625 155.105469 "/>
<path style=" stroke:none;fill-rule:nonzero;fill:rgb(78.42865%,44.709778%,30.198669%);fill-opacity:1;" d="M 317.121094 155.148438 C 317.140625 155.054688 317.160156 154.964844 317.179688 154.878906 C 317.195312 154.859375 317.207031 154.839844 317.226562 154.820312 C 317.203125 154.914062 317.179688 155.007812 317.15625 155.105469 C 317.144531 155.117188 317.132812 155.128906 317.121094 155.148438 "/>
<path style=" stroke:none;fill-rule:nonzero;fill:rgb(82.749939%,50.19989%,35.688782%);fill-opacity:1;" d="M 133.53125 150.816406 C 133.480469 150.445312 133.40625 150.085938 133.3125 149.730469 C 133.3125 149.703125 133.3125 149.671875 133.304688 149.640625 C 133.40625 150.027344 133.484375 150.414062 133.53125 150.816406 "/>
<path style=" stroke:none;fill-rule:nonzero;fill:rgb(78.42865%,44.709778%,30.198669%);fill-opacity:1;" d="M 317.523438 144.410156 C 317.40625 143.886719 317.265625 143.386719 317.109375 142.910156 C 317.117188 142.933594 317.128906 142.949219 317.140625 142.964844 C 317.289062 143.425781 317.414062 143.910156 317.523438 144.410156 M 314.015625 137.339844 C 311.40625 133.898438 308.234375 130.941406 307 125.507812 C 308.25 130.8125 311.355469 133.746094 313.9375 137.121094 C 313.964844 137.195312 313.988281 137.265625 314.015625 137.339844 "/>
<path style=" stroke:none;fill-rule:nonzero;fill:rgb(82.749939%,50.19989%,35.688782%);fill-opacity:1;" d="M 317.140625 142.964844 C 317.128906 142.949219 317.117188 142.933594 317.109375 142.910156 C 316.382812 140.730469 315.269531 138.980469 314.015625 137.339844 C 313.988281 137.265625 313.964844 137.195312 313.9375 137.121094 C 315.242188 138.835938 316.414062 140.660156 317.140625 142.964844 "/>
<path style=" stroke:none;fill-rule:nonzero;fill:rgb(78.42865%,44.709778%,30.198669%);fill-opacity:1;" d="M 280.863281 102.964844 C 280.878906 102.914062 280.894531 102.859375 280.90625 102.804688 C 288.148438 101.90625 295.058594 99.867188 301.417969 96.316406 C 303.765625 97.796875 304.925781 99.988281 305.496094 102.679688 C 304.917969 100.054688 303.753906 97.917969 301.453125 96.46875 C 295.070312 100.03125 288.132812 102.070312 280.863281 102.964844 "/>
<path style=" stroke:none;fill-rule:nonzero;fill:rgb(30.589294%,15.289307%,6.669617%);fill-opacity:1;" d="M 276.042969 103.394531 C 275.960938 103.347656 275.871094 103.300781 275.785156 103.253906 C 277.507812 103.164062 279.214844 103.015625 280.90625 102.804688 C 280.894531 102.859375 280.878906 102.914062 280.863281 102.964844 C 279.269531 103.164062 277.664062 103.300781 276.042969 103.394531 "/>
<path style=" stroke:none;fill-rule:nonzero;fill:rgb(30.589294%,15.289307%,6.669617%);fill-opacity:1;" d="M 132.851562 156.394531 C 132.914062 156.046875 132.957031 155.691406 133.007812 155.335938 C 133.617188 153.695312 133.742188 152.214844 133.53125 150.816406 C 133.484375 150.414062 133.40625 150.027344 133.304688 149.640625 C 133.261719 148.464844 133.179688 147.285156 133.007812 146.09375 C 131.804688 137.652344 130.164062 129.53125 129.96875 120.945312 C 129.773438 112.40625 135.722656 106.320312 139.183594 99.035156 C 141.234375 96.261719 142.878906 92.964844 144.285156 89.402344 C 149.324219 76.683594 158.355469 64.527344 172.746094 64.527344 C 174.386719 64.527344 176.09375 64.6875 177.875 65.019531 C 185.730469 66.488281 193.429688 72.015625 200.703125 75.203125 C 209.082031 78.878906 218.097656 80.351562 226.851562 82.914062 C 242.933594 87.625 255.496094 94.9375 272.691406 95.269531 C 272.917969 95.273438 273.140625 95.273438 273.363281 95.273438 C 280.035156 95.273438 286.511719 93.453125 292.832031 91.519531 C 296.269531 90.46875 301.390625 88.234375 305.277344 88.234375 C 308.1875 88.234375 310.402344 89.488281 310.695312 93.4375 C 311.691406 106.988281 310.726562 117.191406 316.34375 130.210938 C 319.46875 137.457031 321.222656 143.644531 319.578125 151.097656 C 318.914062 152.402344 318.136719 153.648438 317.226562 154.820312 C 317.207031 154.839844 317.195312 154.859375 317.179688 154.878906 C 318.140625 150.4375 318.125 147.105469 317.523438 144.410156 C 317.414062 143.910156 317.289062 143.425781 317.140625 142.964844 C 316.414062 140.660156 315.242188 138.835938 313.9375 137.121094 C 311.355469 133.746094 308.25 130.8125 307 125.507812 C 306.957031 125.308594 306.917969 125.109375 306.878906 124.90625 C 305.261719 116.539062 306.773438 108.4375 305.496094 102.679688 C 304.925781 99.988281 303.765625 97.796875 301.417969 96.316406 C 295.058594 99.867188 288.148438 101.90625 280.90625 102.804688 C 279.214844 103.015625 277.507812 103.164062 275.785156 103.253906 C 274.363281 103.332031 272.929688 103.367188 271.484375 103.367188 C 252.019531 103.367188 230.90625 96.765625 211.902344 90.167969 C 192.890625 83.566406 175.980469 76.96875 164.921875 76.96875 C 162.867188 76.96875 161.019531 77.195312 159.390625 77.691406 C 157.285156 98.722656 147.640625 95.113281 140.40625 111.632812 C 134.308594 125.570312 138.230469 146.582031 135.019531 153.972656 C 134.507812 155.160156 133.808594 155.996094 132.851562 156.394531 "/>
<path style=" stroke:none;fill-rule:nonzero;fill:rgb(39.99939%,22.349548%,8.239746%);fill-opacity:1;" d="M 270.992188 90.582031 C 257.339844 90.582031 243.9375 86.640625 230.902344 81.984375 C 215.136719 76.359375 198.886719 60.710938 185.261719 60.652344 C 185.488281 60.648438 185.746094 60.644531 186.042969 60.644531 C 190.617188 60.644531 203.332031 61.105469 213.1875 65.796875 C 211.355469 63.175781 208.464844 60.667969 206.042969 58.738281 C 210.363281 59.808594 214.960938 61.871094 219.351562 63.175781 C 223.058594 64.277344 227.871094 66.761719 231.9375 66.761719 C 232.5 66.761719 233.046875 66.714844 233.578125 66.605469 C 232.253906 65.5625 230.121094 63.953125 228.9375 62.953125 C 231.871094 63.46875 234.632812 64.710938 237.753906 64.710938 C 237.96875 64.710938 238.183594 64.707031 238.398438 64.691406 C 233.773438 60.363281 227.132812 57.199219 221.6875 53.78125 C 215.339844 49.792969 209.738281 46.714844 202.417969 40.746094 C 208.679688 43.644531 218.554688 47.199219 224.175781 51.46875 C 231.316406 56.878906 239.3125 59.859375 247.683594 62.785156 C 253.914062 64.957031 260.007812 66.269531 266.375 67.46875 C 269.453125 68.050781 281.15625 69.089844 281.46875 72.628906 C 279.574219 73.230469 277.351562 73.402344 275.046875 73.402344 C 273.488281 73.402344 271.894531 73.320312 270.34375 73.242188 C 268.792969 73.164062 267.285156 73.085938 265.894531 73.085938 C 265.886719 73.085938 265.875 73.085938 265.859375 73.085938 C 265.851562 73.085938 265.847656 73.085938 265.839844 73.085938 C 263.535156 73.085938 261.269531 72.574219 259.015625 72.058594 C 256.765625 71.550781 254.535156 71.039062 252.3125 71.039062 C 251.75 71.039062 251.191406 71.070312 250.628906 71.140625 C 252.964844 75.113281 259.46875 74.894531 262.207031 78.210938 C 258.261719 77.796875 254.132812 77.539062 249.933594 77.46875 C 253.3125 79.449219 258.96875 79.988281 262.953125 80.988281 C 268.167969 82.300781 273.386719 82.640625 278.808594 82.703125 C 287.996094 82.800781 297.089844 84.167969 306.320312 84.785156 C 303.796875 86.699219 299.023438 86.351562 295.980469 87.207031 C 291.757812 88.394531 287.726562 88.578125 283.4375 89.410156 C 279.269531 90.21875 275.117188 90.582031 270.992188 90.582031 M 184.304688 60.671875 C 184.597656 60.65625 184.890625 60.648438 185.183594 60.648438 C 185.207031 60.648438 185.234375 60.648438 185.261719 60.652344 C 184.644531 60.65625 184.304688 60.671875 184.304688 60.671875 "/>
<path style=" stroke:none;fill-rule:nonzero;fill:rgb(39.99939%,22.349548%,8.239746%);fill-opacity:1;" d="M 132.871094 71.59375 C 133.261719 68.554688 134 65.425781 134.753906 62.371094 C 135.394531 59.738281 138.234375 56.035156 137.933594 53.390625 C 137.390625 53.800781 136.476562 53.960938 135.921875 54.4375 C 136.296875 53.210938 136.886719 51.941406 137.367188 50.703125 C 131.496094 51.882812 123.648438 60.757812 122.382812 66.785156 C 123.355469 61.902344 126.558594 53.699219 130.671875 50.632812 C 128.910156 50.773438 126.230469 51.933594 125.097656 53.019531 C 126.316406 51.210938 127.015625 49.164062 128.957031 47.640625 C 130.71875 46.269531 133.003906 45.71875 134.683594 44.648438 L 135.285156 44.34375 C 135.542969 41.292969 139.882812 40.648438 142.105469 39.519531 C 140.621094 41.070312 139.449219 42.894531 138.339844 44.597656 C 143.164062 43.949219 147.765625 40.109375 152.671875 39.300781 C 148.753906 42.171875 144.152344 44.425781 141.648438 48.804688 C 143.328125 48.496094 145.105469 47.46875 146.632812 46.5625 C 145.59375 47.746094 144.574219 48.929688 143.84375 50.320312 C 147.878906 48.644531 154.101562 45.851562 158.464844 45.609375 C 154.21875 48.246094 148.824219 50.304688 145.789062 54.757812 C 147.480469 53.882812 149.53125 52.355469 151.558594 52.355469 C 152.125 52.355469 152.6875 52.472656 153.246094 52.761719 C 150.996094 54.082031 148.574219 54.074219 146.445312 55.746094 C 144.515625 57.269531 142.820312 59.59375 141.292969 61.363281 C 141.617188 60.5625 141.441406 59.886719 141.554688 59.101562 C 137.921875 61.859375 134.570312 67.414062 132.871094 71.59375 M 122.320312 67.089844 C 122.34375 66.988281 122.363281 66.890625 122.382812 66.785156 C 122.363281 66.890625 122.34375 66.988281 122.320312 67.089844 "/>
<path style=" stroke:none;fill-rule:nonzero;fill:rgb(59.609985%,14.509583%,19.219971%);fill-opacity:1;" d="M 193.828125 170.628906 C 194.652344 175.820312 207.898438 188.351562 225.085938 188.363281 C 242.160156 188.375 255.441406 175.421875 255.441406 170.488281 C 245.773438 174.621094 240.148438 172.152344 225.085938 172.152344 C 210.015625 172.152344 204.796875 174.621094 193.828125 170.628906 "/>
<path style=" stroke:none;fill-rule:nonzero;fill:rgb(79.219055%,19.60907%,26.669312%);fill-opacity:1;" d="M 205.3125 182.707031 C 210.636719 185.898438 217.476562 188.359375 225.085938 188.363281 C 232.949219 188.367188 240.011719 185.625 245.335938 182.179688 C 248.300781 180.261719 226.296875 179.828125 225.285156 182.230469 C 222.269531 179.425781 201.785156 180.601562 205.3125 182.707031 "/>
<path style=" stroke:none;fill-rule:nonzero;fill:rgb(100%,100%,100%);fill-opacity:1;" d="M 225.785156 179.421875 C 246.074219 179.421875 249.355469 177.550781 249.894531 176.9375 C 251.941406 174.644531 253.09375 172.507812 253.09375 171.0625 C 243.421875 175.195312 240.148438 172.152344 225.085938 172.152344 C 210.015625 172.152344 207.449219 175.6875 196.484375 171.695312 C 196.710938 173.101562 197.863281 175.058594 199.761719 177.160156 C 200.386719 177.855469 205.496094 179.421875 225.785156 179.421875 "/>
<path style=" stroke:none;fill-rule:nonzero;fill:rgb(84.309387%,50.19989%,36.079407%);fill-opacity:1;" d="M 189.765625 169.058594 C 189.765625 169.058594 190.816406 169.414062 192.671875 169.933594 C 194.527344 170.453125 197.191406 171.15625 200.40625 171.667969 C 202.011719 171.90625 203.761719 172.085938 205.570312 172.074219 C 206.4375 172.066406 207.46875 171.984375 208.445312 171.941406 C 209.421875 171.871094 210.421875 171.804688 211.4375 171.730469 C 213.488281 171.566406 215.59375 171.324219 217.78125 171.167969 C 219.953125 171 222.191406 170.863281 224.4375 170.847656 C 226.714844 170.835938 228.914062 171.023438 231.078125 171.117188 C 233.246094 171.242188 235.414062 171.472656 237.453125 171.621094 C 238.480469 171.703125 239.492188 171.789062 240.476562 171.867188 C 241.457031 171.929688 242.421875 171.988281 243.355469 172.046875 C 243.804688 172.074219 244.320312 172.121094 244.703125 172.121094 C 245.171875 172.121094 245.625 172.113281 246.015625 172.078125 C 246.824219 172.039062 247.6875 171.910156 248.476562 171.78125 C 251.671875 171.210938 254.332031 170.453125 256.179688 169.929688 C 258.035156 169.398438 259.09375 169.058594 259.09375 169.058594 C 259.09375 169.058594 258.128906 169.601562 256.367188 170.421875 C 254.601562 171.230469 252.066406 172.359375 248.804688 173.261719 C 247.976562 173.480469 247.144531 173.695312 246.179688 173.839844 C 245.691406 173.929688 245.238281 173.957031 244.777344 173.992188 C 244.246094 174.023438 243.824219 174.007812 243.324219 174.015625 C 242.367188 174.023438 241.378906 174.03125 240.371094 174.039062 C 239.375 174.003906 238.351562 173.96875 237.316406 173.933594 C 235.230469 173.847656 233.132812 173.777344 230.964844 173.652344 C 228.789062 173.585938 226.589844 173.4375 224.445312 173.472656 C 222.285156 173.460938 220.109375 173.558594 217.957031 173.699219 C 215.804688 173.84375 213.652344 173.941406 211.578125 174.035156 C 210.53125 174.0625 209.488281 174.109375 208.480469 174.101562 C 207.46875 174.074219 206.550781 174.089844 205.527344 174.03125 C 203.542969 173.925781 201.730469 173.558594 200.101562 173.148438 C 196.832031 172.304688 194.257812 171.230469 192.492188 170.425781 C 190.726562 169.617188 189.765625 169.058594 189.765625 169.058594 "/>
<path style=" stroke:none;fill-rule:nonzero;fill:rgb(84.309387%,50.19989%,36.079407%);fill-opacity:1;" d="M 215.730469 192.449219 C 215.730469 192.449219 216.089844 192.585938 216.695312 192.867188 C 216.992188 193 217.359375 193.207031 217.777344 193.34375 C 218.199219 193.488281 218.644531 193.679688 219.144531 193.847656 C 219.679688 193.976562 220.210938 194.175781 220.808594 194.304688 C 221.40625 194.421875 222.015625 194.574219 222.671875 194.632812 C 222.996094 194.667969 223.320312 194.738281 223.65625 194.761719 C 223.992188 194.777344 224.332031 194.800781 224.671875 194.820312 C 225.359375 194.847656 226.054688 194.855469 226.753906 194.820312 C 227.453125 194.792969 228.148438 194.738281 228.84375 194.652344 C 229.53125 194.589844 230.203125 194.457031 230.867188 194.359375 C 231.515625 194.222656 232.167969 194.128906 232.765625 193.972656 C 233.371094 193.839844 233.933594 193.679688 234.46875 193.550781 C 235 193.398438 235.488281 193.257812 235.917969 193.136719 C 236.335938 192.988281 236.722656 192.882812 237.039062 192.78125 C 237.652344 192.558594 238.027344 192.449219 238.027344 192.449219 C 238.027344 192.449219 237.773438 192.730469 237.28125 193.195312 C 236.773438 193.636719 236.019531 194.242188 235.011719 194.820312 C 234.015625 195.414062 232.773438 195.972656 231.382812 196.425781 C 230.679688 196.621094 229.953125 196.847656 229.1875 196.957031 C 228.429688 197.109375 227.644531 197.179688 226.855469 197.222656 C 226.066406 197.242188 225.265625 197.230469 224.488281 197.144531 C 223.714844 197.050781 222.953125 196.933594 222.238281 196.710938 C 221.507812 196.558594 220.847656 196.242188 220.21875 195.996094 C 219.589844 195.742188 219.050781 195.363281 218.542969 195.082031 C 218.042969 194.769531 217.628906 194.390625 217.257812 194.097656 C 216.867188 193.820312 216.636719 193.488281 216.40625 193.25 C 215.964844 192.753906 215.730469 192.449219 215.730469 192.449219 "/>
<g clip-path="url(#clip4)" clip-rule="nonzero">
<path style=" stroke:none;fill-rule:nonzero;fill:rgb(97.648621%,66.668701%,47.059631%);fill-opacity:1;" d="M 321.4375 267.300781 C 324.445312 272.308594 326.054688 302.75 323.246094 310.355469 C 320.074219 318.929688 274.828125 335.289062 274.828125 335.289062 C 274.828125 335.289062 261.722656 328.078125 268.351562 322.667969 C 274.976562 317.265625 283.167969 298.742188 297.332031 299.34375 L 291.902344 282.921875 L 321.4375 267.300781 "/>
</g>
<g clip-path="url(#clip5)" clip-rule="nonzero">
<path style=" stroke:none;fill-rule:nonzero;fill:rgb(97.648621%,66.668701%,47.059631%);fill-opacity:1;" d="M 128.085938 267.695312 C 125.070312 272.707031 123.464844 303.148438 126.277344 310.757812 C 129.449219 319.328125 174.691406 335.691406 174.691406 335.691406 C 174.691406 335.691406 187.800781 328.480469 181.167969 323.074219 C 174.539062 317.667969 166.355469 299.144531 152.191406 299.742188 L 157.617188 283.316406 L 128.085938 267.695312 "/>
</g>
</g>
</svg>
