<?xml version="1.0" encoding="UTF-8"?>
<svg xmlns="http://www.w3.org/2000/svg" xmlns:xlink="http://www.w3.org/1999/xlink" width="419.25pt" height="297.75pt" viewBox="0 0 419.25 297.75" version="1.2">
<defs>
<clipPath id="clip1">
  <path d="M 98.277344 255.636719 L 327 255.636719 L 327 297.359375 L 98.277344 297.359375 Z M 98.277344 255.636719 "/>
</clipPath>
<clipPath id="clip2">
  <path d="M 98.277344 260.035156 L 153.257812 260.035156 L 153.257812 297.359375 L 98.277344 297.359375 Z M 98.277344 260.035156 "/>
</clipPath>
<clipPath id="clip3">
  <path d="M 273.628906 260.035156 L 327 260.035156 L 327 297.359375 L 273.628906 297.359375 Z M 273.628906 260.035156 "/>
</clipPath>
<clipPath id="clip4">
  <path d="M 273.628906 260.035156 L 327 260.035156 L 327 297.359375 L 273.628906 297.359375 Z M 273.628906 260.035156 "/>
</clipPath>
<clipPath id="clip5">
  <path d="M 98.277344 260.035156 L 153.257812 260.035156 L 153.257812 297.359375 L 98.277344 297.359375 Z M 98.277344 260.035156 "/>
</clipPath>
<clipPath id="clip6">
  <path d="M 301 172 L 333.632812 172 L 333.632812 206 L 301 206 Z M 301 172 "/>
</clipPath>
</defs>
<g id="surface1">
<g clip-path="url(#clip1)" clip-rule="nonzero">
<path style=" stroke:none;fill-rule:nonzero;fill:rgb(58.81958%,39.99939%,26.269531%);fill-opacity:1;" d="M 326.785156 297.546875 L 295.9375 271.835938 C 290.558594 266.601562 273.789062 260.390625 273.789062 260.390625 L 250.199219 255.875 L 175.035156 255.875 L 151.4375 260.390625 C 151.4375 260.390625 134.671875 266.601562 129.289062 271.835938 L 98.449219 297.546875 L 326.785156 297.546875 "/>
<path style=" stroke:none;fill-rule:nonzero;fill:rgb(81.959534%,17.649841%,23.919678%);fill-opacity:1;" d="M 326.785156 297.546875 L 295.9375 271.835938 C 290.558594 266.601562 273.789062 260.390625 273.789062 260.390625 L 250.199219 255.875 L 243.484375 255.875 C 244.007812 284.394531 212.613281 284.917969 212.613281 284.917969 C 177.058594 282.296875 181.746094 255.875 181.746094 255.875 L 175.035156 255.875 L 151.4375 260.390625 C 151.4375 260.390625 134.671875 266.601562 129.289062 271.835938 L 98.449219 297.546875 L 326.785156 297.546875 "/>
</g>
<path style=" stroke:none;fill-rule:nonzero;fill:rgb(82.749939%,82.348633%,82.348633%);fill-opacity:1;" d="M 251.328125 256.09375 L 250.199219 255.875 L 251.5625 255.875 C 251.484375 255.945312 251.40625 256.019531 251.328125 256.09375 M 174.839844 255.914062 C 174.828125 255.902344 174.820312 255.886719 174.808594 255.875 L 175.035156 255.875 L 174.839844 255.914062 "/>
<path style=" stroke:none;fill-rule:nonzero;fill:rgb(49.01886%,32.939148%,21.179199%);fill-opacity:1;" d="M 214.445312 270.964844 C 207.78125 270.964844 201.363281 269.394531 194.949219 267.328125 C 191.101562 266.089844 186.050781 264.292969 181.703125 261.707031 C 181.585938 260.648438 181.542969 259.6875 181.542969 258.867188 C 181.542969 257.023438 181.746094 255.875 181.746094 255.875 L 200.484375 255.875 C 205.050781 259.238281 210.695312 261.226562 216.808594 261.226562 C 222.917969 261.226562 228.566406 259.238281 233.132812 255.875 L 243.484375 255.875 C 243.484375 255.894531 243.484375 255.917969 243.484375 255.9375 C 243.492188 256.320312 243.472656 256.683594 243.464844 257.054688 C 243.472656 257.058594 243.484375 257.058594 243.488281 257.0625 C 243.460938 258.988281 243.289062 260.78125 242.984375 262.449219 C 235.796875 266.902344 227.53125 269.761719 218.964844 270.71875 C 217.441406 270.886719 215.941406 270.964844 214.445312 270.964844 "/>
<g clip-path="url(#clip2)" clip-rule="nonzero">
<path style=" stroke:none;fill-rule:nonzero;fill:rgb(41.958618%,77.249146%,73.329163%);fill-opacity:1;" d="M 148.121094 297.546875 C 148.507812 284.835938 148.964844 271.664062 153.230469 260.046875 L 151.4375 260.390625 C 151.4375 260.390625 134.671875 266.601562 129.289062 271.835938 L 98.449219 297.546875 L 148.121094 297.546875 "/>
</g>
<g clip-path="url(#clip3)" clip-rule="nonzero">
<path style=" stroke:none;fill-rule:nonzero;fill:rgb(41.958618%,77.249146%,73.329163%);fill-opacity:1;" d="M 278.234375 297.546875 L 326.785156 297.546875 L 295.9375 271.835938 C 290.855469 266.886719 275.621094 261.082031 273.960938 260.453125 C 274.675781 260.722656 277.203125 288.992188 277.503906 291.355469 C 277.769531 293.414062 278.015625 295.480469 278.234375 297.546875 "/>
</g>
<path style=" stroke:none;fill-rule:nonzero;fill:rgb(41.958618%,77.249146%,73.329163%);fill-opacity:1;" d="M 175.035156 255.875 L 181.746094 255.875 C 181.746094 255.875 177.058594 282.296875 212.613281 284.917969 C 212.613281 284.917969 244.007812 284.394531 243.484375 255.875 L 250.199219 255.875 C 250.199219 255.875 256.015625 290.414062 213.171875 291.050781 C 213.171875 291.050781 174.277344 293.9375 175.035156 255.875 "/>
<path style=" stroke:none;fill-rule:nonzero;fill:rgb(75.289917%,16.079712%,21.569824%);fill-opacity:1;" d="M 276.925781 285.589844 C 275.5625 282.902344 275.140625 279.867188 273.433594 276.128906 C 271.648438 272.230469 268.734375 268.941406 264.378906 268.140625 C 263.757812 268.023438 262.992188 267.988281 262.140625 267.988281 C 261.210938 267.988281 260.175781 268.035156 259.089844 268.078125 C 258.003906 268.128906 256.875 268.175781 255.757812 268.175781 C 253.515625 268.175781 251.332031 267.988281 249.695312 267.230469 C 250.671875 262.714844 250.503906 258.828125 250.332031 256.996094 C 250.671875 256.699219 251.003906 256.398438 251.328125 256.09375 L 273.789062 260.390625 C 273.789062 260.390625 275.886719 261.167969 278.835938 262.402344 C 276.355469 261.363281 274.484375 260.652344 273.960938 260.453125 C 274.496094 260.65625 276.054688 276.632812 276.925781 285.589844 M 295.9375 271.835938 C 295.933594 271.832031 295.929688 271.828125 295.929688 271.824219 C 295.929688 271.828125 295.933594 271.832031 295.9375 271.835938 "/>
<path style=" stroke:none;fill-rule:nonzero;fill:rgb(45.098877%,30.198669%,19.60907%);fill-opacity:1;" d="M 243.488281 257.0625 C 243.484375 257.058594 243.472656 257.058594 243.464844 257.054688 C 243.472656 256.683594 243.492188 256.320312 243.484375 255.9375 C 243.492188 256.15625 243.492188 256.367188 243.492188 256.578125 C 243.492188 256.742188 243.492188 256.902344 243.488281 257.0625 "/>
<path style=" stroke:none;fill-rule:nonzero;fill:rgb(62.348938%,13.328552%,17.248535%);fill-opacity:1;" d="M 250.332031 256.996094 C 250.265625 256.277344 250.199219 255.875 250.199219 255.875 L 251.328125 256.09375 C 251.003906 256.398438 250.671875 256.699219 250.332031 256.996094 "/>
<g clip-path="url(#clip4)" clip-rule="nonzero">
<path style=" stroke:none;fill-rule:nonzero;fill:rgb(38.42926%,70.588684%,66.668701%);fill-opacity:1;" d="M 326.785156 297.546875 L 292.628906 297.546875 C 289.308594 295.039062 285.542969 293.113281 282.027344 290.917969 C 279.332031 289.226562 277.890625 287.496094 276.925781 285.589844 C 276.054688 276.632812 274.496094 260.65625 273.960938 260.453125 C 274.484375 260.652344 276.355469 261.363281 278.835938 262.402344 C 284.21875 264.65625 292.445312 268.441406 295.929688 271.824219 C 295.929688 271.828125 295.933594 271.832031 295.9375 271.835938 L 326.785156 297.546875 "/>
</g>
<path style=" stroke:none;fill-rule:nonzero;fill:rgb(38.42926%,70.588684%,66.668701%);fill-opacity:1;" d="M 249.695312 267.230469 C 247.941406 266.421875 246.8125 264.960938 246.921875 262.382812 C 247.039062 259.566406 245.5 257.792969 243.488281 257.0625 C 243.492188 256.902344 243.492188 256.742188 243.492188 256.578125 C 243.492188 256.367188 243.492188 256.15625 243.484375 255.9375 C 243.484375 255.917969 243.484375 255.894531 243.484375 255.875 L 250.199219 255.875 C 250.199219 255.875 250.265625 256.277344 250.332031 256.996094 C 250.503906 258.828125 250.671875 262.714844 249.695312 267.230469 "/>
<path style=" stroke:none;fill-rule:nonzero;fill:rgb(75.289917%,16.079712%,21.569824%);fill-opacity:1;" d="M 149.769531 274.125 C 150.5 269.277344 151.578125 264.542969 153.230469 260.046875 L 151.4375 260.390625 L 174.839844 255.914062 C 174.902344 255.996094 174.964844 256.078125 175.03125 256.160156 C 175.011719 257.226562 175.03125 258.261719 175.074219 259.261719 C 166.507812 264.40625 157.734375 268.742188 149.769531 274.125 "/>
<path style=" stroke:none;fill-rule:nonzero;fill:rgb(62.348938%,13.328552%,17.248535%);fill-opacity:1;" d="M 175.03125 256.160156 C 174.964844 256.078125 174.902344 255.996094 174.839844 255.914062 L 175.035156 255.875 C 175.03125 255.96875 175.03125 256.066406 175.03125 256.160156 "/>
<g clip-path="url(#clip5)" clip-rule="nonzero">
<path style=" stroke:none;fill-rule:nonzero;fill:rgb(38.42926%,70.588684%,66.668701%);fill-opacity:1;" d="M 128.054688 297.546875 L 98.449219 297.546875 L 129.289062 271.835938 C 134.671875 266.601562 151.4375 260.390625 151.4375 260.390625 L 153.230469 260.046875 C 151.578125 264.542969 150.5 269.277344 149.769531 274.125 C 141.871094 279.460938 134.761719 285.820312 129.417969 295.003906 C 128.933594 295.84375 128.480469 296.695312 128.054688 297.546875 "/>
</g>
<path style=" stroke:none;fill-rule:nonzero;fill:rgb(38.42926%,70.588684%,66.668701%);fill-opacity:1;" d="M 175.074219 259.261719 C 175.03125 258.261719 175.011719 257.226562 175.03125 256.160156 C 175.03125 256.066406 175.03125 255.96875 175.035156 255.875 L 180.476562 255.875 C 178.6875 257.050781 176.886719 258.175781 175.074219 259.261719 "/>
<path style=" stroke:none;fill-rule:nonzero;fill:rgb(58.81958%,39.99939%,26.269531%);fill-opacity:1;" d="M 310.566406 198.421875 L 310.566406 153.484375 C 317.558594 66.097656 233.578125 54.410156 217.046875 55.222656 C 200.515625 54.410156 112.890625 66.097656 123.527344 153.484375 L 123.527344 198.421875 C 123.527344 198.421875 122.886719 251.25 180.078125 255.875 L 254.015625 255.875 C 311.207031 251.25 310.566406 198.421875 310.566406 198.421875 "/>
<g clip-path="url(#clip6)" clip-rule="nonzero">
<path style=" stroke:none;fill-rule:nonzero;fill:rgb(58.81958%,39.99939%,26.269531%);fill-opacity:1;" d="M 333.726562 189.128906 C 333.726562 198.039062 326.492188 205.253906 317.570312 205.253906 C 308.644531 205.253906 301.402344 198.039062 301.402344 189.128906 C 301.402344 180.210938 308.644531 172.992188 317.570312 172.992188 C 326.492188 172.992188 333.726562 180.210938 333.726562 189.128906 "/>
</g>
<path style=" stroke:none;fill-rule:nonzero;fill:rgb(49.01886%,32.939148%,21.179199%);fill-opacity:1;" d="M 319.546875 198.347656 C 319.277344 198.347656 319.035156 198.328125 318.816406 198.304688 C 318.417969 198.296875 318.097656 198.179688 317.894531 198.144531 C 317.683594 198.09375 317.570312 198.066406 317.570312 198.066406 C 317.570312 198.066406 317.683594 198.027344 317.882812 197.953125 C 318.082031 197.882812 318.378906 197.804688 318.726562 197.644531 C 319.089844 197.515625 319.496094 197.308594 319.949219 197.078125 C 320.394531 196.828125 320.859375 196.515625 321.335938 196.164062 C 321.796875 195.78125 322.269531 195.351562 322.679688 194.847656 C 323.128906 194.367188 323.492188 193.789062 323.824219 193.1875 C 324.164062 192.582031 324.386719 191.914062 324.585938 191.238281 C 324.664062 190.894531 324.738281 190.535156 324.769531 190.238281 C 324.835938 190.023438 324.828125 189.371094 324.847656 189.125 C 324.84375 187.6875 324.488281 186.277344 323.832031 185.054688 C 323.492188 184.460938 323.132812 183.875 322.6875 183.390625 C 322.269531 182.886719 321.804688 182.460938 321.34375 182.078125 C 320.859375 181.730469 320.394531 181.410156 319.949219 181.164062 C 319.492188 180.9375 319.089844 180.730469 318.742188 180.597656 C 318.394531 180.441406 318.078125 180.367188 317.882812 180.289062 C 317.683594 180.222656 317.570312 180.179688 317.570312 180.179688 C 317.570312 180.179688 317.683594 180.15625 317.894531 180.101562 C 318.105469 180.070312 318.390625 179.949219 318.808594 179.941406 C 319.023438 179.917969 319.261719 179.902344 319.527344 179.902344 C 319.769531 179.902344 320.035156 179.917969 320.316406 179.949219 C 320.890625 180.011719 321.550781 180.140625 322.242188 180.398438 C 322.925781 180.664062 323.671875 181.003906 324.355469 181.527344 C 325.070312 182.019531 325.726562 182.6875 326.308594 183.445312 C 326.894531 184.214844 327.351562 185.113281 327.691406 186.074219 C 328.019531 187.042969 328.164062 188.085938 328.199219 189.125 C 328.15625 189.75 328.167969 189.980469 328.0625 190.625 C 327.996094 191.203125 327.832031 191.6875 327.691406 192.171875 C 327.355469 193.140625 326.894531 194.035156 326.3125 194.804688 C 325.726562 195.566406 325.078125 196.230469 324.363281 196.722656 C 323.671875 197.246094 322.925781 197.589844 322.242188 197.855469 C 321.554688 198.113281 320.890625 198.238281 320.316406 198.296875 C 320.039062 198.332031 319.785156 198.347656 319.546875 198.347656 "/>
<path style=" stroke:none;fill-rule:nonzero;fill:rgb(49.01886%,32.939148%,21.179199%);fill-opacity:1;" d="M 315.335938 195.242188 C 312.265625 195.242188 309.765625 192.75 309.765625 189.675781 C 309.765625 186.609375 312.265625 184.117188 315.335938 184.117188 C 318.414062 184.117188 320.910156 186.609375 320.910156 189.675781 C 320.910156 192.75 318.414062 195.242188 315.335938 195.242188 "/>
<path style=" stroke:none;fill-rule:nonzero;fill:rgb(58.81958%,39.99939%,26.269531%);fill-opacity:1;" d="M 102.042969 189.128906 C 102.042969 198.039062 109.28125 205.253906 118.195312 205.253906 C 127.128906 205.253906 134.367188 198.039062 134.367188 189.128906 C 134.367188 180.210938 127.128906 172.992188 118.195312 172.992188 C 109.28125 172.992188 102.042969 180.210938 102.042969 189.128906 "/>
<path style=" stroke:none;fill-rule:nonzero;fill:rgb(49.01886%,32.939148%,21.179199%);fill-opacity:1;" d="M 116.226562 198.347656 C 115.988281 198.347656 115.730469 198.332031 115.460938 198.296875 C 114.878906 198.238281 114.21875 198.113281 113.523438 197.855469 C 112.84375 197.589844 112.09375 197.246094 111.40625 196.722656 C 110.695312 196.230469 110.046875 195.566406 109.457031 194.804688 C 108.875 194.035156 108.414062 193.140625 108.078125 192.171875 C 107.9375 191.6875 107.777344 191.203125 107.707031 190.625 C 107.597656 189.980469 107.617188 189.75 107.574219 189.125 C 107.605469 188.085938 107.746094 187.042969 108.078125 186.074219 C 108.417969 185.113281 108.878906 184.214844 109.460938 183.445312 C 110.046875 182.6875 110.699219 182.019531 111.410156 181.527344 C 112.097656 181.003906 112.847656 180.664062 113.523438 180.398438 C 114.21875 180.140625 114.878906 180.011719 115.460938 179.949219 C 115.734375 179.917969 116 179.902344 116.242188 179.902344 C 116.503906 179.902344 116.746094 179.917969 116.960938 179.941406 C 117.371094 179.949219 117.664062 180.070312 117.875 180.101562 C 118.089844 180.15625 118.195312 180.179688 118.195312 180.179688 C 118.195312 180.179688 118.09375 180.222656 117.886719 180.289062 C 117.695312 180.367188 117.371094 180.441406 117.027344 180.597656 C 116.679688 180.730469 116.277344 180.9375 115.820312 181.164062 C 115.375 181.410156 114.910156 181.730469 114.425781 182.078125 C 113.964844 182.460938 113.5 182.886719 113.082031 183.390625 C 112.636719 183.875 112.273438 184.460938 111.9375 185.054688 C 111.285156 186.277344 110.925781 187.6875 110.921875 189.125 C 110.941406 189.371094 110.9375 190.023438 111 190.238281 C 111.03125 190.535156 111.109375 190.894531 111.183594 191.238281 C 111.382812 191.914062 111.605469 192.582031 111.941406 193.1875 C 112.277344 193.789062 112.640625 194.367188 113.085938 194.847656 C 113.503906 195.351562 113.976562 195.78125 114.429688 196.164062 C 114.914062 196.515625 115.375 196.828125 115.820312 197.078125 C 116.273438 197.308594 116.679688 197.515625 117.039062 197.644531 C 117.390625 197.804688 117.683594 197.882812 117.886719 197.953125 C 118.09375 198.027344 118.195312 198.066406 118.195312 198.066406 C 118.195312 198.066406 118.089844 198.09375 117.882812 198.144531 C 117.671875 198.179688 117.355469 198.296875 116.949219 198.304688 C 116.734375 198.328125 116.492188 198.347656 116.226562 198.347656 "/>
<path style=" stroke:none;fill-rule:nonzero;fill:rgb(49.01886%,32.939148%,21.179199%);fill-opacity:1;" d="M 120.433594 195.242188 C 117.359375 195.242188 114.855469 192.75 114.855469 189.675781 C 114.855469 186.609375 117.359375 184.117188 120.433594 184.117188 C 121.578125 184.117188 122.640625 184.460938 123.527344 185.054688 L 123.527344 194.304688 C 122.640625 194.898438 121.578125 195.242188 120.433594 195.242188 "/>
<path style=" stroke:none;fill-rule:nonzero;fill:rgb(58.81958%,39.99939%,26.269531%);fill-opacity:1;" d="M 191.039062 243.4375 C 194.96875 253.832031 205.023438 261.226562 216.808594 261.226562 C 228.59375 261.226562 238.644531 253.832031 242.574219 243.4375 L 191.039062 243.4375 "/>
<path style=" stroke:none;fill-rule:nonzero;fill:rgb(54.119873%,36.468506%,23.919678%);fill-opacity:1;" d="M 194.722656 255.875 L 180.078125 255.875 C 134.605469 252.199219 125.691406 218.046875 123.949219 204.207031 C 130.039062 201.894531 134.367188 196.015625 134.367188 189.128906 C 134.367188 183.519531 131.503906 178.582031 127.15625 175.691406 C 128.449219 159.789062 130.367188 135.511719 130.367188 131.488281 C 130.367188 103.394531 146.085938 90.867188 160.476562 85.285156 C 154.136719 95.847656 149.828125 107.269531 146.351562 119.214844 C 137.644531 149.09375 134.707031 180.417969 148.445312 209.183594 C 151.601562 215.78125 155.316406 221.863281 160.082031 226.835938 C 163.097656 231.5625 166.625 235.953125 170.785156 239.832031 C 177.414062 246.007812 185.714844 251.757812 194.722656 255.875 "/>
<path style=" stroke:none;fill-rule:nonzero;fill:rgb(54.119873%,36.468506%,23.919678%);fill-opacity:1;" d="M 123.949219 204.207031 C 123.503906 200.640625 123.527344 198.421875 123.527344 198.421875 L 123.527344 194.304688 C 125.023438 193.304688 126.003906 191.601562 126.003906 189.675781 C 126.003906 189.675781 126.5 183.765625 127.15625 175.691406 C 131.503906 178.582031 134.367188 183.519531 134.367188 189.128906 C 134.367188 196.015625 130.039062 201.894531 123.949219 204.207031 M 124.011719 185.417969 C 123.859375 185.289062 123.695312 185.167969 123.527344 185.054688 L 123.527344 184.382812 L 124.011719 185.417969 "/>
<path style=" stroke:none;fill-rule:nonzero;fill:rgb(45.098877%,30.198669%,19.60907%);fill-opacity:1;" d="M 123.527344 194.304688 L 123.527344 185.054688 C 123.695312 185.167969 123.859375 185.289062 124.011719 185.417969 L 126.003906 189.675781 C 126.003906 191.601562 125.023438 193.304688 123.527344 194.304688 "/>
<path style=" stroke:none;fill-rule:nonzero;fill:rgb(49.01886%,32.939148%,21.179199%);fill-opacity:1;" d="M 212.269531 196.210938 C 211.496094 196.210938 210.667969 196.132812 209.8125 195.941406 C 208.605469 195.65625 207.34375 195.164062 206.179688 194.429688 C 205.015625 193.691406 203.921875 192.753906 203.011719 191.640625 C 202.554688 191.085938 202.140625 190.492188 201.761719 189.835938 C 201.664062 189.671875 201.570312 189.496094 201.480469 189.3125 L 201.246094 188.820312 C 201.09375 188.492188 200.953125 188.140625 200.824219 187.789062 C 200.308594 186.367188 200.003906 184.691406 200.238281 182.960938 C 200.460938 181.234375 201.242188 179.589844 202.265625 178.445312 C 203.269531 177.277344 204.425781 176.523438 205.507812 175.984375 C 206.59375 175.449219 207.640625 175.136719 208.597656 174.933594 C 209.765625 174.695312 210.808594 174.617188 211.699219 174.617188 C 212.269531 174.617188 212.777344 174.648438 213.210938 174.691406 C 213.757812 174.738281 214.195312 174.839844 214.484375 174.890625 C 214.773438 174.953125 214.929688 175.003906 214.929688 175.003906 C 214.929688 175.003906 214.414062 175.347656 213.515625 175.953125 C 212.636719 176.546875 211.40625 177.363281 210.125 178.375 C 209.488281 178.878906 208.847656 179.4375 208.28125 180.027344 C 207.71875 180.625 207.25 181.265625 206.96875 181.859375 C 206.695312 182.46875 206.585938 182.980469 206.613281 183.542969 C 206.628906 184.097656 206.773438 184.761719 207.054688 185.519531 L 207.292969 186.097656 L 207.425781 186.394531 L 207.550781 186.644531 C 207.730469 187 207.953125 187.375 208.1875 187.726562 C 208.660156 188.441406 209.1875 189.105469 209.761719 189.679688 C 210.335938 190.265625 210.953125 190.769531 211.613281 191.203125 C 212.269531 191.644531 212.96875 192 213.675781 192.285156 C 214.378906 192.578125 215.082031 192.8125 215.746094 192.976562 C 216.074219 193.082031 216.390625 193.140625 216.6875 193.210938 C 216.992188 193.289062 217.269531 193.335938 217.527344 193.386719 C 218.042969 193.488281 218.46875 193.574219 218.757812 193.617188 C 219.050781 193.667969 219.210938 193.707031 219.210938 193.707031 C 219.210938 193.707031 219.089844 193.8125 218.851562 193.992188 C 218.609375 194.167969 218.261719 194.453125 217.769531 194.722656 C 217.285156 195.015625 216.667969 195.320312 215.910156 195.585938 C 215.15625 195.863281 214.253906 196.070312 213.21875 196.171875 C 212.917969 196.195312 212.597656 196.210938 212.269531 196.210938 "/>
<path style=" stroke:none;fill-rule:nonzero;fill:rgb(39.608765%,10.5896%,9.408569%);fill-opacity:1;" d="M 185.84375 209.613281 C 185.84375 209.613281 224.464844 212.621094 242.816406 209.613281 C 242.816406 209.613281 242.816406 229.246094 214.328125 232.484375 C 214.328125 232.484375 193.539062 232.484375 185.84375 209.613281 "/>
<path style=" stroke:none;fill-rule:nonzero;fill:rgb(69.40918%,19.219971%,25.099182%);fill-opacity:1;" d="M 214.839844 221.046875 C 207.203125 221.046875 199.980469 223.839844 198.640625 227.226562 C 206.449219 232.472656 214.242188 232.484375 214.242188 232.484375 C 222.640625 231.527344 228.550781 229.140625 232.726562 226.257812 C 230.332031 224.574219 228.070312 221.046875 214.839844 221.046875 "/>
<path style=" stroke:none;fill-rule:nonzero;fill:rgb(49.01886%,32.939148%,21.179199%);fill-opacity:1;" d="M 223.835938 243.4375 L 210.277344 243.4375 C 209.574219 242.570312 208.949219 241.480469 208.488281 240.097656 C 208.488281 240.097656 213.5 240.492188 218.433594 240.492188 C 220.898438 240.492188 223.34375 240.394531 225.132812 240.097656 C 225.132812 240.097656 225.132812 241.757812 223.835938 243.4375 "/>
<path style=" stroke:none;fill-rule:nonzero;fill:rgb(49.01886%,32.939148%,21.179199%);fill-opacity:1;" d="M 216.808594 246.78125 C 216.808594 246.78125 212.980469 246.78125 210.277344 243.4375 L 223.835938 243.4375 C 222.722656 244.886719 220.65625 246.34375 216.808594 246.78125 "/>
<path style=" stroke:none;fill-rule:nonzero;fill:rgb(100%,100%,100%);fill-opacity:1;" d="M 229.582031 218.328125 C 229.582031 218.328125 233.628906 217.527344 233.628906 213.28125 L 233.628906 210.578125 C 220.367188 211.402344 203.273438 210.679688 193.539062 210.121094 L 193.539062 213.683594 C 193.539062 213.683594 195.304688 217.925781 199.207031 218.328125 C 199.207031 218.328125 212.367188 222.574219 229.582031 218.328125 "/>
<path style=" stroke:none;fill-rule:nonzero;fill:rgb(49.01886%,32.939148%,21.179199%);fill-opacity:1;" d="M 219.871094 210.953125 C 211.539062 210.953125 203.140625 210.625 196.773438 210.296875 C 190.242188 209.957031 185.84375 209.613281 185.84375 209.613281 C 185.9375 209.890625 186.03125 210.164062 186.128906 210.433594 C 184.0625 210.277344 182.308594 210.113281 180.941406 209.976562 C 178.90625 209.773438 177.746094 209.613281 177.746094 209.613281 C 177.746094 209.613281 178.90625 209.457031 180.941406 209.257812 C 182.976562 209.054688 185.878906 208.789062 189.367188 208.574219 C 191.109375 208.464844 193 208.339844 194.992188 208.265625 C 196.992188 208.175781 199.097656 208.066406 201.277344 208.007812 C 203.453125 207.941406 205.707031 207.882812 207.992188 207.855469 C 210.28125 207.816406 212.605469 207.808594 214.929688 207.796875 C 217.253906 207.808594 219.578125 207.8125 221.867188 207.851562 C 224.15625 207.878906 226.40625 207.9375 228.585938 208.003906 C 230.765625 208.0625 232.867188 208.167969 234.867188 208.257812 C 236.863281 208.335938 238.75 208.457031 240.496094 208.574219 C 243.980469 208.785156 246.886719 209.050781 248.921875 209.253906 C 250.953125 209.457031 252.117188 209.613281 252.117188 209.613281 C 252.117188 209.613281 250.953125 209.773438 248.921875 209.976562 C 247.339844 210.136719 245.242188 210.332031 242.753906 210.511719 C 242.816406 209.9375 242.816406 209.613281 242.816406 209.613281 C 240.125 210.054688 237.003906 210.367188 233.628906 210.578125 C 229.320312 210.84375 224.605469 210.953125 219.871094 210.953125 "/>
<path style=" stroke:none;fill-rule:nonzero;fill:rgb(34.118652%,9.01947%,7.449341%);fill-opacity:1;" d="M 233.628906 211.03125 L 233.628906 210.578125 C 237.003906 210.367188 240.125 210.054688 242.816406 209.613281 C 242.816406 209.613281 242.816406 209.9375 242.753906 210.511719 C 242.03125 210.5625 241.277344 210.613281 240.496094 210.660156 C 238.75 210.777344 236.863281 210.894531 234.867188 210.972656 C 234.460938 210.992188 234.046875 211.011719 233.628906 211.03125 M 193.539062 210.90625 C 192.078125 210.832031 190.679688 210.742188 189.367188 210.65625 C 188.222656 210.585938 187.136719 210.511719 186.128906 210.433594 C 186.03125 210.164062 185.9375 209.890625 185.84375 209.613281 C 185.84375 209.613281 190.242188 209.957031 196.773438 210.296875 C 195.628906 210.238281 194.542969 210.179688 193.539062 210.121094 L 193.539062 210.90625 "/>
<path style=" stroke:none;fill-rule:nonzero;fill:rgb(82.749939%,82.348633%,82.348633%);fill-opacity:1;" d="M 214.929688 211.433594 C 214.78125 211.433594 214.636719 211.433594 214.488281 211.433594 C 214.402344 211.125 214.328125 210.941406 214.328125 210.941406 C 214.328125 210.941406 214.257812 211.125 214.171875 211.433594 C 212.101562 211.421875 210.035156 211.414062 207.992188 211.378906 C 207.195312 211.367188 206.402344 211.355469 205.617188 211.335938 C 205.542969 211.085938 205.484375 210.941406 205.484375 210.941406 C 205.484375 210.941406 205.429688 211.085938 205.355469 211.332031 C 203.972656 211.304688 202.613281 211.265625 201.277344 211.226562 C 199.097656 211.167969 196.992188 211.058594 194.992188 210.96875 C 194.503906 210.953125 194.015625 210.929688 193.539062 210.90625 L 193.539062 210.121094 C 194.542969 210.179688 195.628906 210.238281 196.773438 210.296875 C 203.140625 210.625 211.539062 210.953125 219.871094 210.953125 C 224.605469 210.953125 229.320312 210.84375 233.628906 210.578125 L 233.628906 211.03125 C 232.003906 211.105469 230.316406 211.183594 228.585938 211.230469 C 226.777344 211.285156 224.921875 211.332031 223.035156 211.363281 C 222.957031 211.097656 222.898438 210.941406 222.898438 210.941406 C 222.898438 210.941406 222.835938 211.101562 222.757812 211.371094 C 222.460938 211.371094 222.164062 211.378906 221.867188 211.378906 C 219.578125 211.421875 217.253906 211.421875 214.929688 211.433594 "/>
<path style=" stroke:none;fill-rule:nonzero;fill:rgb(82.749939%,82.348633%,82.348633%);fill-opacity:1;" d="M 214.328125 219.394531 C 214.328125 219.394531 214.125 218.863281 213.976562 218.074219 C 213.820312 217.28125 213.710938 216.222656 213.714844 215.167969 C 213.710938 214.109375 213.824219 213.054688 213.980469 212.261719 C 214.039062 211.933594 214.109375 211.648438 214.171875 211.433594 C 214.277344 211.433594 214.382812 211.433594 214.488281 211.433594 C 214.550781 211.652344 214.621094 211.9375 214.683594 212.261719 C 214.835938 213.054688 214.949219 214.109375 214.945312 215.167969 C 214.949219 216.222656 214.835938 217.28125 214.683594 218.074219 C 214.535156 218.863281 214.328125 219.394531 214.328125 219.394531 "/>
<path style=" stroke:none;fill-rule:nonzero;fill:rgb(69.018555%,68.238831%,68.629456%);fill-opacity:1;" d="M 214.488281 211.433594 C 214.382812 211.433594 214.277344 211.433594 214.171875 211.433594 C 214.257812 211.125 214.328125 210.941406 214.328125 210.941406 C 214.328125 210.941406 214.402344 211.125 214.488281 211.433594 "/>
<path style=" stroke:none;fill-rule:nonzero;fill:rgb(82.749939%,82.348633%,82.348633%);fill-opacity:1;" d="M 205.484375 219.394531 C 205.484375 219.394531 205.277344 218.863281 205.132812 218.074219 C 204.976562 217.28125 204.867188 216.222656 204.867188 215.167969 C 204.867188 214.109375 204.980469 213.054688 205.136719 212.261719 C 205.203125 211.882812 205.285156 211.5625 205.355469 211.332031 C 205.441406 211.335938 205.527344 211.335938 205.617188 211.335938 C 205.683594 211.566406 205.765625 211.882812 205.835938 212.261719 C 205.992188 213.054688 206.101562 214.109375 206.097656 215.167969 C 206.105469 216.222656 205.996094 217.28125 205.835938 218.074219 C 205.691406 218.863281 205.484375 219.394531 205.484375 219.394531 "/>
<path style=" stroke:none;fill-rule:nonzero;fill:rgb(69.018555%,68.238831%,68.629456%);fill-opacity:1;" d="M 205.617188 211.335938 C 205.527344 211.335938 205.441406 211.335938 205.355469 211.332031 C 205.429688 211.085938 205.484375 210.941406 205.484375 210.941406 C 205.484375 210.941406 205.542969 211.085938 205.617188 211.335938 "/>
<path style=" stroke:none;fill-rule:nonzero;fill:rgb(82.749939%,82.348633%,82.348633%);fill-opacity:1;" d="M 222.898438 219.394531 C 222.898438 219.394531 222.691406 218.863281 222.542969 218.074219 C 222.390625 217.28125 222.277344 216.222656 222.28125 215.167969 C 222.28125 214.109375 222.390625 213.054688 222.542969 212.261719 C 222.613281 211.902344 222.691406 211.59375 222.757812 211.371094 C 222.851562 211.367188 222.941406 211.367188 223.035156 211.363281 C 223.101562 211.59375 223.183594 211.898438 223.25 212.261719 C 223.402344 213.054688 223.515625 214.109375 223.511719 215.167969 C 223.515625 216.222656 223.402344 217.28125 223.25 218.074219 C 223.101562 218.863281 222.898438 219.394531 222.898438 219.394531 "/>
<path style=" stroke:none;fill-rule:nonzero;fill:rgb(69.018555%,68.238831%,68.629456%);fill-opacity:1;" d="M 222.757812 211.371094 C 222.835938 211.101562 222.898438 210.941406 222.898438 210.941406 C 222.898438 210.941406 222.957031 211.097656 223.035156 211.363281 C 222.941406 211.367188 222.851562 211.367188 222.757812 211.371094 "/>
<path style=" stroke:none;fill-rule:nonzero;fill:rgb(19.60907%,11.369324%,8.239746%);fill-opacity:1;" d="M 134.367188 44.84375 C 134.367188 44.84375 104.566406 91.5 111.746094 174.332031 C 111.746094 174.332031 115.335938 172.992188 118.195312 172.992188 L 126.003906 189.675781 C 126.003906 189.675781 130.367188 137.550781 130.367188 131.488281 C 130.367188 79.679688 183.828125 80.808594 183.828125 80.808594 L 250.808594 81.957031 C 285.023438 78.882812 319.101562 111.089844 319.101562 111.089844 C 311.824219 58.308594 301.128906 47.574219 301.128906 47.574219 C 301.128906 47.574219 224.125 -16.484375 134.367188 44.722656 L 134.367188 44.84375 "/>
<path style=" stroke:none;fill-rule:nonzero;fill:rgb(12.159729%,2.349854%,2.349854%);fill-opacity:1;" d="M 126.003906 189.675781 C 126.003906 189.675781 125.992188 189.121094 125.972656 188.082031 C 125.96875 187.042969 125.925781 185.519531 125.9375 183.582031 C 125.941406 181.644531 125.925781 179.289062 125.972656 176.59375 C 126.003906 173.902344 126.039062 170.859375 126.152344 167.546875 C 126.25 164.234375 126.355469 160.648438 126.46875 156.855469 C 126.609375 153.066406 126.773438 149.070312 126.984375 144.9375 C 127.1875 140.808594 127.296875 136.648438 127.511719 132.371094 L 127.554688 131.574219 L 127.574219 130.664062 L 127.609375 129.027344 C 127.644531 127.914062 127.605469 126.875 127.757812 125.675781 C 127.871094 124.507812 127.988281 123.339844 128.097656 122.167969 C 128.269531 121.015625 128.480469 119.882812 128.675781 118.738281 C 129.589844 114.1875 131.042969 109.6875 133.1875 105.578125 C 135.292969 101.460938 138.085938 97.761719 141.230469 94.699219 C 144.371094 91.621094 147.863281 89.183594 151.351562 87.292969 C 154.835938 85.398438 158.332031 84.074219 161.601562 83.101562 C 164.863281 82.113281 167.929688 81.539062 170.644531 81.164062 C 173.363281 80.777344 175.742188 80.648438 177.699219 80.589844 C 179.65625 80.523438 181.191406 80.609375 182.230469 80.667969 C 183.273438 80.734375 183.828125 80.808594 183.828125 80.808594 C 183.828125 80.808594 183.273438 80.863281 182.242188 81 C 181.214844 81.125 179.710938 81.378906 177.824219 81.730469 C 175.929688 82.09375 173.660156 82.628906 171.097656 83.328125 C 168.535156 84.050781 165.699219 84.996094 162.714844 86.226562 C 159.730469 87.476562 156.625 89.058594 153.570312 91.035156 C 150.519531 93.007812 147.546875 95.414062 144.902344 98.273438 C 144.234375 98.976562 143.644531 99.761719 142.992188 100.5 C 142.363281 101.257812 141.816406 102.089844 141.222656 102.886719 C 140.640625 103.691406 140.164062 104.582031 139.625 105.425781 C 139.34375 105.84375 139.121094 106.300781 138.894531 106.75 L 138.191406 108.101562 C 136.425781 111.761719 135.144531 115.738281 134.34375 119.839844 C 134.167969 120.867188 133.964844 121.902344 133.800781 122.929688 C 133.695312 123.953125 133.585938 124.976562 133.476562 125.996094 C 133.269531 128.019531 133.277344 130.417969 133.117188 132.402344 C 132.96875 134.605469 132.804688 136.796875 132.632812 138.953125 C 132.460938 141.109375 132.320312 143.261719 132.085938 145.304688 C 131.667969 149.429688 131.226562 153.410156 130.792969 157.1875 C 130.566406 159.074219 130.34375 160.90625 130.132812 162.679688 C 129.894531 164.457031 129.664062 166.167969 129.441406 167.808594 C 129.019531 171.097656 128.566406 174.105469 128.167969 176.773438 C 127.785156 179.441406 127.394531 181.761719 127.078125 183.675781 C 126.769531 185.585938 126.476562 187.085938 126.300781 188.113281 C 126.109375 189.132812 126.003906 189.675781 126.003906 189.675781 "/>
<path style=" stroke:none;fill-rule:nonzero;fill:rgb(19.60907%,11.369324%,8.239746%);fill-opacity:1;" d="M 177.167969 133.203125 C 176.207031 134.679688 174.039062 135.015625 172.210938 134.488281 C 166.746094 132.84375 160.773438 134.394531 156.804688 138.492188 C 155.464844 139.839844 153.410156 140.601562 151.851562 139.777344 C 150.292969 138.964844 150.210938 136.125 152.222656 134.058594 C 157.839844 128.253906 166.304688 126.054688 174.050781 128.382812 C 176.816406 129.214844 178.128906 131.734375 177.167969 133.203125 "/>
<path style=" stroke:none;fill-rule:nonzero;fill:rgb(43.919373%,29.40979%,18.818665%);fill-opacity:1;" d="M 151.625 134.777344 C 151.796875 134.53125 151.996094 134.292969 152.222656 134.058594 C 151.996094 134.292969 151.796875 134.53125 151.625 134.777344 M 152.222656 134.058594 C 152.234375 134.046875 152.246094 134.03125 152.261719 134.015625 C 152.246094 134.03125 152.234375 134.046875 152.222656 134.058594 M 152.300781 133.980469 C 156.425781 129.757812 162.066406 127.46875 167.820312 127.46875 C 162.066406 127.46875 156.425781 129.757812 152.300781 133.980469 M 174.050781 128.382812 C 174.03125 128.375 174.007812 128.371094 173.988281 128.363281 C 174.007812 128.371094 174.03125 128.375 174.050781 128.382812 M 173.964844 128.359375 C 173.953125 128.351562 173.941406 128.351562 173.929688 128.347656 C 173.941406 128.351562 173.953125 128.351562 173.964844 128.359375 "/>
<path style=" stroke:none;fill-rule:nonzero;fill:rgb(15.289307%,8.628845%,5.879211%);fill-opacity:1;" d="M 151.523438 139.527344 C 150.457031 138.625 150.371094 136.554688 151.625 134.777344 C 151.796875 134.53125 151.996094 134.292969 152.222656 134.058594 C 152.234375 134.046875 152.246094 134.03125 152.261719 134.015625 C 152.273438 134.007812 152.289062 133.992188 152.300781 133.980469 C 156.425781 129.757812 162.066406 127.46875 167.820312 127.46875 C 167.820312 127.46875 167.824219 127.46875 167.824219 127.46875 C 169.867188 127.46875 171.921875 127.757812 173.929688 128.347656 C 173.941406 128.351562 173.953125 128.351562 173.964844 128.359375 C 173.972656 128.359375 173.980469 128.363281 173.988281 128.363281 C 174.007812 128.371094 174.03125 128.375 174.050781 128.382812 C 176.695312 129.179688 177.984375 131.5 177.257812 132.984375 C 176.671875 132.3125 175.820312 131.734375 174.746094 131.410156 C 172.699219 130.792969 170.601562 130.492188 168.515625 130.492188 C 162.722656 130.492188 157.050781 132.8125 152.914062 137.082031 C 152.179688 137.84375 151.730469 138.703125 151.523438 139.527344 "/>
<path style=" stroke:none;fill-rule:nonzero;fill:rgb(19.60907%,11.369324%,8.239746%);fill-opacity:1;" d="M 254.863281 133.203125 C 255.820312 134.679688 257.988281 135.015625 259.816406 134.488281 C 265.28125 132.84375 271.257812 134.394531 275.222656 138.492188 C 276.558594 139.839844 278.617188 140.601562 280.179688 139.777344 C 281.734375 138.964844 281.820312 136.125 279.808594 134.058594 C 274.1875 128.253906 265.71875 126.054688 257.976562 128.382812 C 255.214844 129.214844 253.898438 131.734375 254.863281 133.203125 "/>
<path style=" stroke:none;fill-rule:nonzero;fill:rgb(43.919373%,29.40979%,18.818665%);fill-opacity:1;" d="M 279.808594 134.058594 C 279.792969 134.046875 279.78125 134.03125 279.769531 134.015625 C 279.78125 134.03125 279.792969 134.046875 279.808594 134.058594 M 279.71875 133.964844 C 275.589844 129.753906 269.953125 127.46875 264.203125 127.46875 C 269.953125 127.46875 275.589844 129.753906 279.71875 133.964844 M 256.636719 128.976562 C 256.636719 128.976562 256.640625 128.972656 256.640625 128.972656 C 256.640625 128.972656 256.636719 128.976562 256.636719 128.976562 M 256.644531 128.972656 C 257.003906 128.753906 257.40625 128.566406 257.847656 128.425781 C 257.40625 128.566406 257.007812 128.753906 256.644531 128.972656 M 257.847656 128.425781 C 257.851562 128.421875 257.855469 128.417969 257.859375 128.417969 C 257.855469 128.417969 257.851562 128.421875 257.847656 128.425781 M 257.863281 128.417969 C 257.867188 128.417969 257.871094 128.417969 257.875 128.414062 C 257.871094 128.417969 257.867188 128.417969 257.863281 128.417969 M 257.878906 128.414062 C 257.882812 128.410156 257.886719 128.410156 257.894531 128.40625 C 257.886719 128.410156 257.882812 128.410156 257.878906 128.414062 M 257.894531 128.40625 C 257.898438 128.40625 257.902344 128.40625 257.90625 128.40625 C 257.902344 128.40625 257.898438 128.40625 257.894531 128.40625 M 257.910156 128.402344 C 257.914062 128.402344 257.917969 128.402344 257.921875 128.398438 C 257.917969 128.402344 257.914062 128.402344 257.910156 128.402344 M 257.925781 128.398438 C 257.929688 128.394531 257.933594 128.394531 257.9375 128.394531 C 257.933594 128.394531 257.929688 128.394531 257.925781 128.398438 M 257.945312 128.394531 C 257.945312 128.394531 257.949219 128.390625 257.957031 128.386719 C 257.949219 128.390625 257.945312 128.394531 257.945312 128.394531 M 257.957031 128.386719 C 257.964844 128.386719 257.96875 128.382812 257.976562 128.382812 C 257.96875 128.382812 257.964844 128.386719 257.957031 128.386719 M 257.976562 128.382812 C 257.992188 128.378906 258.011719 128.375 258.027344 128.367188 C 258.011719 128.375 257.992188 128.378906 257.976562 128.382812 M 258.058594 128.359375 C 258.070312 128.351562 258.082031 128.351562 258.097656 128.347656 C 258.082031 128.351562 258.070312 128.351562 258.058594 128.359375 "/>
<path style=" stroke:none;fill-rule:nonzero;fill:rgb(15.289307%,8.628845%,5.879211%);fill-opacity:1;" d="M 280.503906 139.527344 C 280.296875 138.703125 279.851562 137.84375 279.113281 137.082031 C 274.980469 132.8125 269.308594 130.492188 263.511719 130.492188 C 261.429688 130.492188 259.328125 130.792969 257.28125 131.410156 C 256.207031 131.734375 255.359375 132.3125 254.769531 132.984375 C 254.175781 131.777344 254.921875 130.023438 256.636719 128.976562 C 256.636719 128.976562 256.640625 128.972656 256.640625 128.972656 C 256.644531 128.972656 256.644531 128.972656 256.644531 128.972656 C 257.007812 128.753906 257.40625 128.566406 257.847656 128.425781 C 257.851562 128.421875 257.855469 128.417969 257.859375 128.417969 C 257.859375 128.417969 257.859375 128.417969 257.863281 128.417969 C 257.867188 128.417969 257.871094 128.417969 257.875 128.414062 C 257.875 128.414062 257.878906 128.414062 257.878906 128.414062 C 257.882812 128.410156 257.886719 128.410156 257.894531 128.40625 C 257.898438 128.40625 257.902344 128.40625 257.90625 128.40625 C 257.90625 128.40625 257.910156 128.40625 257.910156 128.402344 C 257.914062 128.402344 257.917969 128.402344 257.921875 128.398438 C 257.925781 128.398438 257.925781 128.398438 257.925781 128.398438 C 257.929688 128.394531 257.933594 128.394531 257.9375 128.394531 C 257.9375 128.394531 257.941406 128.394531 257.945312 128.394531 C 257.945312 128.394531 257.949219 128.390625 257.957031 128.386719 C 257.964844 128.386719 257.96875 128.382812 257.976562 128.382812 C 257.992188 128.378906 258.011719 128.375 258.027344 128.367188 C 258.039062 128.363281 258.046875 128.363281 258.058594 128.359375 C 258.070312 128.351562 258.082031 128.351562 258.097656 128.347656 C 260.101562 127.757812 262.160156 127.46875 264.199219 127.46875 C 264.199219 127.46875 264.203125 127.46875 264.203125 127.46875 C 269.953125 127.46875 275.589844 129.753906 279.71875 133.964844 C 279.734375 133.984375 279.75 134 279.769531 134.015625 C 279.78125 134.03125 279.792969 134.046875 279.808594 134.058594 C 281.660156 135.960938 281.71875 138.503906 280.503906 139.527344 "/>
<path style=" stroke:none;fill-rule:nonzero;fill:rgb(100%,100%,100%);fill-opacity:1;" d="M 273.535156 157.722656 C 273.535156 163.992188 268.453125 169.074219 262.171875 169.074219 C 255.898438 169.074219 250.808594 163.992188 250.808594 157.722656 C 250.808594 151.460938 255.898438 146.378906 262.171875 146.378906 C 268.453125 146.378906 273.535156 151.460938 273.535156 157.722656 "/>
<path style=" stroke:none;fill-rule:nonzero;fill:rgb(14.509583%,7.449341%,5.879211%);fill-opacity:1;" d="M 263.296875 169.085938 C 263.054688 169.085938 262.851562 169.082031 262.679688 169.078125 C 262.347656 169.074219 262.171875 169.074219 262.171875 169.074219 C 268.453125 169.074219 273.535156 163.992188 273.535156 157.722656 C 273.535156 151.460938 268.453125 146.378906 262.171875 146.378906 C 258.78125 146.378906 255.742188 147.859375 253.65625 150.207031 C 253.652344 150.214844 253.648438 150.21875 253.648438 150.21875 C 253.648438 150.21875 253.765625 150.082031 253.980469 149.832031 C 254.09375 149.703125 254.226562 149.550781 254.382812 149.367188 C 254.550781 149.191406 254.761719 149.007812 254.992188 148.792969 C 255.21875 148.574219 255.496094 148.363281 255.804688 148.140625 C 255.957031 148.03125 256.117188 147.914062 256.28125 147.792969 C 256.460938 147.691406 256.644531 147.582031 256.832031 147.46875 C 257.582031 147.003906 258.515625 146.628906 259.566406 146.324219 C 260.441406 146.128906 261.421875 145.945312 262.441406 145.945312 C 262.648438 145.945312 262.863281 145.957031 263.078125 145.972656 C 264.339844 146.042969 265.691406 146.3125 266.964844 146.855469 C 268.246094 147.390625 269.484375 148.175781 270.53125 149.203125 C 271.582031 150.226562 272.460938 151.457031 273.078125 152.8125 C 273.6875 154.171875 274.027344 155.648438 274.09375 157.109375 L 274.117188 157.65625 C 274.117188 157.894531 274.101562 158.019531 274.09375 158.207031 C 274.066406 158.554688 274.070312 158.882812 273.992188 159.253906 C 273.898438 159.992188 273.710938 160.671875 273.511719 161.332031 C 273.078125 162.660156 272.386719 163.828125 271.601562 164.816406 C 270.816406 165.804688 269.929688 166.625 269.003906 167.210938 C 268.5625 167.53125 268.085938 167.765625 267.648438 168 C 267.1875 168.183594 266.769531 168.402344 266.339844 168.515625 C 265.921875 168.648438 265.53125 168.773438 265.152344 168.839844 C 264.78125 168.914062 264.445312 168.992188 264.128906 169.011719 C 263.816406 169.042969 263.539062 169.074219 263.296875 169.085938 "/>
<path style=" stroke:none;fill-rule:nonzero;fill:rgb(21.179199%,12.548828%,9.01947%);fill-opacity:1;" d="M 262.171875 169.074219 C 262.171875 169.074219 262.347656 169.050781 262.679688 169.011719 C 262.84375 168.992188 263.042969 168.96875 263.28125 168.945312 C 263.519531 168.894531 263.789062 168.839844 264.089844 168.777344 C 264.390625 168.730469 264.714844 168.625 265.066406 168.515625 C 265.421875 168.421875 265.789062 168.261719 266.179688 168.09375 C 266.953125 167.757812 267.777344 167.273438 268.59375 166.648438 C 269.425781 166.03125 270.191406 165.214844 270.878906 164.273438 C 271.554688 163.324219 272.125 162.222656 272.488281 161.011719 C 272.65625 160.402344 272.800781 159.769531 272.867188 159.148438 C 272.925781 158.851562 272.917969 158.488281 272.933594 158.148438 C 272.9375 157.992188 272.957031 157.769531 272.949219 157.660156 L 272.917969 157.167969 C 272.851562 155.851562 272.53125 154.53125 271.96875 153.3125 C 271.429688 152.089844 270.652344 150.96875 269.710938 150.039062 C 268.773438 149.109375 267.691406 148.34375 266.535156 147.828125 C 265.371094 147.308594 264.191406 147 263.03125 146.875 C 262.65625 146.824219 262.289062 146.808594 261.933594 146.808594 C 261.160156 146.808594 260.421875 146.898438 259.722656 147 C 258.722656 147.230469 257.796875 147.492188 257.039062 147.867188 C 256.847656 147.957031 256.660156 148.042969 256.480469 148.128906 C 256.308594 148.230469 256.148438 148.328125 255.988281 148.421875 C 255.667969 148.605469 255.378906 148.78125 255.144531 148.976562 C 254.898438 149.160156 254.679688 149.324219 254.488281 149.46875 C 254.308594 149.628906 254.152344 149.765625 254.03125 149.875 C 253.820312 150.066406 253.691406 150.179688 253.65625 150.207031 C 255.742188 147.859375 258.78125 146.378906 262.171875 146.378906 C 268.453125 146.378906 273.535156 151.460938 273.535156 157.722656 C 273.535156 163.992188 268.453125 169.074219 262.171875 169.074219 "/>
<path style=" stroke:none;fill-rule:nonzero;fill:rgb(13.729858%,12.159729%,12.548828%);fill-opacity:1;" d="M 270.207031 160.042969 C 270.207031 165.027344 266.164062 169.074219 261.160156 169.074219 C 256.167969 169.074219 252.117188 165.027344 252.117188 160.042969 C 252.117188 155.058594 256.167969 151.011719 261.160156 151.011719 C 266.164062 151.011719 270.207031 155.058594 270.207031 160.042969 "/>
<path style=" stroke:none;fill-rule:nonzero;fill:rgb(34.118652%,14.509583%,7.449341%);fill-opacity:1;" d="M 269.082031 160.042969 C 269.082031 164.527344 265.535156 168.175781 261.160156 168.175781 C 256.78125 168.175781 253.234375 164.527344 253.234375 160.042969 C 253.234375 155.550781 256.78125 151.914062 261.160156 151.914062 C 265.535156 151.914062 269.082031 155.550781 269.082031 160.042969 "/>
<path style=" stroke:none;fill-rule:nonzero;fill:rgb(38.819885%,23.919678%,7.839966%);fill-opacity:1;" d="M 269.058594 160.859375 L 261.285156 160.058594 L 269.082031 160.003906 L 269.082031 160.042969 C 269.082031 160.316406 269.082031 160.59375 269.058594 160.859375 Z M 268.089844 163.988281 L 261.234375 160.058594 L 261.199219 160.046875 L 261.210938 160.058594 L 261.199219 160.046875 L 261.199219 160.058594 L 261.199219 160.042969 L 261.191406 160.046875 L 261.191406 160.058594 L 261.191406 160.046875 L 261.191406 160.058594 L 261.191406 160.042969 L 261.191406 160.046875 L 261.179688 160.042969 L 261.191406 160.042969 L 261.179688 160.042969 L 261.179688 160.058594 L 261.179688 160.042969 L 261.167969 160.042969 L 261.179688 160.042969 L 261.179688 160.03125 L 261.167969 160.03125 L 261.179688 160.03125 L 261.179688 160.035156 L 261.179688 160.027344 L 261.179688 160.03125 L 261.179688 160.027344 L 262.324219 152.046875 C 262.601562 152.078125 262.851562 152.132812 263.109375 152.199219 L 261.179688 160.027344 L 261.179688 160.03125 L 263.878906 152.4375 C 264.132812 152.539062 264.375 152.640625 264.617188 152.769531 L 261.191406 160.03125 L 265.320312 153.160156 C 265.554688 153.300781 265.773438 153.453125 265.976562 153.617188 L 261.191406 160.03125 L 261.199219 160.035156 L 266.597656 154.148438 C 266.789062 154.335938 266.96875 154.53125 267.148438 154.734375 L 261.199219 160.03125 L 261.214844 160.03125 L 267.648438 155.378906 C 267.796875 155.605469 267.9375 155.835938 268.078125 156.066406 L 261.261719 160.015625 L 268.429688 156.804688 C 268.542969 157.066406 268.632812 157.316406 268.722656 157.582031 L 261.269531 160.027344 L 268.921875 158.378906 C 268.976562 158.644531 269.023438 158.921875 269.050781 159.199219 L 261.214844 160.035156 L 261.210938 160.042969 L 261.214844 160.042969 L 261.261719 160.058594 L 261.234375 160.058594 L 261.269531 160.058594 L 268.921875 161.679688 C 268.875 161.945312 268.804688 162.214844 268.730469 162.476562 L 261.261719 160.070312 L 268.453125 163.257812 C 268.335938 163.496094 268.214844 163.75 268.089844 163.988281 Z M 267.167969 165.335938 L 261.210938 160.058594 L 261.214844 160.058594 L 267.660156 164.683594 C 267.507812 164.914062 267.34375 165.132812 267.167969 165.335938 Z M 266.003906 166.460938 L 261.191406 160.058594 L 261.199219 160.058594 L 266.625 165.925781 C 266.425781 166.109375 266.21875 166.292969 266.003906 166.460938 Z M 263.152344 167.878906 L 261.179688 160.058594 L 261.179688 160.070312 L 261.179688 160.058594 L 261.179688 160.0625 L 261.179688 160.058594 L 261.191406 160.058594 L 265.34375 166.917969 C 265.125 167.070312 264.894531 167.199219 264.652344 167.316406 L 261.191406 160.058594 L 261.179688 160.058594 L 263.914062 167.636719 C 263.65625 167.730469 263.402344 167.8125 263.152344 167.878906 Z M 261.566406 168.128906 L 261.167969 160.03125 L 260.738281 151.964844 C 260.996094 151.953125 261.269531 151.953125 261.535156 151.964844 L 261.167969 160.042969 L 261.167969 160.058594 L 262.367188 168.046875 C 262.097656 168.082031 261.835938 168.109375 261.566406 168.128906 Z M 260.769531 168.128906 C 260.511719 168.109375 260.238281 168.082031 259.984375 168.046875 L 261.144531 160.0625 L 261.144531 160.058594 L 261.140625 160.058594 L 261.144531 160.070312 L 261.140625 160.058594 L 259.195312 167.886719 C 258.9375 167.820312 258.671875 167.734375 258.417969 167.648438 L 261.140625 160.058594 L 257.691406 167.328125 C 257.453125 167.199219 257.214844 167.074219 256.984375 166.925781 L 261.136719 160.058594 L 261.132812 160.058594 L 256.328125 166.464844 C 256.125 166.296875 255.914062 166.125 255.71875 165.9375 L 261.132812 160.058594 L 261.117188 160.058594 L 255.15625 165.347656 C 254.988281 165.136719 254.832031 164.917969 254.671875 164.699219 L 261.101562 160.058594 L 254.234375 164.003906 C 254.109375 163.761719 253.984375 163.519531 253.878906 163.269531 L 261.039062 160.074219 L 253.601562 162.492188 C 253.519531 162.230469 253.441406 161.960938 253.394531 161.695312 L 261.101562 160.058594 L 253.269531 160.882812 C 253.238281 160.605469 253.234375 160.335938 253.234375 160.058594 L 261.101562 160.042969 L 253.269531 159.246094 C 253.289062 158.972656 253.332031 158.695312 253.378906 158.425781 L 261.039062 160.027344 L 253.59375 157.628906 C 253.65625 157.371094 253.765625 157.109375 253.867188 156.855469 L 261.078125 160.03125 L 254.226562 156.117188 C 254.359375 155.871094 254.503906 155.644531 254.652344 155.417969 L 261.117188 160.035156 L 261.132812 160.042969 L 255.144531 154.769531 C 255.316406 154.566406 255.507812 154.367188 255.695312 154.179688 L 261.132812 160.042969 L 261.136719 160.03125 L 256.308594 153.644531 C 256.515625 153.484375 256.734375 153.320312 256.957031 153.179688 L 261.136719 160.03125 L 261.140625 160.03125 L 257.660156 152.777344 C 257.894531 152.664062 258.144531 152.554688 258.398438 152.464844 L 261.140625 160.03125 L 261.144531 160.027344 L 259.160156 152.214844 C 259.421875 152.152344 259.6875 152.082031 259.945312 152.046875 L 261.144531 160.027344 L 261.160156 160.027344 L 261.144531 160.027344 L 261.160156 160.03125 L 261.160156 160.035156 L 261.160156 160.03125 L 261.160156 160.042969 L 261.160156 160.03125 L 261.160156 160.058594 L 260.769531 168.128906 "/>
<path style=" stroke:none;fill-rule:nonzero;fill:rgb(13.729858%,12.159729%,12.548828%);fill-opacity:1;" d="M 265.453125 160.042969 C 265.453125 162.46875 263.527344 164.445312 261.160156 164.445312 C 258.785156 164.445312 256.863281 162.46875 256.863281 160.042969 C 256.863281 157.605469 258.785156 155.648438 261.160156 155.648438 C 263.527344 155.648438 265.453125 157.605469 265.453125 160.042969 "/>
<path style=" stroke:none;fill-rule:nonzero;fill:rgb(100%,100%,100%);fill-opacity:1;" d="M 269.1875 154.335938 C 269.1875 156.199219 267.710938 157.71875 265.859375 157.71875 C 264.042969 157.71875 262.558594 156.199219 262.558594 154.335938 C 262.558594 152.453125 264.042969 150.933594 265.859375 150.933594 C 267.710938 150.933594 269.1875 152.453125 269.1875 154.335938 "/>
<path style=" stroke:none;fill-rule:nonzero;fill:rgb(100%,100%,100%);fill-opacity:1;" d="M 263.476562 159.074219 C 263.476562 159.679688 263.003906 160.167969 262.40625 160.167969 C 261.804688 160.167969 261.332031 159.679688 261.332031 159.074219 C 261.332031 158.472656 261.804688 157.96875 262.40625 157.96875 C 263.003906 157.96875 263.476562 158.472656 263.476562 159.074219 "/>
<path style=" stroke:none;fill-rule:nonzero;fill:rgb(58.81958%,39.99939%,26.269531%);fill-opacity:1;" d="M 249.183594 171.085938 C 249.183594 171.085938 269.890625 159.808594 285.867188 175.003906 "/>
<path style=" stroke:none;fill-rule:nonzero;fill:rgb(50.979614%,34.509277%,22.349548%);fill-opacity:1;" d="M 249.183594 171.085938 C 249.183594 171.085938 249.648438 170.648438 250.558594 170.011719 C 251.46875 169.375 252.820312 168.53125 254.5625 167.746094 C 255.429688 167.347656 256.398438 166.976562 257.441406 166.621094 C 258.488281 166.289062 259.609375 165.960938 260.800781 165.734375 C 263.164062 165.242188 265.78125 165.050781 268.390625 165.234375 C 269.695312 165.332031 270.996094 165.53125 272.257812 165.808594 C 273.511719 166.105469 274.726562 166.484375 275.871094 166.945312 C 277.007812 167.402344 278.066406 167.941406 279.027344 168.507812 C 279.5 168.808594 279.964844 169.089844 280.398438 169.382812 C 280.8125 169.699219 281.214844 170.003906 281.601562 170.296875 C 282.34375 170.914062 282.996094 171.507812 283.535156 172.070312 C 284.0625 172.648438 284.523438 173.140625 284.851562 173.585938 C 285.527344 174.476562 285.867188 175.003906 285.867188 175.003906 C 285.867188 175.003906 285.289062 174.714844 284.351562 174.171875 C 283.894531 173.886719 283.285156 173.621094 282.640625 173.261719 C 282.324219 173.078125 281.960938 172.917969 281.585938 172.742188 C 281.210938 172.574219 280.839844 172.355469 280.421875 172.191406 C 280.011719 172.015625 279.589844 171.832031 279.148438 171.644531 C 278.703125 171.472656 278.242188 171.300781 277.773438 171.117188 C 276.824219 170.777344 275.820312 170.457031 274.773438 170.175781 C 274.253906 170.027344 273.710938 169.929688 273.175781 169.792969 C 272.632812 169.671875 272.074219 169.589844 271.519531 169.46875 C 270.398438 169.304688 269.261719 169.136719 268.109375 169.070312 C 267.53125 169.019531 266.957031 168.984375 266.378906 168.976562 C 265.804688 168.957031 265.230469 168.957031 264.65625 168.957031 C 264.078125 168.96875 263.511719 168.984375 262.949219 169 C 262.386719 169.039062 261.828125 169.054688 261.277344 169.105469 C 259.078125 169.273438 257.007812 169.5625 255.222656 169.867188 C 253.433594 170.167969 251.933594 170.484375 250.867188 170.707031 C 249.796875 170.949219 249.183594 171.085938 249.183594 171.085938 "/>
<path style=" stroke:none;fill-rule:nonzero;fill:rgb(100%,100%,100%);fill-opacity:1;" d="M 276.855469 150.929688 C 269.976562 151.425781 269.578125 151.820312 269.089844 158.6875 C 268.59375 151.820312 268.195312 151.425781 261.316406 150.929688 C 268.195312 150.441406 268.59375 150.039062 269.089844 143.175781 C 269.578125 150.039062 269.976562 150.441406 276.855469 150.929688 "/>
<path style=" stroke:none;fill-rule:nonzero;fill:rgb(100%,100%,100%);fill-opacity:1;" d="M 157.601562 157.722656 C 157.601562 163.992188 162.691406 169.074219 168.964844 169.074219 C 175.246094 169.074219 180.335938 163.992188 180.335938 157.722656 C 180.335938 151.460938 175.246094 146.378906 168.964844 146.378906 C 162.691406 146.378906 157.601562 151.460938 157.601562 157.722656 "/>
<path style=" stroke:none;fill-rule:nonzero;fill:rgb(14.509583%,7.449341%,5.879211%);fill-opacity:1;" d="M 167.839844 169.085938 C 167.597656 169.074219 167.320312 169.042969 167.007812 169.011719 C 166.695312 168.992188 166.355469 168.914062 165.984375 168.835938 C 165.609375 168.773438 165.21875 168.644531 164.796875 168.515625 C 164.371094 168.398438 163.953125 168.179688 163.488281 167.996094 C 163.054688 167.761719 162.578125 167.53125 162.136719 167.210938 C 161.210938 166.621094 160.324219 165.804688 159.535156 164.816406 C 158.75 163.828125 158.058594 162.65625 157.625 161.332031 C 157.425781 160.667969 157.242188 159.988281 157.144531 159.253906 C 157.066406 158.878906 157.070312 158.554688 157.042969 158.207031 C 157.035156 158.019531 157.019531 157.894531 157.023438 157.65625 L 157.042969 157.109375 C 157.109375 155.648438 157.453125 154.171875 158.058594 152.8125 C 158.679688 151.457031 159.558594 150.226562 160.609375 149.203125 C 161.65625 148.179688 162.894531 147.390625 164.175781 146.855469 C 165.449219 146.3125 166.800781 146.042969 168.0625 145.972656 C 168.277344 145.957031 168.488281 145.945312 168.699219 145.945312 C 169.71875 145.945312 170.695312 146.128906 171.574219 146.324219 C 172.625 146.628906 173.558594 147.003906 174.308594 147.46875 C 174.496094 147.582031 174.679688 147.691406 174.859375 147.792969 C 175.023438 147.914062 175.183594 148.03125 175.335938 148.140625 C 175.644531 148.363281 175.921875 148.570312 176.148438 148.792969 C 176.378906 149.007812 176.589844 149.191406 176.757812 149.367188 C 176.914062 149.550781 177.046875 149.703125 177.15625 149.832031 C 177.296875 149.996094 177.398438 150.109375 177.449219 150.171875 C 175.367188 147.84375 172.335938 146.378906 168.964844 146.378906 C 162.691406 146.378906 157.601562 151.460938 157.601562 157.722656 C 157.601562 163.992188 162.691406 169.074219 168.964844 169.074219 C 168.964844 169.074219 168.789062 169.074219 168.457031 169.078125 C 168.289062 169.082031 168.082031 169.085938 167.839844 169.085938 "/>
<path style=" stroke:none;fill-rule:nonzero;fill:rgb(21.179199%,12.548828%,9.01947%);fill-opacity:1;" d="M 168.964844 169.074219 C 162.691406 169.074219 157.601562 163.992188 157.601562 157.722656 C 157.601562 151.460938 162.691406 146.378906 168.964844 146.378906 C 172.335938 146.378906 175.367188 147.84375 177.449219 150.171875 C 177.476562 150.199219 177.488281 150.21875 177.488281 150.21875 C 177.488281 150.21875 177.359375 150.097656 177.109375 149.875 C 176.984375 149.765625 176.832031 149.628906 176.652344 149.46875 C 176.460938 149.324219 176.242188 149.160156 175.996094 148.976562 C 175.761719 148.78125 175.472656 148.605469 175.152344 148.421875 C 174.992188 148.328125 174.828125 148.226562 174.65625 148.128906 C 174.480469 148.042969 174.292969 147.957031 174.101562 147.867188 C 173.339844 147.492188 172.417969 147.230469 171.417969 147 C 170.71875 146.898438 169.980469 146.808594 169.207031 146.808594 C 168.847656 146.808594 168.484375 146.824219 168.109375 146.875 C 166.949219 147 165.769531 147.308594 164.609375 147.828125 C 163.449219 148.347656 162.367188 149.113281 161.429688 150.039062 C 160.488281 150.96875 159.707031 152.089844 159.167969 153.3125 C 158.609375 154.527344 158.289062 155.851562 158.21875 157.167969 L 158.1875 157.660156 C 158.183594 157.769531 158.199219 157.992188 158.203125 158.148438 C 158.222656 158.484375 158.210938 158.847656 158.273438 159.148438 C 158.335938 159.769531 158.480469 160.398438 158.648438 161.007812 C 159.011719 162.222656 159.582031 163.324219 160.257812 164.269531 C 160.945312 165.210938 161.714844 166.03125 162.539062 166.644531 C 163.359375 167.273438 164.183594 167.757812 164.960938 168.089844 C 165.351562 168.257812 165.714844 168.421875 166.070312 168.511719 C 166.421875 168.621094 166.746094 168.730469 167.046875 168.777344 C 167.347656 168.839844 167.617188 168.894531 167.855469 168.945312 C 168.089844 168.96875 168.296875 168.992188 168.457031 169.011719 C 168.789062 169.050781 168.964844 169.074219 168.964844 169.074219 "/>
<path style=" stroke:none;fill-rule:nonzero;fill:rgb(13.729858%,12.159729%,12.548828%);fill-opacity:1;" d="M 160.933594 160.042969 C 160.933594 165.027344 164.976562 169.074219 169.980469 169.074219 C 174.96875 169.074219 179.03125 165.027344 179.03125 160.042969 C 179.03125 155.058594 174.96875 151.011719 169.980469 151.011719 C 164.976562 151.011719 160.933594 155.058594 160.933594 160.042969 "/>
<path style=" stroke:none;fill-rule:nonzero;fill:rgb(34.118652%,14.509583%,7.449341%);fill-opacity:1;" d="M 162.054688 160.042969 C 162.054688 164.527344 165.601562 168.175781 169.984375 168.175781 C 174.359375 168.175781 177.910156 164.527344 177.910156 160.042969 C 177.910156 155.550781 174.359375 151.914062 169.984375 151.914062 C 165.601562 151.914062 162.054688 155.550781 162.054688 160.042969 "/>
<path style=" stroke:none;fill-rule:nonzero;fill:rgb(38.819885%,23.919678%,7.839966%);fill-opacity:1;" d="M 162.054688 160.042969 L 162.054688 160.003906 L 169.855469 160.058594 L 162.082031 160.859375 C 162.054688 160.59375 162.054688 160.316406 162.054688 160.042969 Z M 162.691406 163.257812 L 169.878906 160.070312 L 162.410156 162.476562 C 162.332031 162.214844 162.261719 161.945312 162.21875 161.679688 L 169.871094 160.058594 L 169.902344 160.058594 L 169.878906 160.058594 L 169.925781 160.042969 L 169.929688 160.042969 L 169.925781 160.035156 L 162.085938 159.199219 C 162.117188 158.921875 162.164062 158.644531 162.21875 158.378906 L 169.871094 160.027344 L 162.421875 157.582031 C 162.507812 157.316406 162.597656 157.066406 162.710938 156.804688 L 169.878906 160.015625 L 163.066406 156.066406 C 163.203125 155.835938 163.34375 155.605469 163.492188 155.378906 L 169.925781 160.03125 L 169.9375 160.03125 L 163.996094 154.734375 C 164.167969 154.53125 164.347656 154.335938 164.546875 154.148438 L 169.9375 160.035156 L 169.945312 160.035156 L 169.949219 160.03125 L 165.160156 153.617188 C 165.363281 153.453125 165.585938 153.300781 165.824219 153.160156 L 169.949219 160.03125 L 166.523438 152.769531 C 166.765625 152.640625 167.011719 152.539062 167.265625 152.4375 L 169.960938 160.03125 L 169.964844 160.027344 L 168.03125 152.199219 C 168.289062 152.132812 168.542969 152.078125 168.816406 152.046875 L 169.964844 160.027344 L 169.964844 160.03125 L 169.964844 160.027344 L 169.964844 160.035156 L 169.964844 160.03125 L 169.976562 160.03125 L 169.964844 160.03125 L 169.964844 160.042969 L 169.976562 160.042969 L 169.964844 160.042969 L 169.964844 160.058594 L 169.964844 160.042969 L 169.949219 160.042969 L 169.960938 160.042969 L 169.949219 160.046875 L 169.949219 160.042969 L 169.949219 160.058594 L 169.949219 160.046875 L 169.949219 160.058594 L 169.949219 160.046875 L 169.945312 160.042969 L 169.945312 160.046875 L 169.9375 160.058594 L 169.9375 160.046875 L 169.929688 160.058594 L 169.9375 160.046875 L 169.902344 160.058594 L 163.054688 163.988281 C 162.929688 163.75 162.808594 163.496094 162.691406 163.257812 Z M 163.476562 164.683594 L 169.925781 160.058594 L 169.929688 160.058594 L 163.972656 165.335938 C 163.796875 165.132812 163.632812 164.914062 163.476562 164.683594 Z M 164.519531 165.925781 L 169.945312 160.058594 L 169.949219 160.058594 L 165.132812 166.460938 C 164.921875 166.292969 164.71875 166.109375 164.519531 165.925781 Z M 167.230469 167.636719 L 169.960938 160.058594 L 169.949219 160.058594 L 166.492188 167.316406 C 166.25 167.199219 166.015625 167.070312 165.796875 166.917969 L 169.949219 160.058594 L 169.964844 160.058594 L 169.964844 160.0625 L 169.964844 160.058594 L 169.964844 160.070312 L 169.964844 160.058594 L 167.992188 167.878906 C 167.738281 167.8125 167.484375 167.730469 167.230469 167.636719 Z M 168.777344 168.046875 L 169.976562 160.058594 L 169.976562 160.042969 L 169.601562 151.964844 C 169.871094 151.953125 170.144531 151.953125 170.402344 151.964844 L 169.976562 160.03125 L 169.578125 168.128906 C 169.304688 168.109375 169.039062 168.082031 168.777344 168.046875 Z M 169.984375 160.058594 L 169.984375 160.03125 L 169.984375 160.042969 L 169.984375 160.03125 L 169.984375 160.035156 L 169.984375 160.03125 L 169.996094 160.027344 L 169.984375 160.027344 L 169.996094 160.027344 L 171.195312 152.046875 C 171.457031 152.082031 171.71875 152.152344 171.980469 152.214844 L 169.996094 160.027344 L 170 160.03125 L 172.746094 152.464844 C 172.996094 152.554688 173.242188 152.664062 173.480469 152.777344 L 170 160.03125 L 170.003906 160.03125 L 174.179688 153.179688 C 174.40625 153.320312 174.625 153.484375 174.828125 153.644531 L 170.003906 160.03125 L 170.007812 160.042969 L 175.445312 154.179688 C 175.636719 154.367188 175.820312 154.566406 175.996094 154.769531 L 170.007812 160.042969 L 170.03125 160.035156 L 176.488281 155.417969 C 176.636719 155.644531 176.78125 155.871094 176.914062 156.117188 L 170.058594 160.03125 L 177.273438 156.855469 C 177.378906 157.109375 177.484375 157.371094 177.546875 157.628906 L 170.105469 160.027344 L 177.757812 158.425781 C 177.808594 158.695312 177.847656 158.972656 177.878906 159.246094 L 170.042969 160.042969 L 177.910156 160.058594 C 177.910156 160.335938 177.90625 160.605469 177.878906 160.882812 L 170.042969 160.058594 L 177.742188 161.695312 C 177.695312 161.960938 177.621094 162.230469 177.542969 162.492188 L 170.105469 160.074219 L 177.261719 163.269531 C 177.152344 163.519531 177.03125 163.761719 176.90625 164.003906 L 170.042969 160.058594 L 176.464844 164.699219 C 176.304688 164.917969 176.152344 165.136719 175.980469 165.347656 L 170.019531 160.058594 L 170.007812 160.058594 L 175.421875 165.9375 C 175.226562 166.125 175.011719 166.296875 174.816406 166.464844 L 170.007812 160.058594 L 170.003906 160.058594 L 174.15625 166.925781 C 173.929688 167.074219 173.6875 167.199219 173.453125 167.328125 L 170 160.058594 L 172.722656 167.648438 C 172.46875 167.734375 172.203125 167.820312 171.949219 167.886719 L 170 160.058594 L 169.996094 160.070312 L 170 160.058594 L 169.996094 160.058594 L 169.996094 160.0625 L 171.15625 168.046875 C 170.902344 168.082031 170.628906 168.109375 170.367188 168.128906 L 169.984375 160.058594 "/>
<path style=" stroke:none;fill-rule:nonzero;fill:rgb(13.729858%,12.159729%,12.548828%);fill-opacity:1;" d="M 165.683594 160.042969 C 165.683594 162.46875 167.617188 164.445312 169.984375 164.445312 C 172.355469 164.445312 174.277344 162.46875 174.277344 160.042969 C 174.277344 157.605469 172.355469 155.648438 169.984375 155.648438 C 167.617188 155.648438 165.683594 157.605469 165.683594 160.042969 "/>
<path style=" stroke:none;fill-rule:nonzero;fill:rgb(100%,100%,100%);fill-opacity:1;" d="M 161.949219 154.335938 C 161.949219 156.199219 163.425781 157.71875 165.285156 157.71875 C 167.097656 157.71875 168.578125 156.199219 168.578125 154.335938 C 168.578125 152.453125 167.097656 150.933594 165.285156 150.933594 C 163.425781 150.933594 161.949219 152.453125 161.949219 154.335938 "/>
<path style=" stroke:none;fill-rule:nonzero;fill:rgb(100%,100%,100%);fill-opacity:1;" d="M 167.660156 159.074219 C 167.660156 159.679688 168.132812 160.167969 168.734375 160.167969 C 169.335938 160.167969 169.8125 159.679688 169.8125 159.074219 C 169.8125 158.472656 169.335938 157.96875 168.734375 157.96875 C 168.132812 157.96875 167.660156 158.472656 167.660156 159.074219 "/>
<path style=" stroke:none;fill-rule:nonzero;fill:rgb(58.81958%,39.99939%,26.269531%);fill-opacity:1;" d="M 183.605469 171.085938 C 183.605469 171.085938 162.90625 159.808594 146.921875 175.003906 "/>
<path style=" stroke:none;fill-rule:nonzero;fill:rgb(50.979614%,34.509277%,22.349548%);fill-opacity:1;" d="M 183.605469 171.085938 C 183.605469 171.085938 182.996094 170.949219 181.925781 170.707031 C 180.859375 170.484375 179.355469 170.167969 177.566406 169.867188 C 175.78125 169.5625 173.710938 169.269531 171.511719 169.105469 C 170.960938 169.054688 170.402344 169.039062 169.84375 169 C 169.277344 168.984375 168.710938 168.96875 168.132812 168.957031 C 167.5625 168.957031 166.984375 168.957031 166.410156 168.976562 C 165.835938 168.984375 165.257812 169.019531 164.683594 169.070312 C 163.53125 169.136719 162.390625 169.304688 161.269531 169.46875 C 160.71875 169.589844 160.160156 169.671875 159.617188 169.792969 C 159.082031 169.929688 158.535156 170.027344 158.015625 170.179688 C 156.96875 170.457031 155.964844 170.78125 155.019531 171.117188 C 154.546875 171.300781 154.089844 171.472656 153.640625 171.644531 C 153.203125 171.832031 152.777344 172.015625 152.367188 172.191406 C 151.949219 172.355469 151.582031 172.574219 151.203125 172.742188 C 150.832031 172.917969 150.46875 173.078125 150.148438 173.261719 C 149.507812 173.621094 148.894531 173.886719 148.4375 174.171875 C 147.503906 174.714844 146.921875 175.003906 146.921875 175.003906 C 146.921875 175.003906 147.265625 174.476562 147.9375 173.585938 C 148.269531 173.140625 148.726562 172.648438 149.253906 172.070312 C 149.792969 171.507812 150.449219 170.914062 151.191406 170.296875 C 151.578125 170.003906 151.976562 169.699219 152.394531 169.382812 C 152.828125 169.089844 153.292969 168.808594 153.761719 168.507812 C 154.726562 167.941406 155.78125 167.402344 156.925781 166.945312 C 158.0625 166.484375 159.277344 166.105469 160.535156 165.808594 C 161.796875 165.53125 163.09375 165.332031 164.402344 165.234375 C 167.011719 165.050781 169.628906 165.242188 171.992188 165.734375 C 173.179688 165.960938 174.300781 166.289062 175.347656 166.621094 C 176.390625 166.976562 177.359375 167.347656 178.226562 167.746094 C 179.96875 168.53125 181.324219 169.375 182.230469 170.011719 C 183.144531 170.648438 183.605469 171.085938 183.605469 171.085938 "/>
<path style=" stroke:none;fill-rule:nonzero;fill:rgb(100%,100%,100%);fill-opacity:1;" d="M 168.703125 151.914062 C 161.824219 152.402344 161.421875 152.796875 160.941406 159.671875 C 160.441406 152.796875 160.050781 152.402344 153.167969 151.914062 C 160.050781 151.417969 160.441406 151.019531 160.941406 144.15625 C 161.421875 151.019531 161.824219 151.417969 168.703125 151.914062 "/>
<path style=" stroke:none;fill-rule:nonzero;fill:rgb(19.60907%,11.369324%,8.239746%);fill-opacity:1;" d="M 294.5 60.550781 C 294.5 60.550781 330.816406 77.101562 317.570312 172.992188 C 317.570312 172.992188 313.199219 172.992188 310.566406 174.722656 L 302.863281 189.675781 L 301.402344 137.484375 C 301.402344 81.398438 245.042969 80.808594 245.042969 80.808594 L 294.5 60.550781 "/>
<path style=" stroke:none;fill-rule:nonzero;fill:rgb(19.60907%,11.369324%,8.239746%);fill-opacity:1;" d="M 151.34375 38.28125 C 151.34375 44.058594 146.652344 48.738281 140.863281 48.738281 C 135.078125 48.738281 130.386719 44.058594 130.386719 38.28125 C 130.386719 32.503906 135.078125 27.816406 140.863281 27.816406 C 146.652344 27.816406 151.34375 32.503906 151.34375 38.28125 "/>
<path style=" stroke:none;fill-rule:nonzero;fill:rgb(19.60907%,11.369324%,8.239746%);fill-opacity:1;" d="M 139.113281 52.289062 C 139.113281 58.066406 134.421875 62.75 128.636719 62.75 C 122.847656 62.75 118.15625 58.066406 118.15625 52.289062 C 118.15625 46.511719 122.847656 41.828125 128.636719 41.828125 C 134.421875 41.828125 139.113281 46.511719 139.113281 52.289062 "/>
<path style=" stroke:none;fill-rule:nonzero;fill:rgb(19.60907%,11.369324%,8.239746%);fill-opacity:1;" d="M 133.117188 69.652344 C 133.117188 75.433594 128.421875 80.109375 122.636719 80.109375 C 116.851562 80.109375 112.15625 75.433594 112.15625 69.652344 C 112.15625 63.878906 116.851562 59.191406 122.636719 59.191406 C 128.421875 59.191406 133.117188 63.878906 133.117188 69.652344 "/>
<path style=" stroke:none;fill-rule:nonzero;fill:rgb(19.60907%,11.369324%,8.239746%);fill-opacity:1;" d="M 125.875 85.316406 C 125.875 91.09375 121.183594 95.773438 115.394531 95.773438 C 109.609375 95.773438 104.917969 91.09375 104.917969 85.316406 C 104.917969 79.539062 109.609375 74.855469 115.394531 74.855469 C 121.183594 74.855469 125.875 79.539062 125.875 85.316406 "/>
<path style=" stroke:none;fill-rule:nonzero;fill:rgb(19.60907%,11.369324%,8.239746%);fill-opacity:1;" d="M 310.410156 53.296875 C 310.410156 59.074219 305.722656 63.753906 299.933594 63.753906 C 294.144531 63.753906 289.449219 59.074219 289.449219 53.296875 C 289.449219 47.519531 294.144531 42.835938 299.933594 42.835938 C 305.722656 42.835938 310.410156 47.519531 310.410156 53.296875 "/>
<path style=" stroke:none;fill-rule:nonzero;fill:rgb(19.60907%,11.369324%,8.239746%);fill-opacity:1;" d="M 320.890625 69.652344 C 320.890625 75.433594 316.199219 80.109375 310.410156 80.109375 C 304.625 80.109375 299.933594 75.433594 299.933594 69.652344 C 299.933594 63.878906 304.625 59.191406 310.410156 59.191406 C 316.199219 59.191406 320.890625 63.878906 320.890625 69.652344 "/>
<path style=" stroke:none;fill-rule:nonzero;fill:rgb(19.60907%,11.369324%,8.239746%);fill-opacity:1;" d="M 323.132812 86.648438 C 323.132812 92.425781 318.441406 97.105469 312.652344 97.105469 C 306.863281 97.105469 302.171875 92.425781 302.171875 86.648438 C 302.171875 80.871094 306.863281 76.1875 312.652344 76.1875 C 318.441406 76.1875 323.132812 80.871094 323.132812 86.648438 "/>
<path style=" stroke:none;fill-rule:nonzero;fill:rgb(19.60907%,11.369324%,8.239746%);fill-opacity:1;" d="M 167.570312 30.414062 C 167.570312 36.191406 162.878906 40.875 157.089844 40.875 C 151.300781 40.875 146.609375 36.191406 146.609375 30.414062 C 146.609375 24.636719 151.300781 19.953125 157.089844 19.953125 C 162.878906 19.953125 167.570312 24.636719 167.570312 30.414062 "/>
<path style=" stroke:none;fill-rule:nonzero;fill:rgb(19.60907%,11.369324%,8.239746%);fill-opacity:1;" d="M 184.757812 23.800781 C 184.757812 29.582031 180.066406 34.261719 174.277344 34.261719 C 168.488281 34.261719 163.796875 29.582031 163.796875 23.800781 C 163.796875 18.023438 168.488281 13.339844 174.277344 13.339844 C 180.066406 13.339844 184.757812 18.023438 184.757812 23.800781 "/>
<path style=" stroke:none;fill-rule:nonzero;fill:rgb(19.60907%,11.369324%,8.239746%);fill-opacity:1;" d="M 201.519531 21.878906 C 201.519531 27.65625 196.828125 32.335938 191.039062 32.335938 C 185.253906 32.335938 180.5625 27.65625 180.5625 21.878906 C 180.5625 16.101562 185.253906 11.417969 191.039062 11.417969 C 196.828125 11.417969 201.519531 16.101562 201.519531 21.878906 "/>
<path style=" stroke:none;fill-rule:nonzero;fill:rgb(19.60907%,11.369324%,8.239746%);fill-opacity:1;" d="M 219.96875 18.03125 C 219.96875 23.808594 215.277344 28.492188 209.488281 28.492188 C 203.703125 28.492188 199.011719 23.808594 199.011719 18.03125 C 199.011719 12.25 203.703125 7.570312 209.488281 7.570312 C 215.277344 7.570312 219.96875 12.25 219.96875 18.03125 "/>
<path style=" stroke:none;fill-rule:nonzero;fill:rgb(19.60907%,11.369324%,8.239746%);fill-opacity:1;" d="M 238.789062 18.03125 C 238.789062 23.808594 234.097656 28.492188 228.308594 28.492188 C 222.523438 28.492188 217.832031 23.808594 217.832031 18.03125 C 217.832031 12.25 222.523438 7.570312 228.308594 7.570312 C 234.097656 7.570312 238.789062 12.25 238.789062 18.03125 "/>
<path style=" stroke:none;fill-rule:nonzero;fill:rgb(19.60907%,11.369324%,8.239746%);fill-opacity:1;" d="M 255.523438 19.953125 C 255.523438 25.730469 250.832031 30.414062 245.042969 30.414062 C 239.25 30.414062 234.558594 25.730469 234.558594 19.953125 C 234.558594 14.175781 239.25 9.492188 245.042969 9.492188 C 250.832031 9.492188 255.523438 14.175781 255.523438 19.953125 "/>
<path style=" stroke:none;fill-rule:nonzero;fill:rgb(19.60907%,11.369324%,8.239746%);fill-opacity:1;" d="M 274.070312 23.800781 C 274.070312 29.582031 269.382812 34.261719 263.59375 34.261719 C 257.804688 34.261719 253.113281 29.582031 253.113281 23.800781 C 253.113281 18.023438 257.804688 13.339844 263.59375 13.339844 C 269.382812 13.339844 274.070312 18.023438 274.070312 23.800781 "/>
<path style=" stroke:none;fill-rule:nonzero;fill:rgb(19.60907%,11.369324%,8.239746%);fill-opacity:1;" d="M 291.8125 32.335938 C 291.8125 38.117188 287.121094 42.796875 281.332031 42.796875 C 275.546875 42.796875 270.855469 38.117188 270.855469 32.335938 C 270.855469 26.5625 275.546875 21.875 281.332031 21.875 C 287.121094 21.875 291.8125 26.5625 291.8125 32.335938 "/>
<path style=" stroke:none;fill-rule:nonzero;fill:rgb(19.60907%,11.369324%,8.239746%);fill-opacity:1;" d="M 302.289062 42.796875 C 302.289062 48.578125 297.597656 53.257812 291.8125 53.257812 C 286.023438 53.257812 281.332031 48.578125 281.332031 42.796875 C 281.332031 37.019531 286.023438 32.335938 291.8125 32.335938 C 297.597656 32.335938 302.289062 37.019531 302.289062 42.796875 "/>
<path style=" stroke:none;fill-rule:nonzero;fill:rgb(12.159729%,2.349854%,2.349854%);fill-opacity:1;" d="M 214.839844 33.3125 C 214.847656 33.15625 214.898438 32.84375 214.757812 32.730469 L 214.628906 32.738281 C 214.5 32.839844 214.550781 33.144531 214.554688 33.289062 C 214.5625 33.464844 214.835938 33.503906 214.839844 33.3125 "/>
<path style=" stroke:none;fill-rule:nonzero;fill:rgb(15.289307%,8.628845%,5.879211%);fill-opacity:1;" d="M 163.242188 52.289062 C 163.179688 52.289062 163.121094 52.285156 163.058594 52.285156 C 160.910156 52.152344 159.132812 50.542969 158.007812 48.824219 C 156.363281 46.320312 155.988281 43.097656 157.183594 40.875 C 159.351562 40.855469 161.367188 40.179688 163.027344 39.035156 C 163.050781 39.359375 162.90625 39.703125 162.574219 39.851562 C 161.257812 40.449219 159.5 41.414062 159.347656 43.039062 C 159.222656 44.332031 159.675781 45.710938 160.441406 46.765625 C 161.101562 47.679688 162.144531 48.859375 163.199219 48.875 C 163.285156 48.875 163.535156 48.859375 163.78125 48.519531 C 164.371094 47.703125 164.652344 46.984375 165.730469 46.710938 C 165.804688 46.691406 165.886719 46.683594 165.972656 46.683594 C 166.367188 46.683594 166.824219 46.871094 167.027344 47.175781 C 168.578125 49.53125 165.632812 52.289062 163.242188 52.289062 "/>
<path style=" stroke:none;fill-rule:nonzero;fill:rgb(15.289307%,8.628845%,5.879211%);fill-opacity:1;" d="M 157.183594 40.875 C 158.015625 39.335938 159.601562 38.277344 162.054688 38.277344 C 162.132812 38.277344 162.214844 38.277344 162.296875 38.28125 C 162.746094 38.292969 163 38.652344 163.027344 39.035156 C 161.367188 40.179688 159.351562 40.855469 157.183594 40.875 "/>
<path style=" stroke:none;fill-rule:nonzero;fill:rgb(15.289307%,8.628845%,5.879211%);fill-opacity:1;" d="M 151.910156 69.652344 C 151.140625 69.652344 150.324219 69.019531 150.738281 68.160156 C 151.324219 66.960938 152.527344 66.226562 152.601562 64.769531 C 152.65625 63.742188 152.324219 62.671875 151.664062 61.867188 C 150.632812 60.613281 149.203125 59.929688 147.730469 59.929688 C 146.785156 59.929688 145.824219 60.210938 144.949219 60.804688 C 144.828125 60.886719 144.703125 60.921875 144.59375 60.921875 C 144.148438 60.921875 143.839844 60.371094 144.230469 59.953125 C 145.46875 58.628906 147.054688 57.980469 148.648438 57.980469 C 150.414062 57.980469 152.183594 58.78125 153.46875 60.335938 C 154.539062 61.632812 155.28125 63.292969 155.113281 65.007812 C 154.957031 66.679688 154.03125 69 152.308594 69.589844 C 152.183594 69.632812 152.046875 69.652344 151.910156 69.652344 "/>
<path style=" stroke:none;fill-rule:nonzero;fill:rgb(15.289307%,8.628845%,5.879211%);fill-opacity:1;" d="M 131.523438 90.707031 C 129.472656 90.707031 127.328125 89.5 126.246094 87.726562 C 126.066406 87.429688 125.90625 87.117188 125.773438 86.800781 C 125.839844 86.3125 125.875 85.820312 125.875 85.316406 C 125.875 84.375 125.753906 83.464844 125.519531 82.597656 C 125.960938 81.28125 126.90625 80.597656 128.226562 79.972656 C 128.304688 79.9375 128.382812 79.921875 128.453125 79.921875 C 128.875 79.921875 129.136719 80.492188 128.777344 80.824219 C 127.261719 82.253906 127.261719 84.703125 128.644531 86.183594 C 129.160156 86.742188 129.90625 87.347656 130.703125 87.417969 C 130.773438 87.425781 130.84375 87.425781 130.914062 87.425781 C 131.832031 87.425781 132.480469 86.886719 133.308594 86.5 C 133.527344 86.398438 133.742188 86.355469 133.957031 86.355469 C 135.101562 86.355469 135.996094 87.707031 135.238281 88.78125 C 134.292969 90.136719 132.929688 90.707031 131.523438 90.707031 "/>
<path style=" stroke:none;fill-rule:nonzero;fill:rgb(15.289307%,8.628845%,5.879211%);fill-opacity:1;" d="M 125.773438 86.800781 C 125.308594 85.699219 125.128906 84.484375 125.34375 83.296875 C 125.386719 83.046875 125.445312 82.8125 125.519531 82.597656 C 125.753906 83.464844 125.875 84.375 125.875 85.316406 C 125.875 85.820312 125.839844 86.3125 125.773438 86.800781 "/>
<path style=" stroke:none;fill-rule:nonzero;fill:rgb(15.289307%,8.628845%,5.879211%);fill-opacity:1;" d="M 202.457031 48.40625 C 199.804688 48.40625 196.785156 45.660156 195.585938 43.84375 C 193.792969 41.136719 193.410156 36.769531 197.265625 35.730469 C 197.308594 35.71875 197.34375 35.710938 197.382812 35.710938 C 197.730469 35.710938 197.917969 36.167969 197.734375 36.449219 C 196.203125 38.777344 196.449219 40.964844 198.457031 42.957031 C 200.027344 44.519531 201.484375 45.03125 203.511719 45.03125 C 203.660156 45.03125 203.816406 45.027344 203.972656 45.023438 C 203.988281 45.023438 204.003906 45.023438 204.019531 45.023438 C 205.296875 45.023438 205.539062 46.777344 204.753906 47.503906 C 204.066406 48.140625 203.28125 48.40625 202.457031 48.40625 "/>
<path style=" stroke:none;fill-rule:nonzero;fill:rgb(15.289307%,8.628845%,5.879211%);fill-opacity:1;" d="M 220.332031 46.074219 C 219.128906 46.074219 218.585938 44.464844 219.492188 43.632812 C 220.449219 42.757812 221.191406 42.222656 221.175781 40.792969 C 221.160156 39.597656 220.765625 38.390625 220.199219 37.34375 C 219.257812 35.601562 217.910156 33.878906 215.964844 33.878906 C 215.691406 33.878906 215.410156 33.910156 215.117188 33.980469 C 215.058594 33.996094 214.996094 34.003906 214.9375 34.003906 C 214.265625 34.003906 213.769531 33.121094 214.21875 32.566406 C 214.941406 31.664062 215.785156 31.300781 216.65625 31.300781 C 219.121094 31.300781 221.820312 34.210938 222.804688 36.105469 C 224.386719 39.15625 225.214844 45.09375 220.621094 46.042969 C 220.523438 46.0625 220.425781 46.074219 220.332031 46.074219 M 214.757812 32.730469 L 214.628906 32.738281 C 214.5 32.839844 214.550781 33.144531 214.554688 33.289062 C 214.558594 33.382812 214.640625 33.4375 214.714844 33.4375 C 214.777344 33.4375 214.835938 33.398438 214.839844 33.3125 C 214.847656 33.15625 214.898438 32.84375 214.757812 32.730469 "/>
<path style=" stroke:none;fill-rule:nonzero;fill:rgb(10.5896%,1.959229%,1.568604%);fill-opacity:1;" d="M 214.714844 33.4375 C 214.640625 33.4375 214.558594 33.382812 214.554688 33.289062 C 214.550781 33.144531 214.5 32.839844 214.628906 32.738281 L 214.757812 32.730469 C 214.898438 32.84375 214.847656 33.15625 214.839844 33.3125 C 214.835938 33.398438 214.777344 33.4375 214.714844 33.4375 "/>
<path style=" stroke:none;fill-rule:nonzero;fill:rgb(15.289307%,8.628845%,5.879211%);fill-opacity:1;" d="M 260.046875 58.164062 C 258.972656 58.164062 257.804688 57.832031 257.023438 57.53125 C 255.03125 56.761719 252.910156 55.492188 251.628906 53.742188 C 249.171875 50.378906 249.566406 46.546875 254.121094 45.785156 C 254.152344 45.777344 254.1875 45.773438 254.21875 45.773438 C 254.726562 45.773438 254.898438 46.492188 254.429688 46.75 C 251.261719 48.472656 252.824219 51.234375 255.113281 52.957031 C 256.210938 53.785156 257.515625 54.605469 258.902344 54.832031 C 260.113281 55.027344 261.375 54.691406 262.308594 55.648438 C 262.585938 55.9375 262.644531 56.417969 262.507812 56.78125 C 262.117188 57.828125 261.132812 58.164062 260.046875 58.164062 "/>
<path style=" stroke:none;fill-rule:nonzero;fill:rgb(15.289307%,8.628845%,5.879211%);fill-opacity:1;" d="M 278.089844 67.027344 C 277.191406 67.027344 276.332031 66.742188 275.761719 66.042969 C 275.511719 65.734375 275.484375 65.164062 275.855469 64.917969 C 276.894531 64.222656 278.554688 64.726562 279.421875 63.871094 C 280.121094 63.183594 280.085938 61.898438 279.941406 61.007812 C 279.550781 58.632812 278.503906 56.167969 276.820312 54.417969 C 276.386719 53.976562 276.847656 53.296875 277.359375 53.296875 C 277.476562 53.296875 277.605469 53.335938 277.722656 53.429688 C 280.320312 55.46875 282.417969 59.074219 282.507812 62.414062 C 282.542969 63.871094 282.058594 65.261719 280.871094 66.132812 L 278.847656 66.960938 C 278.597656 67.003906 278.339844 67.027344 278.089844 67.027344 "/>
<path style=" stroke:none;fill-rule:nonzero;fill:rgb(15.289307%,8.628845%,5.879211%);fill-opacity:1;" d="M 278.847656 66.960938 L 280.871094 66.132812 C 280.796875 66.191406 280.710938 66.246094 280.625 66.300781 C 280.121094 66.617188 279.496094 66.855469 278.847656 66.960938 "/>
<path style=" stroke:none;fill-rule:nonzero;fill:rgb(15.289307%,8.628845%,5.879211%);fill-opacity:1;" d="M 231.878906 70.3125 C 230.019531 70.3125 228.09375 69.554688 226.667969 68.394531 C 223.21875 65.574219 221.976562 60.925781 226.226562 58.183594 C 226.398438 58.074219 226.574219 58.023438 226.734375 58.023438 C 227.378906 58.023438 227.832031 58.800781 227.257812 59.398438 C 225.050781 61.699219 226.25 64.5 228.714844 65.992188 C 229.527344 66.488281 230.625 67.066406 231.636719 67.066406 C 231.722656 67.066406 231.808594 67.0625 231.894531 67.054688 C 232.402344 66.996094 232.816406 66.867188 233.28125 66.65625 C 233.46875 66.558594 233.675781 66.492188 233.878906 66.441406 C 233.898438 66.441406 233.914062 66.441406 233.933594 66.4375 C 234.136719 66.3125 234.320312 66.257812 234.558594 66.183594 C 234.683594 66.140625 234.808594 66.117188 234.929688 66.117188 C 235.339844 66.117188 235.710938 66.351562 235.792969 66.816406 C 235.894531 67.386719 235.839844 67.828125 235.550781 68.335938 C 235.648438 68.164062 235.691406 68.101562 235.703125 68.101562 C 235.738281 68.101562 235.429688 68.761719 235.390625 68.804688 C 235.257812 68.96875 235.121094 69.128906 234.976562 69.277344 C 234.234375 69.882812 233.417969 70.199219 232.464844 70.285156 C 232.269531 70.304688 232.078125 70.3125 231.878906 70.3125 "/>
<path style=" stroke:none;fill-rule:nonzero;fill:rgb(15.289307%,8.628845%,5.879211%);fill-opacity:1;" d="M 205.679688 70.53125 C 205.566406 70.53125 205.453125 70.523438 205.339844 70.511719 C 203.453125 70.285156 201.738281 69.277344 200.433594 67.917969 C 197.71875 65.082031 196.828125 60.695312 200.96875 58.773438 C 201.050781 58.730469 201.128906 58.714844 201.203125 58.714844 C 201.664062 58.714844 201.96875 59.339844 201.566406 59.695312 C 199.429688 61.582031 200.8125 64.34375 202.753906 65.789062 C 203.890625 66.632812 204.796875 66.996094 205.8125 66.996094 C 206.414062 66.996094 207.054688 66.867188 207.808594 66.632812 C 207.871094 66.617188 207.929688 66.609375 207.992188 66.609375 C 208.367188 66.609375 208.671875 66.96875 208.765625 67.308594 C 209.273438 69.136719 207.363281 70.53125 205.679688 70.53125 "/>
<path style=" stroke:none;fill-rule:nonzero;fill:rgb(15.289307%,8.628845%,5.879211%);fill-opacity:1;" d="M 181.160156 61.152344 C 179.078125 61.152344 177.132812 59.371094 176.65625 57.230469 C 176.039062 54.464844 177.175781 51.78125 179.714844 50.484375 C 179.824219 50.429688 179.925781 50.402344 180.023438 50.402344 C 180.570312 50.402344 180.894531 51.171875 180.441406 51.613281 C 179.234375 52.792969 178.492188 54.773438 179.269531 56.394531 C 179.996094 57.925781 181.101562 58.054688 182.664062 58.089844 C 184.105469 58.117188 184.105469 59.980469 183.105469 60.59375 C 182.472656 60.980469 181.8125 61.152344 181.160156 61.152344 "/>
<path style=" stroke:none;fill-rule:nonzero;fill:rgb(15.289307%,8.628845%,5.879211%);fill-opacity:1;" d="M 189.960938 30.5 C 188.90625 30.5 187.777344 30.097656 186.976562 29.601562 C 185.578125 28.726562 184.722656 27.242188 184.605469 25.605469 C 184.347656 22.140625 186.875 19.636719 190.023438 18.773438 C 190.078125 18.757812 190.132812 18.75 190.179688 18.75 C 190.726562 18.75 190.886719 19.609375 190.375 19.878906 C 188.613281 20.8125 186.867188 23.3125 187.421875 25.414062 C 188.03125 27.722656 190.921875 26.871094 192.179688 28.453125 C 192.40625 28.742188 192.425781 29.121094 192.222656 29.429688 C 191.695312 30.207031 190.859375 30.5 189.960938 30.5 "/>
<path style=" stroke:none;fill-rule:nonzero;fill:rgb(15.289307%,8.628845%,5.879211%);fill-opacity:1;" d="M 256.027344 34.070312 C 255.3125 34.070312 254.636719 33.589844 254.8125 32.695312 C 255.261719 30.46875 254.480469 28.480469 252.632812 27.171875 C 252.628906 27.171875 252.628906 27.171875 252.628906 27.171875 C 252.902344 26.882812 253.160156 26.578125 253.402344 26.261719 C 254.007812 28.757812 255.507812 30.90625 257.546875 32.347656 C 257.527344 32.546875 257.496094 32.746094 257.453125 32.945312 C 257.300781 33.710938 256.648438 34.070312 256.027344 34.070312 "/>
<path style=" stroke:none;fill-rule:nonzero;fill:rgb(15.289307%,8.628845%,5.879211%);fill-opacity:1;" d="M 247.957031 28.710938 C 247.839844 28.710938 247.71875 28.617188 247.71875 28.46875 C 247.675781 26.039062 249.324219 24.453125 251.429688 24.453125 C 251.980469 24.453125 252.566406 24.5625 253.160156 24.792969 C 253.203125 25.292969 253.289062 25.78125 253.402344 26.261719 C 253.160156 26.578125 252.902344 26.882812 252.628906 27.171875 C 251.953125 26.691406 251.296875 26.460938 250.695312 26.460938 C 249.617188 26.460938 248.710938 27.199219 248.152344 28.566406 C 248.113281 28.667969 248.035156 28.710938 247.957031 28.710938 "/>
<path style=" stroke:none;fill-rule:nonzero;fill:rgb(15.289307%,8.628845%,5.879211%);fill-opacity:1;" d="M 257.546875 32.347656 C 255.507812 30.90625 254.007812 28.757812 253.402344 26.261719 C 253.289062 25.78125 253.203125 25.292969 253.160156 24.792969 C 253.179688 24.800781 253.195312 24.808594 253.214844 24.816406 C 256.203125 26.023438 257.902344 29.226562 257.546875 32.347656 "/>
<path style=" stroke:none;fill-rule:nonzero;fill:rgb(15.289307%,8.628845%,5.879211%);fill-opacity:1;" d="M 294.207031 80.875 C 293.6875 80.875 293.117188 80.566406 292.9375 80.074219 C 292.542969 79.03125 292.613281 78.335938 293.039062 77.296875 C 293.160156 77.015625 293.441406 76.828125 293.734375 76.828125 C 293.871094 76.828125 294.011719 76.871094 294.132812 76.957031 C 294.554688 77.265625 294.757812 77.5 294.90625 77.753906 C 297.242188 76.578125 296.949219 73.65625 295.789062 71.34375 C 294.398438 68.566406 292.058594 66.074219 288.839844 65.675781 C 288.140625 65.585938 288.070312 64.542969 288.789062 64.421875 C 289.152344 64.363281 289.515625 64.332031 289.871094 64.332031 C 297.898438 64.332031 304.21875 78.914062 294.445312 80.851562 C 294.367188 80.867188 294.289062 80.875 294.207031 80.875 "/>
<path style=" stroke:none;fill-rule:nonzero;fill:rgb(15.289307%,8.628845%,5.879211%);fill-opacity:1;" d="M 306.785156 100.894531 C 306.730469 100.894531 306.675781 100.894531 306.621094 100.890625 C 304.921875 100.792969 303.261719 99.804688 302.117188 98.578125 C 299.425781 95.6875 298.875 91.484375 302.433594 89.0625 C 302.4375 89.058594 302.445312 89.054688 302.449219 89.054688 C 302.574219 89.585938 302.742188 90.105469 302.945312 90.605469 C 301.710938 92.574219 302.308594 94.878906 304.042969 96.539062 C 304.667969 97.132812 305.542969 97.878906 306.4375 97.984375 C 306.507812 97.996094 306.578125 97.996094 306.644531 97.996094 C 307.234375 97.996094 307.742188 97.710938 308.3125 97.515625 C 308.429688 97.472656 308.550781 97.449219 308.65625 97.449219 C 309.023438 97.449219 309.316406 97.683594 309.441406 98.09375 C 309.964844 99.769531 308.289062 100.894531 306.785156 100.894531 "/>
<path style=" stroke:none;fill-rule:nonzero;fill:rgb(15.289307%,8.628845%,5.879211%);fill-opacity:1;" d="M 302.945312 90.605469 C 302.742188 90.105469 302.574219 89.585938 302.449219 89.054688 C 302.566406 88.976562 302.699219 88.941406 302.832031 88.941406 C 303.351562 88.941406 303.859375 89.472656 303.429688 89.964844 C 303.246094 90.171875 303.085938 90.386719 302.945312 90.605469 "/>
<path style=" stroke:none;fill-rule:nonzero;fill:rgb(15.289307%,8.628845%,5.879211%);fill-opacity:1;" d="M 122.324219 128.339844 C 118.691406 128.339844 115.613281 124.699219 115.417969 121.183594 C 115.332031 119.582031 115.460938 117.59375 116.554688 116.300781 C 117.269531 115.460938 118.410156 114.453125 119.589844 114.453125 C 119.867188 114.453125 120.144531 114.507812 120.421875 114.632812 C 120.710938 114.765625 120.796875 115.0625 120.640625 115.332031 C 119.710938 116.992188 118.066406 117.632812 118.363281 119.898438 C 118.574219 121.535156 119.09375 123.414062 120.539062 124.410156 C 121.132812 124.816406 121.855469 124.859375 122.582031 124.859375 C 122.683594 124.859375 122.78125 124.859375 122.878906 124.859375 C 122.976562 124.855469 123.078125 124.855469 123.175781 124.855469 C 124.003906 124.855469 124.785156 124.914062 125.304688 125.527344 C 126.6875 127.148438 123.550781 128.320312 122.457031 128.339844 C 122.414062 128.339844 122.371094 128.339844 122.324219 128.339844 "/>
<path style=" stroke:none;fill-rule:nonzero;fill:rgb(15.289307%,8.628845%,5.879211%);fill-opacity:1;" d="M 120.074219 153.820312 C 118.648438 153.820312 117.199219 153.019531 116.328125 151.488281 C 114.804688 148.816406 114.828125 144.859375 117.378906 142.894531 C 117.527344 142.785156 117.683594 142.734375 117.835938 142.734375 C 118.292969 142.734375 118.695312 143.175781 118.523438 143.695312 C 117.96875 145.4375 118 147.78125 118.78125 149.453125 C 118.945312 149.804688 119.324219 150.679688 119.777344 150.730469 C 119.8125 150.734375 119.847656 150.734375 119.882812 150.734375 C 120.550781 150.734375 121.292969 150.066406 121.84375 149.769531 C 122.015625 149.675781 122.199219 149.632812 122.378906 149.632812 C 123.234375 149.632812 124.066406 150.554688 123.648438 151.417969 C 122.867188 153.039062 121.484375 153.820312 120.074219 153.820312 "/>
<path style=" stroke:none;fill-rule:nonzero;fill:rgb(15.289307%,8.628845%,5.879211%);fill-opacity:1;" d="M 310.933594 137.246094 C 309.816406 137.246094 308.722656 136.636719 308.109375 135.527344 C 307.917969 135.183594 308.183594 134.746094 308.550781 134.679688 C 309.414062 134.519531 310.925781 134.667969 311.351562 133.945312 C 311.882812 133.046875 311.792969 131.746094 311.617188 130.761719 C 311.234375 128.644531 310.402344 126.445312 308.289062 126.445312 C 307.984375 126.445312 307.652344 126.488281 307.289062 126.589844 C 307.25 126.597656 307.214844 126.605469 307.179688 126.605469 C 306.835938 126.605469 306.632812 126.148438 306.824219 125.867188 C 307.589844 124.773438 308.417969 124.328125 309.238281 124.328125 C 311.6875 124.328125 314.058594 128.277344 314.410156 130.53125 C 314.714844 132.472656 314.675781 134.867188 313.152344 136.328125 C 312.5 136.949219 311.710938 137.246094 310.933594 137.246094 "/>
<path style=" stroke:none;fill-rule:nonzero;fill:rgb(15.289307%,8.628845%,5.879211%);fill-opacity:1;" d="M 314.21875 157.671875 C 312.007812 157.671875 309.589844 156.441406 308.492188 154.792969 C 307.695312 153.597656 307.136719 152.039062 307.863281 150.648438 C 308.597656 149.246094 309.960938 148.5625 311.445312 148.1875 C 311.492188 148.175781 311.542969 148.171875 311.585938 148.171875 C 312.117188 148.171875 312.277344 148.976562 311.785156 149.242188 C 309.84375 150.269531 309.210938 152.089844 310.894531 153.730469 C 311.523438 154.34375 312.410156 154.839844 313.292969 154.949219 C 313.4375 154.972656 313.582031 154.976562 313.71875 154.976562 C 314.660156 154.976562 315.402344 154.59375 316.363281 154.488281 C 316.402344 154.488281 316.441406 154.484375 316.480469 154.484375 C 317.347656 154.484375 318.222656 155.507812 317.523438 156.308594 C 316.683594 157.265625 315.484375 157.671875 314.21875 157.671875 "/>
<path style=" stroke:none;fill-rule:nonzero;fill:rgb(15.289307%,8.628845%,5.879211%);fill-opacity:1;" d="M 255.597656 72.878906 C 254.261719 72.878906 252.949219 72.222656 251.972656 71.277344 C 249.871094 69.234375 247.0625 63.644531 249.941406 61.191406 C 250.058594 61.097656 250.199219 61.050781 250.339844 61.050781 C 250.632812 61.050781 250.917969 61.25 250.972656 61.566406 C 251.445312 64.175781 251.617188 66.644531 253.636719 68.644531 C 254.042969 69.050781 254.800781 69.765625 255.492188 69.765625 C 255.636719 69.765625 255.78125 69.734375 255.914062 69.664062 C 257.050781 69.050781 257.421875 67.621094 258.652344 67.148438 C 258.773438 67.097656 258.90625 67.070312 259.035156 67.070312 C 259.359375 67.070312 259.671875 67.230469 259.8125 67.558594 C 260.683594 69.519531 258.839844 71.914062 257.027344 72.617188 C 256.554688 72.796875 256.074219 72.878906 255.597656 72.878906 "/>
<path style=" stroke:none;fill-rule:nonzero;fill:rgb(15.289307%,8.628845%,5.879211%);fill-opacity:1;" d="M 232.566406 31.277344 C 231.363281 31.277344 229.617188 30.671875 230.542969 29.347656 C 231.300781 28.269531 233.007812 28.960938 233.417969 27.527344 C 233.453125 27.398438 233.480469 27.261719 233.503906 27.121094 C 234.414062 26.597656 235.242188 25.945312 235.957031 25.183594 C 236.660156 27.742188 236.011719 30.449219 233.179688 31.210938 C 233.011719 31.253906 232.796875 31.277344 232.566406 31.277344 "/>
<path style=" stroke:none;fill-rule:nonzero;fill:rgb(15.289307%,8.628845%,5.879211%);fill-opacity:1;" d="M 233.503906 27.121094 C 233.84375 24.820312 232.101562 21.261719 229.578125 21.261719 C 229.464844 21.261719 229.351562 21.265625 229.238281 21.28125 C 229.21875 21.285156 229.199219 21.285156 229.179688 21.285156 C 228.6875 21.285156 228.40625 20.523438 228.9375 20.34375 C 229.445312 20.171875 229.9375 20.09375 230.417969 20.09375 C 232.335938 20.09375 233.988281 21.371094 235.03125 23.066406 C 235.261719 23.800781 235.570312 24.503906 235.949219 25.160156 C 235.949219 25.167969 235.949219 25.175781 235.957031 25.183594 C 235.242188 25.945312 234.414062 26.597656 233.503906 27.121094 "/>
<path style=" stroke:none;fill-rule:nonzero;fill:rgb(15.289307%,8.628845%,5.879211%);fill-opacity:1;" d="M 235.949219 25.160156 C 235.570312 24.503906 235.261719 23.800781 235.03125 23.066406 C 235.433594 23.71875 235.746094 24.433594 235.949219 25.160156 "/>
<path style=" stroke:none;fill-rule:nonzero;fill:rgb(15.289307%,8.628845%,5.879211%);fill-opacity:1;" d="M 281.375 43.734375 C 280.644531 43.457031 279.960938 43.074219 279.335938 42.605469 C 279.984375 42.730469 280.648438 42.796875 281.332031 42.796875 C 281.332031 43.109375 281.347656 43.425781 281.375 43.734375 "/>
<path style=" stroke:none;fill-rule:nonzero;fill:rgb(15.289307%,8.628845%,5.879211%);fill-opacity:1;" d="M 281.332031 42.796875 C 280.648438 42.796875 279.984375 42.730469 279.335938 42.605469 C 278.3125 41.835938 277.460938 40.835938 276.878906 39.695312 C 274.8125 35.640625 276.359375 31.144531 281.097656 30.359375 C 281.132812 30.355469 281.171875 30.351562 281.207031 30.351562 C 281.75 30.351562 281.902344 31.097656 281.421875 31.382812 C 278.683594 33.015625 277.476562 36.136719 279.515625 38.902344 C 280.039062 39.605469 280.714844 40.347656 281.519531 40.8125 C 281.398438 41.457031 281.332031 42.117188 281.332031 42.796875 "/>
<path style=" stroke:none;fill-rule:nonzero;fill:rgb(15.289307%,8.628845%,5.879211%);fill-opacity:1;" d="M 283.503906 44.125 C 282.804688 44.125 282.101562 43.996094 281.507812 43.78125 C 281.464844 43.769531 281.417969 43.75 281.375 43.734375 C 281.347656 43.425781 281.332031 43.109375 281.332031 42.796875 C 281.332031 42.117188 281.398438 41.457031 281.519531 40.8125 C 281.925781 41.042969 282.363281 41.207031 282.828125 41.257812 C 283.007812 41.277344 283.1875 41.289062 283.359375 41.289062 C 283.675781 41.289062 283.984375 41.261719 284.289062 41.234375 C 284.59375 41.210938 284.902344 41.183594 285.210938 41.183594 C 285.550781 41.183594 285.890625 41.214844 286.246094 41.308594 C 286.636719 41.414062 286.753906 41.863281 286.65625 42.199219 C 286.25 43.613281 284.890625 44.125 283.503906 44.125 "/>
</g>
</svg>
