<?xml version="1.0" encoding="UTF-8"?>
<svg xmlns="http://www.w3.org/2000/svg" xmlns:xlink="http://www.w3.org/1999/xlink" width="375pt" height="374.999991pt" viewBox="0 0 375 374.999991" version="1.2">
<g id="surface1">
<path style=" stroke:none;fill-rule:nonzero;fill:rgb(71.369934%,86.669922%,12.939453%);fill-opacity:1;" d="M 206.523438 83.394531 L 205.011719 77.375 L 225.164062 84.164062 L 228.558594 90.503906 L 206.523438 83.394531 "/>
<path style=" stroke:none;fill-rule:nonzero;fill:rgb(54.508972%,76.078796%,14.509583%);fill-opacity:1;" d="M 214.9375 132.738281 L 192.902344 125.628906 L 206.523438 83.398438 L 228.558594 90.503906 L 214.9375 132.738281 "/>
<path style=" stroke:none;fill-rule:nonzero;fill:rgb(43.528748%,58.428955%,16.859436%);fill-opacity:1;" d="M 205.011719 77.375 L 192.222656 117.964844 L 192.90625 125.628906 L 206.523438 83.394531 L 205.011719 77.375 "/>
<path style=" stroke:none;fill-rule:nonzero;fill:rgb(67.059326%,50.979614%,11.369324%);fill-opacity:1;" d="M 207.917969 310.6875 L 192.914062 296.851562 L 192.914062 257.089844 L 207.917969 266.523438 L 207.917969 310.6875 "/>
<path style=" stroke:none;fill-rule:nonzero;fill:rgb(44.309998%,76.078796%,93.328857%);fill-opacity:1;" d="M 204.703125 269.3125 L 194.199219 247.839844 L 142.320312 245.695312 L 138.449219 269.3125 L 204.703125 269.3125 "/>
<path style=" stroke:none;fill-rule:nonzero;fill:rgb(16.079712%,21.958923%,49.409485%);fill-opacity:1;" d="M 165.902344 261.808594 L 154.753906 242.800781 L 157.898438 211.21875 L 165.902344 229.4375 L 165.902344 261.808594 "/>
<path style=" stroke:none;fill-rule:nonzero;fill:rgb(47.839355%,53.329468%,80.389404%);fill-opacity:1;" d="M 238.144531 231.726562 L 221.316406 220.363281 L 159.757812 216.648438 L 165.902344 229.4375 L 238.144531 231.726562 "/>
<path style=" stroke:none;fill-rule:nonzero;fill:rgb(98.429871%,85.099792%,39.608765%);fill-opacity:1;" d="M 207.917969 266.523438 L 234.714844 264.09375 L 217.136719 257.09375 L 194.277344 257.949219 L 207.917969 266.523438 "/>
<path style=" stroke:none;fill-rule:nonzero;fill:rgb(18.03894%,35.688782%,46.269226%);fill-opacity:1;" d="M 169.546875 225.152344 L 153.46875 215.589844 L 153.46875 193.042969 L 169.546875 201.140625 L 169.546875 225.152344 "/>
<path style=" stroke:none;fill-rule:nonzero;fill:rgb(22.749329%,42.749023%,56.858826%);fill-opacity:1;" d="M 226.355469 197.28125 L 204.703125 189.390625 L 153.46875 193.042969 L 169.546875 201.140625 L 226.355469 197.28125 "/>
<path style=" stroke:none;fill-rule:nonzero;fill:rgb(72.938538%,87.449646%,18.429565%);fill-opacity:1;" d="M 164.3125 203.625 L 152.609375 192.351562 L 132.746094 189.390625 L 136.980469 199.394531 L 164.3125 203.625 "/>
<path style=" stroke:none;fill-rule:nonzero;fill:rgb(56.858826%,10.5896%,12.159729%);fill-opacity:1;" d="M 191.839844 195.996094 L 184.761719 190.8125 C 184.761719 190.8125 185.515625 182.167969 177.90625 177.667969 C 170.296875 173.164062 191.839844 171.429688 191.839844 171.429688 C 191.839844 171.429688 198.558594 179.597656 198.949219 180.988281 C 199.34375 182.382812 197.09375 191.921875 197.09375 191.921875 L 191.839844 195.996094 "/>
<path style=" stroke:none;fill-rule:nonzero;fill:rgb(90.19928%,73.728943%,18.818665%);fill-opacity:1;" d="M 234.714844 308.257812 L 207.917969 310.6875 L 207.917969 266.523438 L 234.714844 264.09375 L 234.714844 308.257812 "/>
<path style=" stroke:none;fill-rule:nonzero;fill:rgb(32.939148%,57.649231%,77.648926%);fill-opacity:1;" d="M 204.703125 314.972656 L 138.449219 314.972656 L 138.449219 269.3125 L 204.703125 269.3125 L 204.703125 314.972656 "/>
<path style=" stroke:none;fill-rule:nonzero;fill:rgb(24.708557%,28.239441%,64.709473%);fill-opacity:1;" d="M 238.144531 264.09375 L 165.902344 261.808594 L 165.902344 229.4375 L 238.144531 231.726562 L 238.144531 264.09375 "/>
<path style=" stroke:none;fill-rule:nonzero;fill:rgb(32.939148%,57.649231%,77.648926%);fill-opacity:1;" d="M 226.355469 221.292969 L 169.546875 225.152344 L 169.546875 201.140625 L 226.355469 197.28125 L 226.355469 221.292969 "/>
<path style=" stroke:none;fill-rule:nonzero;fill:rgb(54.508972%,76.078796%,14.509583%);fill-opacity:1;" d="M 154.734375 265.484375 L 127.40625 261.253906 L 136.980469 199.394531 L 164.308594 203.625 L 154.734375 265.484375 "/>
<path style=" stroke:none;fill-rule:nonzero;fill:rgb(92.158508%,16.859436%,22.749329%);fill-opacity:1;" d="M 143.792969 159.335938 L 143.792969 195.996094 L 164.3125 195.996094 C 164.3125 195.996094 163.730469 177.664062 178.425781 177.664062 C 193.128906 177.664062 191.84375 195.996094 191.84375 195.996094 L 213.0625 195.996094 L 213.0625 159.335938 L 143.792969 159.335938 "/>
<path style=" stroke:none;fill-rule:nonzero;fill:rgb(47.059631%,30.589294%,20.779419%);fill-opacity:1;" d="M 75.90625 266.796875 C 75.90625 266.796875 81.648438 281.996094 83.03125 282.277344 C 84.414062 282.558594 115.277344 280.261719 115.277344 280.261719 L 116.050781 289.0625 C 116.050781 289.0625 83.527344 298.402344 75.132812 295.242188 C 66.738281 292.082031 59.851562 274.605469 59.851562 274.605469 L 75.90625 266.796875 "/>
<path style=" stroke:none;fill-rule:nonzero;fill:rgb(32.548523%,47.839355%,63.529968%);fill-opacity:1;" d="M 71.777344 251.644531 L 78.539062 270.289062 C 78.539062 270.289062 72.09375 274.039062 67.933594 275.746094 C 63.773438 277.453125 60.539062 277.0625 60.539062 277.0625 C 60.539062 277.0625 59.941406 257.730469 60.167969 257.292969 C 60.394531 256.859375 71.777344 251.644531 71.777344 251.644531 "/>
<path style=" stroke:none;fill-rule:nonzero;fill:rgb(67.449951%,28.239441%,12.159729%);fill-opacity:1;" d="M 131.953125 274.421875 L 147.972656 273.125 L 139.074219 302.730469 L 123.054688 304.023438 L 131.953125 274.421875 "/>
<path style=" stroke:none;fill-rule:nonzero;fill:rgb(95.689392%,50.979614%,23.529053%);fill-opacity:1;" d="M 103.851562 264.160156 L 119.867188 262.867188 L 147.972656 273.125 L 131.953125 274.421875 L 103.851562 264.160156 "/>
<path style=" stroke:none;fill-rule:nonzero;fill:rgb(93.728638%,38.038635%,9.799194%);fill-opacity:1;" d="M 131.953125 274.421875 L 123.054688 304.023438 L 94.949219 293.765625 L 103.847656 264.160156 L 131.953125 274.421875 "/>
<path style=" stroke:none;fill-rule:nonzero;fill:rgb(33.329773%,34.509277%,35.688782%);fill-opacity:1;" d="M 45.851562 324.519531 L 45.425781 326.054688 C 45.425781 326.054688 42.761719 329.171875 35.007812 328.085938 C 27.257812 327 21.019531 324.851562 18.785156 319.859375 C 16.546875 314.867188 18.511719 313.242188 17.699219 312.019531 C 16.886719 310.800781 13.835938 310.261719 14.175781 305.414062 C 14.511719 300.566406 17.765625 301.242188 17.765625 301.242188 L 28.273438 317.78125 L 45.851562 324.519531 "/>
<path style=" stroke:none;fill-rule:nonzero;fill:rgb(43.919373%,28.239441%,19.60907%);fill-opacity:1;" d="M 72.324219 286.308594 C 72.324219 286.308594 80.378906 289.652344 82.730469 292.632812 C 85.078125 295.617188 86.617188 301.3125 84.355469 306.371094 C 82.097656 311.433594 73.148438 310.347656 71.160156 310.621094 C 69.171875 310.890625 40.882812 312.335938 39.164062 313.511719 C 37.449219 314.6875 38.984375 317.941406 39.527344 318.210938 C 40.070312 318.484375 40.703125 318.753906 40.703125 318.753906 C 40.703125 318.753906 48.835938 325.261719 36.726562 324.449219 C 24.613281 323.632812 23.890625 320.832031 21.179688 314.867188 C 18.46875 308.902344 21.949219 303.707031 26.195312 301.714844 C 30.441406 299.730469 72.324219 286.308594 72.324219 286.308594 "/>
<path style=" stroke:none;fill-rule:nonzero;fill:rgb(65.098572%,88.238525%,94.509888%);fill-opacity:1;" d="M 33.792969 317.207031 C 34.257812 316.375 34.011719 315.328125 33.226562 314.792969 C 31.246094 313.441406 27.921875 310.71875 28.046875 307.726562 C 28.136719 305.691406 28.472656 303.90625 28.796875 302.597656 C 29.085938 301.4375 28.210938 300.316406 27.015625 300.316406 L 18.464844 300.316406 C 17.605469 300.316406 16.863281 300.90625 16.675781 301.742188 C 16.273438 303.511719 15.691406 306.476562 15.9375 308 C 16.296875 310.257812 18.648438 310.621094 18.917969 312.519531 C 19.191406 314.417969 18.015625 319.027344 21.8125 321.464844 C 24.476562 323.179688 27.1875 324.179688 28.566406 324.625 C 29.101562 324.796875 29.679688 324.566406 29.957031 324.074219 L 33.792969 317.207031 "/>
<path style=" stroke:none;fill-rule:nonzero;fill:rgb(100%,100%,100%);fill-opacity:1;" d="M 29.335938 311.238281 C 29.335938 311.238281 28.769531 305.875 30.535156 305.195312 C 32.296875 304.519531 36.589844 307.277344 36.589844 307.277344 C 36.589844 307.277344 34.78125 310.21875 37.175781 311.75 C 39.574219 313.277344 40.769531 313.472656 40.769531 313.472656 L 33.214844 316.058594 L 29.335938 311.238281 "/>
<path style=" stroke:none;fill-rule:nonzero;fill:rgb(32.548523%,59.21936%,70.588684%);fill-opacity:1;" d="M 29.496094 324.519531 C 29.496094 324.519531 29.765625 320.199219 32.65625 316.675781 C 35.550781 313.152344 39.847656 313.273438 39.847656 313.273438 C 39.847656 313.273438 45.21875 314.054688 46.757812 318.03125 C 48.292969 322.007812 45.851562 324.519531 45.851562 324.519531 C 45.851562 324.519531 43.863281 326.617188 37.175781 326.4375 C 30.488281 326.257812 29.496094 324.519531 29.496094 324.519531 "/>
<path style=" stroke:none;fill-rule:nonzero;fill:rgb(67.83905%,32.159424%,12.159729%);fill-opacity:1;" d="M 16.46875 276.746094 C 16.46875 276.746094 7.710938 294.53125 22.355469 300.136719 C 36.996094 305.738281 66.28125 300.585938 66.28125 300.585938 C 66.28125 300.585938 70.167969 298.058594 71.429688 292.90625 C 72.695312 287.753906 72.246094 283.777344 72.246094 283.777344 L 54.710938 281.390625 L 16.46875 276.746094 "/>
<path style=" stroke:none;fill-rule:nonzero;fill:rgb(33.329773%,34.509277%,35.688782%);fill-opacity:1;" d="M 40.230469 312.515625 C 39.433594 312.003906 38.589844 311.578125 37.714844 311.226562 C 37.660156 311.074219 37.527344 310.953125 37.316406 310.949219 C 37.210938 310.949219 37.105469 310.953125 36.996094 310.957031 C 35.984375 310.609375 34.9375 310.359375 33.871094 310.222656 C 32.222656 310.011719 29.84375 309.863281 28.128906 310.542969 C 27.988281 310.4375 27.824219 310.367188 27.644531 310.339844 C 27.21875 310.285156 26.785156 310.476562 26.5625 310.847656 C 26.316406 311.253906 26.382812 311.78125 26.71875 312.117188 L 26.722656 312.121094 C 26.84375 312.261719 27.003906 312.371094 27.203125 312.425781 C 27.570312 312.527344 27.964844 312.433594 28.246094 312.175781 C 28.460938 311.980469 28.574219 311.679688 28.570312 311.386719 C 29.171875 311.285156 29.773438 311.136719 30.375 311.078125 C 31.390625 310.980469 32.421875 310.988281 33.4375 311.097656 C 33.960938 311.15625 34.476562 311.242188 34.984375 311.359375 C 33.234375 311.96875 31.605469 313.238281 31.226562 314.992188 L 31.222656 314.992188 C 31.195312 314.984375 31.164062 314.984375 31.136719 314.980469 C 30.929688 314.917969 30.714844 314.933594 30.527344 315.019531 C 30.335938 315.070312 30.167969 315.1875 30.070312 315.371094 C 29.929688 315.625 29.910156 315.902344 30 316.15625 C 30.042969 316.289062 30.109375 316.410156 30.210938 316.515625 C 30.476562 316.800781 30.898438 316.910156 31.261719 316.757812 C 31.621094 316.605469 31.835938 316.28125 31.859375 315.890625 C 31.867188 315.769531 31.84375 315.640625 31.800781 315.519531 C 32.304688 314.683594 32.6875 313.832031 33.46875 313.164062 C 34.402344 312.367188 35.515625 311.953125 36.707031 311.851562 C 37.765625 312.230469 38.785156 312.726562 39.757812 313.320312 C 40.277344 313.636719 40.738281 312.835938 40.230469 312.515625 "/>
<path style=" stroke:none;fill-rule:nonzero;fill:rgb(33.329773%,34.509277%,35.688782%);fill-opacity:1;" d="M 38.261719 328.347656 L 37.832031 329.882812 C 37.832031 329.882812 35.167969 333 27.417969 331.914062 C 19.664062 330.832031 13.429688 328.683594 11.191406 323.691406 C 8.953125 318.695312 10.921875 317.070312 10.105469 315.851562 C 9.292969 314.628906 6.242188 314.089844 6.582031 309.242188 C 6.921875 304.394531 10.175781 305.074219 10.175781 305.074219 L 20.683594 321.613281 L 38.261719 328.347656 "/>
<path style=" stroke:none;fill-rule:nonzero;fill:rgb(54.508972%,35.688782%,23.919678%);fill-opacity:1;" d="M 64.730469 290.136719 C 64.730469 290.136719 72.785156 293.480469 75.136719 296.464844 C 77.488281 299.449219 79.023438 305.140625 76.761719 310.203125 C 74.503906 315.261719 65.558594 314.179688 63.570312 314.449219 C 61.578125 314.722656 33.289062 316.167969 31.574219 317.34375 C 29.855469 318.515625 31.390625 321.769531 31.933594 322.042969 C 32.476562 322.3125 33.109375 322.585938 33.109375 322.585938 C 33.109375 322.585938 41.242188 329.09375 29.132812 328.277344 C 17.019531 327.464844 16.296875 324.664062 13.585938 318.695312 C 10.875 312.734375 14.355469 307.535156 18.601562 305.546875 C 22.851562 303.558594 64.730469 290.136719 64.730469 290.136719 "/>
<path style=" stroke:none;fill-rule:nonzero;fill:rgb(65.098572%,88.238525%,94.509888%);fill-opacity:1;" d="M 26.203125 321.035156 C 26.667969 320.203125 26.417969 319.160156 25.632812 318.621094 C 23.65625 317.273438 20.328125 314.550781 20.457031 311.558594 C 20.542969 309.523438 20.878906 307.734375 21.203125 306.425781 C 21.492188 305.265625 20.617188 304.148438 19.421875 304.148438 L 10.871094 304.148438 C 10.015625 304.148438 9.273438 304.738281 9.082031 305.574219 C 8.679688 307.339844 8.101562 310.304688 8.34375 311.828125 C 8.707031 314.089844 11.054688 314.449219 11.328125 316.347656 C 11.597656 318.246094 10.421875 322.855469 14.21875 325.296875 C 16.886719 327.007812 19.597656 328.011719 20.972656 328.453125 C 21.507812 328.625 22.089844 328.394531 22.363281 327.90625 L 26.203125 321.035156 "/>
<path style=" stroke:none;fill-rule:nonzero;fill:rgb(100%,100%,100%);fill-opacity:1;" d="M 21.742188 315.066406 C 21.742188 315.066406 21.179688 309.703125 22.941406 309.027344 C 24.703125 308.351562 28.996094 311.105469 28.996094 311.105469 C 28.996094 311.105469 27.1875 314.050781 29.585938 315.578125 C 31.980469 317.109375 33.175781 317.304688 33.175781 317.304688 L 25.621094 319.886719 L 21.742188 315.066406 "/>
<path style=" stroke:none;fill-rule:nonzero;fill:rgb(43.528748%,71.369934%,84.309387%);fill-opacity:1;" d="M 21.902344 328.347656 C 21.902344 328.347656 22.171875 324.03125 25.066406 320.503906 C 27.957031 316.980469 32.257812 317.105469 32.257812 317.105469 C 32.257812 317.105469 37.628906 317.882812 39.164062 321.863281 C 40.703125 325.835938 38.261719 328.347656 38.261719 328.347656 C 38.261719 328.347656 36.273438 330.445312 29.585938 330.265625 C 22.898438 330.085938 21.902344 328.347656 21.902344 328.347656 "/>
<path style=" stroke:none;fill-rule:nonzero;fill:rgb(80.778503%,42.349243%,20.388794%);fill-opacity:1;" d="M 8.875 280.574219 C 8.875 280.574219 0.121094 298.363281 14.761719 303.964844 C 29.402344 309.570312 58.6875 304.417969 58.6875 304.417969 C 58.6875 304.417969 62.574219 301.886719 63.839844 296.734375 C 65.105469 291.582031 64.652344 287.605469 64.652344 287.605469 L 47.117188 285.21875 L 8.875 280.574219 "/>
<path style=" stroke:none;fill-rule:nonzero;fill:rgb(54.508972%,35.688782%,23.919678%);fill-opacity:1;" d="M 79.296875 156.441406 C 79.296875 156.441406 95.503906 165.058594 100.148438 176.6875 C 104.792969 188.3125 100.972656 190.925781 101.925781 195.933594 C 102.882812 200.9375 109.167969 200.683594 110.117188 201.835938 C 111.0625 202.988281 110.886719 205.765625 108.636719 207.085938 C 106.390625 208.40625 104.742188 208.535156 104.417969 209.851562 C 104.097656 211.167969 107.042969 222.4375 96.632812 229.414062 C 86.222656 236.394531 75.9375 235.195312 75.9375 235.195312 C 75.9375 235.195312 55.816406 235.058594 50.832031 227.925781 C 45.847656 220.792969 28.242188 197.878906 46.265625 177.101562 C 64.285156 156.324219 79.296875 156.441406 79.296875 156.441406 "/>
<path style=" stroke:none;fill-rule:nonzero;fill:rgb(77.648926%,52.159119%,33.729553%);fill-opacity:1;" d="M 86.359375 197.707031 C 86.359375 197.707031 84.71875 200.292969 87.3125 203.554688 C 89.90625 206.820312 93.585938 205.15625 94.203125 204.519531 C 94.820312 203.878906 95.300781 203.398438 94.675781 202.855469 C 94.054688 202.3125 86.359375 197.707031 86.359375 197.707031 "/>
<path style=" stroke:none;fill-rule:nonzero;fill:rgb(100%,100%,100%);fill-opacity:1;" d="M 86.167969 199.011719 C 86.167969 199.011719 86.152344 203.585938 89.945312 204.464844 C 93.734375 205.339844 94.8125 202.964844 94.8125 202.964844 C 94.8125 202.964844 96.597656 200.441406 96.734375 196.339844 C 96.871094 192.234375 95.777344 191.117188 95.777344 191.117188 C 95.777344 191.117188 90.882812 189.769531 88.777344 193.007812 C 86.671875 196.246094 86.359375 197.707031 86.359375 197.707031 L 86.167969 199.011719 "/>
<path style=" stroke:none;fill-rule:nonzero;fill:rgb(18.03894%,11.759949%,8.239746%);fill-opacity:1;" d="M 86.167969 199.011719 C 86.167969 199.011719 87.542969 194.066406 90.550781 192.601562 C 93.558594 191.136719 96.644531 194.320312 98.550781 192.050781 C 100.457031 189.78125 99.847656 189.390625 99.847656 189.390625 C 99.847656 189.390625 96.988281 190.292969 94.609375 190.011719 C 92.226562 189.734375 89.597656 190.535156 88.078125 192.792969 C 86.554688 195.054688 86.167969 199.011719 86.167969 199.011719 "/>
<path style=" stroke:none;fill-rule:nonzero;fill:rgb(60.389709%,27.449036%,11.369324%);fill-opacity:1;" d="M 96.59375 193.421875 C 96.59375 193.421875 92.425781 191.253906 90.523438 197.265625 C 88.628906 203.253906 94.042969 203.867188 94.042969 203.867188 C 94.042969 203.867188 95.847656 203.210938 96.632812 198.96875 C 97.414062 194.726562 96.59375 193.421875 96.59375 193.421875 "/>
<path style=" stroke:none;fill-rule:nonzero;fill:rgb(18.03894%,11.759949%,8.239746%);fill-opacity:1;" d="M 96.941406 194.96875 C 96.941406 194.96875 94.007812 193.96875 92.640625 198.253906 C 91.203125 202.773438 95.140625 202.882812 95.140625 202.882812 C 95.140625 202.882812 96.152344 202.039062 96.824219 199.117188 C 97.496094 196.195312 96.941406 194.96875 96.941406 194.96875 "/>
<path style=" stroke:none;fill-rule:nonzero;fill:rgb(100%,100%,100%);fill-opacity:1;" d="M 92.335938 196.859375 C 92.761719 197.371094 93.519531 197.445312 94.03125 197.023438 C 94.546875 196.601562 94.617188 195.84375 94.195312 195.328125 C 93.773438 194.816406 93.015625 194.742188 92.503906 195.164062 C 91.992188 195.585938 91.917969 196.34375 92.335938 196.859375 "/>
<path style=" stroke:none;fill-rule:nonzero;fill:rgb(18.03894%,11.759949%,8.239746%);fill-opacity:1;" d="M 92.839844 216.546875 C 92.8125 216.496094 92.789062 216.441406 92.777344 216.386719 C 92.746094 216.257812 92.746094 216.117188 92.804688 215.976562 C 92.839844 215.902344 92.886719 215.839844 92.9375 215.789062 L 92.949219 215.777344 C 92.96875 215.761719 92.984375 215.75 93.003906 215.734375 C 93.199219 215.574219 93.488281 215.527344 93.726562 215.691406 C 94.132812 215.964844 94.050781 216.558594 93.648438 216.765625 C 94.253906 218.917969 95.507812 220.789062 97.652344 221.699219 C 99.570312 222.511719 101.15625 222.152344 103.097656 221.789062 C 103.035156 221.953125 102.992188 222.058594 102.910156 222.21875 C 101.167969 223.390625 98.9375 222.882812 97.105469 222.0625 C 94.90625 221.082031 93.207031 218.933594 92.839844 216.546875 "/>
<path style=" stroke:none;fill-rule:nonzero;fill:rgb(18.03894%,11.759949%,8.239746%);fill-opacity:1;" d="M 89.03125 186.875 C 89.03125 186.875 92.15625 183.488281 95.632812 182.734375 C 99.109375 181.984375 101.402344 183.609375 96.152344 184.882812 C 90.898438 186.160156 89.03125 186.875 89.03125 186.875 "/>
<path style=" stroke:none;fill-rule:nonzero;fill:rgb(21.179199%,31.369019%,66.668701%);fill-opacity:1;" d="M 54.574219 228.226562 C 54.574219 228.226562 62.121094 232.203125 68.992188 236.992188 C 75.859375 241.78125 83.859375 247.433594 83.859375 247.433594 L 73.871094 251.09375 L 76.855469 254.84375 L 70.800781 256.0625 L 54.574219 229.175781 L 54.574219 228.226562 "/>
<path style=" stroke:none;fill-rule:nonzero;fill:rgb(18.429565%,12.548828%,9.01947%);fill-opacity:1;" d="M 43.757812 222.789062 C 43.703125 222.664062 43.671875 222.59375 43.671875 222.59375 C 43.671875 222.59375 43.699219 222.664062 43.757812 222.789062 "/>
<path style=" stroke:none;fill-rule:nonzero;fill:rgb(54.508972%,35.688782%,23.919678%);fill-opacity:1;" d="M 71.316406 234.570312 C 71.316406 234.570312 68.285156 240.40625 68.433594 241.675781 C 68.585938 242.945312 71.277344 249.242188 71.277344 249.242188 C 71.277344 249.242188 61.640625 250.910156 55.761719 246.058594 C 49.878906 241.210938 53.597656 236.566406 53.597656 236.566406 L 59.980469 228.59375 L 71.917969 233.355469 L 71.316406 234.570312 "/>
<path style=" stroke:none;fill-rule:nonzero;fill:rgb(18.429565%,12.548828%,9.01947%);fill-opacity:1;" d="M 60 222.035156 C 60.015625 221.980469 59.933594 221.914062 59.777344 221.828125 C 59.890625 222.03125 59.972656 222.109375 60 222.035156 "/>
<path style=" stroke:none;fill-rule:nonzero;fill:rgb(29.798889%,38.819885%,71.759033%);fill-opacity:1;" d="M 51.59375 234.574219 L 54.574219 228.226562 C 54.574219 228.226562 60.878906 237.695312 67.453125 240.878906 C 74.03125 244.066406 79.453125 245.964844 79.453125 245.964844 L 70.03125 251.589844 L 73.238281 257.148438 L 69.148438 260.128906 L 59.050781 286.972656 C 59.050781 286.972656 41.242188 297.367188 26.242188 290.679688 C 11.238281 283.992188 7.984375 279.652344 7.984375 279.652344 C 7.984375 279.652344 20.816406 256.515625 32.117188 246.03125 C 43.414062 235.546875 51.59375 234.574219 51.59375 234.574219 "/>
<path style=" stroke:none;fill-rule:nonzero;fill:rgb(18.429565%,12.548828%,9.01947%);fill-opacity:1;" d="M 86.871094 152.378906 C 86.871094 152.378906 89.984375 151.21875 89.964844 149.148438 C 89.941406 147.078125 88.183594 145.304688 88.183594 145.304688 C 88.183594 145.304688 90.1875 147.726562 86.820312 150.007812 C 83.449219 152.289062 79.9375 145.6875 70.242188 142.339844 C 67.054688 141.238281 64.082031 141.136719 61.523438 141.488281 C 56.300781 142.210938 52.8125 144.84375 52.8125 144.84375 C 52.8125 144.84375 54.6875 141.71875 52.65625 140.273438 C 50.625 138.828125 47.429688 141.640625 47.429688 141.640625 C 47.429688 141.640625 50.214844 140.210938 50.753906 142.753906 C 51.171875 144.742188 47.359375 144.992188 39.203125 148.699219 C 36.921875 149.734375 34.304688 151.039062 31.34375 152.726562 C 17.785156 160.460938 19.878906 170.839844 19.878906 170.839844 C 19.878906 170.839844 16.949219 168.039062 16.847656 166.019531 C 16.742188 164 18.917969 163.273438 18.917969 163.273438 C 18.917969 163.273438 16.3125 162.191406 14.558594 166.019531 C 12.800781 169.847656 20.039062 172.179688 20.039062 172.179688 C 20.039062 172.179688 12.886719 173.796875 11.71875 181.101562 C 11.441406 182.828125 11.445312 184.628906 11.605469 186.410156 C 12.125 192.179688 14.285156 197.789062 13.960938 200.195312 C 13.542969 203.34375 8.894531 201.304688 8.894531 201.304688 C 8.894531 201.304688 9.59375 204.707031 11.636719 205.664062 C 13.683594 206.621094 15.070312 203.582031 15.070312 203.582031 C 15.070312 203.582031 14.890625 209.222656 22.875 220.375 C 30.859375 231.53125 50.980469 231.773438 50.980469 231.773438 C 50.980469 231.773438 48.445312 229.835938 46.867188 228.089844 C 45.503906 226.585938 44.113281 223.578125 43.757812 222.789062 C 43.699219 222.664062 43.671875 222.59375 43.671875 222.59375 C 43.671875 222.59375 43.703125 222.664062 43.757812 222.789062 C 44.0625 223.445312 45.21875 225.644531 47.863281 227.835938 C 50.800781 230.273438 55.078125 229.15625 56.238281 229.085938 C 55.320312 228.578125 52.542969 226.199219 51.117188 222.058594 C 49.367188 216.988281 56.386719 212.113281 56.386719 212.113281 C 56.386719 212.113281 45.6875 216.75 46.648438 206.054688 C 47.605469 195.359375 53.972656 200.640625 53.972656 200.640625 C 53.972656 200.640625 53.15625 201.632812 56.546875 205.746094 C 59.9375 209.863281 65.242188 207.34375 65.242188 207.34375 C 65.242188 207.34375 61.492188 206.480469 59.828125 202.5625 C 58.164062 198.644531 59.769531 197.632812 59.769531 197.632812 L 62.554688 201.804688 C 62.554688 201.804688 62.140625 197.582031 65.613281 191.390625 C 69.085938 185.199219 78.519531 183.90625 85.105469 179.601562 C 91.6875 175.300781 86.023438 172.136719 86.023438 172.136719 C 86.023438 172.136719 87.683594 173.011719 89.601562 174.53125 C 91.515625 176.046875 89.617188 179.644531 89.617188 179.644531 C 89.617188 179.644531 89.617188 179.644531 95.292969 175.429688 C 100.96875 171.214844 92.925781 162.503906 92.925781 162.503906 C 92.925781 162.503906 94.160156 162.6875 97.171875 165.4375 C 100.183594 168.1875 100.472656 172.972656 100.472656 172.972656 C 100.472656 172.972656 103.308594 169.585938 98.265625 161.066406 C 93.222656 152.546875 86.871094 152.378906 86.871094 152.378906 "/>
<path style=" stroke:none;fill-rule:nonzero;fill:rgb(23.529053%,17.248535%,12.548828%);fill-opacity:1;" d="M 17.449219 203.796875 C 14.1875 203.796875 13.964844 200.191406 13.964844 200.191406 C 13.984375 200.027344 13.996094 199.847656 13.996094 199.65625 C 13.996094 197.019531 12.089844 191.785156 11.605469 186.410156 C 11.984375 189.035156 13.121094 191.019531 15.6875 191.019531 C 19.484375 191.019531 26.421875 186.667969 38.695312 173.570312 C 59.902344 150.941406 56.710938 146.183594 50.273438 146.183594 C 45.601562 146.183594 39.222656 148.691406 39.203125 148.695312 C 46.960938 145.171875 50.792969 144.773438 50.785156 143.03125 C 50.785156 142.941406 50.773438 142.851562 50.753906 142.753906 C 50.5 141.554688 49.75 141.238281 49.027344 141.238281 C 48.210938 141.238281 47.429688 141.640625 47.429688 141.640625 C 47.429688 141.640625 49.453125 139.859375 51.304688 139.859375 C 51.777344 139.859375 52.242188 139.976562 52.65625 140.273438 C 53.371094 140.78125 53.601562 141.496094 53.601562 142.210938 C 53.601562 143.53125 52.8125 144.84375 52.8125 144.84375 C 52.8125 144.84375 56.300781 142.207031 61.523438 141.488281 C 61.546875 141.484375 61.582031 141.484375 61.621094 141.484375 C 62.96875 141.484375 73.257812 142.574219 45.035156 178.550781 C 28.96875 199.035156 21.199219 203.796875 17.449219 203.796875 "/>
<path style=" stroke:none;fill-rule:nonzero;fill:rgb(33.329773%,34.509277%,35.688782%);fill-opacity:1;" d="M 32.640625 316.34375 C 31.839844 315.835938 30.996094 315.40625 30.121094 315.054688 C 30.066406 314.902344 29.9375 314.78125 29.726562 314.78125 C 29.621094 314.777344 29.511719 314.78125 29.402344 314.789062 C 28.390625 314.4375 27.347656 314.1875 26.28125 314.050781 C 24.628906 313.839844 22.253906 313.691406 20.535156 314.371094 C 20.398438 314.269531 20.234375 314.195312 20.050781 314.171875 C 19.628906 314.113281 19.191406 314.304688 18.96875 314.679688 C 18.722656 315.085938 18.789062 315.613281 19.128906 315.945312 L 19.128906 315.949219 C 19.25 316.089844 19.410156 316.203125 19.613281 316.257812 C 19.976562 316.359375 20.375 316.261719 20.652344 316.007812 C 20.867188 315.808594 20.984375 315.511719 20.976562 315.21875 C 21.578125 315.117188 22.179688 314.96875 22.785156 314.910156 C 23.800781 314.8125 24.832031 314.816406 25.84375 314.929688 C 26.371094 314.984375 26.886719 315.074219 27.394531 315.1875 C 25.644531 315.796875 24.011719 317.070312 23.632812 318.820312 C 23.601562 318.816406 23.574219 318.8125 23.542969 318.8125 C 23.339844 318.75 23.125 318.765625 22.933594 318.847656 C 22.746094 318.902344 22.578125 319.019531 22.476562 319.199219 C 22.335938 319.453125 22.320312 319.734375 22.410156 319.988281 C 22.449219 320.117188 22.519531 320.238281 22.617188 320.347656 C 22.886719 320.628906 23.308594 320.742188 23.671875 320.585938 C 24.03125 320.433594 24.242188 320.109375 24.269531 319.722656 C 24.277344 319.597656 24.253906 319.46875 24.207031 319.347656 C 24.710938 318.511719 25.097656 317.664062 25.878906 316.996094 C 26.8125 316.195312 27.921875 315.78125 29.113281 315.683594 C 30.171875 316.058594 31.191406 316.554688 32.167969 317.152344 C 32.683594 317.46875 33.148438 316.667969 32.640625 316.34375 "/>
<path style=" stroke:none;fill-rule:nonzero;fill:rgb(54.508972%,35.688782%,23.919678%);fill-opacity:1;" d="M 60.535156 265.191406 C 60.535156 265.191406 65.601562 278.527344 66.40625 279.277344 C 67.207031 280.03125 92.734375 279.535156 93.257812 278.558594 C 93.78125 277.582031 100.25 271.367188 102.777344 271.355469 C 105.300781 271.34375 112.292969 271.976562 112.996094 273.511719 C 113.703125 275.046875 113.136719 276.296875 110.722656 275.769531 C 108.308594 275.242188 106.386719 275.167969 106.019531 275.1875 C 105.652344 275.207031 104.203125 276.304688 104.203125 276.304688 C 104.203125 276.304688 109.964844 276.523438 111.171875 276.785156 C 112.378906 277.050781 114.945312 277.558594 115.480469 278.53125 C 116.015625 279.503906 115.578125 281.011719 112.601562 280.4375 C 109.625 279.867188 109.234375 280.167969 109.234375 280.167969 L 114.085938 281.15625 C 114.085938 281.15625 115.402344 281.53125 115.140625 282.738281 C 114.875 283.945312 113.082031 284.5625 110.082031 284.054688 C 107.085938 283.546875 105.742188 284.316406 105.742188 284.316406 C 105.742188 284.316406 107.773438 284.28125 109.476562 284.570312 C 111.179688 284.859375 112.691406 284.648438 113.207031 285.46875 C 113.722656 286.292969 112.183594 287.863281 108.96875 287.351562 C 105.753906 286.839844 100.871094 288.71875 98.839844 288.753906 C 96.808594 288.789062 93.851562 289.015625 93.140625 289.207031 C 92.425781 289.394531 67.429688 295.378906 57.949219 291.019531 C 48.472656 286.664062 45.328125 267.832031 45.328125 267.832031 L 60.535156 265.191406 "/>
<path style=" stroke:none;fill-rule:nonzero;fill:rgb(60.389709%,68.238831%,83.918762%);fill-opacity:1;" d="M 62.6875 267.6875 L 45.335938 274.035156 L 40.777344 259.214844 C 40.777344 259.214844 37.152344 249.914062 45.761719 246.289062 C 54.375 242.664062 59.144531 254.074219 59.902344 256.488281 C 60.664062 258.902344 62.6875 267.6875 62.6875 267.6875 "/>
<path style=" stroke:none;fill-rule:nonzero;fill:rgb(76.469421%,52.549744%,36.079407%);fill-opacity:1;" d="M 268.632812 167.882812 C 268.632812 167.882812 255.8125 175.761719 253.445312 173.789062 C 251.1875 171.910156 236.714844 161.925781 233.808594 161 C 233.40625 159.886719 232.523438 158.800781 231.796875 158.070312 C 231.207031 157.476562 230.527344 156.972656 229.789062 156.574219 C 229.304688 156.308594 228.769531 156.128906 228.285156 155.859375 C 227.71875 155.539062 227.378906 155.128906 226.976562 154.667969 C 226.542969 153.671875 225.460938 155.011719 225.390625 155.714844 C 225.316406 156.480469 225.617188 157.195312 226.066406 157.796875 C 226.765625 158.722656 228.605469 160.019531 226.894531 160.847656 C 224.230469 160.714844 221.488281 160.414062 220.097656 159.761719 C 217.214844 158.410156 215.164062 157.011719 214.375 158.417969 C 213.589844 159.832031 218.300781 162.519531 220.203125 162.84375 C 222.105469 163.171875 223.296875 163.367188 223.296875 163.367188 C 223.296875 163.367188 219.257812 163.96875 216.589844 163.210938 C 213.925781 162.449219 213.082031 161.609375 212.058594 162.589844 C 211.03125 163.570312 212.957031 165.683594 216.289062 166.367188 C 219.261719 166.980469 220.4375 167.136719 220.660156 167.164062 C 220.101562 167.097656 213.457031 166.332031 212.558594 166.648438 C 211.621094 166.984375 213.492188 170.386719 216.027344 170.082031 C 218.5625 169.78125 220.304688 170.082031 220.304688 170.082031 C 220.304688 170.082031 216.945312 170.203125 216.3125 171.128906 C 215.679688 172.058594 216.582031 173.582031 219.328125 173.191406 C 222.078125 172.800781 221.84375 173.527344 226.488281 173.335938 C 231.132812 173.148438 233.796875 172.179688 233.796875 172.179688 C 233.796875 172.179688 246.628906 188.171875 253.378906 188.535156 C 260.125 188.898438 276.082031 181.257812 276.082031 181.257812 L 268.632812 167.882812 "/>
<path style=" stroke:none;fill-rule:nonzero;fill:rgb(72.549438%,25.878906%,52.549744%);fill-opacity:1;" d="M 265.085938 169.101562 C 265.085938 169.101562 281.871094 154.941406 287.3125 154.414062 C 292.75 153.886719 302.445312 157.886719 292.800781 171.472656 C 283.160156 185.058594 264.828125 187.054688 264.828125 187.054688 L 261.441406 171.34375 L 265.085938 169.101562 "/>
<path style=" stroke:none;fill-rule:nonzero;fill:rgb(87.449646%,63.529968%,46.269226%);fill-opacity:1;" d="M 260.996094 149.675781 C 260.996094 149.675781 245.757812 143 237.832031 141.046875 C 229.910156 139.089844 221.273438 135.894531 220.738281 133.832031 C 220.203125 131.769531 220.378906 127.164062 220.023438 124.609375 C 219.664062 122.054688 216.890625 117.738281 215.289062 117.855469 C 213.6875 117.972656 217.097656 123.882812 217.183594 124.890625 C 217.269531 125.898438 216.089844 126.992188 216.089844 126.992188 C 216.089844 126.992188 215.152344 122.996094 213.613281 121.277344 C 212.074219 119.5625 209.652344 117.28125 208 117.246094 C 206.34375 117.207031 206.644531 119.089844 207.324219 120.066406 C 208.003906 121.042969 208.96875 121.835938 208.96875 121.835938 C 208.96875 121.835938 207.324219 119.808594 206.695312 122.007812 C 206.070312 124.210938 209.949219 127.972656 209.949219 127.972656 C 209.949219 127.972656 208.492188 126.488281 207.855469 127.65625 C 207.21875 128.824219 211.203125 132.640625 211.578125 133.980469 C 211.949219 135.320312 209.9375 138.773438 211.167969 140.339844 C 212.394531 141.902344 214.472656 143.433594 218.25 147.148438 C 222.03125 150.863281 238.878906 157.691406 243.589844 158.839844 C 248.296875 159.988281 256.777344 163.816406 256.777344 163.816406 L 260.996094 149.675781 "/>
<path style=" stroke:none;fill-rule:nonzero;fill:rgb(87.449646%,63.529968%,46.269226%);fill-opacity:1;" d="M 322.183594 261.847656 C 322.285156 261.78125 322.390625 261.714844 322.496094 261.648438 C 325.324219 259.839844 325.679688 258.507812 326.046875 253.183594 C 326.433594 247.667969 322.335938 246.417969 322.335938 246.417969 C 320.773438 246.898438 319.601562 247.070312 319.207031 246.578125 C 317.976562 245.050781 314.625 236.339844 314.625 236.339844 L 296.039062 245.636719 C 296.039062 245.636719 303.335938 259.601562 307.382812 262.925781 C 311.429688 266.246094 316.242188 265.675781 320.359375 263.007812 C 320.890625 262.664062 321.507812 262.269531 322.179688 261.847656 L 322.183594 261.847656 "/>
<path style=" stroke:none;fill-rule:nonzero;fill:rgb(89.019775%,96.469116%,98.039246%);fill-opacity:1;" d="M 338.679688 263.390625 C 342.230469 262.324219 340.613281 252.769531 340.074219 248.480469 C 339.53125 244.1875 335.148438 242.339844 335.148438 242.339844 C 334.78125 242.398438 334.386719 242.460938 333.96875 242.523438 C 330.679688 243.007812 325.628906 245.402344 322.335938 246.417969 C 322.335938 246.417969 326.433594 247.667969 326.046875 253.183594 C 325.679688 258.507812 325.324219 259.839844 322.496094 261.648438 C 327.042969 258.796875 333.792969 254.746094 333.792969 254.746094 C 333.792969 254.746094 333.867188 256.828125 334.375 261.351562 C 334.816406 263.121094 335.375 264.382812 338.679688 263.390625 "/>
<path style=" stroke:none;fill-rule:nonzero;fill:rgb(75.289917%,10.978699%,37.649536%);fill-opacity:1;" d="M 335.660156 268.511719 C 335.742188 269.929688 338.863281 272.027344 341.84375 269.425781 C 344.824219 266.824219 346.59375 263.011719 345.984375 259.914062 C 345.371094 256.8125 342.558594 252.703125 343.160156 250.8125 C 343.761719 248.925781 342.53125 243.152344 341.207031 242.234375 C 340 241.394531 339.003906 241.730469 335.148438 242.339844 C 335.148438 242.339844 339.53125 244.1875 340.074219 248.476562 C 340.613281 252.769531 342.230469 262.324219 338.683594 263.390625 C 335.378906 264.382812 334.816406 263.121094 334.378906 261.351562 L 334.378906 261.363281 C 334.886719 265.894531 335.574219 267.089844 335.660156 268.511719 "/>
<path style=" stroke:none;fill-rule:nonzero;fill:rgb(87.449646%,63.529968%,46.269226%);fill-opacity:1;" d="M 289.863281 261.507812 C 289.109375 250.003906 289.871094 234.0625 289.871094 234.0625 L 270.8125 236.050781 C 270.8125 236.050781 271.300781 253.84375 272.007812 256.082031 C 272.710938 258.324219 273.464844 261.414062 273.625 264.113281 C 273.691406 265.265625 273.988281 270.542969 274.265625 276.375 L 289.078125 276.660156 C 289.722656 271.714844 290.179688 266.277344 289.863281 261.507812 "/>
<path style=" stroke:none;fill-rule:nonzero;fill:rgb(89.019775%,96.469116%,98.039246%);fill-opacity:1;" d="M 288.589844 296.851562 C 287.910156 295.472656 286.839844 293.886719 286.871094 291.410156 C 286.890625 289.65625 288.171875 283.648438 289.078125 276.660156 L 274.265625 276.375 C 274.640625 284.199219 274.984375 293.03125 274.722656 294.273438 C 274.464844 295.503906 269.9375 297.335938 265.75 299.136719 C 258.128906 307.246094 288.582031 296.855469 288.589844 296.851562 "/>
<path style=" stroke:none;fill-rule:nonzero;fill:rgb(75.289917%,10.978699%,37.649536%);fill-opacity:1;" d="M 258.824219 302.917969 C 257.050781 305.375 258.835938 306.695312 258.835938 306.695312 C 258.835938 306.695312 263.539062 309.050781 270.527344 307.851562 C 277.511719 306.652344 276.128906 306.164062 278.46875 305.953125 C 280.808594 305.746094 282.335938 306.640625 285.1875 306.332031 C 287.878906 306.042969 289.3125 305.554688 289.3125 305.554688 C 289.3125 305.554688 290.078125 300.984375 288.953125 297.703125 C 288.859375 297.425781 288.730469 297.140625 288.589844 296.851562 C 288.582031 296.855469 258.125 307.246094 265.75 299.136719 C 262.574219 300.503906 259.59375 301.855469 258.824219 302.917969 "/>
<path style=" stroke:none;fill-rule:nonzero;fill:rgb(75.289917%,10.978699%,37.649536%);fill-opacity:1;" d="M 265.445312 241.253906 C 267.886719 241.222656 270.175781 240.597656 272.53125 240.007812 C 274.929688 239.410156 277.398438 238.890625 279.878906 239.113281 C 282.019531 239.300781 283.996094 240.011719 285.925781 240.925781 C 288.738281 242.253906 292.203125 244.929688 295.496094 243.9375 C 298.121094 243.152344 299.953125 240.339844 301.625 238.222656 C 303.636719 235.679688 305.894531 233.15625 309.074219 232.113281 C 311.148438 231.429688 313.320312 231.597656 315.453125 231.828125 C 317.097656 232.003906 319.191406 232.472656 320.726562 231.648438 C 323.183594 230.332031 323.046875 225.972656 323.691406 223.625 C 324.160156 221.914062 324.882812 220.230469 326.101562 218.914062 C 327.515625 217.378906 329.398438 216.714844 331.210938 215.804688 C 335.382812 213.714844 334.746094 209.222656 334.878906 205.226562 C 331.742188 203.335938 327.566406 201.492188 322.957031 201.242188 C 313.089844 200.710938 308.8125 200.726562 308.8125 200.726562 L 270.457031 206.242188 C 270.457031 206.242188 262.378906 214.707031 259.4375 222.152344 C 257.671875 226.628906 255.660156 233.328125 254.339844 237.96875 C 255.875 238.976562 257.546875 239.773438 259.292969 240.320312 C 261.296875 240.941406 263.351562 241.28125 265.445312 241.253906 "/>
<path style=" stroke:none;fill-rule:nonzero;fill:rgb(87.449646%,63.529968%,46.269226%);fill-opacity:1;" d="M 280.699219 154.554688 C 280.699219 154.554688 283.414062 151.074219 283.160156 147.011719 C 282.90625 142.945312 282.679688 140.03125 282.679688 140.03125 L 295.769531 140.929688 C 295.769531 140.929688 294.390625 147.039062 294.507812 149.253906 C 294.625 151.46875 295.054688 153.34375 295.054688 153.34375 L 279.980469 162.171875 L 278.769531 157.027344 L 280.699219 154.554688 "/>
<path style=" stroke:none;fill-rule:nonzero;fill:rgb(75.289917%,10.978699%,37.649536%);fill-opacity:1;" d="M 308.492188 201.304688 C 308.492188 201.304688 306.113281 190.632812 306.28125 186.671875 C 306.449219 182.710938 308.984375 165.824219 306.140625 160.976562 C 303.296875 156.128906 294.773438 152.425781 294.773438 152.425781 C 294.773438 152.425781 280.667969 158.683594 279.816406 157.519531 C 278.957031 156.355469 280.699219 154.554688 280.699219 154.554688 C 280.699219 154.554688 275.050781 157.808594 272.992188 163.875 C 270.9375 169.945312 269.234375 187.882812 269.058594 195.621094 C 268.886719 203.359375 270.792969 210.265625 270.792969 210.265625 C 270.792969 210.265625 279.257812 214.839844 293.9375 209.742188 C 308.613281 204.644531 308.492188 201.304688 308.492188 201.304688 "/>
<path style=" stroke:none;fill-rule:nonzero;fill:rgb(80.778503%,56.858826%,9.408569%);fill-opacity:1;" d="M 338.472656 131.488281 C 338.472656 131.488281 338.734375 135.699219 337.125 139.417969 C 335.519531 143.136719 331.53125 145.675781 331.53125 145.675781 C 331.53125 145.675781 336.214844 144.707031 337.308594 146.261719 C 338.402344 147.8125 338.3125 155.175781 338.3125 155.175781 C 338.3125 155.175781 341.3125 151.175781 343.855469 153.453125 C 346.40625 155.726562 347.515625 159.394531 347.515625 159.394531 C 347.515625 159.394531 349.804688 157.050781 351.90625 158.546875 C 354.003906 160.042969 355.359375 164.503906 355.359375 164.503906 C 355.359375 164.503906 362.226562 164.722656 365.460938 170.285156 C 368.695312 175.851562 371.324219 177.820312 372.738281 176.027344 C 374.148438 174.234375 373.859375 172.640625 373.859375 172.640625 C 373.859375 172.640625 374.886719 176.613281 372.3125 179.277344 C 369.738281 181.941406 365.574219 179.554688 365.574219 179.554688 C 365.574219 179.554688 368.972656 182.589844 370.757812 182.085938 C 372.542969 181.582031 372.558594 180.070312 372.558594 180.070312 C 372.558594 180.070312 371.828125 183.234375 368.648438 184.019531 C 365.464844 184.800781 357.011719 181.441406 355.738281 176.675781 C 354.464844 171.910156 354.066406 170.21875 354.066406 170.21875 C 354.066406 170.21875 353.902344 178.089844 357.921875 181.492188 C 361.945312 184.898438 363.410156 184.109375 363.410156 184.109375 C 363.410156 184.109375 357.785156 184.421875 354.652344 180.667969 C 351.519531 176.910156 350.898438 171.203125 350.898438 171.203125 C 350.898438 171.203125 345.921875 170.570312 345.429688 168.988281 C 344.941406 167.402344 345.136719 165.476562 345.136719 165.476562 C 345.136719 165.476562 338.867188 166.933594 336.035156 164.976562 C 333.203125 163.019531 334.003906 161.058594 334.003906 161.058594 C 334.003906 161.058594 325.46875 161.636719 322.675781 158.566406 C 319.882812 155.496094 320.691406 153.738281 320.691406 153.738281 C 320.691406 153.738281 313.617188 151.957031 310.589844 149.667969 C 307.558594 147.382812 302.34375 146.460938 302.34375 146.460938 L 322.699219 133.773438 L 338.472656 131.488281 "/>
<path style=" stroke:none;fill-rule:nonzero;fill:rgb(87.449646%,63.529968%,46.269226%);fill-opacity:1;" d="M 293.492188 62.105469 C 293.492188 62.105469 275.070312 67.765625 267.976562 78.828125 C 260.878906 89.890625 264.292969 93.339844 262.316406 98.3125 C 260.335938 103.28125 253.90625 101.769531 252.699219 102.769531 C 251.496094 103.769531 251.125 106.664062 253.179688 108.472656 C 255.234375 110.285156 256.910156 110.742188 256.980469 112.167969 C 257.050781 113.585938 251.773438 124.617188 261.117188 133.878906 C 270.460938 143.136719 281.300781 143.949219 281.300781 143.949219 C 281.300781 143.949219 302.066406 147.808594 308.621094 141.445312 C 315.179688 135.082031 337.878906 114.964844 323.433594 89.964844 C 308.988281 64.96875 293.492188 62.105469 293.492188 62.105469 "/>
<path style=" stroke:none;fill-rule:nonzero;fill:rgb(77.648926%,52.159119%,33.729553%);fill-opacity:1;" d="M 278.011719 103.238281 C 278.011719 103.238281 279.1875 106.226562 275.863281 109.074219 C 272.539062 111.925781 269.078125 109.480469 268.570312 108.699219 C 268.0625 107.917969 267.664062 107.324219 268.410156 106.890625 C 269.160156 106.453125 278.011719 103.238281 278.011719 103.238281 "/>
<path style=" stroke:none;fill-rule:nonzero;fill:rgb(100%,100%,100%);fill-opacity:1;" d="M 277.949219 104.621094 C 277.949219 104.621094 277.054688 109.339844 272.96875 109.488281 C 268.886719 109.636719 268.25 106.972656 268.25 106.972656 C 268.25 106.972656 266.910156 104.019531 267.585938 99.761719 C 268.261719 95.503906 269.609375 94.570312 269.609375 94.570312 C 269.609375 94.570312 274.925781 94.152344 276.453125 97.910156 C 277.976562 101.667969 278.011719 103.234375 278.011719 103.234375 L 277.949219 104.621094 "/>
<path style=" stroke:none;fill-rule:nonzero;fill:rgb(18.03894%,11.759949%,8.239746%);fill-opacity:1;" d="M 277.945312 104.621094 C 277.945312 104.621094 277.511719 99.25 274.703125 97.144531 C 271.890625 95.035156 268.078125 97.703125 266.566406 94.984375 C 265.050781 92.265625 265.757812 91.984375 265.757812 91.984375 C 265.757812 91.984375 268.523438 93.484375 271.035156 93.667969 C 273.542969 93.851562 276.097656 95.199219 277.214844 97.832031 C 278.332031 100.464844 277.945312 104.621094 277.945312 104.621094 "/>
<path style=" stroke:none;fill-rule:nonzero;fill:rgb(31.759644%,52.549744%,80.389404%);fill-opacity:1;" d="M 268.3125 96.785156 C 268.3125 96.785156 273.039062 95.378906 273.804688 101.957031 C 274.566406 108.503906 268.863281 108.0625 268.863281 108.0625 C 268.863281 108.0625 267.132812 107.023438 267.167969 102.496094 C 267.207031 97.964844 268.3125 96.785156 268.3125 96.785156 "/>
<path style=" stroke:none;fill-rule:nonzero;fill:rgb(18.03894%,11.759949%,8.239746%);fill-opacity:1;" d="M 267.648438 98.304688 C 267.648438 98.304688 270.867188 97.863281 271.425781 102.550781 C 272.007812 107.492188 267.929688 106.824219 267.929688 106.824219 C 267.929688 106.824219 267.050781 105.75 266.941406 102.609375 C 266.832031 99.464844 267.648438 98.304688 267.648438 98.304688 "/>
<path style=" stroke:none;fill-rule:nonzero;fill:rgb(100%,100%,100%);fill-opacity:1;" d="M 272.011719 101.175781 C 271.476562 101.621094 270.679688 101.546875 270.234375 101.007812 C 269.789062 100.472656 269.863281 99.675781 270.398438 99.230469 C 270.941406 98.785156 271.734375 98.859375 272.179688 99.394531 C 272.625 99.933594 272.550781 100.726562 272.011719 101.175781 "/>
<path style=" stroke:none;fill-rule:nonzero;fill:rgb(18.03894%,11.759949%,8.239746%);fill-opacity:1;" d="M 267.585938 121.367188 C 267.621094 121.320312 267.65625 121.265625 267.679688 121.210938 C 267.738281 121.089844 267.765625 120.941406 267.730469 120.785156 C 267.710938 120.699219 267.679688 120.628906 267.632812 120.566406 L 267.621094 120.554688 C 267.609375 120.535156 267.59375 120.515625 267.578125 120.5 C 267.40625 120.292969 267.117188 120.1875 266.835938 120.308594 C 266.363281 120.511719 266.335938 121.136719 266.707031 121.429688 C 265.65625 123.527344 263.992188 125.207031 261.597656 125.71875 C 259.460938 126.179688 257.894531 125.492188 255.964844 124.730469 C 256 124.910156 256.023438 125.027344 256.078125 125.210938 C 257.640625 126.761719 260.039062 126.6875 262.089844 126.203125 C 264.550781 125.628906 266.730469 123.753906 267.585938 121.367188 "/>
<path style=" stroke:none;fill-rule:nonzero;fill:rgb(61.569214%,41.958618%,18.429565%);fill-opacity:1;" d="M 298.636719 142.492188 C 298.414062 142.386719 298.277344 142.332031 298.277344 142.332031 C 298.277344 142.332031 298.402344 142.390625 298.636719 142.492188 "/>
<path style=" stroke:none;fill-rule:nonzero;fill:rgb(80.778503%,56.858826%,9.408569%);fill-opacity:1;" d="M 302.332031 149.988281 C 302.875 152.128906 302.78125 153.128906 302.78125 153.128906 C 302.78125 153.128906 304.273438 150.691406 303.128906 148.867188 C 302.21875 147.414062 300.011719 146.277344 299.144531 145.875 C 298.914062 145.777344 298.789062 145.714844 298.789062 145.714844 C 298.789062 145.714844 298.925781 145.769531 299.144531 145.875 C 301.90625 147.050781 320.152344 153.847656 336.789062 135.28125 C 354.84375 115.136719 348.417969 96.910156 348.417969 96.910156 C 348.417969 96.910156 348.523438 95.710938 348.457031 93.734375 C 348.324219 89.917969 347.53125 83.199219 344.019531 76.609375 C 341.757812 72.363281 338.363281 68.171875 333.292969 64.84375 C 330.066406 62.730469 326.988281 61.304688 324.109375 60.371094 C 311.792969 56.390625 303.210938 61.566406 303.210938 61.566406 C 303.210938 61.566406 303.164062 60.246094 305.105469 58.578125 C 307.046875 56.902344 308.089844 57.269531 308.089844 57.269531 C 308.089844 57.269531 306.550781 56.453125 304.253906 58.292969 C 301.960938 60.136719 300.683594 62.980469 300.683594 62.980469 C 300.683594 62.980469 303.027344 51.980469 294.28125 50.355469 C 285.542969 48.730469 284.347656 52.863281 284.347656 52.863281 C 284.347656 52.863281 292.886719 48.003906 295.078125 52.652344 C 297.273438 57.304688 296.902344 60.199219 296.902344 60.199219 C 296.902344 60.199219 295.015625 58.722656 291.675781 57.644531 C 287.121094 56.171875 279.871094 55.4375 271.027344 60.210938 C 270.101562 60.710938 269.230469 61.222656 268.410156 61.746094 C 255.59375 69.871094 254.796875 80.324219 254.796875 80.324219 L 261.113281 84.148438 C 261.113281 84.148438 263.441406 77.59375 266.527344 74.851562 C 269.613281 72.109375 271.382812 71.566406 271.382812 71.566406 C 271.382812 71.566406 265.667969 76.9375 264.703125 80.007812 C 263.738281 83.078125 263.054688 86.046875 263.054688 86.046875 C 263.054688 86.046875 273.242188 92.761719 280.761719 95.585938 C 288.28125 98.410156 289.191406 98.390625 289.191406 98.390625 L 292.199219 91.09375 C 292.199219 91.09375 294.566406 106.878906 290.96875 118.371094 C 287.367188 129.859375 281.242188 134.289062 281.242188 134.289062 C 281.242188 134.289062 290.433594 134.894531 295.164062 129.679688 C 299.898438 124.457031 301.40625 119.140625 301.40625 119.140625 C 301.40625 119.140625 300.636719 123.566406 298.847656 126.761719 C 297.058594 129.957031 295.34375 131.007812 295.34375 131.007812 C 295.34375 131.007812 302.128906 129.820312 305.785156 124.199219 C 309.441406 118.578125 309.960938 117.59375 309.960938 117.59375 C 309.960938 117.59375 316.878906 113.441406 317.195312 122.800781 C 317.515625 132.160156 306.023438 132.066406 306.023438 132.066406 C 306.023438 132.066406 306.578125 136.300781 303.851562 139.480469 C 301.128906 142.667969 296.117188 145.078125 296.117188 145.078125 C 296.117188 145.078125 298.320312 147.863281 298.074219 151.023438 C 297.832031 154.183594 294.84375 153.703125 294.84375 153.703125 C 294.84375 153.703125 298.945312 155.75 299.621094 152.328125 C 300.292969 148.90625 297.59375 146.429688 297.59375 146.429688 C 297.59375 146.429688 301.792969 147.847656 302.332031 149.988281 "/>
<path style=" stroke:none;fill-rule:nonzero;fill:rgb(100%,100%,100%);fill-opacity:1;" d="M 348.457031 93.734375 C 348.324219 89.917969 347.53125 83.199219 344.019531 76.609375 C 347.53125 83.199219 348.324219 89.917969 348.457031 93.734375 M 333.292969 64.84375 C 330.140625 62.78125 327.132812 61.371094 324.3125 60.4375 C 327.132812 61.371094 330.140625 62.78125 333.292969 64.84375 M 268.796875 61.5 C 269.503906 61.0625 270.246094 60.632812 271.027344 60.214844 C 276.140625 57.453125 280.722656 56.53125 284.554688 56.53125 C 285.496094 56.53125 286.390625 56.589844 287.238281 56.683594 C 286.390625 56.589844 285.496094 56.53125 284.554688 56.53125 C 280.722656 56.53125 276.140625 57.453125 271.027344 60.214844 C 270.246094 60.632812 269.503906 61.0625 268.796875 61.5 M 287.296875 56.691406 C 287.277344 56.691406 287.261719 56.6875 287.242188 56.683594 C 287.261719 56.6875 287.277344 56.691406 287.296875 56.691406 "/>
<path style=" stroke:none;fill-rule:nonzero;fill:rgb(82.348633%,59.999084%,11.369324%);fill-opacity:1;" d="M 340.476562 95.367188 C 333.832031 95.367188 323.335938 93.492188 307.226562 88.558594 C 279.628906 80.105469 270.085938 70.328125 268.40625 61.746094 C 268.539062 61.664062 268.664062 61.582031 268.796875 61.5 C 269.503906 61.0625 270.246094 60.632812 271.027344 60.210938 C 276.140625 57.453125 280.71875 56.535156 284.554688 56.535156 C 285.496094 56.535156 286.390625 56.589844 287.234375 56.6875 C 287.238281 56.6875 287.238281 56.6875 287.242188 56.6875 C 287.257812 56.6875 287.277344 56.691406 287.292969 56.695312 C 287.304688 56.695312 287.316406 56.695312 287.324219 56.695312 C 288.964844 56.890625 290.421875 57.238281 291.675781 57.644531 C 291.664062 57.644531 261.378906 59.644531 302.886719 77.117188 C 307.980469 79.257812 313.347656 80.703125 318.835938 81.363281 C 322.804688 81.847656 326.085938 82.066406 328.785156 82.066406 C 355.65625 82.066406 324.105469 60.371094 324.105469 60.371094 C 324.171875 60.394531 324.242188 60.417969 324.308594 60.4375 C 327.128906 61.371094 330.144531 62.78125 333.289062 64.84375 C 338.363281 68.171875 341.753906 72.363281 344.015625 76.613281 C 347.53125 83.199219 348.324219 89.917969 348.453125 93.734375 C 346.84375 94.75 344.296875 95.367188 340.476562 95.367188 "/>
<path style=" stroke:none;fill-rule:nonzero;fill:rgb(18.03894%,11.759949%,8.239746%);fill-opacity:1;" d="M 277.410156 91.539062 C 277.410156 91.539062 274.859375 87.429688 271.425781 85.960938 C 267.992188 84.496094 265.304688 85.714844 270.464844 88.070312 C 275.625 90.429688 277.410156 91.539062 277.410156 91.539062 "/>
<path style=" stroke:none;fill-rule:nonzero;fill:rgb(75.289917%,10.978699%,37.649536%);fill-opacity:1;" d="M 354.257812 162.613281 L 348.5 170.578125 L 350.886719 173.507812 L 357.023438 164.550781 L 354.257812 162.613281 "/>
<path style=" stroke:none;fill-rule:nonzero;fill:rgb(86.268616%,26.269531%,58.81958%);fill-opacity:1;" d="M 255.511719 146.957031 C 255.511719 146.957031 267.191406 148.429688 274.285156 150.949219 C 281.378906 153.464844 292.070312 155 297.890625 159.90625 C 303.714844 164.808594 301.828125 176.996094 291.296875 177.371094 C 280.761719 177.746094 270.421875 169.941406 265.523438 167.808594 C 260.625 165.671875 252.734375 163.632812 252.734375 163.632812 C 252.734375 163.632812 251.941406 157.902344 253.089844 153.386719 C 254.238281 148.863281 255.511719 146.957031 255.511719 146.957031 "/>
<path style=" stroke:none;fill-rule:nonzero;fill:rgb(75.289917%,10.978699%,37.649536%);fill-opacity:1;" d="M 339.128906 208.226562 C 339.730469 212.410156 338.652344 216.804688 334.882812 219.300781 C 333.183594 220.429688 330.664062 220.851562 329.429688 222.574219 C 328.347656 224.074219 328.171875 226.179688 327.828125 227.941406 C 327.078125 231.804688 325.46875 235.714844 321.238281 236.753906 C 317.445312 237.679688 312.820312 235.355469 309.425781 237.453125 C 306.710938 239.128906 305.027344 242.234375 302.945312 244.585938 C 300.476562 247.375 297.21875 249.472656 293.355469 249.15625 C 289.058594 248.804688 285.78125 246.015625 281.824219 244.675781 C 277.058594 243.066406 272.226562 245.734375 267.480469 246.238281 C 262.40625 246.777344 257.304688 245.554688 252.933594 243.046875 C 252.902344 243.15625 252.886719 243.214844 252.886719 243.214844 C 252.886719 243.214844 256.976562 249.671875 263.832031 249.835938 C 270.683594 249.996094 274.8125 247.46875 278.378906 247.542969 C 281.949219 247.617188 289.617188 254.289062 298.734375 251.75 C 307.847656 249.210938 307.699219 242.519531 311.746094 240.707031 C 315.789062 238.898438 319.460938 243.101562 326.300781 238.273438 C 333.144531 233.445312 331.28125 226.144531 331.582031 223.988281 C 331.878906 221.832031 339.734375 222.078125 340.359375 218.191406 C 340.984375 214.304688 340.707031 209.613281 340.707031 209.613281 C 340.707031 209.613281 340.140625 209.054688 339.128906 208.226562 "/>
<path style=" stroke:none;fill-rule:nonzero;fill:rgb(100%,100%,100%);fill-opacity:1;" d="M 267.476562 246.238281 C 272.226562 245.734375 277.058594 243.066406 281.824219 244.675781 C 285.78125 246.015625 289.054688 248.804688 293.355469 249.15625 C 297.21875 249.472656 300.472656 247.375 302.941406 244.585938 C 305.023438 242.234375 306.714844 239.128906 309.425781 237.453125 C 312.820312 235.355469 317.445312 237.679688 321.234375 236.753906 C 325.46875 235.714844 327.078125 231.804688 327.832031 227.941406 C 328.171875 226.179688 328.347656 224.074219 329.429688 222.574219 C 330.664062 220.851562 333.183594 220.429688 334.882812 219.300781 C 338.648438 216.804688 339.730469 212.410156 339.125 208.226562 C 338.117188 207.398438 336.667969 206.304688 334.878906 205.226562 C 334.742188 209.222656 335.382812 213.714844 331.210938 215.804688 C 329.398438 216.714844 327.511719 217.382812 326.097656 218.914062 C 324.878906 220.234375 324.15625 221.914062 323.6875 223.625 C 323.046875 225.972656 323.183594 230.332031 320.726562 231.648438 C 319.191406 232.472656 317.09375 232.007812 315.453125 231.828125 C 313.320312 231.597656 311.148438 231.433594 309.070312 232.113281 C 305.894531 233.15625 303.632812 235.683594 301.621094 238.226562 C 299.949219 240.339844 298.117188 243.152344 295.496094 243.941406 C 292.199219 244.929688 288.738281 242.253906 285.925781 240.925781 C 283.992188 240.015625 282.019531 239.300781 279.878906 239.113281 C 277.394531 238.890625 274.929688 239.410156 272.53125 240.011719 C 270.175781 240.597656 267.890625 241.222656 265.445312 241.257812 C 263.347656 241.28125 261.292969 240.941406 259.292969 240.320312 C 257.542969 239.777344 255.871094 238.976562 254.339844 237.96875 C 253.605469 240.542969 253.082031 242.476562 252.933594 243.046875 C 257.304688 245.554688 262.40625 246.777344 267.476562 246.238281 "/>
<path style=" stroke:none;fill-rule:nonzero;fill:rgb(100%,100%,100%);fill-opacity:1;" d="M 265.195312 236.007812 C 265.167969 235.957031 265.148438 235.902344 265.125 235.847656 C 264.996094 235.609375 264.820312 235.417969 264.597656 235.277344 C 264.234375 234.992188 263.828125 234.847656 263.359375 234.835938 C 263.21875 234.832031 263.078125 234.839844 262.9375 234.859375 C 261.304688 234.753906 259.632812 236.039062 259.644531 237.804688 C 259.660156 239.828125 261.621094 241.382812 263.597656 240.832031 C 264.597656 240.554688 265.417969 239.746094 265.71875 238.761719 C 266.011719 237.796875 265.851562 236.738281 265.195312 236.007812 "/>
<path style=" stroke:none;fill-rule:nonzero;fill:rgb(100%,100%,100%);fill-opacity:1;" d="M 294.578125 237.78125 C 294.46875 237.714844 294.367188 237.679688 294.242188 237.625 C 294.128906 237.578125 294.003906 237.515625 293.878906 237.484375 C 293.6875 237.433594 293.425781 237.402344 293.230469 237.394531 C 293.09375 237.386719 292.972656 237.414062 292.835938 237.433594 C 292.707031 237.449219 292.566406 237.457031 292.441406 237.496094 C 292.265625 237.550781 292.011719 237.648438 291.859375 237.746094 C 291.492188 237.972656 291.175781 238.269531 290.953125 238.644531 C 290.757812 238.964844 290.664062 239.285156 290.613281 239.644531 C 290.566406 240.027344 290.5625 240.320312 290.660156 240.710938 C 290.710938 240.925781 290.816406 241.148438 290.910156 241.339844 C 290.929688 241.375 290.953125 241.410156 290.976562 241.449219 C 291.097656 241.625 291.234375 241.820312 291.394531 241.964844 C 291.480469 242.042969 291.757812 242.261719 291.851562 242.320312 C 291.878906 242.335938 291.90625 242.351562 291.933594 242.363281 C 292.109375 242.4375 292.285156 242.511719 292.460938 242.585938 C 292.6875 242.65625 292.910156 242.679688 293.132812 242.65625 L 293.152344 242.660156 C 293.625 242.664062 294.011719 242.535156 294.429688 242.335938 C 294.46875 242.320312 294.503906 242.300781 294.539062 242.28125 C 294.71875 242.164062 294.917969 242.015625 295.070312 241.859375 C 295.382812 241.53125 295.589844 241.171875 295.726562 240.742188 C 295.773438 240.609375 295.773438 240.519531 295.792969 240.355469 C 295.816406 240.207031 295.84375 240.085938 295.835938 239.945312 C 295.800781 239.050781 295.34375 238.25 294.578125 237.78125 "/>
<path style=" stroke:none;fill-rule:nonzero;fill:rgb(100%,100%,100%);fill-opacity:1;" d="M 319.058594 227.53125 C 318.832031 227.164062 318.523438 226.867188 318.152344 226.652344 C 317.773438 226.429688 317.253906 226.300781 316.820312 226.335938 C 315.898438 226.414062 315.035156 226.855469 314.550781 227.667969 C 314.046875 228.503906 314.0625 229.585938 314.585938 230.414062 C 315.3125 231.566406 316.867188 232 318.066406 231.308594 C 318.664062 230.96875 319.070312 230.40625 319.25 229.78125 C 319.511719 229.058594 319.480469 228.21875 319.058594 227.53125 "/>
<path style=" stroke:none;fill-rule:nonzero;fill:rgb(100%,100%,100%);fill-opacity:1;" d="M 332.121094 213.253906 C 331.773438 212.6875 331.21875 212.210938 330.5625 212.042969 C 330.4375 212.011719 330.332031 212.003906 330.1875 211.984375 C 329.8125 211.933594 329.890625 211.933594 329.515625 211.984375 C 329.132812 212.035156 329.019531 212.035156 328.621094 212.273438 C 328.4375 212.378906 328.25 212.511719 328.113281 212.675781 C 327.992188 212.828125 327.875 212.984375 327.753906 213.136719 C 327.695312 213.273438 327.640625 213.414062 327.578125 213.554688 C 327.28125 214.082031 327.207031 214.722656 327.34375 215.324219 C 327.433594 215.710938 327.707031 216.09375 327.976562 216.375 C 328.273438 216.683594 328.644531 216.867188 329.042969 217.003906 C 329.28125 217.085938 329.542969 217.113281 329.785156 217.117188 C 329.816406 217.117188 329.847656 217.113281 329.878906 217.109375 C 330.433594 217.0625 330.398438 217.066406 330.804688 216.894531 C 331.171875 216.738281 331.324219 216.671875 331.652344 216.355469 C 331.824219 216.191406 331.980469 215.980469 332.105469 215.777344 C 332.570312 215.050781 332.574219 213.984375 332.121094 213.253906 "/>
<path style=" stroke:none;fill-rule:nonzero;fill:rgb(34.118652%,45.489502%,15.689087%);fill-opacity:1;" d="M 127.40625 261.253906 L 123.226562 250.285156 L 132.746094 189.390625 L 136.980469 199.394531 L 127.40625 261.253906 "/>
<path style=" stroke:none;fill-rule:nonzero;fill:rgb(56.858826%,10.5896%,12.159729%);fill-opacity:1;" d="M 143.792969 195.996094 L 135.675781 186.457031 L 135.675781 153.765625 L 143.792969 159.339844 L 143.792969 195.996094 "/>
<path style=" stroke:none;fill-rule:nonzero;fill:rgb(95.289612%,37.249756%,46.269226%);fill-opacity:1;" d="M 213.0625 159.339844 L 201.597656 153.238281 L 135.675781 153.765625 L 143.789062 159.339844 L 213.0625 159.339844 "/>
<path style=" stroke:none;fill-rule:nonzero;fill:rgb(90.19928%,73.728943%,18.818665%);fill-opacity:1;" d="M 197.953125 156.550781 L 167.402344 156.550781 L 167.402344 128.039062 L 197.953125 128.039062 L 197.953125 156.550781 "/>
<path style=" stroke:none;fill-rule:nonzero;fill:rgb(98.429871%,83.139038%,34.118652%);fill-opacity:1;" d="M 197.953125 128.039062 L 186.589844 123.320312 L 160.542969 123.320312 L 167.402344 128.039062 L 197.953125 128.039062 "/>
<path style=" stroke:none;fill-rule:nonzero;fill:rgb(75.289917%,54.119873%,10.5896%);fill-opacity:1;" d="M 167.402344 156.550781 L 160.542969 152.050781 L 160.542969 123.320312 L 167.402344 128.039062 L 167.402344 156.550781 "/>
</g>
</svg>
