<?xml version="1.0" encoding="UTF-8"?>
<svg xmlns="http://www.w3.org/2000/svg" xmlns:xlink="http://www.w3.org/1999/xlink" width="375pt" height="374.999991pt" viewBox="0 0 375 374.999991" version="1.2">
<defs>
<clipPath id="clip1">
  <path d="M 31 161 L 173 161 L 173 302 L 31 302 Z M 31 161 "/>
</clipPath>
<clipPath id="clip2">
  <path d="M 101.175781 0 L 372.105469 102.019531 L 269.296875 375.054688 L -1.632812 273.035156 Z M 101.175781 0 "/>
</clipPath>
<clipPath id="clip3">
  <path d="M 101.175781 0 L 372.105469 102.019531 L 269.296875 375.054688 L -1.632812 273.035156 Z M 101.175781 0 "/>
</clipPath>
<clipPath id="clip4">
  <path d="M 206 71 L 352 71 L 352 217 L 206 217 Z M 206 71 "/>
</clipPath>
<clipPath id="clip5">
  <path d="M 101.175781 0 L 372.105469 102.019531 L 269.296875 375.054688 L -1.632812 273.035156 Z M 101.175781 0 "/>
</clipPath>
<clipPath id="clip6">
  <path d="M 101.175781 0 L 372.105469 102.019531 L 269.296875 375.054688 L -1.632812 273.035156 Z M 101.175781 0 "/>
</clipPath>
<clipPath id="clip7">
  <path d="M 128 189 L 268 189 L 268 332 L 128 332 Z M 128 189 "/>
</clipPath>
<clipPath id="clip8">
  <path d="M 101.175781 0 L 372.105469 102.019531 L 269.296875 375.054688 L -1.632812 273.035156 Z M 101.175781 0 "/>
</clipPath>
<clipPath id="clip9">
  <path d="M 101.175781 0 L 372.105469 102.019531 L 269.296875 375.054688 L -1.632812 273.035156 Z M 101.175781 0 "/>
</clipPath>
<clipPath id="clip10">
  <path d="M 61 64 L 202 64 L 202 205 L 61 205 Z M 61 64 "/>
</clipPath>
<clipPath id="clip11">
  <path d="M 101.175781 0 L 372.105469 102.019531 L 269.296875 375.054688 L -1.632812 273.035156 Z M 101.175781 0 "/>
</clipPath>
<clipPath id="clip12">
  <path d="M 101.175781 0 L 372.105469 102.019531 L 269.296875 375.054688 L -1.632812 273.035156 Z M 101.175781 0 "/>
</clipPath>
</defs>
<g id="surface1">
<g clip-path="url(#clip1)" clip-rule="nonzero">
<g clip-path="url(#clip2)" clip-rule="nonzero">
<g clip-path="url(#clip3)" clip-rule="nonzero">
<path style=" stroke:none;fill-rule:nonzero;fill:rgb(9.408569%,96.078491%,76.078796%);fill-opacity:1;" d="M 94.40625 282.617188 L 128.195312 295.339844 L 141.308594 260.511719 C 143.234375 263.097656 145.890625 265.191406 149.132812 266.410156 C 158.148438 269.808594 168.210938 265.25 171.605469 256.230469 C 175.003906 247.214844 170.445312 237.148438 161.429688 233.753906 C 158.1875 232.535156 154.8125 232.359375 151.65625 233.027344 L 164.769531 198.203125 L 67.652344 161.632812 L 54.507812 196.535156 C 57.707031 195.824219 61.140625 195.992188 64.4375 197.230469 C 73.453125 200.625 78.007812 210.691406 74.613281 219.707031 C 71.214844 228.726562 61.15625 233.285156 52.140625 229.890625 C 48.84375 228.648438 46.152344 226.511719 44.21875 223.863281 L 31.074219 258.769531 L 64.863281 271.492188 C 63.082031 273.226562 61.636719 275.347656 60.703125 277.824219 C 57.308594 286.839844 61.867188 296.90625 70.882812 300.300781 C 79.898438 303.695312 89.960938 299.136719 93.355469 290.117188 C 94.285156 287.644531 94.597656 285.09375 94.40625 282.617188 "/>
</g>
</g>
</g>
<g clip-path="url(#clip4)" clip-rule="nonzero">
<g clip-path="url(#clip5)" clip-rule="nonzero">
<g clip-path="url(#clip6)" clip-rule="nonzero">
<path style=" stroke:none;fill-rule:nonzero;fill:rgb(100%,30.589294%,7.449341%);fill-opacity:1;" d="M 234.367188 153.628906 C 242.292969 148.148438 253.160156 150.136719 258.632812 158.0625 C 264.109375 165.992188 262.125 176.859375 254.199219 182.339844 C 251.207031 184.40625 247.792969 185.40625 244.414062 185.429688 L 265.703125 216.253906 L 295.242188 195.839844 C 295.691406 198.128906 296.597656 200.363281 298.007812 202.40625 C 303.484375 210.332031 314.347656 212.316406 322.273438 206.839844 C 330.203125 201.359375 332.1875 190.496094 326.714844 182.566406 C 325.304688 180.527344 323.535156 178.886719 321.554688 177.660156 L 351.09375 157.25 L 330.390625 127.28125 C 333.089844 126.945312 335.746094 125.980469 338.136719 124.332031 C 346.066406 118.855469 348.054688 107.984375 342.578125 100.058594 C 337.101562 92.128906 326.234375 90.144531 318.308594 95.621094 C 315.917969 97.277344 314.078125 99.421875 312.808594 101.824219 L 292.109375 71.855469 L 262.144531 92.566406 C 261.808594 89.867188 260.847656 87.210938 259.195312 84.824219 C 253.722656 76.894531 242.855469 74.910156 234.925781 80.386719 C 227.003906 85.867188 225.015625 96.734375 230.492188 104.660156 C 232.140625 107.050781 234.285156 108.886719 236.6875 110.15625 L 206.722656 130.863281 L 228.015625 161.6875 C 229.230469 158.535156 231.375 155.699219 234.367188 153.628906 "/>
</g>
</g>
</g>
<g clip-path="url(#clip7)" clip-rule="nonzero">
<g clip-path="url(#clip8)" clip-rule="nonzero">
<g clip-path="url(#clip9)" clip-rule="nonzero">
<path style=" stroke:none;fill-rule:nonzero;fill:rgb(4.708862%,55.288696%,65.879822%);fill-opacity:1;" d="M 237.96875 298.304688 C 239.636719 299.929688 241.65625 301.25 243.976562 302.125 C 252.988281 305.519531 263.050781 300.964844 266.449219 291.945312 C 269.84375 282.925781 265.285156 272.863281 256.273438 269.46875 C 253.953125 268.59375 251.566406 268.257812 249.238281 268.375 L 261.890625 234.773438 L 226.832031 221.570312 C 229.597656 219.625 231.828125 216.859375 233.109375 213.457031 C 236.507812 204.4375 231.953125 194.375 222.933594 190.980469 C 213.917969 187.585938 203.855469 192.144531 200.460938 201.160156 C 199.179688 204.5625 199.035156 208.117188 199.828125 211.402344 L 164.769531 198.203125 L 151.65625 233.027344 C 154.8125 232.359375 158.1875 232.535156 161.429688 233.753906 C 170.445312 237.148438 175.003906 247.214844 171.605469 256.230469 C 168.210938 265.25 158.148438 269.808594 149.132812 266.410156 C 145.890625 265.191406 143.234375 263.097656 141.308594 260.511719 L 128.195312 295.339844 L 163.429688 308.605469 C 162.546875 305.234375 162.648438 301.574219 163.972656 298.066406 C 167.367188 289.050781 177.429688 284.492188 186.445312 287.886719 C 195.460938 291.28125 200.015625 301.34375 196.621094 310.359375 C 195.300781 313.871094 192.964844 316.691406 190.082031 318.640625 L 225.316406 331.910156 L 237.96875 298.304688 "/>
</g>
</g>
</g>
<g clip-path="url(#clip10)" clip-rule="nonzero">
<g clip-path="url(#clip11)" clip-rule="nonzero">
<g clip-path="url(#clip12)" clip-rule="nonzero">
<path style=" stroke:none;fill-rule:nonzero;fill:rgb(52.159119%,81.959534%,100%);fill-opacity:1;" d="M 177.609375 164.113281 C 174.910156 164.4375 172.101562 164.148438 169.382812 163.125 C 160.367188 159.730469 155.8125 149.667969 159.207031 140.652344 C 162.601562 131.632812 172.664062 127.074219 181.679688 130.46875 C 184.398438 131.492188 186.699219 133.128906 188.511719 135.152344 L 201.347656 101.0625 L 168.3125 88.625 C 168.234375 90.40625 167.878906 92.203125 167.21875 93.960938 C 163.824219 102.976562 153.761719 107.535156 144.746094 104.140625 C 135.730469 100.746094 131.171875 90.683594 134.570312 81.667969 C 135.230469 79.910156 136.152344 78.324219 137.261719 76.933594 L 104.230469 64.496094 L 91.417969 98.519531 C 89.621094 96.546875 87.355469 94.953125 84.6875 93.949219 C 75.671875 90.550781 65.609375 95.109375 62.214844 104.128906 C 58.820312 113.144531 63.375 123.210938 72.390625 126.605469 C 75.058594 127.609375 77.8125 127.902344 80.46875 127.601562 L 67.652344 161.632812 L 101.550781 174.394531 C 99.679688 176.160156 98.160156 178.351562 97.195312 180.917969 C 93.800781 189.9375 98.355469 200 107.371094 203.394531 C 116.386719 206.789062 126.449219 202.230469 129.84375 193.214844 C 130.8125 190.648438 131.113281 187.996094 130.871094 185.4375 L 164.769531 198.203125 L 177.609375 164.113281 "/>
</g>
</g>
</g>
</g>
</svg>
