<?xml version="1.0" encoding="UTF-8"?>
<svg xmlns="http://www.w3.org/2000/svg" xmlns:xlink="http://www.w3.org/1999/xlink" width="419.25pt" height="297.75pt" viewBox="0 0 419.25 297.75" version="1.2">
<defs>
<clipPath id="clip1">
  <path d="M 158 253 L 185 253 L 185 297.359375 L 158 297.359375 Z M 158 253 "/>
</clipPath>
<clipPath id="clip2">
  <path d="M 122 236 L 179 236 L 179 297.359375 L 122 297.359375 Z M 122 236 "/>
</clipPath>
<clipPath id="clip3">
  <path d="M 135 293 L 157 293 L 157 297.359375 L 135 297.359375 Z M 135 293 "/>
</clipPath>
<clipPath id="clip4">
  <path d="M 140 295 L 157 295 L 157 297.359375 L 140 297.359375 Z M 140 295 "/>
</clipPath>
<clipPath id="clip5">
  <path d="M 239 252 L 266 252 L 266 297.359375 L 239 297.359375 Z M 239 252 "/>
</clipPath>
<clipPath id="clip6">
  <path d="M 244 235 L 303 235 L 303 297.359375 L 244 297.359375 Z M 244 235 "/>
</clipPath>
<clipPath id="clip7">
  <path d="M 268 292 L 290 292 L 290 297.359375 L 268 297.359375 Z M 268 292 "/>
</clipPath>
<clipPath id="clip8">
  <path d="M 268 294 L 285 294 L 285 297.359375 L 268 297.359375 Z M 268 294 "/>
</clipPath>
<clipPath id="clip9">
  <path d="M 157 222 L 267 222 L 267 297.359375 L 157 297.359375 Z M 157 222 "/>
</clipPath>
<clipPath id="clip10">
  <path d="M 158 257 L 200 257 L 200 297.359375 L 158 297.359375 Z M 158 257 "/>
</clipPath>
<clipPath id="clip11">
  <path d="M 248 263 L 267 263 L 267 297.359375 L 248 297.359375 Z M 248 263 "/>
</clipPath>
<clipPath id="clip12">
  <path d="M 250 234 L 296 234 L 296 297.359375 L 250 297.359375 Z M 250 234 "/>
</clipPath>
<clipPath id="clip13">
  <path d="M 250 234 L 275 234 L 275 297.359375 L 250 297.359375 Z M 250 234 "/>
</clipPath>
<clipPath id="clip14">
  <path d="M 127 234 L 173 234 L 173 297.359375 L 127 297.359375 Z M 127 234 "/>
</clipPath>
<clipPath id="clip15">
  <path d="M 156 297 L 159 297 L 159 297.359375 L 156 297.359375 Z M 156 297 "/>
</clipPath>
<clipPath id="clip16">
  <path d="M 152 295 L 157 295 L 157 297.359375 L 152 297.359375 Z M 152 295 "/>
</clipPath>
<clipPath id="clip17">
  <path d="M 152 234 L 173 234 L 173 297.359375 L 152 297.359375 Z M 152 234 "/>
</clipPath>
<clipPath id="clip18">
  <path d="M 78 0.140625 L 337 0.140625 L 337 155 L 78 155 Z M 78 0.140625 "/>
</clipPath>
<clipPath id="clip19">
  <path d="M 203 260 L 226 260 L 226 297.359375 L 203 297.359375 Z M 203 260 "/>
</clipPath>
</defs>
<g id="surface1">
<path style=" stroke:none;fill-rule:nonzero;fill:rgb(12.159729%,6.269836%,5.099487%);fill-opacity:1;" d="M 222.917969 279.84375 C 230.3125 263.203125 225.898438 244.761719 218.050781 228.09375 C 204.9375 227.429688 197.339844 223.492188 194.113281 220.71875 C 202.960938 211.03125 172.925781 115.667969 143.277344 99.941406 L 143.277344 99.9375 C 142.027344 99.421875 141.003906 98.335938 140.871094 96.644531 C 139.421875 79 119.152344 70.160156 110.566406 56.609375 C 109.074219 56.40625 107.53125 56.558594 106.082031 57.25 C 103.414062 58.515625 101.78125 61.085938 101.515625 63.886719 C 99.890625 63.660156 98.191406 63.867188 96.609375 64.621094 C 93.191406 66.246094 91.351562 69.839844 91.6875 73.480469 C 89.714844 73.34375 87.703125 73.632812 85.800781 74.539062 C 79.789062 77.390625 77.308594 84.71875 80.253906 90.894531 L 80.304688 90.984375 C 79.679688 91.121094 79.0625 91.3125 78.460938 91.601562 C 74.042969 93.699219 72.21875 99.078125 74.382812 103.621094 L 74.496094 103.8125 C 71.292969 106.328125 70.167969 110.882812 72.042969 114.820312 C 72.207031 115.171875 72.421875 115.472656 72.636719 115.796875 C 67.953125 119.144531 66.234375 125.550781 68.863281 131.070312 C 70.253906 133.992188 72.625 136.09375 75.359375 137.242188 C 72.136719 140.296875 71.085938 145.242188 73.148438 149.574219 C 73.851562 151.050781 74.851562 152.257812 76.019531 153.238281 C 73.273438 156.78125 72.566406 161.757812 74.667969 166.167969 C 76.621094 170.257812 80.460938 172.773438 84.574219 173.214844 C 82.316406 176.679688 81.851562 181.238281 83.804688 185.328125 C 85.539062 188.976562 88.789062 191.367188 92.394531 192.160156 C 89.511719 195.707031 88.75 200.792969 90.894531 205.296875 C 92.464844 208.601562 95.289062 210.863281 98.480469 211.859375 C 97.242188 214.960938 97.222656 218.574219 98.796875 221.878906 C 100.328125 225.097656 103.039062 227.335938 106.121094 228.375 C 104.988281 231.417969 105.015625 234.9375 106.550781 238.152344 C 108.699219 242.660156 113.15625 245.289062 117.742188 245.277344 C 117.042969 247.613281 117.152344 250.230469 118.304688 252.632812 C 120.367188 256.957031 124.996094 259.167969 129.371094 258.269531 C 129.542969 259.570312 129.863281 260.871094 130.457031 262.121094 C 133.289062 268.066406 140.105469 270.726562 145.972656 268.386719 C 146.121094 269.644531 146.433594 270.902344 147.007812 272.117188 C 149.722656 277.8125 156.289062 280.347656 161.886719 278.011719 C 161.976562 278.226562 162.023438 278.445312 162.125 278.660156 C 165.066406 284.839844 172.328125 287.539062 178.339844 284.679688 C 178.609375 284.554688 178.832031 284.367188 179.089844 284.222656 C 183.140625 288.902344 189.820312 290.566406 195.535156 287.855469 C 196.246094 287.511719 196.910156 287.105469 197.539062 286.660156 C 200.460938 289.558594 204.894531 290.527344 208.730469 288.703125 C 211.234375 287.511719 212.980469 285.371094 213.777344 282.890625 C 215.785156 283.304688 217.914062 283.128906 219.886719 282.191406 C 221.097656 281.617188 222.097656 280.796875 222.917969 279.84375 "/>
<path style=" stroke:none;fill-rule:nonzero;fill:rgb(12.159729%,6.269836%,5.099487%);fill-opacity:1;" d="M 196.273438 279.84375 C 188.886719 263.203125 193.300781 244.761719 201.148438 228.09375 C 214.253906 227.429688 221.855469 223.492188 225.082031 220.71875 C 216.234375 211.03125 246.269531 115.667969 275.925781 99.941406 L 275.925781 99.9375 C 277.167969 99.421875 278.1875 98.335938 278.328125 96.644531 C 279.773438 79 300.042969 70.160156 308.628906 56.609375 C 310.117188 56.40625 311.664062 56.558594 313.109375 57.25 C 315.78125 58.515625 317.410156 61.085938 317.679688 63.886719 C 319.3125 63.660156 321.007812 63.867188 322.585938 64.621094 C 326 66.246094 327.84375 69.839844 327.503906 73.480469 C 329.480469 73.34375 331.496094 73.632812 333.390625 74.539062 C 339.40625 77.390625 341.890625 84.71875 338.949219 90.894531 L 338.894531 90.984375 C 339.519531 91.121094 340.136719 91.3125 340.738281 91.601562 C 345.152344 93.699219 346.980469 99.078125 344.816406 103.621094 L 344.699219 103.8125 C 347.898438 106.328125 349.03125 110.882812 347.15625 114.820312 C 346.988281 115.171875 346.765625 115.472656 346.566406 115.796875 C 351.238281 119.144531 352.96875 125.550781 350.332031 131.070312 C 348.9375 133.992188 346.574219 136.09375 343.839844 137.242188 C 347.058594 140.296875 348.113281 145.242188 346.050781 149.574219 C 345.34375 151.050781 344.347656 152.257812 343.179688 153.238281 C 345.925781 156.78125 346.636719 161.757812 344.527344 166.167969 C 342.578125 170.257812 338.738281 172.773438 334.621094 173.214844 C 336.875 176.679688 337.339844 181.238281 335.394531 185.328125 C 333.65625 188.976562 330.40625 191.367188 326.808594 192.160156 C 329.6875 195.707031 330.445312 200.792969 328.304688 205.296875 C 326.726562 208.601562 323.90625 210.863281 320.71875 211.859375 C 321.957031 214.960938 321.972656 218.574219 320.402344 221.878906 C 318.871094 225.097656 316.15625 227.335938 313.074219 228.375 C 314.214844 231.417969 314.175781 234.9375 312.648438 238.152344 C 310.492188 242.660156 306.042969 245.289062 301.453125 245.277344 C 302.152344 247.613281 302.039062 250.230469 300.890625 252.632812 C 298.832031 256.957031 294.199219 259.167969 289.824219 258.269531 C 289.65625 259.570312 289.339844 260.871094 288.742188 262.121094 C 285.90625 268.066406 279.089844 270.726562 273.226562 268.386719 C 273.070312 269.644531 272.765625 270.902344 272.183594 272.117188 C 269.472656 277.8125 262.910156 280.347656 257.304688 278.011719 C 257.21875 278.226562 257.175781 278.445312 257.070312 278.660156 C 254.128906 284.839844 246.867188 287.539062 240.859375 284.679688 C 240.585938 284.554688 240.359375 284.367188 240.109375 284.222656 C 236.058594 288.902344 229.371094 290.566406 223.664062 287.855469 C 222.945312 287.511719 222.277344 287.105469 221.660156 286.660156 C 218.738281 289.558594 214.304688 290.527344 210.46875 288.703125 C 207.964844 287.511719 206.214844 285.371094 205.417969 282.890625 C 203.40625 283.304688 201.277344 283.128906 199.304688 282.191406 C 198.101562 281.617188 197.101562 280.796875 196.273438 279.84375 "/>
<g clip-path="url(#clip1)" clip-rule="nonzero">
<path style=" stroke:none;fill-rule:nonzero;fill:rgb(49.409485%,26.669312%,12.939453%);fill-opacity:1;" d="M 184.054688 283 C 184.054688 270.257812 177.710938 253.304688 171.453125 253.304688 C 165.203125 253.304688 157.550781 283.003906 158.714844 297.382812 C 159.738281 310.082031 166.476562 306.070312 172.730469 306.070312 C 178.984375 306.070312 184.054688 295.738281 184.054688 283 "/>
</g>
<g clip-path="url(#clip2)" clip-rule="nonzero">
<path style=" stroke:none;fill-rule:nonzero;fill:rgb(49.409485%,26.669312%,12.939453%);fill-opacity:1;" d="M 144.101562 328.171875 C 147.371094 316.636719 153.738281 301.199219 165.320312 280.019531 C 190.996094 240.605469 177.066406 219.996094 150.355469 251.855469 C 133.316406 272.09375 122.585938 303.191406 122.597656 328.171875 L 144.101562 328.171875 "/>
</g>
<g clip-path="url(#clip3)" clip-rule="nonzero">
<path style=" stroke:none;fill-rule:nonzero;fill:rgb(48.239136%,25.489807%,12.548828%);fill-opacity:1;" d="M 144.101562 328.171875 L 143.804688 328.171875 C 145.988281 320.121094 149.773438 310.476562 156.089844 297.675781 L 156.175781 297.730469 C 150.164062 310.191406 146.378906 320.132812 144.101562 328.171875 M 140.65625 328.171875 L 135.710938 328.171875 C 138.792969 317.390625 143.882812 306.644531 147.523438 297.882812 C 148.101562 296.5 148.714844 295.027344 149.355469 293.484375 L 152.195312 295.253906 L 152.566406 295.484375 C 148.660156 303.078125 144.050781 307.117188 142.0625 317.355469 C 141.378906 320.871094 140.902344 324.507812 140.65625 328.171875 "/>
</g>
<g clip-path="url(#clip4)" clip-rule="nonzero">
<path style=" stroke:none;fill-rule:nonzero;fill:rgb(47.059631%,24.308777%,12.159729%);fill-opacity:1;" d="M 143.804688 328.171875 L 140.65625 328.171875 C 140.902344 324.507812 141.378906 320.871094 142.0625 317.355469 C 144.050781 307.117188 148.660156 303.078125 152.566406 295.484375 L 156.089844 297.675781 C 149.773438 310.476562 145.988281 320.121094 143.804688 328.171875 "/>
</g>
<g clip-path="url(#clip5)" clip-rule="nonzero">
<path style=" stroke:none;fill-rule:nonzero;fill:rgb(49.409485%,26.669312%,12.939453%);fill-opacity:1;" d="M 239.550781 282.082031 C 239.550781 269.339844 245.898438 252.386719 252.15625 252.386719 C 258.40625 252.386719 266.054688 282.085938 264.894531 296.460938 C 263.867188 309.160156 257.132812 305.148438 250.875 305.148438 C 244.621094 305.148438 239.550781 294.820312 239.550781 282.082031 "/>
</g>
<g clip-path="url(#clip6)" clip-rule="nonzero">
<path style=" stroke:none;fill-rule:nonzero;fill:rgb(49.409485%,26.669312%,12.939453%);fill-opacity:1;" d="M 281.125 328.171875 L 302.296875 328.171875 C 302.382812 302.941406 291.097656 271.160156 273.417969 250.773438 C 246.242188 219.300781 232.617188 240.105469 258.867188 279.144531 C 271.167969 300.894531 277.792969 316.558594 281.125 328.171875 "/>
</g>
<g clip-path="url(#clip7)" clip-rule="nonzero">
<path style=" stroke:none;fill-rule:nonzero;fill:rgb(48.239136%,25.489807%,12.548828%);fill-opacity:1;" d="M 289.550781 328.171875 L 284.3125 328.171875 C 284.035156 324.089844 283.480469 320.039062 282.664062 316.144531 C 280.546875 306.003906 275.925781 302.015625 271.929688 294.589844 L 275.117188 292.605469 C 275.75 294.054688 276.351562 295.441406 276.921875 296.75 C 280.839844 305.808594 286.363281 317 289.550781 328.171875 M 281.410156 328.171875 L 281.125 328.171875 C 278.773438 319.984375 274.785156 309.773438 268.320312 296.835938 L 268.40625 296.78125 C 275.195312 310.066406 279.164062 319.933594 281.410156 328.171875 "/>
</g>
<g clip-path="url(#clip8)" clip-rule="nonzero">
<path style=" stroke:none;fill-rule:nonzero;fill:rgb(47.059631%,24.308777%,12.159729%);fill-opacity:1;" d="M 284.3125 328.171875 L 281.410156 328.171875 C 279.164062 319.933594 275.195312 310.066406 268.40625 296.78125 L 271.929688 294.589844 C 275.925781 302.015625 280.546875 306.003906 282.664062 316.144531 C 283.480469 320.039062 284.035156 324.089844 284.3125 328.171875 "/>
</g>
<g clip-path="url(#clip9)" clip-rule="nonzero">
<path style=" stroke:none;fill-rule:nonzero;fill:rgb(90.589905%,89.408875%,72.549438%);fill-opacity:1;" d="M 158.777344 328.171875 L 265.945312 328.171875 C 267.574219 320.15625 265.375 307.160156 266.070312 298.242188 C 241.414062 279.84375 260.386719 239.949219 254.007812 232.921875 C 242.738281 220.5 215.898438 222.175781 215.898438 222.175781 L 207.441406 222.175781 C 207.441406 222.175781 180.597656 220.5 169.332031 232.921875 C 163.484375 239.367188 171.277344 256.289062 163.246094 284.664062 C 159.113281 299.28125 157.550781 293.636719 157.910156 296.328125 C 159.191406 305.894531 157.292969 320.089844 158.777344 328.171875 "/>
</g>
<g clip-path="url(#clip10)" clip-rule="nonzero">
<path style=" stroke:none;fill-rule:nonzero;fill:rgb(82.749939%,81.568909%,66.268921%);fill-opacity:1;" d="M 199.96875 328.171875 L 158.777344 328.171875 C 158.304688 325.617188 158.175781 322.445312 158.175781 319.007812 C 158.175781 314.667969 158.382812 309.910156 158.382812 305.394531 C 158.382812 302.75 158.3125 300.191406 158.085938 297.859375 C 160.417969 296.890625 165.976562 293.746094 169.75 284.753906 C 171.957031 279.503906 172.78125 271.839844 172.785156 264.0625 C 172.785156 261.710938 172.707031 259.347656 172.570312 257.039062 C 174.707031 262.269531 176.109375 267.527344 176.257812 274.050781 C 176.582031 288.125 166.289062 300.292969 168.15625 314.488281 C 169.097656 321.585938 176.625 323.878906 182.613281 324.96875 C 188.394531 326.03125 194.175781 327.140625 199.96875 328.171875 "/>
</g>
<g clip-path="url(#clip11)" clip-rule="nonzero">
<path style=" stroke:none;fill-rule:nonzero;fill:rgb(82.749939%,81.568909%,66.268921%);fill-opacity:1;" d="M 265.945312 328.171875 L 250.128906 328.171875 C 256.871094 323.425781 259.652344 313.632812 260.542969 305.925781 C 261.019531 301.78125 258.914062 297.683594 257.066406 294.175781 C 252.324219 285.144531 247.179688 278.957031 249.074219 267.84375 C 249.332031 266.34375 249.742188 264.894531 250.28125 263.492188 C 250.277344 263.679688 250.277344 263.871094 250.277344 264.0625 C 250.28125 271.839844 251.105469 279.503906 253.308594 284.753906 C 258.191406 296.394531 266.070312 298.242188 266.070312 298.242188 C 265.96875 299.519531 265.929688 300.882812 265.929688 302.304688 C 265.929688 307.984375 266.558594 314.570312 266.558594 320.371094 C 266.558594 323.234375 266.40625 325.902344 265.945312 328.171875 "/>
</g>
<g clip-path="url(#clip12)" clip-rule="nonzero">
<path style=" stroke:none;fill-rule:nonzero;fill:rgb(25.878906%,74.508667%,57.249451%);fill-opacity:1;" d="M 255.355469 234.277344 C 276.679688 235.785156 295.382812 279.984375 295.382812 279.984375 L 266.070312 298.242188 C 266.070312 298.242188 258.191406 296.394531 253.308594 284.753906 C 246.941406 269.585938 252.082031 234.277344 255.355469 234.277344 "/>
</g>
<path style=" stroke:none;fill-rule:nonzero;fill:rgb(11.369324%,5.879211%,4.708862%);fill-opacity:1;" d="M 256.628906 234.417969 C 256.207031 234.355469 255.78125 234.308594 255.355469 234.277344 C 255.78125 234.308594 256.207031 234.355469 256.628906 234.417969 "/>
<g clip-path="url(#clip13)" clip-rule="nonzero">
<path style=" stroke:none;fill-rule:nonzero;fill:rgb(23.919678%,67.83905%,52.159119%);fill-opacity:1;" d="M 266.070312 298.242188 C 266.070312 298.242188 258.191406 296.394531 253.308594 284.753906 C 251.105469 279.503906 250.28125 271.839844 250.277344 264.0625 C 250.277344 249.371094 253.214844 234.277344 255.355469 234.277344 C 255.78125 234.308594 256.207031 234.355469 256.628906 234.417969 C 259.078125 234.785156 261.492188 235.714844 263.839844 237.042969 C 249.941406 250.8125 256.546875 280.417969 274.042969 293.273438 L 266.070312 298.242188 "/>
</g>
<g clip-path="url(#clip14)" clip-rule="nonzero">
<path style=" stroke:none;fill-rule:nonzero;fill:rgb(25.878906%,74.508667%,57.249451%);fill-opacity:1;" d="M 167.703125 234.277344 C 146.382812 235.785156 127.683594 279.984375 127.683594 279.984375 L 156.992188 298.242188 C 156.992188 298.242188 164.867188 296.394531 169.75 284.753906 C 176.121094 269.585938 170.980469 234.277344 167.703125 234.277344 "/>
</g>
<g clip-path="url(#clip15)" clip-rule="nonzero">
<path style=" stroke:none;fill-rule:nonzero;fill:rgb(91.369629%,91.369629%,91.369629%);fill-opacity:1;" d="M 156.992188 298.242188 L 156.175781 297.730469 L 156.992188 298.242188 C 156.992188 298.242188 157.402344 298.144531 158.085938 297.859375 C 157.402344 298.144531 156.992188 298.242188 156.992188 298.242188 "/>
</g>
<g clip-path="url(#clip16)" clip-rule="nonzero">
<path style=" stroke:none;fill-rule:nonzero;fill:rgb(43.919373%,23.139954%,11.369324%);fill-opacity:1;" d="M 156.175781 297.730469 L 156.089844 297.675781 L 156.175781 297.730469 M 152.566406 295.484375 L 152.195312 295.253906 L 152.566406 295.484375 "/>
<path style=" stroke:none;fill-rule:nonzero;fill:rgb(42.749023%,21.958923%,10.978699%);fill-opacity:1;" d="M 156.089844 297.675781 L 152.566406 295.484375 L 156.089844 297.675781 "/>
</g>
<g clip-path="url(#clip17)" clip-rule="nonzero">
<path style=" stroke:none;fill-rule:nonzero;fill:rgb(23.919678%,67.83905%,52.159119%);fill-opacity:1;" d="M 156.992188 298.242188 L 156.175781 297.730469 L 156.089844 297.675781 L 152.566406 295.484375 L 152.195312 295.253906 C 163.011719 284.0625 166.082031 266.710938 159.660156 252.1875 C 158.167969 248.8125 155.96875 244.84375 153.261719 241.351562 C 157.789062 237.382812 162.667969 234.632812 167.703125 234.277344 C 169.847656 234.277344 172.785156 249.371094 172.785156 264.0625 C 172.78125 271.839844 171.957031 279.503906 169.75 284.753906 C 165.976562 293.746094 160.417969 296.890625 158.085938 297.859375 C 157.402344 298.144531 156.992188 298.242188 156.992188 298.242188 "/>
</g>
<path style=" stroke:none;fill-rule:nonzero;fill:rgb(49.409485%,26.669312%,12.939453%);fill-opacity:1;" d="M 245.199219 178.125 C 258.105469 162.328125 169.460938 161.375 179.132812 178.125 C 188.800781 194.867188 186.886719 213.050781 179.132812 223.304688 C 173.78125 230.378906 193.25 260.355469 212.167969 260.359375 C 234.097656 260.363281 248.03125 228.730469 245.199219 223.304688 C 239.433594 212.242188 232.300781 193.917969 245.199219 178.125 "/>
<path style=" stroke:none;fill-rule:nonzero;fill:rgb(85.488892%,78.039551%,59.999084%);fill-opacity:1;" d="M 243.851562 232.703125 C 244.035156 232.207031 244.207031 231.722656 244.363281 231.246094 C 244.402344 231.199219 244.4375 231.152344 244.476562 231.105469 C 244.285156 231.628906 244.074219 232.160156 243.851562 232.703125 "/>
<path style=" stroke:none;fill-rule:nonzero;fill:rgb(46.669006%,24.308777%,12.159729%);fill-opacity:1;" d="M 212.734375 258.957031 C 212.734375 258.957031 212.730469 258.957031 212.726562 258.957031 C 198.5625 258.953125 184.09375 242.148438 179.957031 230.734375 C 185.789062 236.140625 192.328125 241.074219 198 245.414062 C 203.453125 249.585938 208.789062 251.710938 214.074219 251.710938 C 219.445312 251.710938 224.757812 249.523438 230.085938 245.070312 C 234.410156 241.464844 240.089844 236.679688 244.363281 231.246094 C 244.207031 231.722656 244.035156 232.207031 243.851562 232.703125 C 239.234375 243.828125 227.902344 258.957031 212.734375 258.957031 "/>
<path style=" stroke:none;fill-rule:nonzero;fill:rgb(12.159729%,6.269836%,5.099487%);fill-opacity:1;" d="M 187.140625 192.128906 C 187.140625 214.792969 199.941406 222.601562 173.484375 222.601562 C 147.019531 222.601562 89.023438 201.851562 86.414062 157.421875 C 85.078125 134.796875 112.765625 151.089844 139.230469 151.089844 C 165.691406 151.089844 187.140625 169.464844 187.140625 192.128906 "/>
<path style=" stroke:none;fill-rule:nonzero;fill:rgb(12.159729%,6.269836%,5.099487%);fill-opacity:1;" d="M 235.871094 192.128906 C 235.871094 214.792969 217.699219 222.601562 243.910156 222.601562 C 270.125 222.601562 333.070312 201.851562 335.660156 157.421875 C 336.980469 134.796875 309.546875 151.089844 283.332031 151.089844 C 257.121094 151.089844 235.871094 169.464844 235.871094 192.128906 "/>
<path style=" stroke:none;fill-rule:nonzero;fill:rgb(49.409485%,26.669312%,12.939453%);fill-opacity:1;" d="M 325.019531 147.496094 C 325.019531 87.1875 274.578125 38.296875 212.359375 38.296875 C 150.140625 38.296875 99.699219 87.1875 99.699219 147.496094 C 99.699219 196.875 133.527344 220.960938 179.9375 228.074219 C 184.820312 233.855469 197.472656 237.980469 212.359375 237.980469 C 227.246094 237.980469 239.894531 233.855469 244.78125 228.074219 C 291.191406 220.964844 325.019531 196.878906 325.019531 147.496094 "/>
<path style=" stroke:none;fill-rule:nonzero;fill:rgb(44.309998%,24.308777%,12.548828%);fill-opacity:1;" d="M 311.472656 154.042969 C 311.359375 154.042969 311.242188 154.03125 311.121094 154.003906 C 311.226562 154.015625 311.332031 154.019531 311.4375 154.019531 C 311.570312 154.019531 311.703125 154.011719 311.84375 154 C 311.722656 154.03125 311.601562 154.042969 311.472656 154.042969 M 117.226562 153.9375 C 117.445312 153.203125 117.613281 152.453125 117.730469 151.695312 C 119.40625 150.148438 120.746094 148.148438 121.011719 146.136719 C 121.75 140.601562 122.75 124.546875 125.964844 115.867188 C 128.105469 110.109375 130.457031 105.378906 132.847656 101.515625 C 135.082031 97.902344 137.34375 95.050781 139.480469 92.828125 C 141.589844 94.449219 144.261719 95.414062 147.164062 95.414062 C 150.242188 95.414062 153.019531 94.289062 155.1875 92.496094 C 155.164062 92.742188 155.113281 92.976562 155.113281 93.226562 C 155.113281 98.664062 159.652344 103.074219 165.265625 103.074219 C 168.472656 103.074219 171.300781 101.609375 173.160156 99.355469 C 175.417969 101.640625 178.582031 103.074219 182.105469 103.074219 C 185.285156 103.074219 188.160156 101.890625 190.351562 99.972656 C 190.804688 100.035156 191.265625 100.097656 191.726562 100.160156 C 193.234375 103.757812 196.84375 106.300781 201.097656 106.300781 C 204.59375 106.300781 207.671875 104.589844 209.496094 101.984375 C 211.71875 105.269531 215.53125 107.449219 219.875 107.449219 C 223.910156 107.449219 227.460938 105.566406 229.722656 102.683594 C 230.140625 102.679688 230.546875 102.679688 230.964844 102.675781 C 232.738281 105.527344 235.953125 107.449219 239.644531 107.449219 C 243.746094 107.449219 247.285156 105.085938 248.886719 101.6875 C 248.996094 101.671875 249.105469 101.664062 249.214844 101.652344 C 251.460938 103.863281 254.574219 105.257812 258.03125 105.257812 C 263.203125 105.257812 267.585938 102.179688 269.449219 97.824219 C 269.558594 97.652344 269.667969 97.476562 269.769531 97.296875 C 271.367188 100.699219 274.902344 103.074219 279.011719 103.074219 C 282.765625 103.074219 286.039062 101.101562 287.796875 98.171875 C 294.359375 103.730469 300.683594 111.6875 303.457031 115.867188 C 308.308594 123.191406 309.121094 134.75 309.121094 142.71875 C 309.121094 146.734375 308.914062 149.835938 308.914062 151.019531 C 308.914062 151.15625 308.917969 151.265625 308.925781 151.347656 C 308.957031 151.789062 309.03125 152.160156 309.144531 152.480469 C 306.820312 149.460938 304.1875 141.824219 302.28125 127.308594 C 300.710938 115.347656 284.875 106.410156 277.039062 106.410156 C 276.234375 106.410156 275.515625 106.503906 274.90625 106.699219 C 271.015625 107.929688 271.597656 111.238281 264.144531 111.75 C 263.890625 111.769531 263.617188 111.777344 263.335938 111.777344 C 261.585938 111.777344 259.34375 111.46875 257.070312 111.167969 C 254.796875 110.859375 252.484375 110.550781 250.601562 110.550781 C 250.480469 110.550781 250.359375 110.550781 250.242188 110.554688 C 247.078125 110.625 243.984375 114.277344 240.570312 114.277344 C 240.5625 114.277344 240.554688 114.277344 240.542969 114.277344 C 236.789062 114.261719 232.6875 110.542969 228.71875 110.417969 C 228.683594 110.414062 228.652344 110.414062 228.617188 110.414062 C 227.4375 110.414062 226.101562 111.066406 224.761719 111.71875 C 223.417969 112.371094 222.070312 113.019531 220.859375 113.019531 C 220.808594 113.019531 220.757812 113.019531 220.710938 113.015625 C 216.722656 112.832031 213.324219 109.71875 209.273438 109.4375 C 209.15625 109.429688 209.039062 109.425781 208.925781 109.425781 C 207.707031 109.425781 206.566406 109.855469 205.429688 110.28125 C 204.289062 110.710938 203.152344 111.136719 201.941406 111.136719 C 201.800781 111.136719 201.65625 111.128906 201.515625 111.117188 C 197.972656 110.824219 194.042969 108.179688 190.5625 107.808594 C 190.484375 107.800781 190.402344 107.796875 190.320312 107.796875 C 189.363281 107.796875 188.320312 108.367188 187.28125 108.941406 C 186.242188 109.511719 185.210938 110.082031 184.261719 110.082031 C 184.175781 110.082031 184.089844 110.082031 184.003906 110.070312 C 180.246094 109.617188 177.015625 106.179688 173.457031 105.644531 C 173.058594 105.582031 172.691406 105.558594 172.347656 105.558594 C 170.601562 105.558594 169.503906 106.253906 168.386719 106.957031 C 167.273438 107.65625 166.132812 108.355469 164.296875 108.355469 C 162.257812 108.355469 159.359375 107.488281 154.679688 104.800781 C 151.050781 102.710938 149.484375 101.085938 147.082031 101.085938 C 145.667969 101.085938 143.964844 101.648438 141.378906 103.011719 C 134.40625 106.699219 131.851562 118.261719 126.589844 140.195312 C 124.617188 148.417969 120.328125 152.464844 117.226562 153.9375 "/>
<path style=" stroke:none;fill-rule:nonzero;fill:rgb(10.978699%,5.488586%,4.708862%);fill-opacity:1;" d="M 176.609375 227.527344 C 162.769531 225.132812 150.132812 221.167969 139.273438 215.40625 C 139.273438 215.40625 139.277344 215.410156 139.28125 215.410156 C 150.140625 221.167969 162.777344 225.132812 176.609375 227.527344 "/>
<path style=" stroke:none;fill-rule:nonzero;fill:rgb(79.998779%,77.648926%,61.178589%);fill-opacity:1;" d="M 178.308594 227.8125 C 177.742188 227.722656 177.175781 227.625 176.609375 227.527344 C 177.175781 227.625 177.742188 227.722656 178.308594 227.8125 "/>
<path style=" stroke:none;fill-rule:nonzero;fill:rgb(44.309998%,24.308777%,12.548828%);fill-opacity:1;" d="M 212.359375 237.980469 C 197.472656 237.980469 184.820312 233.855469 179.9375 228.074219 C 179.394531 227.988281 178.851562 227.90625 178.308594 227.8125 C 178.851562 227.90625 179.394531 227.988281 179.9375 228.074219 C 184.820312 233.855469 197.472656 237.980469 212.359375 237.980469 C 227.246094 237.980469 239.894531 233.855469 244.78125 228.074219 C 239.894531 233.855469 227.246094 237.980469 212.359375 237.980469 "/>
<path style=" stroke:none;fill-rule:nonzero;fill:rgb(10.978699%,5.488586%,4.708862%);fill-opacity:1;" d="M 139.28125 215.410156 C 139.277344 215.410156 139.273438 215.40625 139.273438 215.40625 C 130.378906 210.6875 122.679688 204.761719 116.496094 197.503906 C 122.679688 204.761719 130.382812 210.6875 139.28125 215.410156 M 116.488281 197.492188 C 116.480469 197.484375 116.472656 197.472656 116.46875 197.46875 C 116.476562 197.476562 116.480469 197.484375 116.488281 197.492188 "/>
<path style=" stroke:none;fill-rule:nonzero;fill:rgb(44.309998%,24.308777%,12.548828%);fill-opacity:1;" d="M 212.359375 237.980469 C 197.472656 237.980469 184.820312 233.855469 179.9375 228.074219 C 179.394531 227.988281 178.851562 227.90625 178.308594 227.8125 C 177.742188 227.722656 177.175781 227.625 176.609375 227.527344 C 162.777344 225.132812 150.140625 221.167969 139.28125 215.410156 C 130.382812 210.6875 122.679688 204.761719 116.496094 197.503906 C 116.492188 197.5 116.492188 197.496094 116.488281 197.492188 C 116.480469 197.484375 116.476562 197.476562 116.46875 197.46875 C 109.957031 189.816406 105.136719 180.691406 102.371094 169.933594 C 102.253906 169.464844 102.191406 169.117188 102.183594 168.875 C 102.371094 168.796875 102.558594 168.722656 102.742188 168.644531 C 104.871094 170.363281 112.570312 182.984375 117.933594 187.753906 C 147.769531 214.3125 177.15625 224.605469 208.695312 227.027344 C 210.964844 227.203125 213.164062 227.285156 215.308594 227.285156 C 245.621094 227.285156 264.644531 210.679688 293.933594 198.28125 C 302.746094 194.554688 310.542969 189.164062 317.691406 182.835938 C 305.332031 208.898438 278.351562 222.929688 244.78125 228.074219 C 239.894531 233.855469 227.246094 237.980469 212.359375 237.980469 "/>
<path style=" stroke:none;fill-rule:nonzero;fill:rgb(49.409485%,26.669312%,12.939453%);fill-opacity:1;" d="M 347.050781 134.214844 C 352.484375 143.183594 338.195312 175.800781 323.082031 169.476562 C 311.53125 164.640625 317.390625 167.71875 315.570312 157.394531 C 313.929688 148.09375 307.085938 136.167969 317.800781 129.691406 C 328.519531 123.21875 341.609375 125.242188 347.050781 134.214844 "/>
<path style=" stroke:none;fill-rule:nonzero;fill:rgb(44.309998%,24.308777%,12.548828%);fill-opacity:1;" d="M 325.011719 157.421875 C 320.230469 154.015625 325.269531 138.773438 330.109375 134.84375 C 332.132812 133.203125 334.214844 132.417969 336.070312 132.417969 C 338.648438 132.417969 340.777344 133.9375 341.636719 136.75 C 343.117188 141.589844 338.421875 148.621094 335.953125 152.917969 C 335.089844 152.691406 334.179688 152.554688 333.238281 152.554688 C 330.464844 152.554688 327.46875 153.757812 325.011719 157.421875 "/>
<path style=" stroke:none;fill-rule:nonzero;fill:rgb(33.329773%,17.248535%,8.628845%);fill-opacity:1;" d="M 323.652344 162.550781 C 320.347656 154.210938 323.871094 131.863281 332.992188 130.566406 C 343.484375 129.066406 344.765625 141.820312 344.765625 141.820312 C 344.765625 141.820312 343.847656 130.441406 332.625 135.265625 C 327.5 137.464844 324.09375 153.417969 324.652344 155.800781 C 329.894531 146.945312 335.953125 152.917969 335.953125 152.917969 C 335.953125 152.917969 326.71875 153.0625 323.652344 162.550781 "/>
<path style=" stroke:none;fill-rule:nonzero;fill:rgb(49.409485%,26.669312%,12.939453%);fill-opacity:1;" d="M 76.773438 134.214844 C 71.339844 143.183594 85.621094 175.800781 100.730469 169.476562 C 112.285156 164.640625 110.136719 166.625 115.574219 157.65625 C 121.011719 148.683594 116.730469 136.167969 106.015625 129.691406 C 95.300781 123.21875 82.207031 125.242188 76.773438 134.214844 "/>
<path style=" stroke:none;fill-rule:nonzero;fill:rgb(44.309998%,24.308777%,12.548828%);fill-opacity:1;" d="M 98.804688 157.421875 C 96.351562 153.757812 93.355469 152.554688 90.578125 152.554688 C 89.640625 152.554688 88.726562 152.691406 87.867188 152.917969 C 85.398438 148.621094 80.703125 141.589844 82.1875 136.75 C 83.046875 133.9375 85.171875 132.417969 87.753906 132.417969 C 89.601562 132.417969 91.6875 133.203125 93.707031 134.84375 C 98.550781 138.773438 103.59375 154.015625 98.804688 157.421875 "/>
<path style=" stroke:none;fill-rule:nonzero;fill:rgb(33.329773%,17.248535%,8.628845%);fill-opacity:1;" d="M 100.171875 162.550781 C 103.476562 154.210938 99.949219 131.863281 90.828125 130.566406 C 80.332031 129.066406 79.058594 141.820312 79.058594 141.820312 C 79.058594 141.820312 79.96875 130.441406 91.191406 135.265625 C 96.320312 137.464844 99.726562 153.417969 99.167969 155.800781 C 93.925781 146.945312 87.867188 152.917969 87.867188 152.917969 C 87.867188 152.917969 97.097656 153.0625 100.171875 162.550781 "/>
<path style=" stroke:none;fill-rule:nonzero;fill:rgb(32.939148%,16.859436%,9.01947%);fill-opacity:1;" d="M 213.542969 181.378906 C 209.667969 181.378906 206.207031 179.605469 203.929688 176.824219 C 205.605469 177.664062 207.492188 178.152344 209.492188 178.152344 C 216.328125 178.152344 221.867188 172.621094 221.867188 165.789062 C 221.867188 162.757812 220.773438 159.988281 218.960938 157.835938 C 223.097656 159.84375 225.964844 164.074219 225.964844 168.976562 C 225.964844 175.828125 220.398438 181.378906 213.542969 181.378906 "/>
<path style=" stroke:none;fill-rule:nonzero;fill:rgb(12.159729%,6.269836%,5.099487%);fill-opacity:1;" d="M 279.011719 83.378906 C 274.847656 83.378906 271.273438 85.816406 269.710938 89.296875 C 268.023438 84.589844 263.460938 81.191406 258.03125 81.191406 C 252.316406 81.191406 247.546875 84.960938 246.113281 90.058594 C 244.347656 88.644531 242.117188 87.753906 239.644531 87.753906 C 236.351562 87.753906 233.464844 89.292969 231.605469 91.640625 C 229.964844 86.855469 225.367188 83.378906 219.875 83.378906 C 215.003906 83.378906 210.824219 86.136719 208.792969 90.101562 C 206.933594 87.984375 204.191406 86.609375 201.097656 86.609375 C 198.476562 86.609375 196.121094 87.59375 194.320312 89.164062 C 193.382812 83.417969 188.292969 79.007812 182.105469 79.007812 C 177.402344 79.007812 173.359375 81.574219 171.253906 85.304688 C 169.570312 84.109375 167.511719 83.378906 165.265625 83.378906 C 163.070312 83.378906 161.050781 84.070312 159.386719 85.21875 C 159.484375 84.617188 159.582031 84.011719 159.582031 83.378906 C 159.582031 76.734375 154.023438 71.347656 147.164062 71.347656 C 140.308594 71.347656 134.757812 76.734375 134.757812 83.378906 C 134.757812 90.023438 140.308594 95.414062 147.164062 95.414062 C 150.242188 95.414062 153.019531 94.289062 155.1875 92.496094 C 155.164062 92.742188 155.113281 92.976562 155.113281 93.226562 C 155.113281 98.664062 159.652344 103.074219 165.265625 103.074219 C 168.472656 103.074219 171.300781 101.609375 173.160156 99.355469 C 175.417969 101.640625 178.582031 103.074219 182.105469 103.074219 C 185.785156 103.074219 189.054688 101.488281 191.328125 99.019531 C 192.496094 103.207031 196.410156 106.300781 201.097656 106.300781 C 204.59375 106.300781 207.671875 104.589844 209.496094 101.984375 C 211.71875 105.269531 215.53125 107.449219 219.875 107.449219 C 224.355469 107.449219 228.242188 105.128906 230.425781 101.6875 C 232.03125 105.078125 235.542969 107.449219 239.644531 107.449219 C 243.851562 107.449219 247.457031 104.96875 249.003906 101.4375 C 251.261719 103.777344 254.460938 105.257812 258.03125 105.257812 C 263.460938 105.257812 268.023438 101.863281 269.710938 97.15625 C 271.273438 100.636719 274.847656 103.074219 279.011719 103.074219 C 284.621094 103.074219 289.171875 98.664062 289.171875 93.226562 C 289.171875 87.789062 284.621094 83.378906 279.011719 83.378906 "/>
<g clip-path="url(#clip18)" clip-rule="nonzero">
<path style=" stroke:none;fill-rule:nonzero;fill:rgb(12.159729%,6.269836%,5.099487%);fill-opacity:1;" d="M 330.207031 83.882812 C 332.191406 82.382812 333.492188 80.066406 333.492188 77.433594 C 333.492188 74.480469 331.863281 71.910156 329.457031 70.460938 C 330.355469 69.089844 330.890625 67.472656 330.890625 65.726562 C 330.890625 61.945312 328.433594 58.742188 324.992188 57.480469 C 325.96875 55.757812 326.570312 53.816406 326.570312 51.714844 C 326.570312 45.074219 321.015625 39.683594 314.160156 39.683594 L 314.058594 39.695312 C 314.203125 39.070312 314.292969 38.429688 314.292969 37.761719 C 314.292969 32.882812 310.210938 28.921875 305.175781 28.921875 L 304.953125 28.949219 C 304.058594 24.976562 300.421875 22 296.054688 22 C 295.664062 22 295.296875 22.070312 294.921875 22.117188 C 293.898438 16.460938 288.84375 12.15625 282.722656 12.15625 C 279.484375 12.15625 276.5625 13.386719 274.351562 15.355469 C 272.96875 11.140625 268.949219 8.066406 264.144531 8.066406 C 262.511719 8.066406 260.980469 8.445312 259.59375 9.078125 C 257.578125 5.082031 253.382812 2.308594 248.484375 2.308594 C 243.953125 2.308594 240.027344 4.691406 237.859375 8.210938 C 235.695312 4.691406 231.765625 2.308594 227.234375 2.308594 C 223.191406 2.308594 219.632812 4.214844 217.363281 7.113281 C 215.394531 2.996094 211.121094 0.121094 206.128906 0.121094 C 202.464844 0.121094 199.199219 1.691406 196.933594 4.140625 C 194.65625 1.691406 191.398438 0.121094 187.738281 0.121094 C 184.167969 0.121094 180.976562 1.601562 178.710938 3.933594 C 176.449219 1.601562 173.253906 0.121094 169.6875 0.121094 C 164.683594 0.121094 160.398438 3.011719 158.433594 7.148438 C 156.621094 5.511719 154.207031 4.496094 151.539062 4.496094 C 146.746094 4.496094 142.753906 7.71875 141.6875 12.054688 C 140.441406 11.644531 139.128906 11.371094 137.738281 11.371094 C 131.144531 11.371094 125.804688 16.371094 125.40625 22.667969 C 124.199219 22.269531 122.933594 22 121.585938 22 C 115.265625 22 110.160156 26.828125 109.859375 32.886719 C 109.632812 32.871094 109.40625 32.816406 109.171875 32.816406 C 102.316406 32.816406 96.761719 38.207031 96.761719 44.851562 C 96.761719 45.148438 96.832031 45.429688 96.855469 45.726562 C 90.878906 47.363281 86.503906 52.675781 86.503906 58.984375 C 86.503906 59.78125 86.589844 60.554688 86.71875 61.3125 C 82.839844 62.699219 80.0625 66.28125 80.0625 70.519531 C 80.0625 73.289062 81.253906 75.785156 83.152344 77.574219 C 81.914062 79.203125 81.15625 81.199219 81.15625 83.378906 C 81.15625 85.714844 82.03125 87.832031 83.433594 89.519531 C 78.488281 104.464844 76.570312 120.207031 79.964844 130.441406 C 79.964844 130.441406 91.320312 119.394531 107.292969 132.421875 C 107.667969 132.71875 108.1875 149.75 109.828125 153.410156 C 111.46875 157.070312 120.277344 151.667969 121.011719 146.136719 C 121.75 140.601562 122.75 124.546875 125.964844 115.867188 C 133.164062 96.460938 142.871094 88.742188 147.824219 86.558594 C 152.785156 98.695312 251.9375 112.597656 278.902344 92.617188 C 287.78125 95.5625 299.410156 109.757812 303.457031 115.867188 C 311.035156 127.308594 308.761719 149.089844 308.925781 151.347656 C 309.347656 157.070312 317.089844 151.808594 317.089844 151.808594 C 317.089844 151.808594 317.816406 131.644531 323.082031 127.242188 C 330.976562 124.488281 336.683594 126.65625 336.683594 126.65625 C 336.28125 115.996094 334.261719 97.984375 330.207031 83.882812 "/>
</g>
<path style=" stroke:none;fill-rule:nonzero;fill:rgb(31.369019%,15.689087%,8.239746%);fill-opacity:1;" d="M 132.847656 101.515625 C 135.082031 97.902344 137.34375 95.050781 139.480469 92.828125 C 137.34375 95.050781 135.082031 97.902344 132.847656 101.515625 "/>
<path style=" stroke:none;fill-rule:nonzero;fill:rgb(34.899902%,17.248535%,8.628845%);fill-opacity:1;" d="M 108.195312 142.980469 C 107.992188 140.628906 107.832031 138.292969 107.699219 136.414062 L 107.699219 136.417969 C 107.832031 138.292969 107.992188 140.628906 108.195312 142.980469 "/>
<path style=" stroke:none;fill-rule:nonzero;fill:rgb(9.408569%,4.309082%,3.529358%);fill-opacity:1;" d="M 139.480469 92.828125 C 139.976562 92.308594 140.46875 91.824219 140.949219 91.371094 C 140.949219 91.371094 140.953125 91.371094 140.953125 91.371094 C 140.472656 91.824219 139.980469 92.308594 139.480469 92.828125 "/>
<path style=" stroke:none;fill-rule:nonzero;fill:rgb(9.408569%,4.309082%,3.529358%);fill-opacity:1;" d="M 111.878906 154.605469 C 110.945312 154.605469 110.203125 154.246094 109.828125 153.410156 C 109.085938 151.746094 108.570312 147.335938 108.195312 142.980469 C 107.992188 140.628906 107.832031 138.292969 107.699219 136.417969 C 108.738281 138.539062 109.503906 140.871094 109.882812 143.511719 C 110.15625 145.386719 111.648438 146.234375 113.230469 146.234375 C 114.925781 146.234375 116.726562 145.253906 117.207031 143.511719 C 121.464844 128.113281 116.941406 111.035156 123.605469 96.183594 C 126.324219 90.125 130.6875 87.996094 135.558594 87.996094 C 136.277344 87.996094 137.007812 88.046875 137.742188 88.128906 C 138.59375 89.394531 139.683594 90.496094 140.949219 91.371094 C 140.46875 91.824219 139.976562 92.308594 139.480469 92.828125 C 137.34375 95.050781 135.082031 97.902344 132.847656 101.515625 C 130.457031 105.378906 128.101562 110.109375 125.964844 115.867188 C 122.75 124.546875 121.75 140.601562 121.011719 146.136719 C 120.445312 150.410156 115.058594 154.605469 111.878906 154.605469 "/>
<path style=" stroke:none;fill-rule:nonzero;fill:rgb(9.408569%,4.309082%,3.529358%);fill-opacity:1;" d="M 79.960938 130.421875 C 79.945312 130.390625 79.933594 130.355469 79.921875 130.324219 C 79.933594 130.355469 79.945312 130.390625 79.960938 130.421875 M 79.921875 130.320312 C 79.921875 130.3125 79.917969 130.300781 79.914062 130.292969 C 79.917969 130.300781 79.921875 130.3125 79.921875 130.320312 M 79.910156 130.285156 C 79.910156 130.28125 79.90625 130.273438 79.90625 130.269531 C 79.90625 130.273438 79.910156 130.28125 79.910156 130.285156 "/>
<path style=" stroke:none;fill-rule:nonzero;fill:rgb(34.899902%,17.248535%,8.628845%);fill-opacity:1;" d="M 79.964844 130.441406 C 79.964844 130.4375 79.960938 130.429688 79.960938 130.421875 C 79.960938 130.429688 79.964844 130.433594 79.964844 130.441406 C 79.964844 130.441406 84.460938 126.070312 91.769531 126.070312 C 94.742188 126.070312 98.179688 126.792969 101.972656 128.824219 C 101.996094 128.851562 102.019531 128.871094 102.046875 128.894531 C 98.214844 126.828125 94.746094 126.097656 91.75 126.097656 C 84.453125 126.097656 79.964844 130.441406 79.964844 130.441406 "/>
<path style=" stroke:none;fill-rule:nonzero;fill:rgb(9.408569%,4.309082%,3.529358%);fill-opacity:1;" d="M 79.964844 130.441406 C 79.964844 130.433594 79.960938 130.429688 79.960938 130.421875 C 79.945312 130.390625 79.933594 130.355469 79.921875 130.324219 C 79.921875 130.320312 79.921875 130.320312 79.921875 130.320312 C 79.921875 130.3125 79.917969 130.300781 79.914062 130.292969 C 79.914062 130.289062 79.910156 130.285156 79.910156 130.285156 C 79.910156 130.28125 79.90625 130.273438 79.90625 130.269531 C 79.90625 130.261719 79.902344 130.253906 79.902344 130.242188 C 78.363281 125.484375 77.996094 119.542969 78.492188 113.078125 C 86.042969 118.523438 95.386719 122.574219 101.972656 128.824219 C 98.179688 126.792969 94.742188 126.070312 91.769531 126.070312 C 84.460938 126.070312 79.964844 130.441406 79.964844 130.441406 "/>
<path style=" stroke:none;fill-rule:nonzero;fill:rgb(31.369019%,15.689087%,8.239746%);fill-opacity:1;" d="M 309.121094 142.71875 C 309.121094 134.75 308.308594 123.191406 303.457031 115.867188 C 300.683594 111.6875 294.359375 103.730469 287.796875 98.171875 C 287.800781 98.167969 287.804688 98.164062 287.804688 98.160156 C 294.367188 103.71875 300.6875 111.6875 303.457031 115.867188 C 308.308594 123.191406 309.121094 134.75 309.121094 142.71875 "/>
<path style=" stroke:none;fill-rule:nonzero;fill:rgb(34.899902%,17.248535%,8.628845%);fill-opacity:1;" d="M 314.59375 153.183594 C 315.988281 152.558594 317.089844 151.808594 317.089844 151.808594 C 317.089844 151.808594 317.238281 147.65625 317.894531 142.703125 C 317.898438 142.703125 317.898438 142.707031 317.898438 142.707031 C 317.242188 147.65625 317.089844 151.808594 317.089844 151.808594 C 317.089844 151.808594 315.988281 152.558594 314.59375 153.183594 "/>
<path style=" stroke:none;fill-rule:nonzero;fill:rgb(9.408569%,4.309082%,3.529358%);fill-opacity:1;" d="M 287.796875 98.171875 C 287.714844 98.105469 287.640625 98.035156 287.554688 97.96875 C 287.558594 97.964844 287.5625 97.960938 287.566406 97.957031 C 287.648438 98.023438 287.726562 98.09375 287.804688 98.160156 C 287.804688 98.164062 287.800781 98.167969 287.796875 98.171875 "/>
<path style=" stroke:none;fill-rule:nonzero;fill:rgb(9.408569%,4.309082%,3.529358%);fill-opacity:1;" d="M 311.4375 154.019531 C 310.128906 154.019531 309.074219 153.363281 308.925781 151.347656 C 308.917969 151.265625 308.914062 151.15625 308.914062 151.019531 C 308.914062 149.835938 309.121094 146.734375 309.121094 142.71875 C 309.121094 134.75 308.308594 123.191406 303.457031 115.867188 C 300.6875 111.6875 294.367188 103.71875 287.804688 98.160156 C 287.726562 98.09375 287.648438 98.023438 287.566406 97.957031 C 287.992188 97.492188 288.375 96.992188 288.707031 96.457031 C 306.253906 99.578125 313.253906 121.902344 317.046875 140.984375 C 317.195312 141.71875 317.5 142.28125 317.894531 142.703125 C 317.238281 147.65625 317.089844 151.808594 317.089844 151.808594 C 317.089844 151.808594 315.988281 152.558594 314.59375 153.183594 C 313.59375 153.632812 312.441406 154.019531 311.4375 154.019531 "/>
<path style=" stroke:none;fill-rule:nonzero;fill:rgb(31.369019%,15.689087%,8.239746%);fill-opacity:1;" d="M 269.449219 97.824219 C 269.515625 97.664062 269.582031 97.5 269.644531 97.339844 C 269.683594 97.324219 269.726562 97.308594 269.769531 97.292969 C 269.769531 97.292969 269.769531 97.296875 269.769531 97.296875 C 269.667969 97.476562 269.558594 97.652344 269.449219 97.824219 "/>
<path style=" stroke:none;fill-rule:nonzero;fill:rgb(9.408569%,4.309082%,3.529358%);fill-opacity:1;" d="M 240.617188 105.621094 C 237.761719 105.621094 235.191406 104.476562 233.355469 102.636719 C 238.664062 102.527344 243.835938 102.226562 248.722656 101.703125 C 246.871094 104.082031 243.929688 105.621094 240.617188 105.621094 M 220.855469 105.621094 C 217.457031 105.621094 214.390625 104.296875 212.152344 102.15625 C 217.65625 102.496094 223.199219 102.6875 228.636719 102.6875 C 228.734375 102.6875 228.835938 102.6875 228.933594 102.6875 C 226.769531 104.511719 223.949219 105.621094 220.855469 105.621094 M 202.066406 104.480469 C 198.703125 104.480469 195.742188 102.886719 193.902344 100.441406 C 198.769531 101.050781 203.792969 101.558594 208.882812 101.933594 C 207.082031 103.515625 204.6875 104.480469 202.066406 104.480469 M 259.003906 103.4375 C 256.398438 103.4375 253.996094 102.644531 252.007812 101.316406 C 258.597656 100.453125 264.597656 99.152344 269.644531 97.339844 C 269.582031 97.5 269.515625 97.664062 269.449219 97.824219 C 267.257812 101.191406 263.417969 103.4375 259.003906 103.4375 M 279.984375 101.253906 C 276.371094 101.253906 273.207031 99.417969 271.410156 96.667969 C 274.113281 95.578125 276.503906 94.332031 278.515625 92.898438 C 278.976562 92.964844 279.445312 93 279.925781 93 C 281.625 93.707031 283.40625 94.78125 285.203125 96.097656 C 285.191406 96.097656 285.1875 96.097656 285.175781 96.097656 C 285.96875 96.679688 286.765625 97.304688 287.554688 97.96875 C 285.695312 99.984375 282.992188 101.253906 279.984375 101.253906 M 183.074219 101.253906 C 179.554688 101.253906 176.394531 99.8125 174.132812 97.53125 C 172.265625 99.78125 169.445312 101.253906 166.238281 101.253906 C 160.875 101.253906 156.484375 97.222656 156.109375 92.117188 C 163.609375 95.089844 175.441406 97.835938 188.972656 99.78125 C 187.222656 100.714844 185.21875 101.253906 183.074219 101.253906 M 269.769531 97.296875 C 269.769531 97.296875 269.769531 97.292969 269.769531 97.292969 L 269.773438 97.292969 C 269.769531 97.292969 269.769531 97.292969 269.769531 97.296875 M 148.140625 93.589844 C 145.460938 93.589844 142.984375 92.769531 140.953125 91.371094 C 141.738281 90.632812 142.5 89.984375 143.234375 89.414062 C 143.230469 89.414062 143.230469 89.414062 143.230469 89.410156 C 144.992188 88.03125 146.5625 87.113281 147.824219 86.558594 C 148.511719 88.238281 151.007812 89.953125 154.871094 91.609375 C 152.9375 92.851562 150.636719 93.589844 148.140625 93.589844 "/>
<path style=" stroke:none;fill-rule:nonzero;fill:rgb(9.408569%,4.309082%,3.529358%);fill-opacity:1;" d="M 228.636719 102.6875 C 223.199219 102.6875 217.65625 102.496094 212.152344 102.15625 C 211.523438 101.554688 210.957031 100.882812 210.472656 100.160156 C 210.019531 100.8125 209.484375 101.40625 208.882812 101.933594 C 203.792969 101.558594 198.769531 101.050781 193.902344 100.441406 C 193.183594 99.476562 192.632812 98.382812 192.304688 97.199219 C 191.351562 98.230469 190.226562 99.105469 188.972656 99.78125 C 175.441406 97.835938 163.609375 95.089844 156.109375 92.117188 C 156.089844 91.882812 156.082031 91.644531 156.082031 91.40625 C 156.082031 91.152344 156.136719 90.917969 156.15625 90.671875 C 155.746094 91.011719 155.320312 91.320312 154.871094 91.609375 C 151.007812 89.953125 148.511719 88.238281 147.824219 86.558594 C 146.5625 87.113281 144.992188 88.03125 143.230469 89.410156 C 141.390625 88.796875 139.542969 88.339844 137.742188 88.128906 C 136.46875 86.242188 135.726562 83.988281 135.726562 81.558594 C 135.726562 80.097656 136.035156 78.722656 136.519531 77.429688 C 138.269531 82.039062 142.785156 85.339844 148.140625 85.339844 C 151.210938 85.339844 153.988281 84.21875 156.15625 82.421875 C 156.136719 82.671875 156.082031 82.902344 156.082031 83.152344 C 156.082031 88.589844 160.628906 93 166.238281 93 C 169.445312 93 172.265625 91.53125 174.132812 89.28125 C 176.394531 91.566406 179.554688 93 183.074219 93 C 186.757812 93 190.027344 91.417969 192.304688 88.945312 C 193.46875 93.132812 197.375 96.230469 202.066406 96.230469 C 205.5625 96.230469 208.644531 94.519531 210.472656 91.910156 C 212.6875 95.195312 216.5 97.371094 220.855469 97.371094 C 225.328125 97.371094 229.214844 95.054688 231.398438 91.613281 C 233.003906 95.003906 236.515625 97.371094 240.617188 97.371094 C 244.820312 97.371094 248.425781 94.894531 249.972656 91.363281 C 252.238281 93.703125 255.429688 95.1875 259.003906 95.1875 C 264.351562 95.1875 268.847656 91.882812 270.59375 87.28125 L 270.683594 87.472656 L 270.785156 87.28125 C 272.203125 90.234375 275.074219 92.410156 278.515625 92.898438 C 276.503906 94.332031 274.113281 95.578125 271.410156 96.667969 C 271.132812 96.242188 270.890625 95.800781 270.683594 95.339844 C 270.4375 96.019531 270.132812 96.671875 269.773438 97.292969 L 269.769531 97.292969 C 269.726562 97.308594 269.683594 97.324219 269.644531 97.339844 C 264.597656 99.152344 258.597656 100.453125 252.007812 101.316406 C 251.269531 100.816406 250.585938 100.246094 249.972656 99.609375 C 249.644531 100.359375 249.222656 101.0625 248.722656 101.703125 C 243.835938 102.226562 238.664062 102.527344 233.355469 102.636719 C 232.550781 101.832031 231.886719 100.894531 231.398438 99.863281 C 230.726562 100.921875 229.894531 101.875 228.933594 102.6875 C 228.835938 102.6875 228.734375 102.6875 228.636719 102.6875 M 288.707031 96.457031 C 287.582031 96.253906 286.417969 96.132812 285.203125 96.097656 C 283.40625 94.78125 281.625 93.707031 279.925781 93 C 279.945312 93 279.964844 93 279.984375 93 C 284.074219 93 287.566406 90.648438 289.179688 87.28125 C 289.78125 88.539062 290.140625 89.925781 290.140625 91.40625 C 290.140625 93.253906 289.617188 94.976562 288.707031 96.457031 "/>
<path style=" stroke:none;fill-rule:nonzero;fill:rgb(7.449341%,2.749634%,2.349854%);fill-opacity:1;" d="M 140.953125 91.371094 C 140.953125 91.371094 140.949219 91.371094 140.949219 91.371094 C 141.738281 90.628906 142.496094 89.984375 143.230469 89.410156 C 143.230469 89.414062 143.230469 89.414062 143.234375 89.414062 C 142.5 89.984375 141.738281 90.632812 140.953125 91.371094 "/>
<path style=" stroke:none;fill-rule:nonzero;fill:rgb(7.449341%,2.749634%,2.349854%);fill-opacity:1;" d="M 140.949219 91.371094 C 139.683594 90.496094 138.59375 89.394531 137.742188 88.128906 C 139.542969 88.339844 141.390625 88.796875 143.230469 89.410156 C 142.496094 89.984375 141.738281 90.628906 140.949219 91.371094 "/>
<path style=" stroke:none;fill-rule:nonzero;fill:rgb(7.449341%,2.749634%,2.349854%);fill-opacity:1;" d="M 287.554688 97.96875 C 286.765625 97.304688 285.96875 96.679688 285.175781 96.097656 C 285.1875 96.097656 285.191406 96.097656 285.203125 96.097656 C 285.988281 96.675781 286.777344 97.300781 287.566406 97.957031 C 287.5625 97.960938 287.558594 97.964844 287.554688 97.96875 "/>
<path style=" stroke:none;fill-rule:nonzero;fill:rgb(7.449341%,2.749634%,2.349854%);fill-opacity:1;" d="M 287.566406 97.957031 C 286.777344 97.300781 285.988281 96.675781 285.203125 96.097656 C 286.417969 96.132812 287.582031 96.253906 288.707031 96.457031 C 288.375 96.992188 287.992188 97.492188 287.566406 97.957031 "/>
<path style=" stroke:none;fill-rule:nonzero;fill:rgb(12.159729%,6.269836%,5.099487%);fill-opacity:1;" d="M 270.691406 141.964844 C 270.691406 149.632812 263.417969 157.382812 254.988281 157.382812 C 246.554688 157.382812 242.199219 146.019531 242.199219 138.359375 C 242.199219 134.429688 246.992188 128.105469 255.425781 128.105469 C 263.855469 128.105469 270.691406 134.3125 270.691406 141.964844 "/>
<path style=" stroke:none;fill-rule:nonzero;fill:rgb(100%,100%,100%);fill-opacity:1;" d="M 267.820312 144.636719 C 267.820312 152.125 261.738281 158.191406 254.238281 158.191406 C 246.738281 158.191406 240.65625 152.125 240.65625 144.636719 C 240.65625 137.148438 246.738281 131.078125 254.238281 131.078125 C 261.738281 131.078125 267.820312 137.148438 267.820312 144.636719 "/>
<path style=" stroke:none;fill-rule:nonzero;fill:rgb(16.079712%,14.118958%,17.248535%);fill-opacity:1;" d="M 249.175781 135.867188 C 246.503906 135.867188 244.050781 136.722656 242.199219 138.359375 C 241.21875 140.230469 240.65625 142.496094 240.65625 144.753906 C 240.65625 149.992188 243.667969 154.488281 248.015625 156.738281 C 248.40625 156.78125 248.78125 156.859375 249.175781 156.859375 C 254.984375 156.859375 259.6875 152.15625 259.6875 146.363281 C 259.6875 140.566406 254.984375 135.867188 249.175781 135.867188 "/>
<path style=" stroke:none;fill-rule:nonzero;fill:rgb(21.179199%,18.818665%,22.349548%);fill-opacity:1;" d="M 253.804688 144.410156 C 253.523438 143.792969 253.128906 143.238281 252.652344 142.769531 C 253.621094 141.160156 254.449219 139.460938 255.109375 137.703125 C 256.566406 138.695312 257.746094 140.046875 258.546875 141.617188 C 258.972656 142.460938 256.339844 143.738281 253.804688 144.410156 "/>
<path style=" stroke:none;fill-rule:nonzero;fill:rgb(12.159729%,6.269836%,5.099487%);fill-opacity:1;" d="M 269.859375 144.984375 C 274.921875 146.363281 275.195312 140.148438 275.195312 140.148438 C 275.195312 140.148438 272.707031 142.742188 270.332031 140.640625 C 268.488281 139 268.433594 144.191406 269.859375 144.984375 "/>
<path style=" stroke:none;fill-rule:nonzero;fill:rgb(6.669617%,5.099487%,5.879211%);fill-opacity:1;" d="M 248.820312 152.148438 C 247.78125 152.148438 246.804688 151.859375 245.976562 151.355469 C 248.695312 148.898438 249.71875 145.109375 249.675781 141.273438 C 250.828125 141.453125 251.859375 141.996094 252.652344 142.769531 C 252.34375 143.285156 252.015625 143.792969 251.675781 144.292969 C 251.550781 144.472656 251.402344 144.664062 251.269531 144.851562 C 252.003906 144.816406 252.898438 144.648438 253.804688 144.410156 C 254.117188 145.101562 254.292969 145.867188 254.292969 146.679688 C 254.292969 149.699219 251.839844 152.148438 248.820312 152.148438 "/>
<path style=" stroke:none;fill-rule:nonzero;fill:rgb(8.628845%,7.058716%,7.449341%);fill-opacity:1;" d="M 251.269531 144.851562 C 251.402344 144.664062 251.550781 144.472656 251.675781 144.292969 C 252.015625 143.792969 252.34375 143.285156 252.652344 142.769531 C 253.128906 143.238281 253.523438 143.792969 253.804688 144.410156 C 252.898438 144.648438 252.003906 144.816406 251.269531 144.851562 "/>
<path style=" stroke:none;fill-rule:nonzero;fill:rgb(39.219666%,22.349548%,10.978699%);fill-opacity:1;" d="M 240.660156 144.871094 C 240.660156 144.863281 240.660156 144.859375 240.660156 144.855469 C 240.660156 144.859375 240.660156 144.867188 240.660156 144.871094 M 240.660156 144.835938 C 240.660156 144.832031 240.660156 144.824219 240.660156 144.820312 C 240.660156 144.824219 240.660156 144.832031 240.660156 144.835938 M 240.660156 144.8125 C 240.660156 144.804688 240.660156 144.796875 240.660156 144.785156 C 240.660156 144.796875 240.660156 144.804688 240.660156 144.8125 M 240.660156 144.78125 C 240.65625 144.769531 240.65625 144.761719 240.65625 144.753906 C 240.65625 144.761719 240.65625 144.769531 240.660156 144.78125 "/>
<path style=" stroke:none;fill-rule:nonzero;fill:rgb(77.648926%,81.959534%,83.918762%);fill-opacity:1;" d="M 242.199219 138.359375 C 242.277344 138.292969 242.359375 138.222656 242.441406 138.15625 C 242.359375 138.222656 242.277344 138.292969 242.199219 138.359375 M 242.441406 138.15625 C 242.445312 138.148438 242.453125 138.144531 242.460938 138.136719 C 242.453125 138.144531 242.445312 138.148438 242.441406 138.15625 M 242.472656 138.128906 C 242.472656 138.125 242.476562 138.125 242.480469 138.125 C 242.476562 138.125 242.472656 138.125 242.472656 138.128906 "/>
<path style=" stroke:none;fill-rule:nonzero;fill:rgb(12.939453%,12.159729%,14.509583%);fill-opacity:1;" d="M 243.609375 153.109375 C 241.796875 150.839844 240.6875 147.992188 240.660156 144.871094 C 240.660156 144.867188 240.660156 144.859375 240.660156 144.855469 C 240.660156 144.847656 240.660156 144.84375 240.660156 144.835938 C 240.660156 144.832031 240.660156 144.824219 240.660156 144.820312 C 240.660156 144.820312 240.660156 144.816406 240.660156 144.8125 C 240.660156 144.804688 240.660156 144.796875 240.660156 144.785156 C 240.660156 144.785156 240.660156 144.78125 240.660156 144.78125 C 240.65625 144.769531 240.65625 144.761719 240.65625 144.753906 C 240.65625 142.496094 241.21875 140.230469 242.199219 138.359375 C 242.277344 138.292969 242.359375 138.222656 242.441406 138.15625 C 242.445312 138.148438 242.453125 138.144531 242.460938 138.136719 C 242.464844 138.132812 242.46875 138.132812 242.472656 138.128906 C 242.472656 138.125 242.476562 138.125 242.480469 138.125 C 244.242188 136.6875 246.496094 135.933594 248.945312 135.882812 C 249.386719 137.597656 249.65625 139.441406 249.675781 141.273438 C 249.398438 141.230469 249.109375 141.210938 248.820312 141.210938 C 245.789062 141.210938 243.335938 143.65625 243.335938 146.679688 C 243.335938 148.660156 244.394531 150.398438 245.976562 151.355469 C 245.574219 151.722656 245.132812 152.058594 244.652344 152.363281 C 244.28125 152.597656 243.933594 152.851562 243.609375 153.109375 "/>
<path style=" stroke:none;fill-rule:nonzero;fill:rgb(5.879211%,4.708862%,5.099487%);fill-opacity:1;" d="M 245.976562 151.355469 C 244.394531 150.398438 243.335938 148.660156 243.335938 146.679688 C 243.335938 143.65625 245.789062 141.210938 248.820312 141.210938 C 249.109375 141.210938 249.398438 141.230469 249.675781 141.273438 C 249.71875 145.109375 248.695312 148.898438 245.976562 151.355469 "/>
<path style=" stroke:none;fill-rule:nonzero;fill:rgb(100%,100%,100%);fill-opacity:1;" d="M 261.960938 147.96875 L 251.042969 146.363281 L 262.035156 145.679688 Z M 261.960938 147.96875 "/>
<path style=" stroke:none;fill-rule:nonzero;fill:rgb(100%,100%,100%);fill-opacity:1;" d="M 263.261719 144.453125 L 252.273438 145.496094 L 261.25 143.851562 Z M 263.261719 144.453125 "/>
<path style=" stroke:none;fill-rule:nonzero;fill:rgb(100%,100%,100%);fill-opacity:1;" d="M 259.585938 156.859375 L 251.042969 149.886719 L 258.574219 155.015625 Z M 259.585938 156.859375 "/>
<path style=" stroke:none;fill-rule:nonzero;fill:rgb(12.159729%,6.269836%,5.099487%);fill-opacity:1;" d="M 161.765625 141.964844 C 161.765625 149.632812 169.039062 157.382812 177.472656 157.382812 C 185.902344 157.382812 190.257812 146.019531 190.257812 138.359375 C 190.257812 134.429688 185.460938 128.105469 177.035156 128.105469 C 168.597656 128.105469 161.765625 134.3125 161.765625 141.964844 "/>
<path style=" stroke:none;fill-rule:nonzero;fill:rgb(100%,100%,100%);fill-opacity:1;" d="M 164.640625 144.636719 C 164.640625 152.125 170.722656 158.191406 178.222656 158.191406 C 185.71875 158.191406 191.796875 152.125 191.796875 144.636719 C 191.796875 137.148438 185.71875 131.078125 178.222656 131.078125 C 170.722656 131.078125 164.640625 137.148438 164.640625 144.636719 "/>
<path style=" stroke:none;fill-rule:nonzero;fill:rgb(16.079712%,14.118958%,17.248535%);fill-opacity:1;" d="M 183.28125 135.867188 C 185.949219 135.867188 188.402344 136.722656 190.257812 138.359375 C 191.238281 140.230469 191.796875 142.496094 191.796875 144.753906 C 191.796875 149.992188 188.789062 154.488281 184.4375 156.738281 C 184.050781 156.78125 183.679688 156.859375 183.28125 156.859375 C 177.476562 156.859375 172.765625 152.15625 172.765625 146.363281 C 172.765625 140.566406 177.476562 135.867188 183.28125 135.867188 "/>
<path style=" stroke:none;fill-rule:nonzero;fill:rgb(21.179199%,18.818665%,22.349548%);fill-opacity:1;" d="M 178.652344 144.410156 C 176.117188 143.738281 173.484375 142.460938 173.910156 141.617188 C 174.710938 140.046875 175.894531 138.695312 177.347656 137.703125 C 178.003906 139.460938 178.832031 141.160156 179.804688 142.769531 C 179.328125 143.238281 178.9375 143.792969 178.652344 144.410156 "/>
<path style=" stroke:none;fill-rule:nonzero;fill:rgb(12.159729%,6.269836%,5.099487%);fill-opacity:1;" d="M 162.597656 144.984375 C 157.535156 146.363281 157.257812 140.148438 157.257812 140.148438 C 157.257812 140.148438 159.75 142.742188 162.125 140.640625 C 163.964844 139 164.019531 144.191406 162.597656 144.984375 "/>
<path style=" stroke:none;fill-rule:nonzero;fill:rgb(6.669617%,5.099487%,5.879211%);fill-opacity:1;" d="M 183.640625 152.148438 C 180.617188 152.148438 178.160156 149.699219 178.160156 146.679688 C 178.160156 145.867188 178.335938 145.101562 178.652344 144.410156 C 179.558594 144.648438 180.453125 144.816406 181.191406 144.851562 C 181.054688 144.664062 180.90625 144.472656 180.78125 144.292969 C 180.441406 143.792969 180.117188 143.285156 179.804688 142.769531 C 180.601562 141.996094 181.632812 141.457031 182.78125 141.273438 C 182.738281 145.109375 183.765625 148.898438 186.480469 151.355469 C 185.652344 151.859375 184.679688 152.148438 183.640625 152.148438 "/>
<path style=" stroke:none;fill-rule:nonzero;fill:rgb(8.628845%,7.058716%,7.449341%);fill-opacity:1;" d="M 181.191406 144.851562 C 180.453125 144.816406 179.558594 144.648438 178.652344 144.410156 C 178.9375 143.792969 179.328125 143.238281 179.804688 142.769531 C 180.117188 143.285156 180.441406 143.792969 180.78125 144.292969 C 180.90625 144.472656 181.054688 144.664062 181.191406 144.851562 "/>
<path style=" stroke:none;fill-rule:nonzero;fill:rgb(77.648926%,81.959534%,83.918762%);fill-opacity:1;" d="M 190.257812 138.359375 C 190.171875 138.289062 190.082031 138.210938 189.996094 138.136719 C 190.082031 138.210938 190.171875 138.289062 190.257812 138.359375 M 189.984375 138.128906 C 189.980469 138.125 189.980469 138.125 189.976562 138.125 C 189.980469 138.125 189.980469 138.125 189.984375 138.128906 "/>
<path style=" stroke:none;fill-rule:nonzero;fill:rgb(12.939453%,12.159729%,14.509583%);fill-opacity:1;" d="M 188.847656 153.109375 C 188.519531 152.851562 188.179688 152.597656 187.800781 152.363281 C 187.324219 152.058594 186.882812 151.722656 186.480469 151.355469 C 188.0625 150.398438 189.117188 148.660156 189.117188 146.679688 C 189.117188 143.65625 186.664062 141.210938 183.640625 141.210938 C 183.347656 141.210938 183.0625 141.230469 182.78125 141.273438 C 182.804688 139.441406 183.070312 137.597656 183.515625 135.882812 C 185.960938 135.933594 188.214844 136.6875 189.976562 138.125 C 189.980469 138.125 189.980469 138.125 189.984375 138.128906 C 189.988281 138.132812 189.992188 138.132812 189.996094 138.136719 C 190.082031 138.210938 190.171875 138.289062 190.257812 138.359375 C 191.238281 140.230469 191.796875 142.496094 191.796875 144.753906 C 191.796875 144.761719 191.796875 144.769531 191.796875 144.78125 C 191.796875 144.78125 191.796875 144.785156 191.796875 144.785156 C 191.796875 144.796875 191.796875 144.804688 191.796875 144.8125 C 191.796875 144.816406 191.796875 144.820312 191.796875 144.820312 C 191.796875 144.824219 191.796875 144.832031 191.796875 144.835938 C 191.796875 144.84375 191.796875 144.851562 191.796875 144.855469 C 191.796875 144.859375 191.796875 144.863281 191.796875 144.867188 C 191.773438 147.992188 190.664062 150.839844 188.847656 153.109375 "/>
<path style=" stroke:none;fill-rule:nonzero;fill:rgb(5.879211%,4.708862%,5.099487%);fill-opacity:1;" d="M 186.480469 151.355469 C 183.765625 148.898438 182.738281 145.109375 182.78125 141.273438 C 183.0625 141.230469 183.347656 141.210938 183.640625 141.210938 C 186.664062 141.210938 189.117188 143.65625 189.117188 146.679688 C 189.117188 148.660156 188.0625 150.398438 186.480469 151.355469 "/>
<path style=" stroke:none;fill-rule:nonzero;fill:rgb(100%,100%,100%);fill-opacity:1;" d="M 170.5 147.96875 L 181.410156 146.363281 L 170.417969 145.679688 Z M 170.5 147.96875 "/>
<path style=" stroke:none;fill-rule:nonzero;fill:rgb(100%,100%,100%);fill-opacity:1;" d="M 169.195312 144.453125 L 180.179688 145.496094 L 171.210938 143.851562 Z M 169.195312 144.453125 "/>
<path style=" stroke:none;fill-rule:nonzero;fill:rgb(100%,100%,100%);fill-opacity:1;" d="M 172.871094 156.859375 L 181.410156 149.886719 L 173.882812 155.015625 Z M 172.871094 156.859375 "/>
<path style=" stroke:none;fill-rule:nonzero;fill:rgb(12.159729%,6.269836%,5.099487%);fill-opacity:1;" d="M 243.496094 117.691406 C 243.496094 117.691406 244.90625 116.332031 247.511719 114.980469 C 248.804688 114.296875 250.394531 113.59375 252.199219 113.09375 C 253.097656 112.828125 254.054688 112.609375 255.035156 112.476562 C 256.019531 112.316406 257.03125 112.25 258.050781 112.199219 C 259.039062 112.183594 260.171875 112.21875 261.050781 112.289062 C 262.066406 112.371094 263.097656 112.554688 264.019531 112.742188 C 264.945312 112.976562 265.84375 113.210938 266.667969 113.523438 C 267.492188 113.832031 268.257812 114.148438 268.957031 114.472656 C 271.738281 115.804688 273.285156 117.21875 273.382812 117.300781 C 274.335938 118.183594 274.398438 119.671875 273.515625 120.625 C 272.816406 121.386719 271.726562 121.582031 270.824219 121.183594 L 270.414062 121 C 270.425781 121.007812 270.382812 120.984375 270.21875 120.890625 C 270.054688 120.789062 269.8125 120.652344 269.507812 120.472656 C 268.867188 120.125 267.945312 119.605469 266.78125 119.078125 C 266.207031 118.800781 265.570312 118.53125 264.886719 118.265625 C 264.199219 118.011719 263.484375 117.722656 262.71875 117.484375 C 261.933594 117.222656 261.199219 117.003906 260.394531 116.777344 C 259.453125 116.539062 258.714844 116.390625 257.835938 116.246094 C 256.984375 116.132812 256.117188 116.027344 255.257812 116.011719 C 254.40625 115.984375 253.542969 115.96875 252.710938 116.027344 C 251.882812 116.058594 251.078125 116.167969 250.308594 116.269531 C 249.542969 116.371094 248.820312 116.515625 248.148438 116.664062 C 245.484375 117.296875 243.78125 118.109375 243.78125 118.109375 C 243.65625 118.167969 243.5 118.113281 243.441406 117.984375 C 243.390625 117.886719 243.421875 117.761719 243.496094 117.691406 "/>
<path style=" stroke:none;fill-rule:nonzero;fill:rgb(12.159729%,6.269836%,5.099487%);fill-opacity:1;" d="M 185.351562 118.109375 C 185.351562 118.109375 183.652344 117.296875 180.988281 116.664062 C 178.3125 116.046875 174.710938 115.730469 171.304688 116.246094 C 170.417969 116.390625 169.683594 116.535156 168.742188 116.777344 C 167.9375 117.003906 167.199219 117.21875 166.417969 117.480469 C 165.652344 117.722656 164.9375 118.011719 164.25 118.265625 C 163.570312 118.53125 162.929688 118.800781 162.355469 119.078125 C 161.191406 119.605469 160.269531 120.125 159.632812 120.472656 C 159.324219 120.652344 159.082031 120.789062 158.921875 120.890625 C 158.757812 120.984375 158.714844 121.007812 158.722656 121 L 158.3125 121.183594 C 157.125 121.707031 155.730469 121.175781 155.199219 119.988281 C 154.78125 119.042969 155.035156 117.96875 155.757812 117.300781 C 155.847656 117.21875 157.402344 115.804688 160.179688 114.472656 C 160.878906 114.148438 161.644531 113.832031 162.46875 113.519531 C 163.289062 113.210938 164.1875 112.976562 165.117188 112.742188 C 166.035156 112.554688 167.070312 112.371094 168.089844 112.289062 C 168.96875 112.21875 170.097656 112.183594 171.085938 112.199219 C 172.105469 112.25 173.121094 112.316406 174.101562 112.476562 C 175.082031 112.609375 176.039062 112.828125 176.9375 113.09375 C 178.742188 113.59375 180.328125 114.296875 181.628906 114.980469 C 184.230469 116.332031 185.636719 117.691406 185.636719 117.691406 C 185.746094 117.785156 185.746094 117.945312 185.652344 118.050781 C 185.574219 118.132812 185.453125 118.152344 185.351562 118.109375 "/>
<path style=" stroke:none;fill-rule:nonzero;fill:rgb(32.939148%,16.859436%,9.01947%);fill-opacity:1;" d="M 215.175781 208.625 C 203.394531 208.625 193.273438 199.277344 192.785156 198.820312 C 198.585938 202.652344 206.390625 205.773438 215.175781 205.78125 C 215.179688 205.78125 215.191406 205.78125 215.199219 205.78125 C 224.648438 205.78125 232.992188 201.992188 238.765625 197.652344 C 237.847656 198.507812 226.730469 208.625 215.175781 208.625 "/>
<path style=" stroke:none;fill-rule:nonzero;fill:rgb(59.609985%,14.509583%,19.219971%);fill-opacity:1;" d="M 182.34375 187.125 C 183.207031 192.59375 197.125 205.769531 215.175781 205.78125 C 233.097656 205.796875 247.050781 192.171875 247.050781 186.980469 C 236.894531 191.332031 230.996094 188.738281 215.175781 188.738281 C 199.351562 188.738281 193.859375 191.332031 182.34375 187.125 "/>
<path style=" stroke:none;fill-rule:nonzero;fill:rgb(79.219055%,19.60907%,26.669312%);fill-opacity:1;" d="M 194.40625 199.835938 C 200 203.1875 207.179688 205.777344 215.175781 205.78125 C 223.429688 205.789062 230.84375 202.902344 236.4375 199.28125 C 239.550781 197.265625 216.4375 196.808594 215.382812 199.335938 C 212.214844 196.382812 190.707031 197.621094 194.40625 199.835938 "/>
<path style=" stroke:none;fill-rule:nonzero;fill:rgb(100%,100%,100%);fill-opacity:1;" d="M 215.90625 196.378906 C 237.210938 196.378906 240.65625 194.417969 241.226562 193.769531 C 243.382812 191.355469 244.578125 189.109375 244.578125 187.585938 C 234.425781 191.9375 230.996094 188.738281 215.175781 188.738281 C 199.351562 188.738281 196.652344 192.449219 185.136719 188.25 C 185.371094 189.734375 186.582031 191.792969 188.574219 194 C 189.238281 194.734375 194.597656 196.378906 215.90625 196.378906 "/>
<path style=" stroke:none;fill-rule:nonzero;fill:rgb(32.939148%,16.859436%,9.01947%);fill-opacity:1;" d="M 195.65625 189.527344 C 191.449219 189.527344 187.503906 189.007812 182.34375 187.125 C 182.390625 187.398438 182.460938 187.691406 182.574219 188 C 181.9375 187.691406 181.367188 187.398438 180.867188 187.132812 C 179.046875 186.164062 178.082031 185.484375 178.082031 185.484375 C 178.082031 185.484375 179.222656 185.738281 181.210938 186.191406 C 183.195312 186.613281 186.039062 187.183594 189.382812 187.582031 C 190.707031 187.722656 192.113281 187.8125 193.546875 187.8125 C 193.929688 187.8125 194.308594 187.804688 194.695312 187.792969 C 195.539062 187.757812 196.667969 187.640625 197.679688 187.566406 C 198.695312 187.476562 199.726562 187.382812 200.777344 187.28125 C 202.914062 187.082031 205.117188 186.773438 207.421875 186.585938 C 209.710938 186.363281 212.085938 186.234375 214.488281 186.214844 C 214.527344 186.214844 214.5625 186.214844 214.597656 186.214844 C 217 186.214844 219.277344 186.390625 221.511719 186.53125 C 223.792969 186.683594 226.085938 186.976562 228.21875 187.167969 C 230.371094 187.378906 232.425781 187.609375 234.367188 187.765625 C 234.824219 187.800781 235.40625 187.867188 235.738281 187.882812 C 235.996094 187.894531 236.25 187.898438 236.492188 187.898438 C 236.703125 187.898438 236.90625 187.894531 237.078125 187.886719 C 237.09375 187.886719 237.109375 187.886719 237.121094 187.886719 C 237.894531 187.886719 238.792969 187.796875 239.589844 187.695312 C 242.914062 187.246094 245.761719 186.613281 247.742188 186.183594 C 249.738281 185.734375 250.882812 185.484375 250.882812 185.484375 C 250.882812 185.484375 249.910156 186.148438 248.097656 187.128906 C 247.75 187.316406 247.375 187.515625 246.96875 187.726562 C 247.023438 187.460938 247.050781 187.214844 247.050781 186.980469 C 246.195312 187.347656 245.367188 187.667969 244.558594 187.941406 C 244.574219 187.816406 244.578125 187.699219 244.578125 187.585938 C 243.257812 188.152344 242.046875 188.59375 240.910156 188.925781 C 238.757812 189.355469 236.675781 189.503906 234.464844 189.503906 C 229.453125 189.503906 223.792969 188.738281 215.210938 188.738281 C 215.195312 188.738281 215.183594 188.738281 215.175781 188.738281 C 215.164062 188.738281 215.152344 188.738281 215.140625 188.738281 C 206.421875 188.738281 200.839844 189.527344 195.65625 189.527344 "/>
<path style=" stroke:none;fill-rule:nonzero;fill:rgb(40.779114%,9.408569%,11.369324%);fill-opacity:1;" d="M 195.203125 190.253906 C 192.308594 190.253906 189.300781 189.765625 185.136719 188.25 C 185.1875 188.554688 185.273438 188.890625 185.410156 189.246094 C 184.351562 188.828125 183.40625 188.402344 182.574219 188 C 182.460938 187.691406 182.390625 187.398438 182.34375 187.125 C 187.503906 189.007812 191.449219 189.527344 195.65625 189.527344 C 200.839844 189.527344 206.421875 188.738281 215.140625 188.738281 C 205.058594 188.742188 200.3125 190.253906 195.203125 190.253906 M 234.289062 189.871094 C 229.625 189.871094 224.605469 188.738281 215.210938 188.738281 C 223.792969 188.738281 229.453125 189.503906 234.464844 189.503906 C 236.675781 189.503906 238.757812 189.355469 240.910156 188.925781 C 238.515625 189.628906 236.4375 189.871094 234.289062 189.871094 M 244.3125 189 C 244.4375 188.621094 244.523438 188.265625 244.558594 187.941406 C 245.367188 187.667969 246.195312 187.347656 247.050781 186.980469 C 247.050781 187.214844 247.023438 187.460938 246.96875 187.726562 C 246.195312 188.128906 245.308594 188.5625 244.3125 189 "/>
<path style=" stroke:none;fill-rule:nonzero;fill:rgb(64.309692%,57.249451%,52.549744%);fill-opacity:1;" d="M 198.851562 191.746094 C 198.476562 191.746094 198.113281 191.742188 197.75 191.726562 C 196.671875 191.667969 195.753906 191.65625 194.613281 191.5625 C 192.457031 191.402344 190.527344 190.933594 188.796875 190.425781 C 187.566406 190.054688 186.4375 189.65625 185.410156 189.246094 C 185.273438 188.890625 185.1875 188.554688 185.136719 188.25 C 189.300781 189.765625 192.308594 190.253906 195.203125 190.253906 C 200.3125 190.253906 205.058594 188.742188 215.140625 188.738281 C 215.152344 188.738281 215.164062 188.738281 215.175781 188.738281 C 215.183594 188.738281 215.195312 188.738281 215.210938 188.738281 C 224.605469 188.738281 229.625 189.871094 234.289062 189.871094 C 236.4375 189.871094 238.515625 189.628906 240.910156 188.925781 C 242.046875 188.59375 243.257812 188.152344 244.578125 187.585938 C 244.578125 187.699219 244.574219 187.816406 244.558594 187.941406 C 244.523438 188.265625 244.4375 188.621094 244.3125 189 C 243.109375 189.53125 241.742188 190.066406 240.21875 190.546875 C 239.335938 190.820312 238.46875 191.078125 237.390625 191.273438 C 236.832031 191.394531 236.359375 191.425781 235.882812 191.480469 C 235.253906 191.535156 234.855469 191.527344 234.3125 191.554688 C 233.296875 191.585938 232.25 191.628906 231.179688 191.664062 C 231.058594 191.667969 230.933594 191.667969 230.808594 191.667969 C 229.871094 191.667969 228.917969 191.628906 227.953125 191.617188 C 225.746094 191.5625 223.566406 191.535156 221.292969 191.429688 C 219.226562 191.40625 217.132812 191.265625 215.132812 191.265625 C 214.921875 191.265625 214.710938 191.265625 214.496094 191.269531 C 214.375 191.269531 214.253906 191.269531 214.136719 191.269531 C 212.023438 191.269531 209.898438 191.371094 207.761719 191.472656 C 205.515625 191.597656 203.238281 191.652344 201.046875 191.71875 C 200.308594 191.726562 199.574219 191.746094 198.851562 191.746094 "/>
<path style=" stroke:none;fill-rule:nonzero;fill:rgb(32.939148%,16.859436%,9.01947%);fill-opacity:1;" d="M 216.449219 215.230469 C 214.976562 215.230469 213.5 215.078125 212.160156 214.675781 C 211.390625 214.507812 210.695312 214.167969 210.035156 213.894531 C 209.371094 213.628906 208.804688 213.222656 208.273438 212.917969 C 207.746094 212.578125 207.316406 212.171875 206.929688 211.859375 C 206.519531 211.554688 206.285156 211.203125 206.042969 210.949219 C 205.589844 210.414062 205.347656 210.085938 205.347656 210.085938 C 205.347656 210.085938 205.730469 210.226562 206.375 210.511719 C 206.691406 210.644531 207.078125 210.859375 207.523438 210.992188 C 207.953125 211.140625 208.4375 211.3125 208.964844 211.492188 C 209.523438 211.625 210.085938 211.828125 210.707031 211.953125 C 211.335938 212.066406 211.972656 212.222656 212.65625 212.28125 C 213.328125 212.390625 214.039062 212.421875 214.75 212.464844 C 215.101562 212.476562 215.457031 212.484375 215.8125 212.484375 C 216.179688 212.484375 216.550781 212.476562 216.921875 212.460938 C 219.835938 212.339844 222.773438 211.753906 225 211.183594 C 226.109375 210.886719 227.046875 210.617188 227.714844 210.414062 C 228.367188 210.199219 228.761719 210.085938 228.761719 210.085938 C 228.761719 210.085938 228.496094 210.390625 227.992188 210.890625 C 227.464844 211.367188 226.675781 212.015625 225.621094 212.640625 C 224.578125 213.277344 223.273438 213.882812 221.808594 214.367188 C 221.074219 214.578125 220.304688 214.820312 219.496094 214.941406 C 218.699219 215.101562 217.867188 215.171875 217.03125 215.21875 C 216.835938 215.226562 216.644531 215.230469 216.449219 215.230469 "/>
<path style=" stroke:none;fill-rule:nonzero;fill:rgb(7.449341%,3.138733%,2.349854%);fill-opacity:1;" d="M 132.679688 75.308594 C 137.5 70.257812 141.820312 64.179688 143.199219 58.574219 C 143.992188 57.949219 144.769531 57.308594 145.53125 56.65625 L 144.703125 54.371094 C 144.359375 54.734375 144.007812 55.09375 143.648438 55.460938 C 143.695312 54.222656 143.558594 53.023438 143.210938 51.882812 C 143.425781 51.929688 143.640625 51.980469 143.851562 52.027344 L 143.003906 49.699219 C 142.726562 49.660156 142.453125 49.632812 142.179688 49.597656 C 137.988281 42.800781 125.609375 40.398438 115.433594 40.398438 C 111.5625 40.398438 108.007812 40.746094 105.347656 41.332031 C 105.339844 39.644531 105.789062 38.539062 106.847656 38.125 C 109.46875 37.097656 114.175781 36.441406 119.484375 36.441406 C 126.210938 36.441406 133.90625 37.496094 139.570312 40.167969 C 140.449219 39.054688 141.769531 38.152344 143.6875 37.40625 C 145.167969 36.824219 146.460938 36.527344 147.617188 36.527344 C 147.875 36.527344 148.128906 36.542969 148.378906 36.574219 C 146.058594 40.632812 144.746094 44.746094 145.285156 48.382812 C 145.097656 48.59375 144.910156 48.804688 144.722656 49.023438 L 145.574219 51.355469 C 145.695312 51.171875 145.828125 50.988281 145.957031 50.800781 C 146.421875 51.898438 147.085938 52.898438 147.910156 53.796875 C 147.40625 53.769531 146.914062 53.734375 146.425781 53.703125 L 147.253906 55.988281 C 148.238281 55.953125 149.234375 55.898438 150.222656 55.824219 C 150.773438 56.210938 151.359375 56.578125 151.976562 56.921875 C 151.648438 57.066406 151.300781 57.207031 150.933594 57.351562 C 149.1875 58.035156 147.75 58.417969 146.515625 58.417969 C 146.332031 58.417969 146.152344 58.410156 145.976562 58.394531 C 143.265625 64.464844 137.875 70.699219 132.679688 75.308594 M 187.5625 56.441406 C 187.554688 52.035156 184.46875 43.824219 181.265625 35.019531 C 177.167969 23.726562 174.023438 15.546875 170.839844 15.546875 C 170.597656 15.546875 170.359375 15.59375 170.121094 15.683594 C 167.660156 16.648438 164.035156 19.109375 160.300781 22.414062 C 165.316406 17.167969 170.867188 13.039062 174.234375 11.71875 C 174.476562 11.625 174.714844 11.578125 174.953125 11.578125 C 178.136719 11.578125 181.28125 19.761719 185.386719 31.054688 C 189.792969 43.191406 193.988281 54.195312 190.199219 55.675781 C 189.472656 55.960938 188.582031 56.21875 187.5625 56.441406 "/>
<path style=" stroke:none;fill-rule:nonzero;fill:rgb(84.309387%,17.649841%,34.509277%);fill-opacity:1;" d="M 106.660156 64.25 C 111.070312 76.390625 114.917969 87.53125 118.703125 86.046875 C 126.773438 82.886719 147.460938 63.539062 143.050781 51.398438 C 138.640625 39.261719 110.808594 38.929688 102.730469 42.089844 C 99.292969 43.4375 102.246094 52.113281 106.660156 64.25 "/>
<path style=" stroke:none;fill-rule:nonzero;fill:rgb(60.778809%,12.548828%,23.529053%);fill-opacity:1;" d="M 105.53125 46.898438 C 103.902344 46.898438 102.863281 46.332031 102.550781 44.742188 C 101.976562 41.792969 107.800781 40.71875 114.519531 40.71875 C 122.503906 40.71875 131.757812 42.234375 133.0625 43.921875 C 130.882812 43.488281 128.75 43.308594 126.695312 43.308594 C 122.058594 43.308594 117.785156 44.210938 114.164062 45.105469 C 110.542969 46 107.574219 46.898438 105.53125 46.898438 "/>
<path style=" stroke:none;fill-rule:nonzero;fill:rgb(6.269836%,2.349854%,1.568604%);fill-opacity:1;" d="M 143.851562 52.027344 C 143.640625 51.980469 143.425781 51.929688 143.210938 51.882812 C 143.160156 51.714844 143.109375 51.558594 143.050781 51.398438 C 142.820312 50.765625 142.527344 50.167969 142.179688 49.597656 C 142.453125 49.632812 142.726562 49.660156 143.003906 49.699219 L 143.851562 52.027344 "/>
<path style=" stroke:none;fill-rule:nonzero;fill:rgb(60.778809%,12.548828%,23.529053%);fill-opacity:1;" d="M 143.210938 51.882812 C 138.9375 50.90625 134.160156 50.105469 129.566406 50.105469 C 128.367188 50.105469 127.179688 50.160156 126.015625 50.28125 C 127.566406 49.515625 130.71875 49.148438 134.453125 49.148438 C 136.875 49.148438 139.539062 49.304688 142.179688 49.597656 C 142.527344 50.167969 142.820312 50.765625 143.050781 51.398438 C 143.109375 51.558594 143.160156 51.714844 143.210938 51.882812 "/>
<path style=" stroke:none;fill-rule:nonzero;fill:rgb(6.269836%,2.349854%,1.568604%);fill-opacity:1;" d="M 143.199219 58.574219 C 143.460938 57.515625 143.617188 56.472656 143.648438 55.460938 C 144.007812 55.09375 144.359375 54.734375 144.703125 54.371094 L 145.53125 56.65625 C 144.769531 57.308594 143.992188 57.949219 143.199219 58.574219 "/>
<path style=" stroke:none;fill-rule:nonzero;fill:rgb(60.778809%,12.548828%,23.529053%);fill-opacity:1;" d="M 130.445312 65.816406 C 135.355469 63.324219 139.890625 59.320312 143.648438 55.460938 C 143.617188 56.472656 143.460938 57.515625 143.199219 58.574219 C 138.3125 62.414062 133.074219 65.507812 130.445312 65.816406 "/>
<path style=" stroke:none;fill-rule:nonzero;fill:rgb(60.778809%,12.548828%,23.529053%);fill-opacity:1;" d="M 124.214844 60.636719 C 124.027344 60.636719 123.855469 60.628906 123.699219 60.609375 C 129.542969 59.222656 137.066406 55.164062 141.695312 52.078125 L 142.1875 54.449219 C 136.277344 57.519531 127.75 60.636719 124.214844 60.636719 "/>
<path style=" stroke:none;fill-rule:nonzero;fill:rgb(90.589905%,38.819885%,52.549744%);fill-opacity:1;" d="M 118.546875 85.019531 C 116.414062 85.019531 112.152344 76.664062 108.160156 66.015625 C 103.984375 54.871094 103.570312 47.667969 103.570312 47.667969 C 103.570312 47.667969 105.34375 52.914062 109.519531 64.050781 C 113.691406 75.191406 120.859375 84.152344 118.832031 84.964844 C 118.742188 85.003906 118.648438 85.019531 118.546875 85.019531 "/>
<path style=" stroke:none;fill-rule:nonzero;fill:rgb(84.309387%,17.649841%,34.509277%);fill-opacity:1;" d="M 181.265625 35.019531 C 185.679688 47.15625 189.871094 58.15625 186.09375 59.640625 C 178.015625 62.804688 150.183594 62.472656 145.773438 50.335938 C 141.359375 38.195312 162.046875 18.847656 170.121094 15.683594 C 173.554688 14.339844 176.859375 22.878906 181.265625 35.019531 "/>
<path style=" stroke:none;fill-rule:nonzero;fill:rgb(60.778809%,12.548828%,23.529053%);fill-opacity:1;" d="M 148.511719 37.863281 C 148.363281 34.335938 164.40625 16.613281 170.253906 16.613281 C 171.003906 16.613281 171.582031 16.90625 171.941406 17.550781 C 175.101562 23.265625 158.445312 24.59375 148.511719 37.863281 "/>
<path style=" stroke:none;fill-rule:nonzero;fill:rgb(6.269836%,2.349854%,1.568604%);fill-opacity:1;" d="M 145.574219 51.355469 L 144.722656 49.023438 C 144.910156 48.804688 145.097656 48.59375 145.285156 48.382812 C 145.382812 49.046875 145.542969 49.703125 145.773438 50.335938 C 145.832031 50.492188 145.890625 50.648438 145.957031 50.800781 C 145.828125 50.988281 145.695312 51.171875 145.574219 51.355469 "/>
<path style=" stroke:none;fill-rule:nonzero;fill:rgb(60.778809%,12.548828%,23.529053%);fill-opacity:1;" d="M 145.957031 50.800781 C 145.890625 50.648438 145.832031 50.492188 145.773438 50.335938 C 145.542969 49.703125 145.382812 49.046875 145.285156 48.382812 C 149.84375 43.210938 155.132812 38.613281 157.847656 37.804688 C 153.261719 41.230469 149.21875 46.183594 145.957031 50.800781 "/>
<path style=" stroke:none;fill-rule:nonzero;fill:rgb(6.269836%,2.349854%,1.568604%);fill-opacity:1;" d="M 147.253906 55.988281 L 146.425781 53.703125 C 146.914062 53.734375 147.40625 53.769531 147.910156 53.796875 C 148.578125 54.535156 149.355469 55.207031 150.222656 55.824219 C 149.234375 55.898438 148.238281 55.953125 147.253906 55.988281 "/>
<path style=" stroke:none;fill-rule:nonzero;fill:rgb(60.778809%,12.548828%,23.529053%);fill-opacity:1;" d="M 150.222656 55.824219 C 149.355469 55.207031 148.578125 54.535156 147.910156 53.796875 C 149.386719 53.886719 150.914062 53.941406 152.464844 53.941406 C 156.460938 53.941406 160.609375 53.582031 164.402344 52.507812 C 162.234375 54.082031 156.332031 55.351562 150.222656 55.824219 "/>
<path style=" stroke:none;fill-rule:nonzero;fill:rgb(60.778809%,12.548828%,23.529053%);fill-opacity:1;" d="M 148.359375 52.03125 L 147.21875 49.914062 C 152.664062 49.054688 160.886719 46.9375 166.160156 43.972656 C 164.023438 46.390625 155.082031 50.191406 148.359375 52.03125 "/>
<path style=" stroke:none;fill-rule:nonzero;fill:rgb(90.589905%,38.819885%,52.549744%);fill-opacity:1;" d="M 185.117188 58.953125 C 183.242188 58.953125 182.816406 47.699219 178.996094 36.832031 C 175.035156 25.601562 173.039062 20.445312 173.039062 20.445312 C 173.039062 20.445312 177.304688 26.136719 181.261719 37.367188 C 185.214844 48.59375 187.351562 58.136719 185.308594 58.917969 C 185.242188 58.941406 185.179688 58.953125 185.117188 58.953125 "/>
<path style=" stroke:none;fill-rule:nonzero;fill:rgb(93.728638%,19.999695%,39.219666%);fill-opacity:1;" d="M 151.273438 48.777344 C 154.085938 56.511719 152.671875 59.023438 146.820312 61.320312 C 140.96875 63.609375 138.554688 62.589844 135.75 54.859375 C 132.9375 47.132812 133.71875 43.65625 139.574219 41.367188 C 145.425781 39.070312 148.464844 41.042969 151.273438 48.777344 "/>
<path style=" stroke:none;fill-rule:nonzero;fill:rgb(90.979004%,65.098572%,10.978699%);fill-opacity:1;" d="M 220.121094 270.371094 C 220.121094 273.847656 217.304688 276.660156 213.824219 276.660156 C 210.347656 276.660156 207.527344 273.847656 207.527344 270.371094 C 207.527344 266.898438 210.347656 264.082031 213.824219 264.082031 C 217.304688 264.082031 220.121094 266.898438 220.121094 270.371094 "/>
<path style=" stroke:none;fill-rule:nonzero;fill:rgb(94.898987%,94.509888%,85.099792%);fill-opacity:1;" d="M 207.746094 272.027344 C 207.605469 271.910156 207.527344 271.707031 207.527344 271.394531 C 207.527344 271.222656 207.535156 271.054688 207.546875 270.886719 C 207.578125 271.277344 207.644531 271.65625 207.746094 272.027344 "/>
<path style=" stroke:none;fill-rule:nonzero;fill:rgb(94.509888%,78.42865%,20.779419%);fill-opacity:1;" d="M 208.117188 272.140625 C 207.96875 272.140625 207.84375 272.101562 207.746094 272.027344 C 207.644531 271.65625 207.578125 271.277344 207.546875 270.886719 C 207.804688 267.644531 210.519531 265.105469 213.824219 265.105469 C 216.777344 265.105469 210.175781 272.140625 208.117188 272.140625 "/>
<path style=" stroke:none;fill-rule:nonzero;fill:rgb(90.979004%,65.098572%,10.978699%);fill-opacity:1;" d="M 220.121094 286.03125 C 220.121094 289.503906 217.304688 292.320312 213.824219 292.320312 C 210.347656 292.320312 207.527344 289.503906 207.527344 286.03125 C 207.527344 282.5625 210.347656 279.746094 213.824219 279.746094 C 217.304688 279.746094 220.121094 282.5625 220.121094 286.03125 "/>
<path style=" stroke:none;fill-rule:nonzero;fill:rgb(94.898987%,94.509888%,85.099792%);fill-opacity:1;" d="M 207.746094 287.683594 C 207.605469 287.566406 207.527344 287.363281 207.527344 287.050781 C 207.527344 286.878906 207.535156 286.710938 207.546875 286.542969 C 207.578125 286.933594 207.648438 287.3125 207.746094 287.683594 "/>
<path style=" stroke:none;fill-rule:nonzero;fill:rgb(94.509888%,78.42865%,20.779419%);fill-opacity:1;" d="M 208.117188 287.796875 C 207.96875 287.796875 207.84375 287.761719 207.746094 287.683594 C 207.648438 287.3125 207.578125 286.933594 207.546875 286.542969 C 207.804688 283.304688 210.519531 280.761719 213.824219 280.761719 C 216.777344 280.761719 210.179688 287.796875 208.117188 287.796875 "/>
<g clip-path="url(#clip19)" clip-rule="nonzero">
<path style=" stroke:none;fill-rule:nonzero;fill:rgb(82.749939%,81.568909%,66.268921%);fill-opacity:1;" d="M 214.074219 299.496094 C 210.808594 299.496094 207.539062 299.480469 204.269531 299.453125 L 203.042969 299.441406 L 203.050781 298.242188 C 203.113281 291.925781 203.230469 285.613281 203.402344 279.300781 C 203.519531 276.144531 203.597656 272.988281 203.765625 269.828125 C 203.921875 266.671875 204.042969 263.515625 204.269531 260.359375 C 204.496094 263.515625 204.613281 266.671875 204.769531 269.828125 C 204.941406 272.988281 205.015625 276.144531 205.136719 279.300781 C 205.296875 285.203125 205.410156 291.109375 205.476562 297.015625 C 208.316406 296.996094 211.152344 296.984375 213.988281 296.984375 C 216.9375 296.984375 219.890625 296.996094 222.84375 297.015625 C 222.910156 291.109375 223.019531 285.203125 223.183594 279.300781 C 223.304688 276.144531 223.378906 272.988281 223.546875 269.828125 C 223.699219 266.671875 223.820312 263.515625 224.042969 260.359375 C 224.269531 263.515625 224.386719 266.671875 224.546875 269.828125 C 224.714844 272.988281 224.789062 276.144531 224.90625 279.300781 C 225.085938 285.613281 225.199219 291.925781 225.265625 298.242188 L 225.269531 299.441406 L 224.042969 299.453125 C 220.722656 299.480469 217.402344 299.496094 214.074219 299.496094 "/>
</g>
</g>
</svg>
