<?xml version="1.0" encoding="UTF-8"?>
<svg xmlns="http://www.w3.org/2000/svg" xmlns:xlink="http://www.w3.org/1999/xlink" width="419.25pt" height="297.75pt" viewBox="0 0 419.25 297.75" version="1.2">
<defs>
<clipPath id="clip1">
  <path d="M 80 132 L 201 132 L 201 297.359375 L 80 297.359375 Z M 80 132 "/>
</clipPath>
<clipPath id="clip2">
  <path d="M 220 126 L 341 126 L 341 297.359375 L 220 297.359375 Z M 220 126 "/>
</clipPath>
<clipPath id="clip3">
  <path d="M 159 212 L 272 212 L 272 297.359375 L 159 297.359375 Z M 159 212 "/>
</clipPath>
<clipPath id="clip4">
  <path d="M 159 288 L 162 288 L 162 297.359375 L 159 297.359375 Z M 159 288 "/>
</clipPath>
<clipPath id="clip5">
  <path d="M 235 226 L 293 226 L 293 297.359375 L 235 297.359375 Z M 235 226 "/>
</clipPath>
<clipPath id="clip6">
  <path d="M 135 226 L 193 226 L 193 297.359375 L 135 297.359375 Z M 135 226 "/>
</clipPath>
</defs>
<g id="surface1">
<g clip-path="url(#clip1)" clip-rule="nonzero">
<path style=" stroke:none;fill-rule:nonzero;fill:rgb(35.289001%,19.219971%,7.839966%);fill-opacity:1;" d="M 184.449219 180.464844 C 184.449219 203.808594 216.707031 328.652344 189.445312 328.652344 C 175.238281 328.652344 148.125 343.960938 123.894531 316.121094 C 137.324219 302.238281 106.328125 281.839844 102.535156 263.636719 C 97.34375 238.726562 100.289062 227.890625 96.746094 198.964844 C 94.5 180.660156 79.792969 155.449219 80.695312 144.722656 C 82.648438 121.457031 107.839844 138.195312 135.097656 138.195312 C 162.347656 138.195312 184.449219 157.121094 184.449219 180.464844 "/>
</g>
<path style=" stroke:none;fill-rule:nonzero;fill:rgb(84.709167%,74.508667%,74.119568%);fill-opacity:1;" d="M 95.414062 191.972656 C 95.410156 191.972656 95.410156 191.96875 95.40625 191.96875 C 92.667969 180.925781 87.089844 168.527344 83.632812 158.566406 C 83.632812 158.566406 83.632812 158.566406 83.636719 158.566406 C 87.097656 168.535156 92.675781 180.929688 95.414062 191.972656 "/>
<path style=" stroke:none;fill-rule:nonzero;fill:rgb(30.589294%,15.289307%,6.669617%);fill-opacity:1;" d="M 168.4375 255.835938 C 163.941406 247.730469 157.988281 240.070312 150.296875 232.972656 C 136.804688 220.539062 119.429688 212.949219 105.222656 201.308594 C 101.667969 198.398438 98.386719 195.277344 95.414062 191.972656 C 92.675781 180.929688 87.097656 168.535156 83.636719 158.566406 C 86.042969 160.332031 88.636719 161.382812 91.304688 161.390625 C 92.640625 161.390625 93.992188 161.125 95.355469 160.554688 C 95.855469 160.347656 96.324219 160.148438 96.773438 159.964844 C 105.402344 195.550781 135.632812 214.128906 174.992188 220.597656 C 173.507812 221.625 172.140625 222.792969 170.941406 224.109375 C 166.582031 228.914062 169.578125 239.363281 168.4375 255.835938 "/>
<g clip-path="url(#clip2)" clip-rule="nonzero">
<path style=" stroke:none;fill-rule:nonzero;fill:rgb(35.289001%,19.219971%,7.839966%);fill-opacity:1;" d="M 236.511719 174.183594 C 236.511719 197.53125 204.253906 322.375 231.503906 322.375 C 245.71875 322.375 272.828125 337.679688 297.054688 309.835938 C 283.628906 295.957031 314.621094 275.558594 318.417969 257.359375 C 323.609375 232.445312 320.664062 221.609375 324.210938 192.6875 C 326.449219 174.378906 341.160156 149.167969 340.261719 138.4375 C 338.300781 115.175781 313.113281 131.914062 285.859375 131.914062 C 258.605469 131.914062 236.511719 150.84375 236.511719 174.183594 "/>
</g>
<path style=" stroke:none;fill-rule:nonzero;fill:rgb(84.709167%,74.508667%,74.119568%);fill-opacity:1;" d="M 325.539062 185.691406 C 327.644531 177.199219 331.433594 167.902344 334.644531 159.53125 C 334.644531 159.53125 334.648438 159.53125 334.648438 159.527344 C 331.441406 167.898438 327.648438 177.191406 325.542969 185.6875 C 325.542969 185.691406 325.539062 185.691406 325.539062 185.691406 "/>
<path style=" stroke:none;fill-rule:nonzero;fill:rgb(30.589294%,15.289307%,6.669617%);fill-opacity:1;" d="M 258.730469 239.90625 C 259.667969 232.355469 260.289062 226.457031 258.160156 224.109375 C 256.46875 222.25 254.4375 220.691406 252.203125 219.394531 C 255.304688 218.757812 258.34375 218.042969 261.3125 217.242188 C 261.332031 217.238281 261.355469 217.226562 261.371094 217.222656 C 261.375 217.222656 261.375 217.222656 261.382812 217.222656 C 292.824219 208.71875 316.273438 190.785156 323.800781 160.316406 C 323.988281 160.394531 324.183594 160.472656 324.375 160.554688 C 325.738281 161.125 327.089844 161.390625 328.425781 161.390625 C 330.566406 161.390625 332.660156 160.707031 334.644531 159.53125 C 331.433594 167.902344 327.644531 177.199219 325.539062 185.691406 C 322.570312 188.996094 319.292969 192.117188 315.734375 195.027344 C 301.523438 206.667969 284.144531 214.253906 270.652344 226.695312 C 266.085938 230.910156 262.132812 235.320312 258.730469 239.90625 "/>
<g clip-path="url(#clip3)" clip-rule="nonzero">
<path style=" stroke:none;fill-rule:nonzero;fill:rgb(100%,100%,100%);fill-opacity:1;" d="M 163.695312 328.414062 L 163.582031 328.542969 L 267.046875 328.542969 C 274.0625 323.683594 269.621094 303.730469 270.582031 291.390625 C 245.179688 272.441406 264.722656 231.347656 258.160156 224.109375 C 246.550781 211.3125 218.902344 213.046875 218.902344 213.046875 L 210.195312 213.046875 C 210.195312 213.046875 182.546875 211.3125 170.941406 224.109375 C 164.914062 230.75 172.945312 248.179688 164.675781 277.402344 C 160.414062 292.460938 158.808594 286.648438 159.175781 289.421875 C 160.992188 303.03125 156.527344 325.808594 163.695312 328.414062 "/>
</g>
<path style=" stroke:none;fill-rule:nonzero;fill:rgb(91.369629%,91.369629%,91.369629%);fill-opacity:1;" d="M 217.6875 264.394531 C 210.570312 264.394531 202.9375 261.785156 196.28125 255.988281 C 184.460938 245.710938 180.289062 236.5 177.066406 221.0625 C 177.429688 221.476562 177.835938 221.894531 178.28125 222.289062 C 179.253906 224.886719 180.726562 227.789062 182.574219 230.769531 C 181.238281 229.71875 179.988281 228.679688 178.890625 227.660156 C 182.929688 238.808594 192.753906 253.082031 212.121094 255.625 C 213.207031 255.828125 214.285156 255.933594 215.347656 255.933594 C 215.957031 255.972656 216.558594 255.988281 217.148438 255.988281 C 234.230469 255.988281 243.515625 240.765625 246.035156 224.40625 C 245.464844 225.132812 244.867188 225.925781 244.25 226.757812 C 244.945312 224.539062 245.46875 222.441406 245.804688 220.574219 C 247.046875 220.371094 248.277344 220.15625 249.503906 219.925781 C 247.6875 228.480469 244.175781 243.082031 240.199219 251.25 C 236.167969 259.523438 227.40625 264.394531 217.6875 264.394531 "/>
<path style=" stroke:none;fill-rule:nonzero;fill:rgb(32.548523%,17.649841%,7.058716%);fill-opacity:1;" d="M 159.175781 289.421875 C 159.175781 289.414062 159.175781 289.402344 159.171875 289.394531 C 159.175781 289.402344 159.175781 289.414062 159.175781 289.421875 "/>
<g clip-path="url(#clip4)" clip-rule="nonzero">
<path style=" stroke:none;fill-rule:nonzero;fill:rgb(91.369629%,91.369629%,91.369629%);fill-opacity:1;" d="M 159.511719 314.261719 C 159.441406 306.339844 160.257812 296.695312 159.175781 289.421875 C 159.175781 289.414062 159.175781 289.402344 159.171875 289.394531 C 159.152344 289.21875 159.207031 289.050781 159.21875 288.875 C 159.898438 293.550781 160.433594 304.183594 161.996094 313.507812 C 161.226562 313.609375 160.390625 313.867188 159.511719 314.261719 "/>
</g>
<path style=" stroke:none;fill-rule:nonzero;fill:rgb(97.648621%,66.668701%,47.059631%);fill-opacity:1;" d="M 245.808594 166.734375 C 259.097656 150.46875 167.792969 149.488281 177.753906 166.734375 C 187.710938 183.984375 185.738281 202.71875 177.753906 213.273438 C 172.242188 220.566406 195.871094 255.929688 215.347656 255.933594 C 237.941406 255.945312 248.722656 218.863281 245.808594 213.273438 C 239.863281 201.882812 232.519531 183.011719 245.808594 166.734375 "/>
<path style=" stroke:none;fill-rule:nonzero;fill:rgb(86.268616%,79.219055%,74.508667%);fill-opacity:1;" d="M 217.148438 255.988281 C 216.558594 255.988281 215.957031 255.972656 215.347656 255.933594 C 215.351562 255.933594 215.355469 255.933594 215.355469 255.933594 C 230.441406 255.933594 240.253906 239.40625 244.25 226.757812 C 244.867188 225.925781 245.464844 225.132812 246.035156 224.40625 C 243.515625 240.765625 234.230469 255.988281 217.148438 255.988281 M 212.121094 255.625 C 192.753906 253.082031 182.929688 238.808594 178.890625 227.660156 C 179.988281 228.679688 181.238281 229.71875 182.574219 230.769531 C 189.316406 241.640625 201.078125 253.574219 212.121094 255.625 "/>
<path style=" stroke:none;fill-rule:nonzero;fill:rgb(92.158508%,58.81958%,39.219666%);fill-opacity:1;" d="M 215.355469 255.933594 C 215.355469 255.933594 215.351562 255.933594 215.347656 255.933594 C 214.246094 255.871094 213.167969 255.765625 212.121094 255.625 C 201.078125 253.574219 189.316406 241.640625 182.574219 230.769531 C 188.535156 235.4375 196.296875 240.21875 201.0625 243.871094 C 206.519531 248.042969 211.152344 250.109375 215.703125 250.109375 C 220.605469 250.109375 225.414062 247.71875 231.0625 243.003906 C 234.96875 239.742188 240.074219 232.347656 244.25 226.757812 C 240.253906 239.40625 230.441406 255.933594 215.355469 255.933594 "/>
<g clip-path="url(#clip5)" clip-rule="nonzero">
<path style=" stroke:none;fill-rule:nonzero;fill:rgb(97.648621%,66.668701%,47.059631%);fill-opacity:1;" d="M 258.632812 226.03125 C 286.671875 234.164062 293.34375 284.304688 292.535156 296.976562 C 291.5625 312.273438 245.023438 330.933594 245.023438 330.933594 C 245.023438 330.933594 230.847656 323.128906 238.015625 317.269531 C 245.1875 311.410156 254.046875 291.339844 269.359375 291.988281 C 269.359375 291.988281 265.480469 291.769531 259.613281 281.683594 C 253.75 271.589844 258.632812 226.03125 258.632812 226.03125 "/>
</g>
<g clip-path="url(#clip6)" clip-rule="nonzero">
<path style=" stroke:none;fill-rule:nonzero;fill:rgb(97.648621%,66.668701%,47.059631%);fill-opacity:1;" d="M 169.523438 226.03125 C 141.488281 234.164062 134.820312 284.304688 135.625 296.976562 C 136.601562 312.273438 183.132812 330.933594 183.132812 330.933594 C 183.132812 330.933594 197.316406 323.128906 190.144531 317.269531 C 182.976562 311.410156 174.121094 291.339844 158.796875 291.988281 C 158.796875 291.988281 162.679688 291.769531 168.542969 281.683594 C 174.410156 271.589844 169.523438 226.03125 169.523438 226.03125 "/>
</g>
<path style=" stroke:none;fill-rule:nonzero;fill:rgb(97.648621%,66.668701%,47.059631%);fill-opacity:1;" d="M 326.375 137.917969 C 326.375 75.796875 274.417969 25.441406 210.328125 25.441406 C 146.242188 25.441406 94.289062 75.796875 94.289062 137.917969 C 94.289062 188.777344 129.125 213.585938 176.933594 220.90625 C 181.964844 226.863281 194.992188 231.117188 210.328125 231.117188 C 225.660156 231.117188 238.691406 226.863281 243.722656 220.90625 C 291.527344 213.585938 326.375 188.777344 326.375 137.917969 "/>
<path style=" stroke:none;fill-rule:nonzero;fill:rgb(92.158508%,58.81958%,39.219666%);fill-opacity:1;" d="M 310.777344 166.769531 C 307.378906 151.386719 297.382812 138.585938 296.59375 122.199219 C 296.574219 121.820312 296.53125 121.449219 296.472656 121.070312 C 303.140625 120.976562 310.4375 120.21875 318.621094 118.4375 C 318.449219 118.984375 318.292969 119.535156 318.132812 120.082031 C 307.6875 126.878906 303.628906 139.363281 309.09375 148.382812 C 311.125 151.738281 312.132812 153.601562 313.152344 154.855469 C 312.589844 158.859375 311.855469 162.839844 310.777344 166.769531 M 111.808594 165.238281 C 112.152344 164.421875 112.460938 163.574219 112.671875 162.652344 C 113.410156 159.433594 113.222656 156.261719 113.195312 153.011719 C 113.175781 151.089844 112.597656 149.292969 111.660156 147.734375 C 111.667969 147.289062 111.667969 146.839844 111.667969 146.394531 C 114.238281 140.480469 113.179688 133.460938 109.25 127.578125 C 108.632812 125.199219 107.890625 122.820312 107.011719 120.449219 C 119.136719 115.078125 149.679688 99.199219 151.511719 80.894531 C 152.035156 82.558594 153.789062 84.90625 156.300781 87.5 C 156.199219 87.492188 156.101562 87.492188 156.003906 87.492188 C 151.394531 87.492188 146.597656 90.472656 145.722656 95.136719 C 144.457031 101.972656 136.691406 105.355469 131.835938 109.792969 C 126.144531 114.984375 123.476562 123.117188 121.984375 130.398438 C 119.234375 143.820312 123.222656 160.085938 111.808594 165.238281 M 258.164062 115.425781 C 257.511719 115.375 256.851562 115.320312 256.171875 115.261719 C 249.039062 114.613281 242 113.363281 235.011719 111.859375 C 229.667969 108.914062 217.496094 100.75 207.773438 81.164062 C 207.808594 81.21875 207.847656 81.277344 207.882812 81.332031 C 207.09375 79.753906 206.3125 78.132812 205.554688 76.398438 C 217.554688 93.355469 229.734375 103.019531 241.207031 108.894531 C 240.652344 109.328125 240.363281 109.605469 240.363281 109.605469 L 240.355469 109.609375 L 240.304688 109.914062 C 240.351562 110.007812 240.445312 110.0625 240.542969 110.0625 C 240.578125 110.0625 240.621094 110.054688 240.65625 110.035156 C 240.65625 110.035156 241.082031 109.828125 241.871094 109.542969 C 241.980469 109.5 242.105469 109.457031 242.230469 109.414062 C 247.742188 112.140625 253.089844 114.015625 258.164062 115.425781 M 215.554688 107.320312 C 204.121094 104.714844 192.191406 102.285156 180.996094 98.390625 C 180.800781 98.066406 180.613281 97.742188 180.425781 97.414062 C 180.414062 97.394531 180.398438 97.382812 180.386719 97.367188 C 175.132812 87.90625 173.066406 75.035156 173.066406 75.035156 C 173.066406 75.035156 176.375 79.90625 182.703125 86.121094 C 188.140625 91.457031 195.820312 97.785156 205.554688 102.867188 C 208.703125 104.507812 212.046875 105.992188 215.554688 107.320312 "/>
<path style=" stroke:none;fill-rule:nonzero;fill:rgb(29.40979%,13.729858%,6.269836%);fill-opacity:1;" d="M 252.203125 219.394531 C 255.308594 218.757812 258.34375 218.042969 261.3125 217.242188 C 258.34375 218.042969 255.304688 218.757812 252.203125 219.394531 M 261.371094 217.222656 C 261.375 217.222656 261.375 217.222656 261.382812 217.222656 C 261.375 217.222656 261.375 217.222656 261.371094 217.222656 "/>
<path style=" stroke:none;fill-rule:nonzero;fill:rgb(94.509888%,87.059021%,81.568909%);fill-opacity:1;" d="M 249.503906 219.925781 C 250.40625 219.753906 251.308594 219.574219 252.203125 219.394531 C 251.308594 219.574219 250.40625 219.753906 249.503906 219.925781 "/>
<path style=" stroke:none;fill-rule:nonzero;fill:rgb(86.268616%,79.219055%,74.508667%);fill-opacity:1;" d="M 245.804688 220.574219 C 247.046875 220.371094 248.277344 220.152344 249.503906 219.925781 C 248.277344 220.15625 247.046875 220.371094 245.804688 220.574219 "/>
<path style=" stroke:none;fill-rule:nonzero;fill:rgb(92.158508%,58.81958%,39.219666%);fill-opacity:1;" d="M 243.792969 220.898438 C 244.464844 220.792969 245.136719 220.683594 245.804688 220.574219 C 245.136719 220.683594 244.464844 220.792969 243.792969 220.898438 "/>
<path style=" stroke:none;fill-rule:nonzero;fill:rgb(92.158508%,58.81958%,39.219666%);fill-opacity:1;" d="M 210.328125 231.117188 C 194.992188 231.117188 181.964844 226.863281 176.933594 220.90625 C 136.628906 214.734375 105.539062 196.128906 96.773438 159.964844 C 100.9375 158.253906 103.121094 157.480469 104.601562 156.582031 C 106.65625 160.007812 108.914062 163.351562 111.351562 166.628906 C 131.152344 193.199219 174.070312 217.339844 206.558594 219.832031 C 208.894531 220.011719 211.160156 220.101562 213.371094 220.101562 C 244.59375 220.101562 264.1875 202.988281 294.355469 190.230469 C 303.429688 186.386719 311.464844 180.835938 318.828125 174.320312 C 308.347656 196.410156 287.660156 210.117188 261.382812 217.222656 C 261.375 217.222656 261.375 217.222656 261.371094 217.222656 C 261.355469 217.226562 261.332031 217.238281 261.3125 217.242188 C 258.34375 218.042969 255.308594 218.757812 252.203125 219.394531 C 251.308594 219.574219 250.40625 219.753906 249.503906 219.925781 C 248.277344 220.152344 247.046875 220.371094 245.804688 220.574219 C 245.136719 220.683594 244.464844 220.792969 243.792969 220.898438 C 243.769531 220.898438 243.746094 220.902344 243.722656 220.90625 C 238.691406 226.863281 225.660156 231.117188 210.328125 231.117188 "/>
<path style=" stroke:none;fill-rule:nonzero;fill:rgb(97.648621%,66.668701%,47.059631%);fill-opacity:1;" d="M 349.0625 124.230469 C 354.660156 133.472656 339.945312 167.074219 324.375 160.554688 C 312.484375 155.578125 314.695312 157.617188 309.09375 148.382812 C 303.492188 139.132812 307.902344 126.246094 318.941406 119.582031 C 329.976562 112.910156 343.460938 114.996094 349.0625 124.230469 "/>
<path style=" stroke:none;fill-rule:nonzero;fill:rgb(92.158508%,58.81958%,39.219666%);fill-opacity:1;" d="M 326.367188 148.140625 C 321.4375 144.628906 326.628906 128.929688 331.617188 124.886719 C 333.703125 123.191406 335.847656 122.386719 337.753906 122.386719 C 340.410156 122.386719 342.597656 123.949219 343.488281 126.855469 C 345.011719 131.832031 340.175781 139.074219 337.632812 143.5 C 336.746094 143.269531 335.804688 143.125 334.839844 143.125 C 331.980469 143.125 328.890625 144.367188 326.367188 148.140625 "/>
<path style=" stroke:none;fill-rule:nonzero;fill:rgb(84.309387%,50.19989%,36.079407%);fill-opacity:1;" d="M 324.957031 153.417969 C 321.554688 144.832031 325.1875 121.8125 334.585938 120.476562 C 345.390625 118.933594 346.710938 132.066406 346.710938 132.066406 C 346.710938 132.066406 345.765625 120.351562 334.207031 125.316406 C 328.933594 127.585938 325.417969 144.019531 325.992188 146.46875 C 331.394531 137.351562 337.632812 143.5 337.632812 143.5 C 337.632812 143.5 328.125 143.648438 324.957031 153.417969 "/>
<path style=" stroke:none;fill-rule:nonzero;fill:rgb(97.648621%,66.668701%,47.059631%);fill-opacity:1;" d="M 70.675781 124.230469 C 65.074219 133.472656 79.789062 167.074219 95.355469 160.554688 C 107.253906 155.578125 105.035156 157.617188 110.640625 148.382812 C 116.242188 139.132812 111.828125 126.246094 100.792969 119.582031 C 89.757812 112.910156 76.269531 114.996094 70.675781 124.230469 "/>
<path style=" stroke:none;fill-rule:nonzero;fill:rgb(92.158508%,58.81958%,39.219666%);fill-opacity:1;" d="M 93.367188 148.140625 C 90.839844 144.367188 87.75 143.125 84.894531 143.125 C 83.925781 143.125 82.980469 143.269531 82.097656 143.5 C 79.558594 139.074219 74.722656 131.832031 76.242188 126.855469 C 77.132812 123.949219 79.320312 122.386719 81.980469 122.386719 C 83.886719 122.386719 86.035156 123.191406 88.117188 124.886719 C 93.101562 128.929688 98.296875 144.628906 93.367188 148.140625 "/>
<path style=" stroke:none;fill-rule:nonzero;fill:rgb(84.309387%,50.19989%,36.079407%);fill-opacity:1;" d="M 94.773438 153.417969 C 98.175781 144.832031 94.542969 121.8125 85.148438 120.476562 C 74.335938 118.933594 73.023438 132.066406 73.023438 132.066406 C 73.023438 132.066406 73.964844 120.351562 85.527344 125.316406 C 90.796875 127.585938 94.3125 144.019531 93.738281 146.46875 C 88.335938 137.351562 82.097656 143.5 82.097656 143.5 C 82.097656 143.5 91.605469 143.648438 94.773438 153.417969 "/>
<path style=" stroke:none;fill-rule:nonzero;fill:rgb(92.158508%,58.81958%,39.219666%);fill-opacity:1;" d="M 212.128906 170.667969 C 208.136719 170.667969 204.574219 168.839844 202.226562 165.972656 C 203.949219 166.84375 205.894531 167.339844 207.957031 167.339844 C 214.992188 167.339844 220.703125 161.640625 220.703125 154.609375 C 220.703125 151.488281 219.578125 148.632812 217.707031 146.417969 C 221.972656 148.488281 224.921875 152.84375 224.921875 157.894531 C 224.921875 164.949219 219.195312 170.667969 212.128906 170.667969 "/>
<path style=" stroke:none;fill-rule:nonzero;fill:rgb(20.779419%,12.159729%,9.01947%);fill-opacity:1;" d="M 268.371094 134.617188 C 268.371094 142.503906 260.878906 150.484375 252.195312 150.484375 C 243.511719 150.484375 239.023438 138.785156 239.023438 130.898438 C 239.023438 126.851562 243.960938 120.332031 252.652344 120.332031 C 261.332031 120.332031 268.371094 126.726562 268.371094 134.617188 "/>
<path style=" stroke:none;fill-rule:nonzero;fill:rgb(100%,100%,100%);fill-opacity:1;" d="M 265.417969 137.355469 C 265.417969 145.070312 259.152344 151.320312 251.429688 151.320312 C 243.703125 151.320312 237.4375 145.070312 237.4375 137.355469 C 237.4375 129.644531 243.703125 123.394531 251.429688 123.394531 C 259.152344 123.394531 265.417969 129.644531 265.417969 137.355469 "/>
<path style=" stroke:none;fill-rule:nonzero;fill:rgb(23.139954%,52.549744%,60.389709%);fill-opacity:1;" d="M 246.210938 128.324219 C 243.460938 128.324219 240.933594 129.210938 239.023438 130.898438 C 238.019531 132.824219 237.4375 135.15625 237.4375 137.484375 C 237.4375 142.871094 240.535156 147.503906 245.019531 149.832031 C 245.417969 149.875 245.808594 149.949219 246.210938 149.949219 C 252.195312 149.949219 257.046875 145.109375 257.046875 139.132812 C 257.046875 133.164062 252.195312 128.324219 246.210938 128.324219 "/>
<path style=" stroke:none;fill-rule:nonzero;fill:rgb(29.40979%,56.469727%,63.919067%);fill-opacity:1;" d="M 250.980469 137.128906 C 250.6875 136.492188 250.28125 135.921875 249.792969 135.4375 C 250.789062 133.78125 251.644531 132.03125 252.324219 130.214844 C 253.820312 131.242188 255.039062 132.628906 255.863281 134.253906 C 256.304688 135.125 253.589844 136.4375 250.980469 137.128906 "/>
<path style=" stroke:none;fill-rule:nonzero;fill:rgb(20.779419%,12.159729%,9.01947%);fill-opacity:1;" d="M 267.515625 137.710938 C 272.730469 139.132812 273.011719 132.734375 273.011719 132.734375 C 273.011719 132.734375 270.449219 135.410156 268.007812 133.238281 C 266.109375 131.550781 266.050781 136.898438 267.515625 137.710938 "/>
<path style=" stroke:none;fill-rule:nonzero;fill:rgb(13.729858%,30.979919%,36.079407%);fill-opacity:1;" d="M 251.484375 139.460938 C 251.484375 142.574219 248.960938 145.097656 245.839844 145.097656 C 242.726562 145.097656 240.199219 142.574219 240.199219 139.460938 C 240.199219 136.355469 242.726562 133.824219 245.839844 133.824219 C 248.960938 133.824219 251.484375 136.355469 251.484375 139.460938 "/>
<path style=" stroke:none;fill-rule:nonzero;fill:rgb(77.648926%,81.959534%,83.918762%);fill-opacity:1;" d="M 239.023438 130.898438 C 239.046875 130.878906 239.070312 130.855469 239.09375 130.835938 C 239.070312 130.855469 239.046875 130.878906 239.023438 130.898438 M 239.101562 130.832031 C 239.105469 130.828125 239.109375 130.824219 239.113281 130.820312 C 239.109375 130.824219 239.105469 130.828125 239.101562 130.832031 "/>
<path style=" stroke:none;fill-rule:nonzero;fill:rgb(18.03894%,43.528748%,50.588989%);fill-opacity:1;" d="M 240.480469 146.085938 C 238.613281 143.753906 237.46875 140.820312 237.4375 137.597656 C 237.4375 137.59375 237.4375 137.59375 237.4375 137.589844 C 237.4375 137.582031 237.4375 137.570312 237.4375 137.5625 C 237.4375 137.558594 237.4375 137.558594 237.4375 137.554688 C 237.4375 137.542969 237.4375 137.535156 237.4375 137.527344 C 237.4375 137.527344 237.4375 137.519531 237.4375 137.515625 C 237.4375 137.507812 237.4375 137.492188 237.4375 137.484375 C 237.4375 135.15625 238.019531 132.824219 239.023438 130.898438 C 239.046875 130.878906 239.070312 130.855469 239.09375 130.835938 C 239.09375 130.835938 239.097656 130.832031 239.101562 130.832031 C 239.105469 130.828125 239.109375 130.824219 239.113281 130.820312 C 240.953125 129.234375 243.363281 128.394531 245.972656 128.347656 C 246.429688 130.109375 246.703125 132.007812 246.726562 133.894531 C 246.4375 133.851562 246.140625 133.824219 245.839844 133.824219 C 242.726562 133.824219 240.199219 136.355469 240.199219 139.460938 C 240.199219 141.503906 241.289062 143.296875 242.917969 144.28125 C 242.503906 144.660156 242.046875 145.007812 241.550781 145.320312 C 241.167969 145.558594 240.8125 145.816406 240.480469 146.085938 "/>
<path style=" stroke:none;fill-rule:nonzero;fill:rgb(10.978699%,26.269531%,30.589294%);fill-opacity:1;" d="M 242.917969 144.28125 C 241.289062 143.296875 240.199219 141.503906 240.199219 139.460938 C 240.199219 136.355469 242.726562 133.824219 245.839844 133.824219 C 246.140625 133.824219 246.4375 133.851562 246.726562 133.894531 C 246.773438 137.84375 245.710938 141.746094 242.917969 144.28125 "/>
<path style=" stroke:none;fill-rule:nonzero;fill:rgb(100%,100%,100%);fill-opacity:1;" d="M 259.378906 140.792969 L 248.136719 139.132812 L 259.460938 138.433594 Z M 259.378906 140.792969 "/>
<path style=" stroke:none;fill-rule:nonzero;fill:rgb(100%,100%,100%);fill-opacity:1;" d="M 260.726562 137.175781 L 249.40625 138.246094 L 258.644531 136.554688 Z M 260.726562 137.175781 "/>
<path style=" stroke:none;fill-rule:nonzero;fill:rgb(100%,100%,100%);fill-opacity:1;" d="M 256.933594 149.949219 L 248.136719 142.765625 L 255.898438 148.050781 Z M 256.933594 149.949219 "/>
<path style=" stroke:none;fill-rule:nonzero;fill:rgb(92.158508%,58.81958%,39.219666%);fill-opacity:1;" d="M 239.085938 162.167969 C 237.382812 162.167969 235.992188 161.441406 235.992188 160.539062 C 235.992188 159.648438 237.382812 158.914062 239.085938 158.914062 C 240.800781 158.914062 242.183594 159.648438 242.183594 160.539062 C 242.183594 161.441406 240.800781 162.167969 239.085938 162.167969 "/>
<path style=" stroke:none;fill-rule:nonzero;fill:rgb(92.158508%,58.81958%,39.219666%);fill-opacity:1;" d="M 247.242188 165.09375 C 245.707031 165.09375 244.46875 164.441406 244.46875 163.632812 C 244.46875 162.824219 245.707031 162.167969 247.242188 162.167969 C 248.773438 162.167969 250.011719 162.824219 250.011719 163.632812 C 250.011719 164.441406 248.773438 165.09375 247.242188 165.09375 "/>
<path style=" stroke:none;fill-rule:nonzero;fill:rgb(92.158508%,58.81958%,39.219666%);fill-opacity:1;" d="M 249.222656 158.914062 C 247.246094 158.914062 245.644531 158.183594 245.644531 157.285156 C 245.644531 156.386719 247.246094 155.660156 249.222656 155.660156 C 251.203125 155.660156 252.808594 156.386719 252.808594 157.285156 C 252.808594 158.183594 251.203125 158.914062 249.222656 158.914062 "/>
<path style=" stroke:none;fill-rule:nonzero;fill:rgb(92.158508%,58.81958%,39.219666%);fill-opacity:1;" d="M 255.648438 163.632812 C 254.078125 163.632812 252.808594 162.941406 252.808594 162.085938 C 252.808594 161.230469 254.078125 160.539062 255.648438 160.539062 C 257.210938 160.539062 258.480469 161.230469 258.480469 162.085938 C 258.480469 162.941406 257.210938 163.632812 255.648438 163.632812 "/>
<path style=" stroke:none;fill-rule:nonzero;fill:rgb(20.779419%,12.159729%,9.01947%);fill-opacity:1;" d="M 156.179688 134.617188 C 156.179688 142.503906 163.667969 150.484375 172.351562 150.484375 C 181.035156 150.484375 185.527344 138.785156 185.527344 130.898438 C 185.527344 126.851562 180.585938 120.332031 171.90625 120.332031 C 163.214844 120.332031 156.179688 126.726562 156.179688 134.617188 "/>
<path style=" stroke:none;fill-rule:nonzero;fill:rgb(100%,100%,100%);fill-opacity:1;" d="M 159.140625 137.355469 C 159.140625 145.070312 165.398438 151.320312 173.128906 151.320312 C 180.847656 151.320312 187.113281 145.070312 187.113281 137.355469 C 187.113281 129.644531 180.847656 123.394531 173.128906 123.394531 C 165.398438 123.394531 159.140625 129.644531 159.140625 137.355469 "/>
<path style=" stroke:none;fill-rule:nonzero;fill:rgb(23.139954%,52.549744%,60.389709%);fill-opacity:1;" d="M 178.335938 128.324219 C 181.085938 128.324219 183.617188 129.210938 185.527344 130.898438 C 186.53125 132.824219 187.113281 135.15625 187.113281 137.484375 C 187.113281 142.871094 184.015625 147.503906 179.53125 149.832031 C 179.132812 149.875 178.746094 149.949219 178.335938 149.949219 C 172.355469 149.949219 167.511719 145.109375 167.511719 139.132812 C 167.511719 133.164062 172.355469 128.324219 178.335938 128.324219 "/>
<path style=" stroke:none;fill-rule:nonzero;fill:rgb(29.40979%,56.469727%,63.919067%);fill-opacity:1;" d="M 173.570312 137.128906 C 170.964844 136.4375 168.25 135.125 168.6875 134.253906 C 169.507812 132.628906 170.726562 131.242188 172.226562 130.214844 C 172.90625 132.03125 173.757812 133.78125 174.757812 135.441406 C 174.265625 135.921875 173.863281 136.492188 173.570312 137.128906 "/>
<path style=" stroke:none;fill-rule:nonzero;fill:rgb(20.779419%,12.159729%,9.01947%);fill-opacity:1;" d="M 157.035156 137.710938 C 151.816406 139.132812 151.535156 132.734375 151.535156 132.734375 C 151.535156 132.734375 154.101562 135.410156 156.546875 133.238281 C 158.441406 131.550781 158.503906 136.898438 157.035156 137.710938 "/>
<path style=" stroke:none;fill-rule:nonzero;fill:rgb(13.729858%,30.979919%,36.079407%);fill-opacity:1;" d="M 173.066406 139.460938 C 173.066406 142.574219 175.59375 145.097656 178.707031 145.097656 C 181.820312 145.097656 184.351562 142.574219 184.351562 139.460938 C 184.351562 136.355469 181.820312 133.824219 178.707031 133.824219 C 175.59375 133.824219 173.066406 136.355469 173.066406 139.460938 "/>
<path style=" stroke:none;fill-rule:nonzero;fill:rgb(76.078796%,54.899597%,39.99939%);fill-opacity:1;" d="M 187.109375 137.597656 C 187.109375 137.59375 187.109375 137.59375 187.109375 137.59375 C 187.109375 137.59375 187.109375 137.59375 187.109375 137.597656 M 187.113281 137.5625 C 187.113281 137.558594 187.113281 137.558594 187.113281 137.554688 C 187.113281 137.558594 187.113281 137.558594 187.113281 137.5625 M 187.113281 137.527344 C 187.113281 137.527344 187.113281 137.519531 187.113281 137.515625 C 187.113281 137.519531 187.113281 137.527344 187.113281 137.527344 "/>
<path style=" stroke:none;fill-rule:nonzero;fill:rgb(77.648926%,81.959534%,83.918762%);fill-opacity:1;" d="M 185.527344 130.898438 C 185.511719 130.882812 185.496094 130.871094 185.484375 130.855469 C 185.496094 130.871094 185.511719 130.882812 185.527344 130.898438 M 185.476562 130.855469 C 185.472656 130.851562 185.464844 130.847656 185.460938 130.835938 C 185.464844 130.847656 185.472656 130.851562 185.476562 130.855469 M 185.445312 130.828125 C 185.445312 130.824219 185.441406 130.824219 185.4375 130.820312 C 185.441406 130.824219 185.445312 130.824219 185.445312 130.828125 "/>
<path style=" stroke:none;fill-rule:nonzero;fill:rgb(18.03894%,43.528748%,50.588989%);fill-opacity:1;" d="M 184.070312 146.085938 C 183.734375 145.816406 183.378906 145.558594 182.996094 145.320312 C 182.5 145.007812 182.046875 144.660156 181.632812 144.28125 C 183.261719 143.292969 184.351562 141.503906 184.351562 139.460938 C 184.351562 136.355469 181.820312 133.824219 178.707031 133.824219 C 178.40625 133.824219 178.109375 133.851562 177.824219 133.894531 C 177.847656 132.007812 178.117188 130.109375 178.582031 128.347656 C 181.195312 128.394531 183.59375 129.234375 185.4375 130.820312 C 185.441406 130.824219 185.445312 130.824219 185.445312 130.828125 C 185.449219 130.832031 185.453125 130.835938 185.460938 130.835938 C 185.464844 130.847656 185.472656 130.851562 185.476562 130.855469 C 185.476562 130.855469 185.484375 130.855469 185.484375 130.855469 C 185.496094 130.871094 185.511719 130.882812 185.527344 130.898438 C 186.53125 132.824219 187.113281 135.15625 187.113281 137.484375 C 187.113281 137.492188 187.113281 137.507812 187.113281 137.515625 C 187.113281 137.519531 187.113281 137.527344 187.113281 137.527344 C 187.113281 137.535156 187.113281 137.542969 187.113281 137.554688 C 187.113281 137.558594 187.113281 137.558594 187.113281 137.5625 C 187.109375 137.570312 187.109375 137.585938 187.109375 137.59375 C 187.109375 137.59375 187.109375 137.59375 187.109375 137.597656 C 187.085938 140.816406 185.941406 143.75 184.070312 146.085938 "/>
<path style=" stroke:none;fill-rule:nonzero;fill:rgb(10.978699%,26.269531%,30.589294%);fill-opacity:1;" d="M 181.632812 144.28125 C 178.835938 141.746094 177.777344 137.84375 177.824219 133.894531 C 178.109375 133.851562 178.40625 133.824219 178.707031 133.824219 C 181.820312 133.824219 184.351562 136.355469 184.351562 139.460938 C 184.351562 141.503906 183.261719 143.292969 181.632812 144.28125 "/>
<path style=" stroke:none;fill-rule:nonzero;fill:rgb(100%,100%,100%);fill-opacity:1;" d="M 165.167969 140.792969 L 176.414062 139.132812 L 165.089844 138.433594 Z M 165.167969 140.792969 "/>
<path style=" stroke:none;fill-rule:nonzero;fill:rgb(100%,100%,100%);fill-opacity:1;" d="M 163.832031 137.175781 L 175.144531 138.246094 L 165.902344 136.554688 Z M 163.832031 137.175781 "/>
<path style=" stroke:none;fill-rule:nonzero;fill:rgb(100%,100%,100%);fill-opacity:1;" d="M 167.617188 149.949219 L 176.414062 142.765625 L 168.65625 148.050781 Z M 167.617188 149.949219 "/>
<path style=" stroke:none;fill-rule:nonzero;fill:rgb(92.158508%,58.81958%,39.219666%);fill-opacity:1;" d="M 185.453125 162.167969 C 183.75 162.167969 182.363281 161.441406 182.363281 160.539062 C 182.363281 159.648438 183.75 158.914062 185.453125 158.914062 C 187.167969 158.914062 188.554688 159.648438 188.554688 160.539062 C 188.554688 161.441406 187.167969 162.167969 185.453125 162.167969 "/>
<path style=" stroke:none;fill-rule:nonzero;fill:rgb(92.158508%,58.81958%,39.219666%);fill-opacity:1;" d="M 177.3125 165.09375 C 175.777344 165.09375 174.542969 164.441406 174.542969 163.632812 C 174.542969 162.824219 175.777344 162.167969 177.3125 162.167969 C 178.84375 162.167969 180.078125 162.824219 180.078125 163.632812 C 180.078125 164.441406 178.84375 165.09375 177.3125 165.09375 "/>
<path style=" stroke:none;fill-rule:nonzero;fill:rgb(92.158508%,58.81958%,39.219666%);fill-opacity:1;" d="M 175.324219 158.914062 C 173.351562 158.914062 171.746094 158.183594 171.746094 157.285156 C 171.746094 156.386719 173.351562 155.660156 175.324219 155.660156 C 177.304688 155.660156 178.910156 156.386719 178.910156 157.285156 C 178.910156 158.183594 177.304688 158.914062 175.324219 158.914062 "/>
<path style=" stroke:none;fill-rule:nonzero;fill:rgb(92.158508%,58.81958%,39.219666%);fill-opacity:1;" d="M 168.910156 163.632812 C 167.335938 163.632812 166.066406 162.941406 166.066406 162.085938 C 166.066406 161.230469 167.335938 160.539062 168.910156 160.539062 C 170.472656 160.539062 171.746094 161.230469 171.746094 162.085938 C 171.746094 162.941406 170.472656 163.632812 168.910156 163.632812 "/>
<path style=" stroke:none;fill-rule:nonzero;fill:rgb(35.289001%,19.219971%,7.839966%);fill-opacity:1;" d="M 240.363281 109.605469 C 240.363281 109.605469 241.8125 108.210938 244.5 106.8125 C 245.167969 106.460938 245.90625 106.101562 246.714844 105.769531 C 247.523438 105.429688 248.398438 105.128906 249.328125 104.871094 C 250.253906 104.59375 251.234375 104.371094 252.25 104.234375 C 253.261719 104.070312 254.304688 104 255.355469 103.949219 L 256.933594 103.960938 C 257.441406 103.988281 257.941406 104.015625 258.441406 104.042969 C 258.945312 104.089844 259.496094 104.15625 260.015625 104.234375 C 260.519531 104.328125 261.011719 104.421875 261.5 104.507812 C 262.457031 104.753906 263.386719 104.992188 264.230469 105.3125 C 265.078125 105.628906 265.867188 105.960938 266.589844 106.292969 C 267.304688 106.617188 267.9375 106.988281 268.492188 107.308594 C 269.054688 107.636719 269.523438 107.949219 269.902344 108.230469 C 270.285156 108.503906 270.589844 108.734375 270.792969 108.910156 C 271.019531 109.101562 271.144531 109.210938 271.144531 109.210938 C 272.199219 110.046875 272.363281 111.582031 271.523438 112.632812 C 270.679688 113.683594 269.148438 113.855469 268.089844 113.011719 C 268.097656 113.023438 268.058594 113 267.886719 112.898438 C 267.71875 112.800781 267.472656 112.65625 267.152344 112.472656 C 266.820312 112.292969 266.417969 112.070312 265.957031 111.824219 C 265.484375 111.570312 264.9375 111.324219 264.34375 111.039062 C 263.753906 110.75 263.097656 110.46875 262.398438 110.195312 C 261.6875 109.9375 260.949219 109.636719 260.164062 109.390625 C 259.769531 109.265625 259.375 109.136719 258.96875 109.011719 C 258.574219 108.894531 258.171875 108.777344 257.769531 108.664062 C 257.328125 108.558594 256.878906 108.453125 256.433594 108.351562 L 255.128906 108.117188 C 254.253906 108 253.363281 107.890625 252.476562 107.871094 C 252.175781 107.851562 251.875 107.855469 251.574219 107.855469 C 251.4375 107.859375 251.296875 107.859375 251.15625 107.855469 C 250.71875 107.84375 250.28125 107.859375 249.859375 107.890625 C 249 107.921875 248.171875 108.039062 247.382812 108.140625 C 246.589844 108.246094 245.839844 108.394531 245.160156 108.550781 C 243.777344 108.863281 242.660156 109.265625 241.871094 109.542969 C 241.082031 109.828125 240.65625 110.035156 240.65625 110.035156 C 240.523438 110.097656 240.367188 110.042969 240.304688 109.914062 L 240.355469 109.609375 L 240.363281 109.605469 "/>
<path style=" stroke:none;fill-rule:nonzero;fill:rgb(35.289001%,19.219971%,7.839966%);fill-opacity:1;" d="M 180.472656 110.035156 C 180.472656 110.035156 180.046875 109.828125 179.257812 109.542969 C 178.46875 109.265625 177.351562 108.863281 175.972656 108.550781 C 175.285156 108.394531 174.542969 108.246094 173.746094 108.140625 C 172.953125 108.039062 172.132812 107.921875 171.273438 107.890625 C 170.847656 107.859375 170.414062 107.84375 169.96875 107.855469 C 169.535156 107.859375 169.097656 107.839844 168.65625 107.871094 C 167.769531 107.890625 166.878906 108 166 108.117188 L 164.699219 108.351562 C 164.25 108.453125 163.800781 108.558594 163.359375 108.660156 C 162.957031 108.777344 162.554688 108.894531 162.160156 109.011719 C 161.757812 109.136719 161.359375 109.265625 160.96875 109.390625 C 160.183594 109.636719 159.445312 109.9375 158.734375 110.195312 C 158.03125 110.46875 157.375 110.75 156.785156 111.039062 C 156.195312 111.324219 155.644531 111.570312 155.175781 111.824219 C 154.710938 112.070312 154.3125 112.292969 153.976562 112.472656 C 153.664062 112.65625 153.414062 112.800781 153.246094 112.898438 C 153.078125 113 153.03125 113.023438 153.039062 113.011719 C 151.988281 113.855469 150.449219 113.683594 149.605469 112.632812 C 148.761719 111.582031 148.933594 110.046875 149.984375 109.210938 C 149.984375 109.210938 150.109375 109.101562 150.335938 108.910156 C 150.539062 108.734375 150.84375 108.503906 151.222656 108.230469 C 151.605469 107.949219 152.074219 107.636719 152.640625 107.316406 C 153.191406 106.988281 153.824219 106.617188 154.542969 106.292969 C 155.257812 105.960938 156.050781 105.632812 156.894531 105.3125 C 157.746094 104.992188 158.671875 104.753906 159.628906 104.507812 C 160.117188 104.421875 160.613281 104.328125 161.117188 104.234375 C 161.628906 104.15625 162.1875 104.089844 162.691406 104.042969 C 163.1875 104.015625 163.6875 103.988281 164.195312 103.960938 L 165.773438 103.949219 C 166.828125 104 167.871094 104.070312 168.882812 104.234375 C 169.890625 104.375 170.875 104.59375 171.804688 104.871094 C 172.730469 105.128906 173.609375 105.429688 174.417969 105.769531 C 175.21875 106.101562 175.964844 106.460938 176.632812 106.8125 C 179.320312 108.210938 180.765625 109.605469 180.765625 109.605469 L 180.769531 109.609375 L 180.777344 109.980469 L 180.472656 110.035156 "/>
<path style=" stroke:none;fill-rule:nonzero;fill:rgb(35.289001%,19.219971%,7.839966%);fill-opacity:1;" d="M 338.386719 116.449219 C 338.335938 54.378906 275.421875 4.957031 213.570312 1.484375 C 193.339844 0.351562 159.140625 4.65625 151.511719 16.671875 C 106.425781 10.160156 69.457031 82.191406 73.957031 120.347656 C 73.957031 120.347656 85.65625 108.96875 102.113281 122.386719 C 102.488281 122.691406 149.230469 103.667969 151.511719 80.894531 C 153.660156 87.761719 176.832031 106.273438 187.113281 105.34375 C 176.832031 98.464844 173.066406 75.035156 173.066406 75.035156 C 173.066406 75.035156 184.507812 91.890625 205.554688 102.867188 C 214.714844 107.640625 225.527344 111.09375 237.347656 113.246094 C 240.898438 113.886719 219.605469 108.757812 205.554688 76.398438 C 226.359375 105.796875 247.699219 113.261719 264.964844 117.121094 C 280.664062 120.632812 298.203125 123.949219 324.382812 117.050781 C 332.507812 114.21875 338.386719 116.449219 338.386719 116.449219 "/>
<path style=" stroke:none;fill-rule:nonzero;fill:rgb(82.749939%,50.19989%,35.688782%);fill-opacity:1;" d="M 186.332031 105.378906 C 182.554688 105.378906 177.328125 103.128906 172.066406 99.933594 C 177.328125 103.128906 182.554688 105.378906 186.332031 105.378906 C 186.601562 105.378906 186.859375 105.371094 187.113281 105.34375 C 186.859375 105.371094 186.601562 105.378906 186.332031 105.378906 M 187.113281 105.34375 C 184.726562 103.746094 182.695312 101.261719 180.972656 98.386719 C 180.980469 98.386719 180.984375 98.390625 180.996094 98.390625 C 182.707031 101.261719 184.730469 103.746094 187.113281 105.34375 "/>
<path style=" stroke:none;fill-rule:nonzero;fill:rgb(78.42865%,44.709778%,30.198669%);fill-opacity:1;" d="M 180.996094 98.390625 C 180.984375 98.390625 180.980469 98.386719 180.972656 98.386719 C 180.773438 98.054688 180.578125 97.714844 180.386719 97.367188 C 180.398438 97.382812 180.414062 97.394531 180.425781 97.414062 C 180.613281 97.742188 180.800781 98.066406 180.996094 98.390625 "/>
<path style=" stroke:none;fill-rule:nonzero;fill:rgb(30.589294%,15.289307%,6.669617%);fill-opacity:1;" d="M 186.332031 105.378906 C 182.554688 105.378906 177.328125 103.128906 172.066406 99.933594 C 163.339844 94.628906 154.519531 86.707031 152.058594 82.089844 C 153.148438 81.929688 154.246094 81.84375 155.339844 81.84375 C 161.21875 81.84375 167.125 84.253906 173.046875 89.742188 C 175.640625 92.148438 178.035156 94.734375 180.386719 97.367188 C 180.578125 97.714844 180.773438 98.054688 180.972656 98.386719 C 182.695312 101.261719 184.726562 103.746094 187.113281 105.34375 C 186.859375 105.371094 186.601562 105.378906 186.332031 105.378906 "/>
<path style=" stroke:none;fill-rule:nonzero;fill:rgb(30.589294%,15.289307%,6.669617%);fill-opacity:1;" d="M 105.554688 121.078125 C 113.355469 110.910156 123.21875 101.386719 132.269531 93.039062 C 138.53125 87.261719 144.886719 83.410156 151.300781 82.230469 C 148.019531 100.761719 116.191406 116.550781 105.554688 121.078125 "/>
<path style=" stroke:none;fill-rule:nonzero;fill:rgb(78.42865%,44.709778%,30.198669%);fill-opacity:1;" d="M 205.554688 102.867188 C 195.820312 97.785156 188.140625 91.457031 182.703125 86.121094 C 188.152344 91.460938 195.828125 97.792969 205.554688 102.867188 "/>
<path style=" stroke:none;fill-rule:nonzero;fill:rgb(30.589294%,15.289307%,6.669617%);fill-opacity:1;" d="M 231.0625 111.933594 C 221.6875 109.789062 213.066406 106.78125 205.554688 102.867188 C 195.828125 97.792969 188.152344 91.460938 182.703125 86.121094 C 179.878906 83.34375 177.65625 80.839844 176.058594 78.910156 C 176.40625 78.425781 176.679688 77.863281 176.789062 77.1875 C 188.488281 78.589844 196.925781 87.992188 206.035156 95.003906 C 214.007812 101.128906 222.773438 106.253906 231.0625 111.933594 "/>
<path style=" stroke:none;fill-rule:nonzero;fill:rgb(78.42865%,44.709778%,30.198669%);fill-opacity:1;" d="M 207.882812 81.332031 C 207.847656 81.277344 207.808594 81.21875 207.773438 81.164062 C 207.019531 79.648438 206.28125 78.058594 205.554688 76.398438 C 206.3125 78.132812 207.09375 79.753906 207.882812 81.332031 "/>
<path style=" stroke:none;fill-rule:nonzero;fill:rgb(30.589294%,15.289307%,6.669617%);fill-opacity:1;" d="M 294.996094 121.066406 C 283.535156 121.066406 273.945312 119.128906 264.964844 117.121094 C 255.484375 115.003906 244.785156 111.773438 233.613281 104.453125 C 232.992188 104.027344 232.375 103.609375 231.757812 103.1875 C 223.15625 97.21875 214.308594 88.765625 205.554688 76.398438 C 206.28125 78.058594 207.019531 79.648438 207.773438 81.164062 C 206.699219 79.515625 205.765625 77.804688 205.121094 75.96875 C 215.144531 78.285156 222.929688 85.386719 231.117188 91.601562 C 239.914062 98.261719 250.433594 102.285156 260.632812 106.300781 C 272.320312 110.898438 284.359375 113.238281 296.882812 113.261719 C 305.523438 113.273438 313.5 114.832031 320.707031 117.949219 C 311.0625 120.210938 302.613281 121.066406 294.996094 121.066406 "/>
<path style=" stroke:none;fill-rule:nonzero;fill:rgb(39.99939%,22.349548%,8.239746%);fill-opacity:1;" d="M 302.859375 44.007812 C 302.859375 44.007812 279.996094 33.027344 266.296875 27.789062 C 268.503906 30.460938 271.839844 32.917969 274.617188 34.792969 C 269.859375 34.011719 264.730469 32.175781 259.886719 31.148438 C 256.078125 30.34375 251.140625 28.320312 246.9375 28.320312 C 245.992188 28.320312 245.089844 28.429688 244.246094 28.667969 C 244.335938 28.726562 244.4375 28.796875 244.539062 28.859375 C 238.117188 26.777344 231.394531 25.167969 224.464844 24.128906 C 221.207031 21.269531 215.273438 21.605469 212.371094 18.601562 C 213.597656 18.632812 214.84375 18.648438 216.101562 18.648438 C 219.226562 18.648438 222.433594 18.546875 225.671875 18.347656 C 221.859375 16.5 215.710938 16.40625 211.332031 15.667969 C 208.019531 15.109375 204.742188 14.898438 201.4375 14.898438 C 199.007812 14.898438 196.5625 15.015625 194.082031 15.183594 C 190.699219 15.414062 187.3125 15.488281 183.921875 15.488281 C 181.097656 15.488281 178.265625 15.4375 175.433594 15.386719 C 172.601562 15.335938 169.761719 15.289062 166.921875 15.289062 C 166.027344 15.289062 165.132812 15.296875 164.238281 15.304688 C 166.792969 13.015625 171.96875 12.984375 175.171875 11.796875 C 179.625 10.148438 183.960938 9.601562 188.507812 8.335938 C 195.070312 6.503906 201.679688 5.75 208.289062 5.75 C 220.863281 5.75 233.460938 8.496094 245.800781 11.828125 C 273.757812 19.246094 302.859375 44.007812 302.859375 44.007812 "/>
<path style=" stroke:none;fill-rule:nonzero;fill:rgb(39.99939%,22.349548%,8.239746%);fill-opacity:1;" d="M 121.652344 48.402344 C 122.90625 45.335938 124.566406 42.261719 126.203125 39.285156 C 127.621094 36.707031 131.625 33.617188 132.058594 30.769531 C 131.371094 31.046875 130.367188 30.957031 129.652344 31.304688 C 130.390625 30.125 131.371094 28.960938 132.214844 27.796875 C 132.035156 27.789062 131.855469 27.78125 131.664062 27.78125 C 125.164062 27.78125 114.984375 34.636719 112.050781 40.417969 C 114.441406 35.585938 120.085938 27.910156 125.238281 25.855469 C 124.804688 25.773438 124.3125 25.734375 123.78125 25.734375 C 122.011719 25.734375 119.894531 26.164062 118.738281 26.796875 C 120.53125 25.242188 121.835938 23.292969 124.292969 22.246094 C 126.507812 21.300781 129.058594 21.363281 131.113281 20.714844 L 131.828125 20.570312 C 132.949219 17.4375 137.667969 17.976562 140.304688 17.425781 C 138.316406 18.628906 136.585938 20.210938 134.945312 21.679688 C 135.523438 21.753906 136.113281 21.785156 136.707031 21.785156 C 138.855469 21.785156 141.082031 21.363281 143.324219 20.933594 C 145.558594 20.507812 147.804688 20.082031 149.976562 20.082031 C 150.457031 20.082031 150.929688 20.097656 151.402344 20.144531 C 146.507812 22.054688 141.070312 23.128906 137.21875 27.007812 C 137.417969 27.023438 137.625 27.03125 137.828125 27.03125 C 139.523438 27.03125 141.410156 26.519531 143.054688 26.058594 C 141.648438 27.007812 140.242188 27.953125 139.09375 29.210938 C 142.503906 28.753906 147.300781 28.003906 151.445312 28.003906 C 152.984375 28.003906 154.433594 28.109375 155.691406 28.371094 C 150.511719 29.945312 144.292969 30.585938 139.878906 34.398438 C 141.472656 34.046875 143.414062 33.324219 145.210938 33.324219 C 146.308594 33.324219 147.359375 33.59375 148.226562 34.386719 C 145.5 35.144531 142.976562 34.457031 140.28125 35.617188 C 137.84375 36.664062 135.414062 38.625 133.324219 40.054688 C 133.886719 39.300781 133.886719 38.550781 134.234375 37.757812 C 129.660156 39.632812 124.597656 44.507812 121.652344 48.402344 M 111.890625 40.734375 C 111.941406 40.632812 111.992188 40.527344 112.050781 40.417969 C 111.992188 40.527344 111.941406 40.632812 111.890625 40.734375 "/>
<path style=" stroke:none;fill-rule:nonzero;fill:rgb(30.589294%,15.289307%,6.669617%);fill-opacity:1;" d="M 97.777344 100.585938 C 97.777344 100.582031 97.777344 100.574219 97.777344 100.570312 C 97.796875 100.539062 97.816406 100.496094 97.835938 100.464844 C 97.816406 100.507812 97.796875 100.542969 97.777344 100.585938 M 313.507812 99.148438 C 313.476562 99.082031 313.441406 99.007812 313.40625 98.945312 C 313.441406 99 313.472656 99.054688 313.503906 99.113281 C 313.507812 99.128906 313.507812 99.136719 313.507812 99.148438 M 109.652344 84.226562 C 129.984375 62.359375 165.550781 44.90625 206.039062 44.90625 C 241.546875 44.90625 273.265625 58.324219 294.246094 76.371094 C 274.003906 61.050781 242.863281 52.6875 206.558594 52.6875 C 165.355469 52.6875 129.640625 64.371094 109.652344 84.226562 "/>
<path style=" stroke:none;fill-rule:nonzero;fill:rgb(68.629456%,19.999695%,39.608765%);fill-opacity:1;" d="M 206.039062 44.90625 C 257.539062 44.90625 301.082031 73.136719 315.433594 102.777344 C 312.59375 64.429688 264.710938 22.75 206.039062 22.75 C 147.382812 22.75 99.492188 64.429688 96.652344 102.777344 C 111.003906 73.136719 154.546875 44.90625 206.039062 44.90625 "/>
<path style=" stroke:none;fill-rule:nonzero;fill:rgb(30.589294%,15.289307%,6.669617%);fill-opacity:1;" d="M 315.433594 102.777344 C 315.421875 102.59375 315.40625 102.410156 315.386719 102.226562 C 315.40625 102.410156 315.421875 102.59375 315.433594 102.777344 M 96.652344 102.777344 C 96.652344 102.765625 96.65625 102.742188 96.65625 102.726562 C 96.65625 102.746094 96.652344 102.765625 96.652344 102.777344 M 96.65625 102.722656 C 96.65625 102.707031 96.65625 102.691406 96.660156 102.671875 C 96.65625 102.691406 96.65625 102.707031 96.65625 102.722656 M 96.660156 102.664062 C 96.660156 102.648438 96.660156 102.636719 96.667969 102.628906 C 96.660156 102.636719 96.660156 102.648438 96.660156 102.664062 M 96.667969 102.605469 C 96.667969 102.597656 96.667969 102.589844 96.667969 102.585938 C 96.667969 102.59375 96.667969 102.59375 96.667969 102.605469 "/>
<path style=" stroke:none;fill-rule:nonzero;fill:rgb(58.81958%,16.079712%,31.369019%);fill-opacity:1;" d="M 315.433594 102.777344 C 314.84375 101.558594 314.195312 100.332031 313.503906 99.113281 C 313.472656 99.054688 313.441406 99 313.40625 98.945312 C 297.300781 70.746094 255.316406 44.90625 206.039062 44.90625 C 155.890625 44.90625 113.28125 71.683594 97.835938 100.464844 C 97.816406 100.496094 97.796875 100.539062 97.777344 100.570312 C 97.386719 101.308594 97.007812 102.042969 96.652344 102.777344 C 96.652344 102.765625 96.65625 102.746094 96.65625 102.726562 C 96.65625 102.722656 96.65625 102.722656 96.65625 102.722656 C 96.65625 102.707031 96.65625 102.691406 96.660156 102.671875 C 96.660156 102.667969 96.660156 102.667969 96.660156 102.664062 C 96.660156 102.648438 96.660156 102.636719 96.667969 102.628906 C 96.667969 102.617188 96.667969 102.613281 96.667969 102.605469 C 96.667969 102.59375 96.667969 102.59375 96.667969 102.585938 C 96.964844 98.75 97.742188 94.878906 98.90625 91.019531 C 105.917969 80.253906 134.175781 45.597656 191.578125 39.347656 C 195.71875 38.894531 199.855469 38.683594 203.980469 38.683594 C 225.394531 38.683594 246.558594 44.285156 266.421875 50.691406 C 284.898438 56.648438 303.933594 75.414062 313.800781 93.234375 C 314.578125 96.234375 315.132812 99.238281 315.386719 102.226562 C 315.40625 102.410156 315.421875 102.59375 315.433594 102.777344 "/>
<path style=" stroke:none;fill-rule:nonzero;fill:rgb(83.918762%,23.139954%,54.508972%);fill-opacity:1;" d="M 245.675781 33.609375 C 233.777344 31.246094 219.257812 29.851562 203.566406 29.851562 C 187.871094 29.851562 173.34375 31.246094 161.453125 33.609375 C 171.398438 28.996094 186.5625 26.050781 203.566406 26.050781 C 220.558594 26.050781 235.726562 28.996094 245.675781 33.609375 "/>
<path style=" stroke:none;fill-rule:nonzero;fill:rgb(59.609985%,14.509583%,19.219971%);fill-opacity:1;" d="M 177.371094 181.125 C 178.257812 186.753906 192.59375 200.328125 211.1875 200.339844 C 229.65625 200.359375 244.023438 186.320312 244.023438 180.976562 C 233.566406 185.449219 227.480469 182.78125 211.1875 182.78125 C 194.890625 182.78125 189.234375 185.449219 177.371094 181.125 "/>
<path style=" stroke:none;fill-rule:nonzero;fill:rgb(79.219055%,19.60907%,26.669312%);fill-opacity:1;" d="M 189.792969 194.21875 C 195.554688 197.675781 202.957031 200.335938 211.1875 200.339844 C 219.691406 200.34375 227.328125 197.375 233.09375 193.640625 C 236.296875 191.566406 212.492188 191.09375 211.402344 193.695312 C 208.140625 190.660156 185.984375 191.929688 189.792969 194.21875 "/>
<path style=" stroke:none;fill-rule:nonzero;fill:rgb(100%,100%,100%);fill-opacity:1;" d="M 211.941406 190.65625 C 233.890625 190.65625 237.4375 188.632812 238.027344 187.972656 C 240.242188 185.476562 241.480469 183.167969 241.480469 181.597656 C 231.023438 186.078125 227.480469 182.78125 211.1875 182.78125 C 194.890625 182.78125 192.113281 186.613281 180.246094 182.285156 C 180.492188 183.808594 181.738281 185.929688 183.789062 188.203125 C 184.476562 188.964844 189.996094 190.65625 211.941406 190.65625 "/>
<path style=" stroke:none;fill-rule:nonzero;fill:rgb(84.309387%,50.19989%,36.079407%);fill-opacity:1;" d="M 172.984375 179.429688 C 172.984375 179.429688 174.121094 179.8125 176.128906 180.375 C 178.128906 180.941406 181.011719 181.699219 184.488281 182.257812 C 186.226562 182.519531 188.117188 182.707031 190.078125 182.6875 C 191.019531 182.683594 192.128906 182.597656 193.1875 182.550781 C 194.246094 182.476562 195.324219 182.398438 196.425781 182.324219 C 198.640625 182.148438 200.921875 181.882812 203.28125 181.710938 C 205.632812 181.53125 208.054688 181.386719 210.488281 181.367188 C 212.941406 181.355469 215.324219 181.554688 217.664062 181.65625 C 220.015625 181.796875 222.351562 182.042969 224.5625 182.199219 C 225.675781 182.292969 226.765625 182.386719 227.835938 182.472656 C 228.894531 182.539062 229.933594 182.605469 230.949219 182.667969 C 231.4375 182.6875 231.992188 182.746094 232.40625 182.746094 C 232.910156 182.746094 233.402344 182.734375 233.824219 182.699219 C 234.703125 182.65625 235.632812 182.519531 236.484375 182.378906 C 239.941406 181.761719 242.816406 180.941406 244.820312 180.371094 C 246.824219 179.792969 247.96875 179.429688 247.96875 179.429688 C 247.96875 179.429688 246.925781 180.015625 245.023438 180.90625 C 243.113281 181.78125 240.367188 183.007812 236.839844 183.984375 C 235.941406 184.21875 235.042969 184.449219 234 184.605469 C 233.46875 184.703125 232.984375 184.730469 232.488281 184.773438 C 231.910156 184.808594 231.453125 184.785156 230.914062 184.800781 C 229.878906 184.804688 228.816406 184.8125 227.726562 184.824219 C 226.640625 184.785156 225.539062 184.746094 224.414062 184.707031 C 222.164062 184.617188 219.886719 184.542969 217.546875 184.402344 C 215.191406 184.335938 212.808594 184.171875 210.496094 184.210938 C 208.15625 184.195312 205.804688 184.304688 203.472656 184.453125 C 201.148438 184.613281 198.824219 184.71875 196.570312 184.820312 C 195.441406 184.851562 194.308594 184.898438 193.226562 184.894531 C 192.128906 184.859375 191.136719 184.882812 190.03125 184.808594 C 187.886719 184.699219 185.929688 184.304688 184.164062 183.855469 C 180.625 182.941406 177.847656 181.777344 175.929688 180.90625 C 174.019531 180.03125 172.984375 179.429688 172.984375 179.429688 "/>
<path style=" stroke:none;fill-rule:nonzero;fill:rgb(84.309387%,50.19989%,36.079407%);fill-opacity:1;" d="M 201.0625 204.769531 C 201.0625 204.769531 201.457031 204.921875 202.109375 205.226562 C 202.433594 205.367188 202.828125 205.59375 203.28125 205.742188 C 203.742188 205.894531 204.21875 206.101562 204.765625 206.28125 C 205.339844 206.421875 205.921875 206.640625 206.5625 206.777344 C 207.207031 206.90625 207.863281 207.070312 208.574219 207.136719 C 208.929688 207.171875 209.277344 207.253906 209.640625 207.273438 C 210.007812 207.296875 210.371094 207.3125 210.742188 207.339844 C 211.480469 207.363281 212.238281 207.375 212.988281 207.335938 C 213.746094 207.308594 214.503906 207.25 215.246094 207.15625 C 215.996094 207.085938 216.722656 206.945312 217.445312 206.839844 C 218.144531 206.6875 218.847656 206.585938 219.492188 206.417969 C 220.148438 206.277344 220.757812 206.101562 221.339844 205.960938 C 221.910156 205.796875 222.433594 205.648438 222.90625 205.515625 C 223.359375 205.355469 223.773438 205.238281 224.117188 205.132812 C 224.78125 204.890625 225.1875 204.769531 225.1875 204.769531 C 225.1875 204.769531 224.910156 205.078125 224.378906 205.582031 C 223.828125 206.054688 223.011719 206.714844 221.925781 207.339844 C 220.847656 207.980469 219.503906 208.589844 218 209.078125 C 217.242188 209.289062 216.453125 209.535156 215.625 209.65625 C 214.804688 209.816406 213.953125 209.890625 213.101562 209.9375 C 212.246094 209.964844 211.386719 209.949219 210.546875 209.851562 C 209.707031 209.757812 208.882812 209.628906 208.105469 209.386719 C 207.316406 209.222656 206.605469 208.878906 205.925781 208.609375 C 205.242188 208.339844 204.660156 207.929688 204.109375 207.621094 C 203.570312 207.285156 203.125 206.875 202.722656 206.558594 C 202.300781 206.253906 202.050781 205.898438 201.796875 205.640625 C 201.324219 205.101562 201.0625 204.769531 201.0625 204.769531 "/>
<path style=" stroke:none;fill-rule:nonzero;fill:rgb(86.268616%,85.879517%,85.879517%);fill-opacity:1;" d="M 258.160156 224.109375 C 276.191406 226.03125 296.242188 272.0625 296.242188 272.0625 L 266.050781 290.871094 C 266.050781 290.871094 261.5 288.675781 256.46875 276.6875 C 249.914062 261.066406 254.785156 224.109375 258.160156 224.109375 "/>
<path style=" stroke:none;fill-rule:nonzero;fill:rgb(77.648926%,77.249146%,77.249146%);fill-opacity:1;" d="M 266.113281 227.503906 C 263.273438 225.898438 261.132812 224.324219 258.160156 224.109375 C 254.785156 224.109375 249.914062 261.066406 256.46875 276.6875 C 261.5 288.675781 266.050781 290.871094 266.050781 290.871094 L 274.261719 285.753906 C 256.242188 272.511719 251.796875 241.6875 266.113281 227.503906 "/>
<path style=" stroke:none;fill-rule:nonzero;fill:rgb(86.268616%,85.879517%,85.879517%);fill-opacity:1;" d="M 169.585938 225.84375 C 151.558594 227.765625 131.507812 273.796875 131.507812 273.796875 L 161.703125 292.601562 C 161.703125 292.601562 166.246094 290.402344 171.277344 278.417969 C 177.832031 262.800781 172.964844 225.84375 169.585938 225.84375 "/>
<path style=" stroke:none;fill-rule:nonzero;fill:rgb(77.648926%,77.249146%,77.249146%);fill-opacity:1;" d="M 161.632812 229.242188 C 164.472656 227.632812 166.613281 226.050781 169.585938 225.84375 C 172.964844 225.84375 177.832031 262.800781 171.277344 278.417969 C 166.246094 290.402344 161.703125 292.601562 161.703125 292.601562 L 153.488281 287.488281 C 171.507812 274.242188 175.945312 243.417969 161.632812 229.242188 "/>
</g>
</svg>
