<?xml version="1.0" encoding="UTF-8"?>
<svg xmlns="http://www.w3.org/2000/svg" xmlns:xlink="http://www.w3.org/1999/xlink" width="306pt" height="297.749991pt" viewBox="0 0 306 297.749991" version="1.2">
<defs>
<clipPath id="clip1">
  <path d="M 74 214 L 126 214 L 126 297.5 L 74 297.5 Z M 74 214 "/>
</clipPath>
<clipPath id="clip2">
  <path d="M 86 266 L 105 266 L 105 297.5 L 86 297.5 Z M 86 266 "/>
</clipPath>
<clipPath id="clip3">
  <path d="M 90 268 L 105 268 L 105 297.5 L 90 297.5 Z M 90 268 "/>
</clipPath>
<clipPath id="clip4">
  <path d="M 185 213 L 238 213 L 238 297.5 L 185 297.5 Z M 185 213 "/>
</clipPath>
<clipPath id="clip5">
  <path d="M 206 265 L 226 265 L 226 297.5 L 206 297.5 Z M 206 265 "/>
</clipPath>
<clipPath id="clip6">
  <path d="M 206 267 L 222 267 L 222 297.5 L 206 297.5 Z M 206 267 "/>
</clipPath>
<clipPath id="clip7">
  <path d="M 106 201 L 206 201 L 206 297.5 L 106 297.5 Z M 106 201 "/>
</clipPath>
<clipPath id="clip8">
  <path d="M 106 233 L 145 233 L 145 297.5 L 106 297.5 Z M 106 233 "/>
</clipPath>
<clipPath id="clip9">
  <path d="M 188 239 L 206 239 L 206 297.5 L 188 297.5 Z M 188 239 "/>
</clipPath>
</defs>
<g id="surface1">
<path style=" stroke:none;fill-rule:nonzero;fill:rgb(12.159729%,6.269836%,5.099487%);fill-opacity:1;" d="M 165.476562 253.992188 C 172.1875 238.882812 168.179688 222.136719 161.058594 207 C 149.160156 206.394531 142.265625 202.820312 139.339844 200.304688 C 147.367188 191.507812 120.113281 104.90625 93.210938 90.625 L 93.210938 90.621094 C 92.078125 90.15625 91.152344 89.167969 91.027344 87.632812 C 89.710938 71.609375 71.324219 63.582031 63.53125 51.277344 C 62.179688 51.089844 60.777344 51.230469 59.460938 51.859375 C 57.039062 53.007812 55.5625 55.34375 55.320312 57.886719 C 53.84375 57.679688 52.300781 57.867188 50.867188 58.554688 C 47.765625 60.027344 46.097656 63.292969 46.398438 66.597656 C 44.613281 66.472656 42.785156 66.738281 41.058594 67.558594 C 35.605469 70.148438 33.355469 76.800781 36.027344 82.410156 L 36.070312 82.492188 C 35.507812 82.617188 34.945312 82.792969 34.402344 83.050781 C 30.394531 84.957031 28.734375 89.84375 30.699219 93.96875 L 30.800781 94.140625 C 27.898438 96.425781 26.875 100.5625 28.574219 104.136719 C 28.726562 104.457031 28.921875 104.730469 29.113281 105.023438 C 24.867188 108.066406 23.304688 113.882812 25.691406 118.894531 C 26.953125 121.546875 29.105469 123.457031 31.585938 124.5 C 28.660156 127.273438 27.707031 131.765625 29.578125 135.699219 C 30.21875 137.039062 31.125 138.136719 32.183594 139.027344 C 29.691406 142.242188 29.050781 146.757812 30.957031 150.765625 C 32.730469 154.480469 36.214844 156.765625 39.945312 157.167969 C 37.898438 160.3125 37.476562 164.453125 39.25 168.164062 C 40.824219 171.476562 43.773438 173.648438 47.042969 174.371094 C 44.425781 177.589844 43.734375 182.210938 45.683594 186.296875 C 47.109375 189.300781 49.671875 191.355469 52.5625 192.257812 C 51.441406 195.074219 51.425781 198.355469 52.851562 201.355469 C 54.242188 204.277344 56.703125 206.308594 59.5 207.257812 C 58.46875 210.019531 58.496094 213.214844 59.886719 216.132812 C 61.839844 220.226562 65.882812 222.613281 70.042969 222.605469 C 69.410156 224.726562 69.507812 227.101562 70.550781 229.285156 C 72.421875 233.210938 76.625 235.21875 80.59375 234.402344 C 80.75 235.582031 81.039062 236.761719 81.582031 237.898438 C 84.148438 243.296875 90.332031 245.714844 95.65625 243.589844 C 95.792969 244.730469 96.074219 245.875 96.597656 246.976562 C 99.058594 252.148438 105.019531 254.453125 110.097656 252.328125 C 110.179688 252.523438 110.222656 252.722656 110.316406 252.917969 C 112.984375 258.527344 119.574219 260.980469 125.027344 258.386719 C 125.273438 258.269531 125.472656 258.101562 125.707031 257.972656 C 129.382812 262.21875 135.445312 263.730469 140.628906 261.269531 C 141.273438 260.957031 141.875 260.585938 142.449219 260.183594 C 145.097656 262.816406 149.121094 263.695312 152.601562 262.039062 C 154.871094 260.957031 156.457031 259.011719 157.183594 256.757812 C 159.003906 257.132812 160.933594 256.976562 162.726562 256.125 C 163.820312 255.601562 164.730469 254.859375 165.476562 253.992188 "/>
<path style=" stroke:none;fill-rule:nonzero;fill:rgb(12.159729%,6.269836%,5.099487%);fill-opacity:1;" d="M 141.296875 253.992188 C 134.597656 238.882812 138.601562 222.136719 145.722656 207 C 157.613281 206.394531 164.507812 202.820312 167.4375 200.304688 C 159.414062 191.507812 186.664062 104.90625 213.570312 90.625 L 213.570312 90.621094 C 214.699219 90.15625 215.625 89.167969 215.75 87.632812 C 217.0625 71.609375 235.457031 63.582031 243.246094 51.277344 C 244.597656 51.089844 246 51.230469 247.3125 51.859375 C 249.734375 53.007812 251.214844 55.34375 251.460938 57.886719 C 252.9375 57.679688 254.476562 57.867188 255.910156 58.554688 C 259.007812 60.027344 260.679688 63.292969 260.371094 66.597656 C 262.167969 66.472656 263.992188 66.738281 265.714844 67.558594 C 271.171875 70.148438 273.429688 76.800781 270.757812 82.410156 L 270.707031 82.492188 C 271.273438 82.617188 271.835938 82.792969 272.382812 83.050781 C 276.386719 84.957031 278.042969 89.84375 276.078125 93.96875 L 275.972656 94.140625 C 278.878906 96.425781 279.90625 100.5625 278.203125 104.136719 C 278.050781 104.457031 277.851562 104.730469 277.667969 105.023438 C 281.910156 108.066406 283.476562 113.882812 281.085938 118.894531 C 279.820312 121.546875 277.675781 123.457031 275.195312 124.5 C 278.117188 127.273438 279.074219 131.765625 277.199219 135.699219 C 276.558594 137.039062 275.65625 138.136719 274.59375 139.027344 C 277.085938 142.242188 277.730469 146.757812 275.816406 150.765625 C 274.050781 154.480469 270.566406 156.765625 266.832031 157.167969 C 268.875 160.3125 269.296875 164.453125 267.53125 168.164062 C 265.953125 171.476562 263.007812 173.648438 259.742188 174.371094 C 262.351562 177.589844 263.039062 182.210938 261.097656 186.296875 C 259.667969 189.300781 257.109375 191.355469 254.214844 192.257812 C 255.335938 195.074219 255.355469 198.355469 253.929688 201.355469 C 252.539062 204.277344 250.078125 206.308594 247.277344 207.257812 C 248.3125 210.019531 248.28125 213.214844 246.894531 216.132812 C 244.9375 220.226562 240.898438 222.613281 236.734375 222.605469 C 237.371094 224.726562 237.265625 227.101562 236.222656 229.285156 C 234.355469 233.210938 230.152344 235.21875 226.183594 234.402344 C 226.03125 235.582031 225.742188 236.761719 225.199219 237.898438 C 222.628906 243.296875 216.441406 245.714844 211.121094 243.589844 C 210.980469 244.730469 210.707031 245.875 210.179688 246.976562 C 207.714844 252.148438 201.761719 254.453125 196.675781 252.328125 C 196.597656 252.523438 196.558594 252.722656 196.464844 252.917969 C 193.796875 258.527344 187.207031 260.980469 181.753906 258.386719 C 181.507812 258.269531 181.300781 258.101562 181.074219 257.972656 C 177.398438 262.21875 171.328125 263.730469 166.152344 261.269531 C 165.5 260.957031 164.894531 260.585938 164.332031 260.183594 C 161.683594 262.816406 157.660156 263.695312 154.179688 262.039062 C 151.90625 260.957031 150.320312 259.011719 149.597656 256.757812 C 147.773438 257.132812 145.835938 256.976562 144.050781 256.125 C 142.957031 255.601562 142.050781 254.859375 141.296875 253.992188 "/>
<path style=" stroke:none;fill-rule:nonzero;fill:rgb(49.409485%,26.669312%,12.939453%);fill-opacity:1;" d="M 130.214844 256.859375 C 130.214844 245.289062 124.453125 229.890625 118.777344 229.890625 C 113.105469 229.890625 106.164062 256.863281 107.222656 269.917969 C 108.148438 281.449219 114.261719 277.808594 119.9375 277.808594 C 125.609375 277.808594 130.214844 268.425781 130.214844 256.859375 "/>
<g clip-path="url(#clip1)" clip-rule="nonzero">
<path style=" stroke:none;fill-rule:nonzero;fill:rgb(49.409485%,26.669312%,12.939453%);fill-opacity:1;" d="M 93.957031 297.878906 C 96.925781 287.402344 102.707031 273.386719 113.210938 254.152344 C 136.511719 218.359375 123.871094 199.644531 99.632812 228.578125 C 84.171875 246.957031 74.4375 275.195312 74.449219 297.878906 L 93.957031 297.878906 "/>
</g>
<g clip-path="url(#clip2)" clip-rule="nonzero">
<path style=" stroke:none;fill-rule:nonzero;fill:rgb(48.239136%,25.489807%,12.548828%);fill-opacity:1;" d="M 93.957031 297.878906 L 93.691406 297.878906 C 95.671875 290.570312 99.105469 281.808594 104.839844 270.1875 L 104.914062 270.238281 C 99.460938 281.550781 96.027344 290.578125 93.957031 297.878906 M 90.835938 297.878906 L 86.347656 297.878906 C 89.144531 288.089844 93.761719 278.328125 97.066406 270.375 C 97.585938 269.117188 98.144531 267.78125 98.726562 266.378906 L 101.304688 267.984375 L 101.640625 268.195312 C 98.097656 275.089844 93.914062 278.761719 92.109375 288.058594 C 91.488281 291.25 91.058594 294.550781 90.835938 297.878906 "/>
</g>
<g clip-path="url(#clip3)" clip-rule="nonzero">
<path style=" stroke:none;fill-rule:nonzero;fill:rgb(47.059631%,24.308777%,12.159729%);fill-opacity:1;" d="M 93.691406 297.878906 L 90.835938 297.878906 C 91.058594 294.550781 91.488281 291.25 92.109375 288.058594 C 93.914062 278.761719 98.097656 275.089844 101.640625 268.195312 L 104.839844 270.1875 C 99.105469 281.808594 95.671875 290.570312 93.691406 297.878906 "/>
</g>
<path style=" stroke:none;fill-rule:nonzero;fill:rgb(49.409485%,26.669312%,12.939453%);fill-opacity:1;" d="M 180.566406 256.023438 C 180.566406 244.453125 186.324219 229.058594 192.003906 229.058594 C 197.675781 229.058594 204.613281 256.027344 203.5625 269.082031 C 202.632812 280.613281 196.519531 276.972656 190.839844 276.972656 C 185.167969 276.972656 180.566406 267.59375 180.566406 256.023438 "/>
<g clip-path="url(#clip4)" clip-rule="nonzero">
<path style=" stroke:none;fill-rule:nonzero;fill:rgb(49.409485%,26.669312%,12.939453%);fill-opacity:1;" d="M 218.289062 297.878906 L 237.5 297.878906 C 237.578125 274.96875 227.335938 246.105469 211.296875 227.59375 C 186.636719 199.015625 174.277344 217.910156 198.09375 253.359375 C 209.253906 273.109375 215.265625 287.335938 218.289062 297.878906 "/>
</g>
<g clip-path="url(#clip5)" clip-rule="nonzero">
<path style=" stroke:none;fill-rule:nonzero;fill:rgb(48.239136%,25.489807%,12.548828%);fill-opacity:1;" d="M 225.933594 297.878906 L 221.183594 297.878906 C 220.929688 294.171875 220.425781 290.492188 219.683594 286.957031 C 217.765625 277.75 213.570312 274.128906 209.945312 267.382812 L 212.839844 265.582031 C 213.410156 266.898438 213.960938 268.160156 214.472656 269.34375 C 218.03125 277.570312 223.042969 287.734375 225.933594 297.878906 M 218.546875 297.878906 L 218.289062 297.878906 C 216.15625 290.441406 212.539062 281.171875 206.671875 269.421875 L 206.75 269.375 C 212.910156 281.4375 216.511719 290.398438 218.546875 297.878906 "/>
</g>
<g clip-path="url(#clip6)" clip-rule="nonzero">
<path style=" stroke:none;fill-rule:nonzero;fill:rgb(47.059631%,24.308777%,12.159729%);fill-opacity:1;" d="M 221.183594 297.878906 L 218.546875 297.878906 C 216.511719 290.398438 212.910156 281.4375 206.75 269.375 L 209.945312 267.382812 C 213.570312 274.128906 217.765625 277.75 219.683594 286.957031 C 220.425781 290.492188 220.929688 294.171875 221.183594 297.878906 "/>
</g>
<g clip-path="url(#clip7)" clip-rule="nonzero">
<path style=" stroke:none;fill-rule:nonzero;fill:rgb(90.589905%,89.408875%,72.549438%);fill-opacity:1;" d="M 107.277344 297.878906 L 204.515625 297.878906 C 205.992188 290.597656 204 278.796875 204.628906 270.699219 C 182.257812 253.992188 199.472656 217.765625 193.6875 211.382812 C 183.460938 200.105469 159.105469 201.625 159.105469 201.625 L 151.433594 201.625 C 151.433594 201.625 127.074219 200.105469 116.855469 211.382812 C 111.546875 217.238281 118.617188 232.601562 111.332031 258.371094 C 107.578125 271.644531 106.164062 266.519531 106.488281 268.960938 C 107.652344 277.648438 105.929688 290.539062 107.277344 297.878906 "/>
</g>
<g clip-path="url(#clip8)" clip-rule="nonzero">
<path style=" stroke:none;fill-rule:nonzero;fill:rgb(82.749939%,81.568909%,66.268921%);fill-opacity:1;" d="M 144.652344 297.878906 L 107.277344 297.878906 C 106.847656 295.558594 106.730469 292.679688 106.730469 289.554688 C 106.730469 285.617188 106.917969 281.292969 106.917969 277.195312 C 106.917969 274.792969 106.855469 272.472656 106.648438 270.351562 C 108.765625 269.472656 113.808594 266.617188 117.234375 258.453125 C 119.234375 253.683594 119.980469 246.722656 119.984375 239.660156 C 119.984375 237.527344 119.914062 235.382812 119.792969 233.285156 C 121.730469 238.035156 123.003906 242.808594 123.136719 248.734375 C 123.429688 261.515625 114.09375 272.5625 115.789062 285.453125 C 116.640625 291.898438 123.46875 293.980469 128.902344 294.972656 C 134.152344 295.933594 139.394531 296.941406 144.652344 297.878906 "/>
</g>
<g clip-path="url(#clip9)" clip-rule="nonzero">
<path style=" stroke:none;fill-rule:nonzero;fill:rgb(82.749939%,81.568909%,66.268921%);fill-opacity:1;" d="M 204.515625 297.878906 L 190.167969 297.878906 C 196.285156 293.570312 198.804688 284.679688 199.613281 277.679688 C 200.046875 273.914062 198.136719 270.195312 196.460938 267.007812 C 192.15625 258.808594 187.488281 253.1875 189.210938 243.09375 C 189.441406 241.734375 189.8125 240.417969 190.304688 239.144531 C 190.300781 239.316406 190.300781 239.488281 190.300781 239.660156 C 190.304688 246.722656 191.050781 253.683594 193.050781 258.453125 C 197.480469 269.023438 204.628906 270.699219 204.628906 270.699219 C 204.539062 271.859375 204.503906 273.097656 204.503906 274.390625 C 204.503906 279.546875 205.074219 285.527344 205.074219 290.792969 C 205.074219 293.394531 204.933594 295.820312 204.515625 297.878906 "/>
</g>
<path style=" stroke:none;fill-rule:nonzero;fill:rgb(25.878906%,74.508667%,57.249451%);fill-opacity:1;" d="M 194.910156 212.617188 C 214.253906 213.984375 231.226562 254.121094 231.226562 254.121094 L 204.628906 270.699219 C 204.628906 270.699219 197.480469 269.023438 193.050781 258.453125 C 187.273438 244.679688 191.9375 212.617188 194.910156 212.617188 "/>
<path style=" stroke:none;fill-rule:nonzero;fill:rgb(11.369324%,5.879211%,4.708862%);fill-opacity:1;" d="M 196.0625 212.742188 C 195.679688 212.683594 195.292969 212.640625 194.910156 212.617188 C 195.292969 212.640625 195.679688 212.683594 196.0625 212.742188 "/>
<path style=" stroke:none;fill-rule:nonzero;fill:rgb(23.919678%,67.83905%,52.159119%);fill-opacity:1;" d="M 204.628906 270.699219 C 204.628906 270.699219 197.480469 269.023438 193.050781 258.453125 C 191.050781 253.683594 190.304688 246.722656 190.300781 239.660156 C 190.300781 226.324219 192.964844 212.617188 194.910156 212.617188 C 195.292969 212.640625 195.679688 212.683594 196.0625 212.742188 C 198.285156 213.078125 200.476562 213.921875 202.605469 215.125 C 189.992188 227.632812 195.988281 254.515625 211.863281 266.1875 L 204.628906 270.699219 "/>
<path style=" stroke:none;fill-rule:nonzero;fill:rgb(25.878906%,74.508667%,57.249451%);fill-opacity:1;" d="M 115.375 212.617188 C 96.027344 213.984375 79.0625 254.121094 79.0625 254.121094 L 105.65625 270.699219 C 105.65625 270.699219 112.800781 269.023438 117.234375 258.453125 C 123.011719 244.679688 118.351562 212.617188 115.375 212.617188 "/>
<path style=" stroke:none;fill-rule:nonzero;fill:rgb(91.369629%,91.369629%,91.369629%);fill-opacity:1;" d="M 105.65625 270.699219 L 104.914062 270.238281 L 105.65625 270.699219 C 105.65625 270.699219 106.027344 270.613281 106.648438 270.351562 C 106.027344 270.613281 105.65625 270.699219 105.65625 270.699219 "/>
<path style=" stroke:none;fill-rule:nonzero;fill:rgb(43.919373%,23.139954%,11.369324%);fill-opacity:1;" d="M 104.914062 270.238281 L 104.839844 270.1875 L 104.914062 270.238281 M 101.640625 268.195312 L 101.304688 267.984375 L 101.640625 268.195312 "/>
<path style=" stroke:none;fill-rule:nonzero;fill:rgb(42.749023%,21.958923%,10.978699%);fill-opacity:1;" d="M 104.839844 270.1875 L 101.640625 268.195312 L 104.839844 270.1875 "/>
<path style=" stroke:none;fill-rule:nonzero;fill:rgb(23.919678%,67.83905%,52.159119%);fill-opacity:1;" d="M 105.65625 270.699219 L 104.914062 270.238281 L 104.839844 270.1875 L 101.640625 268.195312 L 101.304688 267.984375 C 111.117188 257.824219 113.902344 242.066406 108.078125 228.878906 C 106.722656 225.816406 104.730469 222.207031 102.269531 219.039062 C 106.378906 215.433594 110.804688 212.9375 115.375 212.617188 C 117.320312 212.617188 119.984375 226.324219 119.984375 239.660156 C 119.980469 246.722656 119.234375 253.683594 117.234375 258.453125 C 113.808594 266.617188 108.765625 269.472656 106.648438 270.351562 C 106.027344 270.613281 105.65625 270.699219 105.65625 270.699219 "/>
<path style=" stroke:none;fill-rule:nonzero;fill:rgb(49.409485%,26.669312%,12.939453%);fill-opacity:1;" d="M 185.695312 161.621094 C 197.402344 147.277344 116.972656 146.414062 125.746094 161.621094 C 134.519531 176.828125 132.78125 193.339844 125.746094 202.652344 C 120.886719 209.074219 138.558594 236.292969 155.71875 236.300781 C 175.617188 236.304688 188.261719 207.578125 185.695312 202.652344 C 180.460938 192.605469 173.992188 175.96875 185.695312 161.621094 "/>
<path style=" stroke:none;fill-rule:nonzero;fill:rgb(85.488892%,78.039551%,59.999084%);fill-opacity:1;" d="M 184.46875 211.183594 C 184.636719 210.738281 184.792969 210.292969 184.933594 209.863281 C 184.96875 209.820312 185.003906 209.777344 185.035156 209.734375 C 184.863281 210.207031 184.671875 210.691406 184.46875 211.183594 "/>
<path style=" stroke:none;fill-rule:nonzero;fill:rgb(46.669006%,24.308777%,12.159729%);fill-opacity:1;" d="M 156.234375 235.027344 C 156.234375 235.027344 156.230469 235.027344 156.230469 235.027344 C 143.375 235.023438 130.246094 219.761719 126.496094 209.398438 C 131.785156 214.304688 137.71875 218.789062 142.863281 222.726562 C 147.8125 226.515625 152.652344 228.445312 157.453125 228.445312 C 162.324219 228.445312 167.144531 226.460938 171.980469 222.414062 C 175.902344 219.140625 181.054688 214.796875 184.933594 209.863281 C 184.792969 210.292969 184.636719 210.738281 184.46875 211.183594 C 180.28125 221.289062 170 235.027344 156.234375 235.027344 "/>
<path style=" stroke:none;fill-rule:nonzero;fill:rgb(12.159729%,6.269836%,5.099487%);fill-opacity:1;" d="M 133.011719 174.339844 C 133.011719 194.921875 144.628906 202.011719 120.621094 202.011719 C 96.605469 202.011719 43.984375 183.167969 41.613281 142.824219 C 40.40625 122.277344 65.527344 137.074219 89.539062 137.074219 C 113.546875 137.074219 133.011719 153.757812 133.011719 174.339844 "/>
<path style=" stroke:none;fill-rule:nonzero;fill:rgb(12.159729%,6.269836%,5.099487%);fill-opacity:1;" d="M 177.226562 174.339844 C 177.226562 194.921875 160.738281 202.011719 184.523438 202.011719 C 208.308594 202.011719 265.421875 183.167969 267.773438 142.824219 C 268.972656 122.277344 244.078125 137.074219 220.292969 137.074219 C 196.511719 137.074219 177.226562 153.757812 177.226562 174.339844 "/>
<path style=" stroke:none;fill-rule:nonzero;fill:rgb(49.409485%,26.669312%,12.939453%);fill-opacity:1;" d="M 258.117188 133.808594 C 258.117188 79.042969 212.351562 34.648438 155.894531 34.648438 C 99.4375 34.648438 53.671875 79.042969 53.671875 133.808594 C 53.671875 178.648438 84.367188 200.523438 126.476562 206.980469 C 130.90625 212.230469 142.386719 215.980469 155.894531 215.980469 C 169.402344 215.980469 180.878906 212.230469 185.3125 206.980469 C 227.425781 200.527344 258.117188 178.652344 258.117188 133.808594 "/>
<path style=" stroke:none;fill-rule:nonzero;fill:rgb(44.309998%,24.308777%,12.548828%);fill-opacity:1;" d="M 245.828125 139.757812 C 245.722656 139.757812 245.617188 139.746094 245.507812 139.71875 C 245.601562 139.730469 245.699219 139.734375 245.792969 139.734375 C 245.914062 139.734375 246.035156 139.726562 246.164062 139.71875 C 246.054688 139.742188 245.941406 139.757812 245.828125 139.757812 M 69.574219 139.660156 C 69.773438 138.992188 69.925781 138.3125 70.035156 137.625 C 71.550781 136.21875 72.769531 134.402344 73.011719 132.574219 C 73.679688 127.550781 74.585938 112.96875 77.503906 105.089844 C 79.445312 99.859375 81.582031 95.5625 83.746094 92.058594 C 85.777344 88.777344 87.828125 86.1875 89.765625 84.167969 C 91.683594 85.636719 94.105469 86.515625 96.742188 86.515625 C 99.53125 86.515625 102.050781 85.496094 104.019531 83.867188 C 103.996094 84.085938 103.953125 84.304688 103.953125 84.53125 C 103.953125 89.46875 108.070312 93.472656 113.164062 93.472656 C 116.074219 93.472656 118.640625 92.140625 120.328125 90.09375 C 122.375 92.171875 125.246094 93.472656 128.441406 93.472656 C 131.328125 93.472656 133.9375 92.394531 135.925781 90.65625 C 136.335938 90.710938 136.757812 90.769531 137.171875 90.824219 C 138.539062 94.09375 141.816406 96.402344 145.675781 96.402344 C 148.847656 96.402344 151.640625 94.847656 153.296875 92.480469 C 155.3125 95.464844 158.769531 97.441406 162.714844 97.441406 C 166.375 97.441406 169.597656 95.734375 171.652344 93.117188 C 172.03125 93.113281 172.398438 93.113281 172.777344 93.109375 C 174.386719 95.699219 177.304688 97.441406 180.652344 97.441406 C 184.375 97.441406 187.585938 95.296875 189.035156 92.214844 C 189.136719 92.199219 189.234375 92.191406 189.335938 92.179688 C 191.371094 94.1875 194.199219 95.453125 197.335938 95.453125 C 202.027344 95.453125 206.003906 92.65625 207.695312 88.703125 C 207.796875 88.546875 207.894531 88.386719 207.988281 88.226562 C 209.4375 91.316406 212.644531 93.472656 216.371094 93.472656 C 219.777344 93.472656 222.75 91.683594 224.34375 89.019531 C 230.296875 94.066406 236.039062 101.292969 238.554688 105.089844 C 242.957031 111.742188 243.695312 122.238281 243.695312 129.472656 C 243.695312 133.117188 243.503906 135.933594 243.503906 137.011719 C 243.503906 137.132812 243.507812 137.234375 243.515625 137.308594 C 243.542969 137.707031 243.609375 138.046875 243.714844 138.335938 C 241.601562 135.597656 239.21875 128.660156 237.484375 115.480469 C 236.0625 104.617188 221.691406 96.5 214.582031 96.5 C 213.851562 96.5 213.199219 96.585938 212.648438 96.761719 C 209.117188 97.882812 209.644531 100.886719 202.882812 101.351562 C 202.652344 101.367188 202.40625 101.375 202.148438 101.375 C 200.5625 101.375 198.527344 101.09375 196.464844 100.820312 C 194.398438 100.542969 192.304688 100.261719 190.59375 100.261719 C 190.484375 100.261719 190.375 100.261719 190.269531 100.265625 C 187.398438 100.328125 184.589844 103.644531 181.492188 103.644531 C 181.484375 103.644531 181.476562 103.644531 181.46875 103.644531 C 178.0625 103.628906 174.339844 100.253906 170.738281 100.140625 C 170.707031 100.136719 170.675781 100.136719 170.648438 100.136719 C 169.578125 100.136719 168.363281 100.730469 167.148438 101.320312 C 165.929688 101.914062 164.707031 102.503906 163.605469 102.503906 C 163.5625 102.503906 163.515625 102.503906 163.472656 102.5 C 159.855469 102.335938 156.769531 99.503906 153.09375 99.25 C 152.988281 99.242188 152.882812 99.238281 152.78125 99.238281 C 151.671875 99.238281 150.640625 99.628906 149.605469 100.015625 C 148.574219 100.40625 147.539062 100.792969 146.441406 100.792969 C 146.3125 100.792969 146.183594 100.785156 146.054688 100.777344 C 142.839844 100.507812 139.273438 98.105469 136.117188 97.773438 C 136.042969 97.765625 135.972656 97.761719 135.898438 97.761719 C 135.027344 97.761719 134.082031 98.28125 133.140625 98.800781 C 132.195312 99.320312 131.257812 99.835938 130.398438 99.835938 C 130.324219 99.835938 130.242188 99.832031 130.167969 99.824219 C 126.757812 99.414062 123.824219 96.289062 120.597656 95.804688 C 120.234375 95.75 119.902344 95.726562 119.589844 95.726562 C 118.003906 95.726562 117.011719 96.359375 115.996094 97 C 114.984375 97.632812 113.949219 98.265625 112.285156 98.265625 C 110.433594 98.265625 107.804688 97.480469 103.558594 95.039062 C 100.265625 93.144531 98.84375 91.664062 96.664062 91.664062 C 95.382812 91.664062 93.835938 92.175781 91.488281 93.414062 C 85.164062 96.761719 82.84375 107.261719 78.070312 127.183594 C 76.28125 134.644531 72.390625 138.320312 69.574219 139.660156 "/>
<path style=" stroke:none;fill-rule:nonzero;fill:rgb(10.978699%,5.488586%,4.708862%);fill-opacity:1;" d="M 123.457031 206.484375 C 110.898438 204.3125 99.433594 200.710938 89.578125 195.480469 C 89.578125 195.480469 89.582031 195.480469 89.585938 195.480469 C 99.4375 200.710938 110.90625 204.3125 123.457031 206.484375 "/>
<path style=" stroke:none;fill-rule:nonzero;fill:rgb(79.998779%,77.648926%,61.178589%);fill-opacity:1;" d="M 125 206.746094 C 124.484375 206.660156 123.96875 206.574219 123.457031 206.484375 C 123.96875 206.574219 124.484375 206.660156 125 206.746094 "/>
<path style=" stroke:none;fill-rule:nonzero;fill:rgb(44.309998%,24.308777%,12.548828%);fill-opacity:1;" d="M 155.894531 215.980469 C 142.386719 215.980469 130.90625 212.230469 126.476562 206.980469 C 125.984375 206.90625 125.492188 206.828125 125 206.746094 C 125.492188 206.828125 125.984375 206.90625 126.476562 206.980469 C 130.90625 212.230469 142.386719 215.980469 155.894531 215.980469 C 169.402344 215.980469 180.878906 212.230469 185.3125 206.980469 C 180.878906 212.230469 169.402344 215.980469 155.894531 215.980469 "/>
<path style=" stroke:none;fill-rule:nonzero;fill:rgb(10.978699%,5.488586%,4.708862%);fill-opacity:1;" d="M 89.585938 195.480469 C 89.582031 195.480469 89.578125 195.480469 89.578125 195.480469 C 81.507812 191.191406 74.523438 185.8125 68.914062 179.222656 C 74.523438 185.8125 81.511719 191.195312 89.585938 195.480469 M 68.902344 179.210938 C 68.898438 179.203125 68.890625 179.195312 68.886719 179.191406 C 68.894531 179.199219 68.898438 179.203125 68.902344 179.210938 "/>
<path style=" stroke:none;fill-rule:nonzero;fill:rgb(44.309998%,24.308777%,12.548828%);fill-opacity:1;" d="M 155.894531 215.980469 C 142.386719 215.980469 130.90625 212.230469 126.476562 206.980469 C 125.984375 206.90625 125.492188 206.828125 125 206.746094 C 124.484375 206.660156 123.96875 206.574219 123.457031 206.484375 C 110.90625 204.3125 99.4375 200.710938 89.585938 195.480469 C 81.511719 191.195312 74.523438 185.8125 68.914062 179.222656 C 68.90625 179.21875 68.90625 179.214844 68.902344 179.210938 C 68.898438 179.203125 68.894531 179.199219 68.886719 179.191406 C 62.980469 172.242188 58.605469 163.953125 56.097656 154.183594 C 55.992188 153.757812 55.933594 153.445312 55.925781 153.226562 C 56.097656 153.15625 56.265625 153.085938 56.433594 153.015625 C 58.363281 154.578125 65.351562 166.035156 70.214844 170.367188 C 97.289062 194.484375 123.953125 203.832031 152.570312 206.03125 C 154.628906 206.191406 156.625 206.265625 158.570312 206.265625 C 186.074219 206.265625 203.335938 191.183594 229.914062 179.929688 C 237.910156 176.542969 244.984375 171.648438 251.46875 165.902344 C 240.253906 189.566406 215.773438 202.308594 185.3125 206.980469 C 180.878906 212.230469 169.402344 215.980469 155.894531 215.980469 "/>
<path style=" stroke:none;fill-rule:nonzero;fill:rgb(49.409485%,26.669312%,12.939453%);fill-opacity:1;" d="M 278.105469 121.75 C 283.039062 129.894531 270.070312 159.515625 256.359375 153.769531 C 245.878906 149.378906 251.195312 152.175781 249.546875 142.796875 C 248.058594 134.355469 241.847656 123.523438 251.570312 117.640625 C 261.292969 111.765625 273.171875 113.601562 278.105469 121.75 "/>
<path style=" stroke:none;fill-rule:nonzero;fill:rgb(44.309998%,24.308777%,12.548828%);fill-opacity:1;" d="M 258.113281 142.824219 C 253.773438 139.730469 258.34375 125.890625 262.738281 122.320312 C 264.570312 120.828125 266.460938 120.117188 268.144531 120.117188 C 270.484375 120.117188 272.414062 121.496094 273.195312 124.054688 C 274.539062 128.445312 270.277344 134.832031 268.039062 138.734375 C 267.257812 138.527344 266.429688 138.40625 265.574219 138.40625 C 263.058594 138.40625 260.34375 139.496094 258.113281 142.824219 "/>
<path style=" stroke:none;fill-rule:nonzero;fill:rgb(33.329773%,17.248535%,8.628845%);fill-opacity:1;" d="M 256.875 147.480469 C 253.878906 139.910156 257.074219 119.613281 265.351562 118.433594 C 274.875 117.074219 276.03125 128.65625 276.03125 128.65625 C 276.03125 128.65625 275.203125 118.324219 265.015625 122.707031 C 260.367188 124.703125 257.277344 139.1875 257.785156 141.351562 C 262.542969 133.3125 268.039062 138.734375 268.039062 138.734375 C 268.039062 138.734375 259.660156 138.867188 256.875 147.480469 "/>
<path style=" stroke:none;fill-rule:nonzero;fill:rgb(49.409485%,26.669312%,12.939453%);fill-opacity:1;" d="M 32.867188 121.75 C 27.9375 129.894531 40.898438 159.515625 54.609375 153.769531 C 65.09375 149.378906 63.140625 151.183594 68.074219 143.039062 C 73.011719 134.890625 69.125 123.523438 59.402344 117.640625 C 49.679688 111.765625 37.800781 113.601562 32.867188 121.75 "/>
<path style=" stroke:none;fill-rule:nonzero;fill:rgb(44.309998%,24.308777%,12.548828%);fill-opacity:1;" d="M 52.859375 142.824219 C 50.632812 139.496094 47.914062 138.40625 45.398438 138.40625 C 44.546875 138.40625 43.714844 138.527344 42.933594 138.734375 C 40.695312 134.832031 36.433594 128.445312 37.78125 124.054688 C 38.5625 121.496094 40.488281 120.117188 42.832031 120.117188 C 44.507812 120.117188 46.398438 120.828125 48.234375 122.320312 C 52.628906 125.890625 57.203125 139.730469 52.859375 142.824219 "/>
<path style=" stroke:none;fill-rule:nonzero;fill:rgb(33.329773%,17.248535%,8.628845%);fill-opacity:1;" d="M 54.097656 147.480469 C 57.097656 139.910156 53.898438 119.613281 45.621094 118.433594 C 36.097656 117.074219 34.941406 128.65625 34.941406 128.65625 C 34.941406 128.65625 35.769531 118.324219 45.953125 122.707031 C 50.605469 124.703125 53.695312 139.1875 53.1875 141.351562 C 48.433594 133.3125 42.933594 138.734375 42.933594 138.734375 C 42.933594 138.734375 51.3125 138.867188 54.097656 147.480469 "/>
<path style=" stroke:none;fill-rule:nonzero;fill:rgb(32.939148%,16.859436%,9.01947%);fill-opacity:1;" d="M 156.96875 164.578125 C 153.449219 164.578125 150.3125 162.96875 148.246094 160.445312 C 149.765625 161.203125 151.476562 161.648438 153.292969 161.648438 C 159.496094 161.648438 164.523438 156.625 164.523438 150.421875 C 164.523438 147.667969 163.53125 145.15625 161.882812 143.199219 C 165.640625 145.023438 168.238281 148.863281 168.238281 153.316406 C 168.238281 159.535156 163.191406 164.578125 156.96875 164.578125 "/>
<path style=" stroke:none;fill-rule:nonzero;fill:rgb(12.159729%,6.269836%,5.099487%);fill-opacity:1;" d="M 216.371094 75.585938 C 212.59375 75.585938 209.351562 77.796875 207.929688 80.960938 C 206.402344 76.6875 202.261719 73.601562 197.335938 73.601562 C 192.152344 73.601562 187.824219 77.023438 186.519531 81.652344 C 184.917969 80.367188 182.894531 79.558594 180.652344 79.558594 C 177.664062 79.558594 175.042969 80.957031 173.359375 83.089844 C 171.871094 78.746094 167.695312 75.585938 162.714844 75.585938 C 158.292969 75.585938 154.5 78.089844 152.660156 81.691406 C 150.972656 79.769531 148.484375 78.519531 145.675781 78.519531 C 143.300781 78.519531 141.160156 79.414062 139.527344 80.839844 C 138.675781 75.625 134.058594 71.617188 128.441406 71.617188 C 124.175781 71.617188 120.507812 73.945312 118.597656 77.335938 C 117.070312 76.25 115.203125 75.585938 113.164062 75.585938 C 111.171875 75.585938 109.335938 76.214844 107.828125 77.257812 C 107.917969 76.710938 108.003906 76.160156 108.003906 75.585938 C 108.003906 69.554688 102.960938 64.664062 96.742188 64.664062 C 90.519531 64.664062 85.480469 69.554688 85.480469 75.585938 C 85.480469 81.621094 90.519531 86.515625 96.742188 86.515625 C 99.53125 86.515625 102.050781 85.496094 104.019531 83.867188 C 103.996094 84.085938 103.953125 84.304688 103.953125 84.53125 C 103.953125 89.46875 108.070312 93.472656 113.164062 93.472656 C 116.074219 93.472656 118.640625 92.140625 120.328125 90.09375 C 122.375 92.171875 125.246094 93.472656 128.441406 93.472656 C 131.78125 93.472656 134.75 92.03125 136.8125 89.789062 C 137.871094 93.589844 141.421875 96.402344 145.675781 96.402344 C 148.847656 96.402344 151.640625 94.847656 153.296875 92.480469 C 155.3125 95.464844 158.769531 97.441406 162.714844 97.441406 C 166.78125 97.441406 170.304688 95.335938 172.289062 92.214844 C 173.746094 95.292969 176.929688 97.441406 180.652344 97.441406 C 184.46875 97.441406 187.742188 95.191406 189.144531 91.984375 C 191.195312 94.109375 194.09375 95.453125 197.335938 95.453125 C 202.261719 95.453125 206.402344 92.371094 207.929688 88.097656 C 209.351562 91.257812 212.59375 93.472656 216.371094 93.472656 C 221.460938 93.472656 225.589844 89.46875 225.589844 84.53125 C 225.589844 79.59375 221.460938 75.585938 216.371094 75.585938 "/>
<path style=" stroke:none;fill-rule:nonzero;fill:rgb(12.159729%,6.269836%,5.099487%);fill-opacity:1;" d="M 262.824219 76.046875 C 264.625 74.679688 265.804688 72.578125 265.804688 70.1875 C 265.804688 67.503906 264.328125 65.171875 262.144531 63.855469 C 262.960938 62.609375 263.445312 61.144531 263.445312 59.554688 C 263.445312 56.121094 261.214844 53.214844 258.09375 52.066406 C 258.980469 50.503906 259.523438 48.742188 259.523438 46.835938 C 259.523438 40.800781 254.484375 35.90625 248.265625 35.90625 L 248.171875 35.917969 C 248.300781 35.351562 248.386719 34.769531 248.386719 34.164062 C 248.386719 29.730469 244.679688 26.132812 240.113281 26.132812 L 239.910156 26.160156 C 239.097656 22.550781 235.796875 19.847656 231.835938 19.847656 C 231.480469 19.847656 231.148438 19.910156 230.808594 19.957031 C 229.878906 14.820312 225.292969 10.910156 219.738281 10.910156 C 216.800781 10.910156 214.148438 12.027344 212.144531 13.816406 C 210.890625 9.988281 207.242188 7.199219 202.882812 7.199219 C 201.402344 7.199219 200.011719 7.539062 198.753906 8.113281 C 196.925781 4.488281 193.117188 1.96875 188.675781 1.96875 C 184.5625 1.96875 181 4.132812 179.03125 7.328125 C 177.066406 4.132812 173.5 1.96875 169.390625 1.96875 C 165.722656 1.96875 162.492188 3.699219 160.4375 6.332031 C 158.648438 2.59375 154.769531 -0.0195312 150.242188 -0.0195312 C 146.917969 -0.0195312 143.953125 1.40625 141.898438 3.632812 C 139.832031 1.40625 136.875 -0.0195312 133.550781 -0.0195312 C 130.316406 -0.0195312 127.417969 1.328125 125.363281 3.445312 C 123.3125 1.328125 120.414062 -0.0195312 117.175781 -0.0195312 C 112.632812 -0.0195312 108.746094 2.605469 106.964844 6.363281 C 105.320312 4.875 103.128906 3.953125 100.707031 3.953125 C 96.359375 3.953125 92.734375 6.882812 91.769531 10.816406 C 90.640625 10.445312 89.445312 10.199219 88.1875 10.199219 C 82.203125 10.199219 77.355469 14.738281 76.996094 20.457031 C 75.902344 20.09375 74.753906 19.847656 73.527344 19.847656 C 67.796875 19.847656 63.160156 24.234375 62.890625 29.734375 C 62.683594 29.722656 62.480469 29.671875 62.265625 29.671875 C 56.046875 29.671875 51.003906 34.566406 51.003906 40.601562 C 51.003906 40.871094 51.070312 41.125 51.09375 41.394531 C 45.667969 42.882812 41.699219 47.703125 41.699219 53.4375 C 41.699219 54.160156 41.773438 54.859375 41.894531 55.546875 C 38.375 56.804688 35.851562 60.058594 35.851562 63.910156 C 35.851562 66.421875 36.9375 68.691406 38.65625 70.3125 C 37.535156 71.796875 36.847656 73.609375 36.847656 75.585938 C 36.847656 77.710938 37.640625 79.632812 38.914062 81.164062 C 34.425781 94.734375 32.6875 109.027344 35.761719 118.324219 C 35.761719 118.324219 46.066406 108.292969 60.5625 120.121094 C 60.902344 120.390625 61.375 135.859375 62.863281 139.183594 C 64.351562 142.507812 72.34375 137.597656 73.011719 132.574219 C 73.679688 127.550781 74.585938 112.96875 77.503906 105.089844 C 84.035156 87.464844 92.84375 80.457031 97.339844 78.472656 C 101.835938 89.492188 191.804688 102.117188 216.273438 83.976562 C 224.332031 86.652344 234.882812 99.542969 238.554688 105.089844 C 245.429688 115.480469 243.363281 135.257812 243.515625 137.308594 C 243.898438 142.507812 250.921875 137.726562 250.921875 137.726562 C 250.921875 137.726562 251.582031 119.414062 256.359375 115.417969 C 263.523438 112.917969 268.703125 114.886719 268.703125 114.886719 C 268.335938 105.207031 266.503906 88.847656 262.824219 76.046875 "/>
<path style=" stroke:none;fill-rule:nonzero;fill:rgb(31.369019%,15.689087%,8.239746%);fill-opacity:1;" d="M 83.746094 92.058594 C 85.773438 88.777344 87.828125 86.1875 89.765625 84.167969 C 87.828125 86.1875 85.777344 88.777344 83.746094 92.058594 "/>
<path style=" stroke:none;fill-rule:nonzero;fill:rgb(34.899902%,17.248535%,8.628845%);fill-opacity:1;" d="M 61.378906 129.707031 C 61.199219 127.574219 61.050781 125.453125 60.929688 123.75 C 61.050781 125.453125 61.199219 127.574219 61.378906 129.707031 "/>
<path style=" stroke:none;fill-rule:nonzero;fill:rgb(9.408569%,4.309082%,3.529358%);fill-opacity:1;" d="M 89.765625 84.167969 C 90.21875 83.695312 90.664062 83.253906 91.101562 82.84375 C 91.101562 82.84375 91.105469 82.84375 91.105469 82.84375 C 90.664062 83.253906 90.21875 83.695312 89.765625 84.167969 "/>
<path style=" stroke:none;fill-rule:nonzero;fill:rgb(9.408569%,4.309082%,3.529358%);fill-opacity:1;" d="M 64.722656 140.269531 C 63.875 140.269531 63.203125 139.9375 62.863281 139.183594 C 62.1875 137.671875 61.71875 133.664062 61.378906 129.707031 C 61.199219 127.574219 61.050781 125.453125 60.929688 123.75 C 61.871094 125.675781 62.566406 127.796875 62.914062 130.195312 C 63.15625 131.894531 64.515625 132.664062 65.949219 132.664062 C 67.488281 132.664062 69.121094 131.773438 69.558594 130.195312 C 73.417969 116.210938 69.316406 100.699219 75.363281 87.214844 C 77.828125 81.714844 81.789062 79.78125 86.210938 79.78125 C 86.859375 79.78125 87.523438 79.824219 88.191406 79.902344 C 88.960938 81.050781 89.953125 82.050781 91.101562 82.84375 C 90.664062 83.253906 90.21875 83.695312 89.765625 84.167969 C 87.828125 86.1875 85.773438 88.777344 83.746094 92.058594 C 81.582031 95.5625 79.441406 99.859375 77.503906 105.089844 C 74.585938 112.96875 73.679688 127.550781 73.011719 132.574219 C 72.496094 136.457031 67.609375 140.269531 64.722656 140.269531 "/>
<path style=" stroke:none;fill-rule:nonzero;fill:rgb(9.408569%,4.309082%,3.529358%);fill-opacity:1;" d="M 35.761719 118.304688 C 35.746094 118.277344 35.738281 118.246094 35.726562 118.214844 C 35.738281 118.246094 35.746094 118.277344 35.761719 118.304688 M 35.726562 118.214844 C 35.726562 118.207031 35.722656 118.195312 35.71875 118.191406 C 35.722656 118.195312 35.726562 118.207031 35.726562 118.214844 M 35.714844 118.179688 C 35.714844 118.175781 35.714844 118.167969 35.714844 118.167969 C 35.714844 118.167969 35.714844 118.175781 35.714844 118.179688 "/>
<path style=" stroke:none;fill-rule:nonzero;fill:rgb(34.899902%,17.248535%,8.628845%);fill-opacity:1;" d="M 35.761719 118.324219 C 35.761719 118.320312 35.761719 118.3125 35.761719 118.304688 C 35.761719 118.3125 35.761719 118.316406 35.761719 118.324219 C 35.761719 118.324219 39.84375 114.355469 46.476562 114.355469 C 49.175781 114.355469 52.292969 115.007812 55.734375 116.855469 C 55.753906 116.878906 55.777344 116.898438 55.800781 116.917969 C 52.324219 115.042969 49.179688 114.378906 46.460938 114.378906 C 39.835938 114.378906 35.761719 118.324219 35.761719 118.324219 "/>
<path style=" stroke:none;fill-rule:nonzero;fill:rgb(9.408569%,4.309082%,3.529358%);fill-opacity:1;" d="M 35.761719 118.324219 C 35.761719 118.316406 35.761719 118.3125 35.761719 118.304688 C 35.746094 118.277344 35.738281 118.246094 35.726562 118.214844 C 35.726562 118.207031 35.722656 118.195312 35.71875 118.191406 C 35.71875 118.1875 35.714844 118.183594 35.714844 118.179688 C 35.714844 118.175781 35.714844 118.167969 35.714844 118.167969 C 35.710938 118.160156 35.707031 118.152344 35.707031 118.144531 C 34.3125 113.824219 33.980469 108.425781 34.425781 102.558594 C 41.28125 107.5 49.757812 111.179688 55.734375 116.855469 C 52.292969 115.007812 49.175781 114.355469 46.476562 114.355469 C 39.84375 114.355469 35.761719 118.324219 35.761719 118.324219 "/>
<path style=" stroke:none;fill-rule:nonzero;fill:rgb(31.369019%,15.689087%,8.239746%);fill-opacity:1;" d="M 243.695312 129.472656 C 243.695312 122.238281 242.957031 111.742188 238.554688 105.089844 C 236.039062 101.292969 230.296875 94.066406 224.34375 89.019531 C 224.347656 89.015625 224.351562 89.011719 224.351562 89.007812 C 230.304688 94.054688 236.039062 101.292969 238.554688 105.089844 C 242.957031 111.742188 243.695312 122.238281 243.695312 129.472656 "/>
<path style=" stroke:none;fill-rule:nonzero;fill:rgb(34.899902%,17.248535%,8.628845%);fill-opacity:1;" d="M 248.65625 138.976562 C 249.925781 138.410156 250.921875 137.726562 250.921875 137.726562 C 250.921875 137.726562 251.058594 133.957031 251.652344 129.460938 C 251.65625 129.460938 251.65625 129.464844 251.65625 129.464844 C 251.0625 133.957031 250.921875 137.726562 250.921875 137.726562 C 250.921875 137.726562 249.925781 138.410156 248.65625 138.976562 "/>
<path style=" stroke:none;fill-rule:nonzero;fill:rgb(9.408569%,4.309082%,3.529358%);fill-opacity:1;" d="M 224.34375 89.019531 C 224.269531 88.960938 224.199219 88.894531 224.125 88.835938 C 224.128906 88.832031 224.132812 88.828125 224.132812 88.828125 C 224.207031 88.886719 224.28125 88.949219 224.351562 89.007812 C 224.351562 89.011719 224.347656 89.015625 224.34375 89.019531 "/>
<path style=" stroke:none;fill-rule:nonzero;fill:rgb(9.408569%,4.309082%,3.529358%);fill-opacity:1;" d="M 245.792969 139.734375 C 244.609375 139.734375 243.652344 139.140625 243.515625 137.308594 C 243.507812 137.234375 243.503906 137.132812 243.503906 137.011719 C 243.503906 135.933594 243.695312 133.117188 243.695312 129.472656 C 243.695312 122.238281 242.957031 111.742188 238.554688 105.089844 C 236.039062 101.292969 230.304688 94.054688 224.351562 89.007812 C 224.28125 88.949219 224.207031 88.886719 224.132812 88.828125 C 224.519531 88.40625 224.867188 87.949219 225.167969 87.460938 C 241.089844 90.296875 247.441406 110.570312 250.882812 127.898438 C 251.015625 128.5625 251.292969 129.074219 251.652344 129.460938 C 251.058594 133.957031 250.921875 137.726562 250.921875 137.726562 C 250.921875 137.726562 249.925781 138.410156 248.65625 138.976562 C 247.75 139.382812 246.703125 139.734375 245.792969 139.734375 "/>
<path style=" stroke:none;fill-rule:nonzero;fill:rgb(31.369019%,15.689087%,8.239746%);fill-opacity:1;" d="M 207.695312 88.703125 C 207.753906 88.558594 207.816406 88.410156 207.871094 88.265625 C 207.90625 88.25 207.949219 88.234375 207.988281 88.222656 C 207.988281 88.222656 207.988281 88.226562 207.988281 88.226562 C 207.894531 88.386719 207.796875 88.546875 207.695312 88.703125 "/>
<path style=" stroke:none;fill-rule:nonzero;fill:rgb(9.408569%,4.309082%,3.529358%);fill-opacity:1;" d="M 181.535156 95.785156 C 178.945312 95.785156 176.613281 94.742188 174.945312 93.074219 C 179.761719 92.972656 184.453125 92.703125 188.890625 92.226562 C 187.210938 94.386719 184.539062 95.785156 181.535156 95.785156 M 163.601562 95.785156 C 160.519531 95.785156 157.738281 94.582031 155.707031 92.636719 C 160.703125 92.945312 165.730469 93.121094 170.664062 93.121094 C 170.753906 93.121094 170.84375 93.121094 170.933594 93.121094 C 168.96875 94.777344 166.410156 95.785156 163.601562 95.785156 M 146.554688 94.75 C 143.5 94.75 140.816406 93.300781 139.148438 91.082031 C 143.566406 91.636719 148.121094 92.09375 152.738281 92.4375 C 151.105469 93.875 148.933594 94.75 146.554688 94.75 M 198.21875 93.800781 C 195.851562 93.800781 193.671875 93.082031 191.871094 91.875 C 197.847656 91.089844 203.292969 89.910156 207.871094 88.265625 C 207.816406 88.410156 207.753906 88.558594 207.695312 88.703125 C 205.707031 91.761719 202.222656 93.800781 198.21875 93.800781 M 217.253906 91.816406 C 213.976562 91.816406 211.105469 90.152344 209.476562 87.652344 C 211.929688 86.664062 214.09375 85.53125 215.921875 84.230469 C 216.339844 84.289062 216.765625 84.324219 217.203125 84.324219 C 218.746094 84.964844 220.359375 85.941406 221.992188 87.136719 C 221.980469 87.136719 221.972656 87.136719 221.964844 87.136719 C 222.6875 87.664062 223.40625 88.230469 224.125 88.835938 C 222.4375 90.664062 219.984375 91.816406 217.253906 91.816406 M 129.324219 91.816406 C 126.128906 91.816406 123.261719 90.511719 121.207031 88.4375 C 119.515625 90.480469 116.957031 91.816406 114.046875 91.816406 C 109.179688 91.816406 105.199219 88.160156 104.855469 83.523438 C 111.660156 86.222656 122.398438 88.714844 134.675781 90.480469 C 133.085938 91.328125 131.269531 91.816406 129.324219 91.816406 M 207.988281 88.226562 C 207.988281 88.226562 207.988281 88.222656 207.988281 88.222656 L 207.992188 88.222656 C 207.988281 88.222656 207.988281 88.222656 207.988281 88.226562 M 97.625 84.859375 C 95.191406 84.859375 92.945312 84.113281 91.105469 82.84375 C 91.816406 82.175781 92.507812 81.585938 93.171875 81.066406 C 93.167969 81.066406 93.167969 81.066406 93.167969 81.0625 C 94.765625 79.8125 96.191406 78.976562 97.339844 78.472656 C 97.964844 80 100.226562 81.558594 103.730469 83.0625 C 101.976562 84.1875 99.890625 84.859375 97.625 84.859375 "/>
<path style=" stroke:none;fill-rule:nonzero;fill:rgb(9.408569%,4.309082%,3.529358%);fill-opacity:1;" d="M 170.664062 93.121094 C 165.730469 93.121094 160.703125 92.945312 155.707031 92.636719 C 155.136719 92.089844 154.625 91.484375 154.183594 90.824219 C 153.769531 91.417969 153.285156 91.957031 152.738281 92.4375 C 148.121094 92.09375 143.566406 91.636719 139.148438 91.082031 C 138.492188 90.203125 137.996094 89.210938 137.695312 88.136719 C 136.832031 89.070312 135.8125 89.867188 134.675781 90.480469 C 122.398438 88.714844 111.660156 86.222656 104.855469 83.523438 C 104.839844 83.308594 104.832031 83.089844 104.832031 82.875 C 104.832031 82.648438 104.882812 82.433594 104.898438 82.207031 C 104.527344 82.515625 104.140625 82.800781 103.730469 83.0625 C 100.226562 81.558594 97.964844 80 97.339844 78.472656 C 96.191406 78.976562 94.765625 79.8125 93.167969 81.0625 C 91.5 80.507812 89.824219 80.09375 88.191406 79.902344 C 87.035156 78.1875 86.363281 76.136719 86.363281 73.933594 C 86.363281 72.609375 86.640625 71.359375 87.082031 70.183594 C 88.667969 74.367188 92.765625 77.367188 97.625 77.367188 C 100.414062 77.367188 102.929688 76.347656 104.898438 74.71875 C 104.882812 74.941406 104.832031 75.15625 104.832031 75.382812 C 104.832031 80.320312 108.957031 84.324219 114.046875 84.324219 C 116.957031 84.324219 119.515625 82.988281 121.207031 80.945312 C 123.261719 83.023438 126.128906 84.324219 129.324219 84.324219 C 132.664062 84.324219 135.632812 82.886719 137.695312 80.640625 C 138.753906 84.441406 142.296875 87.253906 146.554688 87.253906 C 149.726562 87.253906 152.523438 85.703125 154.183594 83.335938 C 156.191406 86.316406 159.652344 88.292969 163.601562 88.292969 C 167.664062 88.292969 171.1875 86.191406 173.167969 83.066406 C 174.625 86.144531 177.8125 88.292969 181.535156 88.292969 C 185.347656 88.292969 188.621094 86.042969 190.023438 82.835938 C 192.078125 84.960938 194.976562 86.308594 198.21875 86.308594 C 203.070312 86.308594 207.152344 83.308594 208.734375 79.128906 L 208.816406 79.304688 L 208.910156 79.128906 C 210.195312 81.8125 212.800781 83.789062 215.921875 84.230469 C 214.09375 85.53125 211.929688 86.664062 209.476562 87.652344 C 209.222656 87.269531 209.003906 86.867188 208.816406 86.449219 C 208.59375 87.066406 208.316406 87.65625 207.992188 88.222656 L 207.988281 88.222656 C 207.949219 88.234375 207.90625 88.25 207.871094 88.265625 C 203.292969 89.910156 197.847656 91.089844 191.871094 91.875 C 191.199219 91.421875 190.578125 90.90625 190.023438 90.328125 C 189.726562 91.007812 189.34375 91.644531 188.890625 92.226562 C 184.453125 92.703125 179.761719 92.972656 174.945312 93.074219 C 174.214844 92.34375 173.613281 91.492188 173.167969 90.554688 C 172.5625 91.515625 171.804688 92.382812 170.933594 93.121094 C 170.84375 93.121094 170.753906 93.121094 170.664062 93.121094 M 225.167969 87.460938 C 224.148438 87.277344 223.089844 87.167969 221.992188 87.136719 C 220.359375 85.941406 218.746094 84.964844 217.203125 84.324219 C 217.21875 84.324219 217.234375 84.324219 217.253906 84.324219 C 220.964844 84.324219 224.132812 82.1875 225.601562 79.128906 C 226.144531 80.273438 226.46875 81.53125 226.46875 82.875 C 226.46875 84.554688 225.996094 86.121094 225.167969 87.460938 "/>
<path style=" stroke:none;fill-rule:nonzero;fill:rgb(7.449341%,2.749634%,2.349854%);fill-opacity:1;" d="M 91.105469 82.84375 C 91.105469 82.84375 91.101562 82.84375 91.101562 82.84375 C 91.816406 82.171875 92.503906 81.585938 93.167969 81.0625 C 93.167969 81.066406 93.167969 81.066406 93.171875 81.066406 C 92.507812 81.585938 91.816406 82.175781 91.105469 82.84375 "/>
<path style=" stroke:none;fill-rule:nonzero;fill:rgb(7.449341%,2.749634%,2.349854%);fill-opacity:1;" d="M 91.101562 82.84375 C 89.953125 82.050781 88.960938 81.050781 88.191406 79.902344 C 89.824219 80.09375 91.5 80.507812 93.167969 81.0625 C 92.503906 81.585938 91.816406 82.171875 91.101562 82.84375 "/>
<path style=" stroke:none;fill-rule:nonzero;fill:rgb(7.449341%,2.749634%,2.349854%);fill-opacity:1;" d="M 224.125 88.835938 C 223.40625 88.230469 222.6875 87.664062 221.964844 87.136719 C 221.972656 87.136719 221.980469 87.136719 221.992188 87.136719 C 222.703125 87.660156 223.421875 88.230469 224.132812 88.828125 C 224.132812 88.828125 224.128906 88.832031 224.125 88.835938 "/>
<path style=" stroke:none;fill-rule:nonzero;fill:rgb(7.449341%,2.749634%,2.349854%);fill-opacity:1;" d="M 224.132812 88.828125 C 223.421875 88.230469 222.703125 87.660156 221.992188 87.136719 C 223.089844 87.167969 224.148438 87.277344 225.167969 87.460938 C 224.867188 87.949219 224.519531 88.40625 224.132812 88.828125 "/>
<path style=" stroke:none;fill-rule:nonzero;fill:rgb(12.159729%,6.269836%,5.099487%);fill-opacity:1;" d="M 208.820312 128.789062 C 208.820312 135.753906 202.222656 142.789062 194.574219 142.789062 C 186.921875 142.789062 182.96875 132.472656 182.96875 125.515625 C 182.96875 121.945312 187.320312 116.199219 194.972656 116.199219 C 202.621094 116.199219 208.820312 121.839844 208.820312 128.789062 "/>
<path style=" stroke:none;fill-rule:nonzero;fill:rgb(100%,100%,100%);fill-opacity:1;" d="M 206.214844 131.214844 C 206.214844 138.011719 200.695312 143.523438 193.894531 143.523438 C 187.089844 143.523438 181.570312 138.011719 181.570312 131.214844 C 181.570312 124.414062 187.089844 118.898438 193.894531 118.898438 C 200.695312 118.898438 206.214844 124.414062 206.214844 131.214844 "/>
<path style=" stroke:none;fill-rule:nonzero;fill:rgb(16.079712%,14.118958%,17.248535%);fill-opacity:1;" d="M 189.300781 123.25 C 186.875 123.25 184.652344 124.027344 182.96875 125.515625 C 182.082031 127.210938 181.570312 129.269531 181.570312 131.320312 C 181.570312 136.078125 184.300781 140.160156 188.25 142.203125 C 188.601562 142.242188 188.945312 142.3125 189.300781 142.3125 C 194.570312 142.3125 198.839844 138.042969 198.839844 132.78125 C 198.839844 127.515625 194.570312 123.25 189.300781 123.25 "/>
<path style=" stroke:none;fill-rule:nonzero;fill:rgb(21.179199%,18.818665%,22.349548%);fill-opacity:1;" d="M 193.5 131.007812 C 193.242188 130.449219 192.886719 129.945312 192.457031 129.519531 C 193.332031 128.058594 194.085938 126.515625 194.6875 124.917969 C 196.003906 125.820312 197.074219 127.046875 197.804688 128.472656 C 198.1875 129.238281 195.800781 130.398438 193.5 131.007812 "/>
<path style=" stroke:none;fill-rule:nonzero;fill:rgb(12.159729%,6.269836%,5.099487%);fill-opacity:1;" d="M 208.066406 131.527344 C 212.660156 132.78125 212.910156 127.136719 212.910156 127.136719 C 212.910156 127.136719 210.652344 129.492188 208.496094 127.582031 C 206.824219 126.097656 206.773438 130.8125 208.066406 131.527344 "/>
<path style=" stroke:none;fill-rule:nonzero;fill:rgb(6.669617%,5.099487%,5.879211%);fill-opacity:1;" d="M 188.976562 138.035156 C 188.035156 138.035156 187.148438 137.773438 186.398438 137.316406 C 188.863281 135.085938 189.792969 131.644531 189.753906 128.160156 C 190.796875 128.324219 191.734375 128.816406 192.457031 129.519531 C 192.171875 129.988281 191.878906 130.449219 191.570312 130.902344 C 191.457031 131.0625 191.320312 131.238281 191.199219 131.410156 C 191.867188 131.375 192.679688 131.226562 193.5 131.007812 C 193.785156 131.632812 193.945312 132.332031 193.945312 133.070312 C 193.945312 135.8125 191.71875 138.035156 188.976562 138.035156 "/>
<path style=" stroke:none;fill-rule:nonzero;fill:rgb(8.628845%,7.058716%,7.449341%);fill-opacity:1;" d="M 191.199219 131.410156 C 191.320312 131.238281 191.457031 131.0625 191.570312 130.902344 C 191.878906 130.449219 192.171875 129.988281 192.457031 129.519531 C 192.886719 129.945312 193.242188 130.449219 193.5 131.007812 C 192.679688 131.226562 191.867188 131.375 191.199219 131.410156 "/>
<path style=" stroke:none;fill-rule:nonzero;fill:rgb(39.219666%,22.349548%,10.978699%);fill-opacity:1;" d="M 181.574219 131.425781 C 181.574219 131.417969 181.574219 131.414062 181.574219 131.414062 C 181.574219 131.414062 181.574219 131.421875 181.574219 131.425781 M 181.574219 131.394531 C 181.574219 131.390625 181.574219 131.386719 181.574219 131.378906 C 181.574219 131.386719 181.574219 131.390625 181.574219 131.394531 M 181.574219 131.371094 C 181.574219 131.367188 181.574219 131.359375 181.574219 131.347656 C 181.574219 131.359375 181.574219 131.367188 181.574219 131.371094 M 181.574219 131.347656 C 181.570312 131.335938 181.570312 131.328125 181.570312 131.320312 C 181.570312 131.328125 181.570312 131.335938 181.574219 131.347656 "/>
<path style=" stroke:none;fill-rule:nonzero;fill:rgb(77.648926%,81.959534%,83.918762%);fill-opacity:1;" d="M 182.96875 125.515625 C 183.042969 125.453125 183.113281 125.390625 183.1875 125.328125 C 183.113281 125.390625 183.042969 125.453125 182.96875 125.515625 M 183.1875 125.328125 C 183.195312 125.324219 183.203125 125.320312 183.207031 125.3125 C 183.203125 125.320312 183.195312 125.324219 183.1875 125.328125 M 183.21875 125.304688 C 183.21875 125.300781 183.222656 125.300781 183.226562 125.300781 C 183.222656 125.300781 183.21875 125.300781 183.21875 125.304688 "/>
<path style=" stroke:none;fill-rule:nonzero;fill:rgb(12.939453%,12.159729%,14.509583%);fill-opacity:1;" d="M 184.25 138.90625 C 182.601562 136.847656 181.597656 134.261719 181.574219 131.425781 C 181.574219 131.421875 181.574219 131.414062 181.574219 131.414062 C 181.574219 131.40625 181.574219 131.402344 181.574219 131.394531 C 181.574219 131.390625 181.574219 131.386719 181.574219 131.378906 C 181.574219 131.378906 181.574219 131.375 181.574219 131.371094 C 181.574219 131.367188 181.574219 131.359375 181.574219 131.347656 C 181.570312 131.335938 181.570312 131.328125 181.570312 131.320312 C 181.570312 129.269531 182.082031 127.210938 182.96875 125.515625 C 183.042969 125.453125 183.113281 125.390625 183.1875 125.328125 C 183.195312 125.324219 183.203125 125.320312 183.207031 125.3125 C 183.210938 125.308594 183.214844 125.308594 183.21875 125.304688 C 183.21875 125.300781 183.222656 125.300781 183.226562 125.300781 C 184.824219 123.992188 186.871094 123.308594 189.089844 123.261719 C 189.492188 124.820312 189.734375 126.496094 189.753906 128.160156 C 189.503906 128.121094 189.238281 128.101562 188.976562 128.101562 C 186.230469 128.101562 184.003906 130.324219 184.003906 133.070312 C 184.003906 134.867188 184.960938 136.445312 186.398438 137.316406 C 186.03125 137.648438 185.628906 137.953125 185.195312 138.230469 C 184.859375 138.441406 184.542969 138.675781 184.25 138.90625 "/>
<path style=" stroke:none;fill-rule:nonzero;fill:rgb(5.879211%,4.708862%,5.099487%);fill-opacity:1;" d="M 186.398438 137.316406 C 184.960938 136.445312 184.003906 134.867188 184.003906 133.070312 C 184.003906 130.324219 186.230469 128.101562 188.976562 128.101562 C 189.238281 128.101562 189.503906 128.121094 189.753906 128.160156 C 189.792969 131.644531 188.863281 135.085938 186.398438 137.316406 "/>
<path style=" stroke:none;fill-rule:nonzero;fill:rgb(100%,100%,100%);fill-opacity:1;" d="M 200.898438 134.242188 L 190.992188 132.78125 L 200.96875 132.164062 Z M 200.898438 134.242188 "/>
<path style=" stroke:none;fill-rule:nonzero;fill:rgb(100%,100%,100%);fill-opacity:1;" d="M 202.082031 131.046875 L 192.109375 131.992188 L 200.253906 130.503906 Z M 202.082031 131.046875 "/>
<path style=" stroke:none;fill-rule:nonzero;fill:rgb(100%,100%,100%);fill-opacity:1;" d="M 198.746094 142.3125 L 190.992188 135.980469 L 197.828125 140.640625 Z M 198.746094 142.3125 "/>
<path style=" stroke:none;fill-rule:nonzero;fill:rgb(12.159729%,6.269836%,5.099487%);fill-opacity:1;" d="M 109.988281 128.789062 C 109.988281 135.753906 116.589844 142.789062 124.238281 142.789062 C 131.886719 142.789062 135.839844 132.472656 135.839844 125.515625 C 135.839844 121.945312 131.488281 116.199219 123.84375 116.199219 C 116.1875 116.199219 109.988281 121.839844 109.988281 128.789062 "/>
<path style=" stroke:none;fill-rule:nonzero;fill:rgb(100%,100%,100%);fill-opacity:1;" d="M 112.597656 131.214844 C 112.597656 138.011719 118.113281 143.523438 124.917969 143.523438 C 131.722656 143.523438 137.238281 138.011719 137.238281 131.214844 C 137.238281 124.414062 131.722656 118.898438 124.917969 118.898438 C 118.113281 118.898438 112.597656 124.414062 112.597656 131.214844 "/>
<path style=" stroke:none;fill-rule:nonzero;fill:rgb(16.079712%,14.118958%,17.248535%);fill-opacity:1;" d="M 129.507812 123.25 C 131.929688 123.25 134.15625 124.027344 135.839844 125.515625 C 136.730469 127.210938 137.238281 129.269531 137.238281 131.320312 C 137.238281 136.078125 134.507812 140.160156 130.558594 142.203125 C 130.210938 142.242188 129.871094 142.3125 129.507812 142.3125 C 124.242188 142.3125 119.96875 138.042969 119.96875 132.78125 C 119.96875 127.515625 124.242188 123.25 129.507812 123.25 "/>
<path style=" stroke:none;fill-rule:nonzero;fill:rgb(21.179199%,18.818665%,22.349548%);fill-opacity:1;" d="M 125.3125 131.007812 C 123.007812 130.398438 120.621094 129.238281 121.007812 128.472656 C 121.734375 127.046875 122.808594 125.820312 124.125 124.917969 C 124.722656 126.515625 125.472656 128.058594 126.355469 129.519531 C 125.921875 129.945312 125.566406 130.449219 125.3125 131.007812 "/>
<path style=" stroke:none;fill-rule:nonzero;fill:rgb(12.159729%,6.269836%,5.099487%);fill-opacity:1;" d="M 110.742188 131.527344 C 106.148438 132.78125 105.898438 127.136719 105.898438 127.136719 C 105.898438 127.136719 108.15625 129.492188 110.316406 127.582031 C 111.984375 126.097656 112.03125 130.8125 110.742188 131.527344 "/>
<path style=" stroke:none;fill-rule:nonzero;fill:rgb(6.669617%,5.099487%,5.879211%);fill-opacity:1;" d="M 129.835938 138.035156 C 127.09375 138.035156 124.863281 135.8125 124.863281 133.070312 C 124.863281 132.332031 125.023438 131.632812 125.3125 131.007812 C 126.132812 131.226562 126.941406 131.375 127.613281 131.410156 C 127.492188 131.238281 127.355469 131.0625 127.242188 130.902344 C 126.933594 130.449219 126.636719 129.988281 126.355469 129.519531 C 127.078125 128.816406 128.011719 128.328125 129.054688 128.160156 C 129.015625 131.644531 129.949219 135.085938 132.414062 137.316406 C 131.660156 137.773438 130.777344 138.035156 129.835938 138.035156 "/>
<path style=" stroke:none;fill-rule:nonzero;fill:rgb(8.628845%,7.058716%,7.449341%);fill-opacity:1;" d="M 127.613281 131.410156 C 126.941406 131.375 126.132812 131.226562 125.3125 131.007812 C 125.566406 130.449219 125.921875 129.945312 126.355469 129.519531 C 126.636719 129.988281 126.933594 130.449219 127.242188 130.902344 C 127.355469 131.0625 127.492188 131.238281 127.613281 131.410156 "/>
<path style=" stroke:none;fill-rule:nonzero;fill:rgb(77.648926%,81.959534%,83.918762%);fill-opacity:1;" d="M 135.839844 125.515625 C 135.761719 125.449219 135.683594 125.378906 135.601562 125.3125 C 135.683594 125.378906 135.761719 125.449219 135.839844 125.515625 M 135.59375 125.304688 C 135.589844 125.300781 135.589844 125.300781 135.585938 125.300781 C 135.589844 125.300781 135.589844 125.300781 135.59375 125.304688 "/>
<path style=" stroke:none;fill-rule:nonzero;fill:rgb(12.939453%,12.159729%,14.509583%);fill-opacity:1;" d="M 134.558594 138.90625 C 134.265625 138.675781 133.953125 138.441406 133.613281 138.230469 C 133.175781 137.953125 132.777344 137.648438 132.414062 137.316406 C 133.847656 136.445312 134.804688 134.867188 134.804688 133.070312 C 134.804688 130.324219 132.578125 128.101562 129.835938 128.101562 C 129.570312 128.101562 129.3125 128.121094 129.054688 128.160156 C 129.078125 126.496094 129.320312 124.820312 129.722656 123.261719 C 131.941406 123.308594 133.988281 123.992188 135.585938 125.300781 C 135.589844 125.300781 135.589844 125.300781 135.59375 125.304688 C 135.597656 125.308594 135.597656 125.308594 135.601562 125.3125 C 135.683594 125.378906 135.761719 125.449219 135.839844 125.515625 C 136.730469 127.210938 137.238281 129.269531 137.238281 131.320312 C 137.238281 131.328125 137.238281 131.335938 137.238281 131.347656 C 137.238281 131.359375 137.238281 131.367188 137.238281 131.371094 C 137.238281 131.375 137.238281 131.378906 137.238281 131.378906 C 137.238281 131.386719 137.238281 131.390625 137.238281 131.394531 C 137.238281 131.402344 137.238281 131.410156 137.238281 131.414062 C 137.238281 131.414062 137.238281 131.417969 137.238281 131.421875 C 137.214844 134.261719 136.207031 136.847656 134.558594 138.90625 "/>
<path style=" stroke:none;fill-rule:nonzero;fill:rgb(5.879211%,4.708862%,5.099487%);fill-opacity:1;" d="M 132.414062 137.316406 C 129.949219 135.085938 129.015625 131.644531 129.054688 128.160156 C 129.3125 128.121094 129.570312 128.101562 129.835938 128.101562 C 132.578125 128.101562 134.804688 130.324219 134.804688 133.070312 C 134.804688 134.867188 133.847656 136.445312 132.414062 137.316406 "/>
<path style=" stroke:none;fill-rule:nonzero;fill:rgb(100%,100%,100%);fill-opacity:1;" d="M 117.910156 134.242188 L 127.8125 132.78125 L 117.839844 132.164062 Z M 117.910156 134.242188 "/>
<path style=" stroke:none;fill-rule:nonzero;fill:rgb(100%,100%,100%);fill-opacity:1;" d="M 116.726562 131.046875 L 126.695312 131.992188 L 118.558594 130.503906 Z M 116.726562 131.046875 "/>
<path style=" stroke:none;fill-rule:nonzero;fill:rgb(100%,100%,100%);fill-opacity:1;" d="M 120.066406 142.3125 L 127.8125 135.980469 L 120.980469 140.640625 Z M 120.066406 142.3125 "/>
<path style=" stroke:none;fill-rule:nonzero;fill:rgb(12.159729%,6.269836%,5.099487%);fill-opacity:1;" d="M 184.144531 106.742188 C 184.144531 106.742188 185.425781 105.511719 187.789062 104.285156 C 188.964844 103.664062 190.40625 103.023438 192.042969 102.570312 C 192.859375 102.328125 193.726562 102.132812 194.617188 102.007812 C 195.511719 101.863281 196.425781 101.804688 197.355469 101.761719 C 198.25 101.742188 199.277344 101.777344 200.074219 101.839844 C 200.996094 101.914062 201.933594 102.082031 202.765625 102.25 C 203.609375 102.464844 204.425781 102.675781 205.171875 102.960938 C 205.921875 103.242188 206.617188 103.527344 207.25 103.820312 C 209.773438 105.03125 211.175781 106.316406 211.265625 106.390625 C 212.128906 107.191406 212.183594 108.542969 211.382812 109.410156 C 210.75 110.101562 209.761719 110.277344 208.945312 109.914062 L 208.574219 109.75 C 208.582031 109.753906 208.542969 109.734375 208.394531 109.648438 C 208.242188 109.558594 208.023438 109.433594 207.75 109.269531 C 207.167969 108.957031 206.328125 108.484375 205.277344 108.003906 C 204.753906 107.753906 204.175781 107.507812 203.554688 107.265625 C 202.933594 107.035156 202.28125 106.773438 201.585938 106.558594 C 200.875 106.320312 200.207031 106.121094 199.480469 105.914062 C 198.628906 105.699219 197.957031 105.566406 197.160156 105.433594 C 196.382812 105.328125 195.601562 105.234375 194.820312 105.21875 C 194.042969 105.195312 193.265625 105.179688 192.507812 105.234375 C 191.753906 105.261719 191.027344 105.363281 190.328125 105.457031 C 189.636719 105.546875 188.976562 105.679688 188.367188 105.8125 C 185.949219 106.386719 184.40625 107.125 184.40625 107.125 C 184.292969 107.179688 184.152344 107.128906 184.09375 107.011719 C 184.050781 106.921875 184.078125 106.808594 184.144531 106.742188 "/>
<path style=" stroke:none;fill-rule:nonzero;fill:rgb(12.159729%,6.269836%,5.099487%);fill-opacity:1;" d="M 131.390625 107.125 C 131.390625 107.125 129.847656 106.386719 127.429688 105.8125 C 125.003906 105.253906 121.734375 104.964844 118.640625 105.433594 C 117.839844 105.566406 117.171875 105.695312 116.320312 105.914062 C 115.589844 106.121094 114.917969 106.316406 114.210938 106.554688 C 113.515625 106.773438 112.867188 107.035156 112.242188 107.265625 C 111.625 107.507812 111.042969 107.753906 110.523438 108.003906 C 109.46875 108.484375 108.628906 108.957031 108.050781 109.269531 C 107.773438 109.433594 107.554688 109.558594 107.40625 109.648438 C 107.257812 109.734375 107.21875 109.753906 107.226562 109.75 L 106.855469 109.914062 C 105.777344 110.394531 104.511719 109.910156 104.03125 108.832031 C 103.648438 107.972656 103.882812 106.996094 104.535156 106.390625 C 104.621094 106.316406 106.027344 105.03125 108.550781 103.820312 C 109.183594 103.527344 109.878906 103.242188 110.628906 102.957031 C 111.371094 102.675781 112.1875 102.464844 113.03125 102.25 C 113.859375 102.082031 114.800781 101.914062 115.726562 101.839844 C 116.523438 101.777344 117.550781 101.742188 118.441406 101.761719 C 119.371094 101.804688 120.289062 101.863281 121.179688 102.007812 C 122.070312 102.132812 122.9375 102.328125 123.753906 102.570312 C 125.390625 103.023438 126.832031 103.664062 128.011719 104.285156 C 130.371094 105.511719 131.648438 106.742188 131.648438 106.742188 C 131.746094 106.832031 131.75 106.976562 131.660156 107.074219 C 131.59375 107.144531 131.480469 107.164062 131.390625 107.125 "/>
<path style=" stroke:none;fill-rule:nonzero;fill:rgb(32.939148%,16.859436%,9.01947%);fill-opacity:1;" d="M 158.449219 189.320312 C 147.761719 189.320312 138.578125 180.832031 138.136719 180.417969 C 143.398438 183.898438 150.480469 186.730469 158.449219 186.738281 C 158.457031 186.738281 158.464844 186.738281 158.472656 186.738281 C 167.046875 186.738281 174.613281 183.296875 179.855469 179.355469 C 179.019531 180.132812 168.9375 189.320312 158.449219 189.320312 "/>
<path style=" stroke:none;fill-rule:nonzero;fill:rgb(59.609985%,14.509583%,19.219971%);fill-opacity:1;" d="M 128.660156 169.796875 C 129.441406 174.761719 142.074219 186.730469 158.449219 186.738281 C 174.710938 186.753906 187.371094 174.378906 187.371094 169.664062 C 178.15625 173.617188 172.804688 171.261719 158.449219 171.261719 C 144.09375 171.261719 139.109375 173.617188 128.660156 169.796875 "/>
<path style=" stroke:none;fill-rule:nonzero;fill:rgb(79.219055%,19.60907%,26.669312%);fill-opacity:1;" d="M 139.605469 181.339844 C 144.679688 184.382812 151.195312 186.734375 158.449219 186.738281 C 165.9375 186.746094 172.667969 184.125 177.742188 180.835938 C 180.566406 179.003906 159.59375 178.589844 158.636719 180.886719 C 155.761719 178.207031 136.246094 179.328125 139.605469 181.339844 "/>
<path style=" stroke:none;fill-rule:nonzero;fill:rgb(100%,100%,100%);fill-opacity:1;" d="M 159.113281 178.203125 C 178.441406 178.203125 181.570312 176.417969 182.089844 175.832031 C 184.042969 173.640625 185.128906 171.597656 185.128906 170.214844 C 175.917969 174.167969 172.804688 171.261719 158.449219 171.261719 C 144.09375 171.261719 141.640625 174.632812 131.191406 170.816406 C 131.40625 172.164062 132.503906 174.035156 134.3125 176.039062 C 134.914062 176.707031 139.78125 178.203125 159.113281 178.203125 "/>
<path style=" stroke:none;fill-rule:nonzero;fill:rgb(32.939148%,16.859436%,9.01947%);fill-opacity:1;" d="M 140.742188 171.980469 C 136.921875 171.980469 133.339844 171.507812 128.660156 169.796875 C 128.699219 170.046875 128.765625 170.3125 128.867188 170.589844 C 128.292969 170.3125 127.773438 170.046875 127.320312 169.804688 C 125.667969 168.925781 124.792969 168.304688 124.792969 168.304688 C 124.792969 168.304688 125.828125 168.539062 127.632812 168.949219 C 129.433594 169.332031 132.011719 169.851562 135.046875 170.210938 C 136.246094 170.339844 137.523438 170.421875 138.828125 170.421875 C 139.171875 170.421875 139.515625 170.414062 139.867188 170.402344 C 140.632812 170.371094 141.65625 170.265625 142.574219 170.199219 C 143.496094 170.117188 144.433594 170.03125 145.386719 169.941406 C 147.324219 169.757812 149.324219 169.480469 151.414062 169.304688 C 153.492188 169.105469 155.648438 168.988281 157.828125 168.972656 C 157.859375 168.972656 157.894531 168.972656 157.925781 168.972656 C 160.105469 168.972656 162.171875 169.128906 164.199219 169.257812 C 166.269531 169.394531 168.351562 169.660156 170.285156 169.835938 C 172.238281 170.027344 174.101562 170.234375 175.863281 170.378906 C 176.277344 170.410156 176.804688 170.472656 177.105469 170.484375 C 177.339844 170.496094 177.574219 170.5 177.792969 170.5 C 177.984375 170.5 178.167969 170.496094 178.324219 170.488281 C 178.335938 170.488281 178.351562 170.488281 178.363281 170.488281 C 179.066406 170.488281 179.878906 170.40625 180.601562 170.316406 C 183.621094 169.90625 186.203125 169.332031 188 168.941406 C 189.8125 168.535156 190.847656 168.304688 190.847656 168.304688 C 190.847656 168.304688 189.96875 168.910156 188.324219 169.800781 C 188.007812 169.96875 187.667969 170.152344 187.300781 170.34375 C 187.347656 170.101562 187.371094 169.878906 187.371094 169.664062 C 186.59375 170 185.84375 170.289062 185.113281 170.539062 C 185.125 170.425781 185.128906 170.320312 185.128906 170.214844 C 183.929688 170.730469 182.832031 171.128906 181.800781 171.429688 C 179.847656 171.824219 177.957031 171.957031 175.949219 171.957031 C 171.40625 171.957031 166.269531 171.261719 158.480469 171.261719 C 158.46875 171.261719 158.457031 171.261719 158.449219 171.261719 C 158.4375 171.261719 158.429688 171.261719 158.417969 171.261719 C 150.507812 171.261719 145.441406 171.980469 140.742188 171.980469 "/>
<path style=" stroke:none;fill-rule:nonzero;fill:rgb(40.779114%,9.408569%,11.369324%);fill-opacity:1;" d="M 140.328125 172.636719 C 137.699219 172.636719 134.972656 172.195312 131.191406 170.816406 C 131.238281 171.097656 131.320312 171.402344 131.441406 171.722656 C 130.480469 171.34375 129.625 170.957031 128.867188 170.589844 C 128.765625 170.3125 128.699219 170.046875 128.660156 169.796875 C 133.339844 171.507812 136.921875 171.980469 140.742188 171.980469 C 145.441406 171.980469 150.507812 171.261719 158.417969 171.261719 C 149.269531 171.265625 144.964844 172.636719 140.328125 172.636719 M 175.792969 172.292969 C 171.5625 172.292969 167.003906 171.261719 158.480469 171.261719 C 166.269531 171.261719 171.40625 171.957031 175.949219 171.957031 C 177.957031 171.957031 179.847656 171.824219 181.800781 171.429688 C 179.625 172.070312 177.742188 172.292969 175.792969 172.292969 M 184.886719 171.5 C 185.003906 171.15625 185.078125 170.832031 185.113281 170.539062 C 185.84375 170.289062 186.59375 170 187.371094 169.664062 C 187.371094 169.878906 187.347656 170.101562 187.300781 170.34375 C 186.59375 170.707031 185.789062 171.101562 184.886719 171.5 "/>
<path style=" stroke:none;fill-rule:nonzero;fill:rgb(64.309692%,57.249451%,52.549744%);fill-opacity:1;" d="M 143.636719 173.996094 C 143.300781 173.996094 142.964844 173.988281 142.636719 173.976562 C 141.660156 173.921875 140.828125 173.910156 139.792969 173.824219 C 137.835938 173.679688 136.085938 173.253906 134.515625 172.792969 C 133.398438 172.457031 132.371094 172.09375 131.441406 171.722656 C 131.320312 171.402344 131.238281 171.097656 131.191406 170.816406 C 134.972656 172.195312 137.699219 172.636719 140.328125 172.636719 C 144.964844 172.636719 149.269531 171.265625 158.417969 171.261719 C 158.429688 171.261719 158.4375 171.261719 158.449219 171.261719 C 158.457031 171.261719 158.46875 171.261719 158.480469 171.261719 C 167.003906 171.261719 171.5625 172.292969 175.792969 172.292969 C 177.742188 172.292969 179.625 172.070312 181.800781 171.429688 C 182.832031 171.128906 183.929688 170.730469 185.128906 170.214844 C 185.128906 170.320312 185.125 170.425781 185.113281 170.539062 C 185.078125 170.832031 185.003906 171.15625 184.886719 171.5 C 183.796875 171.984375 182.558594 172.46875 181.175781 172.90625 C 180.371094 173.152344 179.585938 173.386719 178.605469 173.5625 C 178.101562 173.671875 177.671875 173.703125 177.238281 173.753906 C 176.667969 173.800781 176.304688 173.796875 175.816406 173.820312 C 174.890625 173.847656 173.945312 173.886719 172.96875 173.917969 C 172.859375 173.921875 172.746094 173.921875 172.632812 173.921875 C 171.785156 173.921875 170.917969 173.886719 170.042969 173.875 C 168.042969 173.824219 166.066406 173.800781 164 173.707031 C 162.125 173.6875 160.226562 173.554688 158.410156 173.554688 C 158.21875 173.554688 158.027344 173.554688 157.832031 173.558594 C 157.722656 173.558594 157.613281 173.558594 157.507812 173.558594 C 155.589844 173.558594 153.660156 173.652344 151.722656 173.746094 C 149.6875 173.859375 147.617188 173.910156 145.628906 173.96875 C 144.960938 173.976562 144.292969 173.996094 143.636719 173.996094 "/>
<path style=" stroke:none;fill-rule:nonzero;fill:rgb(32.939148%,16.859436%,9.01947%);fill-opacity:1;" d="M 159.605469 195.320312 C 158.269531 195.320312 156.929688 195.179688 155.714844 194.8125 C 155.015625 194.660156 154.382812 194.351562 153.785156 194.105469 C 153.179688 193.863281 152.667969 193.496094 152.1875 193.21875 C 151.710938 192.910156 151.316406 192.542969 150.96875 192.257812 C 150.597656 191.980469 150.382812 191.664062 150.164062 191.429688 C 149.753906 190.945312 149.53125 190.648438 149.53125 190.648438 C 149.53125 190.648438 149.878906 190.777344 150.464844 191.03125 C 150.753906 191.15625 151.101562 191.347656 151.507812 191.46875 C 151.894531 191.601562 152.335938 191.757812 152.816406 191.925781 C 153.320312 192.046875 153.832031 192.226562 154.394531 192.34375 C 154.964844 192.445312 155.542969 192.585938 156.164062 192.640625 C 156.773438 192.738281 157.417969 192.769531 158.0625 192.808594 C 158.382812 192.820312 158.703125 192.824219 159.027344 192.824219 C 159.363281 192.824219 159.699219 192.820312 160.035156 192.800781 C 162.679688 192.691406 165.34375 192.160156 167.363281 191.644531 C 168.371094 191.375 169.222656 191.128906 169.828125 190.945312 C 170.417969 190.75 170.777344 190.648438 170.777344 190.648438 C 170.777344 190.648438 170.539062 190.921875 170.078125 191.378906 C 169.601562 191.808594 168.886719 192.402344 167.929688 192.96875 C 166.980469 193.546875 165.800781 194.09375 164.46875 194.535156 C 163.800781 194.726562 163.105469 194.945312 162.371094 195.058594 C 161.644531 195.203125 160.890625 195.265625 160.132812 195.308594 C 159.957031 195.316406 159.78125 195.320312 159.605469 195.320312 "/>
<path style=" stroke:none;fill-rule:nonzero;fill:rgb(7.449341%,3.138733%,2.349854%);fill-opacity:1;" d="M 83.59375 68.257812 C 87.972656 63.671875 91.890625 58.152344 93.140625 53.0625 C 93.859375 52.496094 94.566406 51.910156 95.257812 51.320312 L 94.507812 49.246094 C 94.195312 49.574219 93.875 49.902344 93.550781 50.234375 C 93.589844 49.109375 93.46875 48.019531 93.152344 46.984375 C 93.347656 47.027344 93.539062 47.074219 93.734375 47.117188 L 92.964844 45 C 92.710938 44.96875 92.464844 44.941406 92.214844 44.914062 C 88.414062 38.738281 77.179688 36.558594 67.945312 36.558594 C 64.433594 36.558594 61.210938 36.875 58.796875 37.40625 C 58.789062 35.875 59.195312 34.867188 60.15625 34.492188 C 62.535156 33.558594 66.808594 32.964844 71.621094 32.964844 C 77.726562 32.964844 84.707031 33.921875 89.847656 36.347656 C 90.644531 35.335938 91.84375 34.519531 93.582031 33.839844 C 94.925781 33.308594 96.101562 33.042969 97.148438 33.042969 C 97.386719 33.042969 97.613281 33.054688 97.839844 33.085938 C 95.738281 36.769531 94.542969 40.507812 95.03125 43.804688 C 94.863281 44 94.695312 44.191406 94.523438 44.386719 L 95.292969 46.507812 C 95.40625 46.339844 95.527344 46.175781 95.644531 46.003906 C 96.066406 47 96.667969 47.90625 97.414062 48.722656 C 96.960938 48.699219 96.511719 48.667969 96.070312 48.636719 L 96.820312 50.714844 C 97.714844 50.683594 98.617188 50.632812 99.515625 50.5625 C 100.011719 50.914062 100.546875 51.246094 101.105469 51.558594 C 100.808594 51.691406 100.492188 51.820312 100.160156 51.953125 C 98.574219 52.574219 97.273438 52.921875 96.148438 52.921875 C 95.984375 52.921875 95.820312 52.910156 95.660156 52.898438 C 93.203125 58.410156 88.308594 64.070312 83.59375 68.257812 M 133.394531 51.125 C 133.386719 47.125 130.589844 39.667969 127.679688 31.671875 C 123.960938 21.417969 121.109375 13.988281 118.21875 13.988281 C 118 13.988281 117.785156 14.03125 117.570312 14.113281 C 115.335938 14.992188 112.046875 17.226562 108.660156 20.222656 C 113.210938 15.460938 118.246094 11.714844 121.300781 10.515625 C 121.519531 10.429688 121.734375 10.386719 121.953125 10.386719 C 124.84375 10.386719 127.695312 17.816406 131.417969 28.074219 C 135.421875 39.09375 139.226562 49.085938 135.789062 50.429688 C 135.128906 50.691406 134.320312 50.921875 133.394531 51.125 "/>
<path style=" stroke:none;fill-rule:nonzero;fill:rgb(84.309387%,17.649841%,34.509277%);fill-opacity:1;" d="M 59.988281 58.21875 C 63.988281 69.242188 67.480469 79.355469 70.914062 78.011719 C 78.238281 75.140625 97.007812 57.570312 93.003906 46.546875 C 89.003906 35.523438 63.75 35.222656 56.421875 38.09375 C 53.300781 39.316406 55.984375 47.195312 59.988281 58.21875 "/>
<path style=" stroke:none;fill-rule:nonzero;fill:rgb(60.778809%,12.548828%,23.529053%);fill-opacity:1;" d="M 58.960938 42.457031 C 57.484375 42.457031 56.542969 41.945312 56.257812 40.503906 C 55.738281 37.824219 61.019531 36.847656 67.117188 36.847656 C 74.363281 36.847656 82.761719 38.226562 83.945312 39.753906 C 81.964844 39.363281 80.03125 39.199219 78.164062 39.199219 C 73.957031 39.199219 70.082031 40.019531 66.796875 40.832031 C 63.511719 41.644531 60.816406 42.457031 58.960938 42.457031 "/>
<path style=" stroke:none;fill-rule:nonzero;fill:rgb(6.269836%,2.349854%,1.568604%);fill-opacity:1;" d="M 93.734375 47.117188 C 93.539062 47.074219 93.347656 47.027344 93.152344 46.984375 C 93.105469 46.835938 93.058594 46.691406 93.003906 46.546875 C 92.796875 45.972656 92.53125 45.429688 92.214844 44.914062 C 92.464844 44.941406 92.710938 44.96875 92.964844 45 L 93.734375 47.117188 "/>
<path style=" stroke:none;fill-rule:nonzero;fill:rgb(60.778809%,12.548828%,23.529053%);fill-opacity:1;" d="M 93.152344 46.984375 C 89.273438 46.097656 84.941406 45.371094 80.769531 45.371094 C 79.683594 45.371094 78.605469 45.421875 77.550781 45.53125 C 78.957031 44.835938 81.816406 44.503906 85.207031 44.503906 C 87.402344 44.503906 89.820312 44.644531 92.214844 44.914062 C 92.53125 45.429688 92.796875 45.972656 93.003906 46.546875 C 93.058594 46.691406 93.105469 46.835938 93.152344 46.984375 "/>
<path style=" stroke:none;fill-rule:nonzero;fill:rgb(6.269836%,2.349854%,1.568604%);fill-opacity:1;" d="M 93.140625 53.0625 C 93.378906 52.101562 93.519531 51.15625 93.550781 50.234375 C 93.875 49.902344 94.195312 49.574219 94.507812 49.246094 L 95.257812 51.320312 C 94.566406 51.910156 93.859375 52.496094 93.140625 53.0625 "/>
<path style=" stroke:none;fill-rule:nonzero;fill:rgb(60.778809%,12.548828%,23.529053%);fill-opacity:1;" d="M 81.566406 59.640625 C 86.023438 57.375 90.136719 53.738281 93.550781 50.234375 C 93.519531 51.15625 93.378906 52.101562 93.140625 53.0625 C 88.707031 56.546875 83.953125 59.359375 81.566406 59.640625 "/>
<path style=" stroke:none;fill-rule:nonzero;fill:rgb(60.778809%,12.548828%,23.529053%);fill-opacity:1;" d="M 75.914062 54.933594 C 75.746094 54.933594 75.589844 54.925781 75.445312 54.910156 C 80.75 53.652344 87.574219 49.964844 91.777344 47.164062 L 92.222656 49.316406 C 86.859375 52.105469 79.121094 54.933594 75.914062 54.933594 "/>
<path style=" stroke:none;fill-rule:nonzero;fill:rgb(90.589905%,38.819885%,52.549744%);fill-opacity:1;" d="M 70.773438 77.078125 C 68.835938 77.078125 64.96875 69.488281 61.347656 59.816406 C 57.558594 49.699219 57.183594 43.160156 57.183594 43.160156 C 57.183594 43.160156 58.792969 47.921875 62.582031 58.035156 C 66.367188 68.152344 72.871094 76.289062 71.03125 77.027344 C 70.949219 77.0625 70.863281 77.078125 70.773438 77.078125 "/>
<path style=" stroke:none;fill-rule:nonzero;fill:rgb(84.309387%,17.649841%,34.509277%);fill-opacity:1;" d="M 127.679688 31.671875 C 131.683594 42.695312 135.488281 52.683594 132.0625 54.03125 C 124.734375 56.902344 99.476562 56.605469 95.476562 45.578125 C 91.472656 34.554688 110.242188 16.988281 117.570312 14.113281 C 120.6875 12.890625 123.683594 20.648438 127.679688 31.671875 "/>
<path style=" stroke:none;fill-rule:nonzero;fill:rgb(60.778809%,12.548828%,23.529053%);fill-opacity:1;" d="M 97.964844 34.253906 C 97.828125 31.050781 112.386719 14.957031 117.6875 14.957031 C 118.371094 14.957031 118.894531 15.222656 119.21875 15.8125 C 122.089844 20.996094 106.976562 22.207031 97.964844 34.253906 "/>
<path style=" stroke:none;fill-rule:nonzero;fill:rgb(6.269836%,2.349854%,1.568604%);fill-opacity:1;" d="M 95.292969 46.507812 L 94.523438 44.386719 C 94.695312 44.191406 94.863281 44 95.03125 43.804688 C 95.121094 44.410156 95.269531 45.003906 95.476562 45.578125 C 95.53125 45.722656 95.582031 45.863281 95.644531 46.003906 C 95.527344 46.175781 95.40625 46.339844 95.292969 46.507812 "/>
<path style=" stroke:none;fill-rule:nonzero;fill:rgb(60.778809%,12.548828%,23.529053%);fill-opacity:1;" d="M 95.644531 46.003906 C 95.582031 45.863281 95.53125 45.722656 95.476562 45.578125 C 95.269531 45.003906 95.121094 44.410156 95.03125 43.804688 C 99.167969 39.109375 103.96875 34.9375 106.433594 34.199219 C 102.269531 37.3125 98.605469 41.8125 95.644531 46.003906 "/>
<path style=" stroke:none;fill-rule:nonzero;fill:rgb(6.269836%,2.349854%,1.568604%);fill-opacity:1;" d="M 96.820312 50.714844 L 96.070312 48.636719 C 96.511719 48.667969 96.960938 48.699219 97.414062 48.722656 C 98.023438 49.394531 98.726562 50.007812 99.515625 50.5625 C 98.617188 50.632812 97.714844 50.683594 96.820312 50.714844 "/>
<path style=" stroke:none;fill-rule:nonzero;fill:rgb(60.778809%,12.548828%,23.529053%);fill-opacity:1;" d="M 99.515625 50.5625 C 98.726562 50.007812 98.023438 49.394531 97.414062 48.722656 C 98.753906 48.804688 100.140625 48.855469 101.546875 48.855469 C 105.175781 48.855469 108.9375 48.527344 112.382812 47.550781 C 110.414062 48.984375 105.058594 50.136719 99.515625 50.5625 "/>
<path style=" stroke:none;fill-rule:nonzero;fill:rgb(60.778809%,12.548828%,23.529053%);fill-opacity:1;" d="M 97.824219 47.121094 L 96.789062 45.199219 C 101.726562 44.417969 109.191406 42.496094 113.972656 39.800781 C 112.035156 42 103.925781 45.449219 97.824219 47.121094 "/>
<path style=" stroke:none;fill-rule:nonzero;fill:rgb(90.589905%,38.819885%,52.549744%);fill-opacity:1;" d="M 131.175781 53.40625 C 129.476562 53.40625 129.089844 43.183594 125.621094 33.316406 C 122.027344 23.121094 120.21875 18.4375 120.21875 18.4375 C 120.21875 18.4375 124.089844 23.609375 127.675781 33.804688 C 131.265625 44 133.203125 52.664062 131.347656 53.371094 C 131.289062 53.394531 131.234375 53.40625 131.175781 53.40625 "/>
<path style=" stroke:none;fill-rule:nonzero;fill:rgb(93.728638%,19.999695%,39.219666%);fill-opacity:1;" d="M 100.46875 44.164062 C 103.019531 51.1875 101.738281 53.46875 96.429688 55.554688 C 91.117188 57.632812 88.929688 56.710938 86.382812 49.691406 C 83.832031 42.671875 84.539062 39.515625 89.851562 37.4375 C 95.160156 35.351562 97.921875 37.140625 100.46875 44.164062 "/>
<path style=" stroke:none;fill-rule:nonzero;fill:rgb(90.979004%,65.098572%,10.978699%);fill-opacity:1;" d="M 162.9375 245.394531 C 162.9375 248.546875 160.382812 251.101562 157.222656 251.101562 C 154.070312 251.101562 151.511719 248.546875 151.511719 245.394531 C 151.511719 242.238281 154.070312 239.679688 157.222656 239.679688 C 160.382812 239.679688 162.9375 242.238281 162.9375 245.394531 "/>
<path style=" stroke:none;fill-rule:nonzero;fill:rgb(94.898987%,94.509888%,85.099792%);fill-opacity:1;" d="M 151.710938 246.894531 C 151.578125 246.789062 151.511719 246.605469 151.511719 246.320312 C 151.511719 246.164062 151.515625 246.011719 151.527344 245.859375 C 151.554688 246.214844 151.617188 246.558594 151.710938 246.894531 "/>
<path style=" stroke:none;fill-rule:nonzero;fill:rgb(94.509888%,78.42865%,20.779419%);fill-opacity:1;" d="M 152.046875 246.996094 C 151.910156 246.996094 151.796875 246.964844 151.710938 246.894531 C 151.617188 246.558594 151.554688 246.214844 151.527344 245.859375 C 151.761719 242.914062 154.226562 240.609375 157.222656 240.609375 C 159.902344 240.609375 153.914062 246.996094 152.046875 246.996094 "/>
<path style=" stroke:none;fill-rule:nonzero;fill:rgb(90.979004%,65.098572%,10.978699%);fill-opacity:1;" d="M 162.9375 259.613281 C 162.9375 262.765625 160.382812 265.324219 157.222656 265.324219 C 154.070312 265.324219 151.511719 262.765625 151.511719 259.613281 C 151.511719 256.460938 154.070312 253.902344 157.222656 253.902344 C 160.382812 253.902344 162.9375 256.460938 162.9375 259.613281 "/>
<path style=" stroke:none;fill-rule:nonzero;fill:rgb(94.898987%,94.509888%,85.099792%);fill-opacity:1;" d="M 151.710938 261.113281 C 151.578125 261.007812 151.511719 260.820312 151.511719 260.539062 C 151.511719 260.382812 151.515625 260.230469 151.527344 260.078125 C 151.554688 260.429688 151.621094 260.777344 151.710938 261.113281 "/>
<path style=" stroke:none;fill-rule:nonzero;fill:rgb(94.509888%,78.42865%,20.779419%);fill-opacity:1;" d="M 152.046875 261.214844 C 151.910156 261.214844 151.796875 261.183594 151.710938 261.113281 C 151.621094 260.777344 151.554688 260.429688 151.527344 260.078125 C 151.761719 257.136719 154.226562 254.828125 157.222656 254.828125 C 159.902344 254.828125 153.914062 261.214844 152.046875 261.214844 "/>
<path style=" stroke:none;fill-rule:nonzero;fill:rgb(82.749939%,81.568909%,66.268921%);fill-opacity:1;" d="M 157.453125 271.835938 C 154.488281 271.835938 151.519531 271.824219 148.550781 271.800781 L 147.4375 271.792969 L 147.449219 270.699219 C 147.507812 264.964844 147.613281 259.234375 147.769531 253.5 C 147.875 250.632812 147.945312 247.765625 148.097656 244.898438 C 148.242188 242.03125 148.351562 239.167969 148.550781 236.300781 C 148.757812 239.167969 148.863281 242.03125 149.007812 244.898438 C 149.164062 247.765625 149.230469 250.632812 149.339844 253.5 C 149.488281 258.859375 149.589844 264.222656 149.648438 269.585938 C 152.222656 269.570312 154.800781 269.558594 157.371094 269.558594 C 160.050781 269.558594 162.730469 269.570312 165.40625 269.585938 C 165.464844 264.222656 165.566406 258.859375 165.714844 253.5 C 165.824219 250.632812 165.890625 247.765625 166.046875 244.898438 C 166.183594 242.03125 166.292969 239.167969 166.496094 236.300781 C 166.703125 239.167969 166.808594 242.03125 166.953125 244.898438 C 167.105469 247.765625 167.171875 250.632812 167.277344 253.5 C 167.441406 259.234375 167.542969 264.964844 167.601562 270.699219 L 167.609375 271.792969 L 166.496094 271.800781 C 163.484375 271.824219 160.46875 271.835938 157.453125 271.835938 "/>
</g>
</svg>
