<?xml version="1.0" encoding="UTF-8"?>
<svg xmlns="http://www.w3.org/2000/svg" xmlns:xlink="http://www.w3.org/1999/xlink" width="375pt" height="374.999991pt" viewBox="0 0 375 374.999991" version="1.2">
<defs>
<filter id="alpha" filterUnits="objectBoundingBox" x="0%" y="0%" width="100%" height="100%">
  <feColorMatrix type="matrix" in="SourceGraphic" values="0 0 0 0 1 0 0 0 0 1 0 0 0 0 1 0 0 0 1 0"/>
</filter>
<mask id="mask0">
  <g filter="url(#alpha)">
<rect x="0" y="0" width="375" height="374.999991" style="fill:rgb(0%,0%,0%);fill-opacity:0.349;stroke:none;"/>
  </g>
</mask>
<clipPath id="clip2">
  <path d="M 142 16 L 222.839844 16 L 222.839844 141 L 142 141 Z M 142 16 "/>
</clipPath>
<clipPath id="clip3">
  <path d="M 0.671875 187 L 205 187 L 205 369 L 0.671875 369 Z M 0.671875 187 "/>
</clipPath>
<clipPath id="clip4">
  <path d="M 114 0.574219 L 161 0.574219 L 161 48 L 114 48 Z M 114 0.574219 "/>
</clipPath>
<clipPath id="clip1">
  <rect x="0" y="0" width="223" height="370"/>
</clipPath>
<g id="surface5" clip-path="url(#clip1)">
<g clip-path="url(#clip2)" clip-rule="nonzero">
<path style=" stroke:none;fill-rule:nonzero;fill:rgb(0%,65.879822%,50.588989%);fill-opacity:1;" d="M 156.933594 16.804688 C 156.933594 16.804688 188.699219 17.394531 188.699219 65.648438 C 188.699219 113.902344 208.699219 116.84375 216.347656 108.605469 C 223.992188 100.367188 231.640625 135.085938 193.109375 139.792969 C 154.582031 144.503906 150.773438 115.652344 153.878906 102.132812 C 156.984375 88.613281 146.84375 44.460938 143.359375 45.640625 C 139.875 46.816406 156.933594 16.804688 156.933594 16.804688 "/>
</g>
<path style=" stroke:none;fill-rule:nonzero;fill:rgb(100%,100%,100%);fill-opacity:1;" d="M 170.734375 110.433594 C 170.734375 122.929688 160.605469 133.058594 148.117188 133.058594 L 118.972656 133.058594 L 118.972656 87.8125 L 148.117188 87.8125 C 160.605469 87.8125 170.734375 97.941406 170.734375 110.433594 "/>
<path style=" stroke:none;fill-rule:nonzero;fill:rgb(0%,65.879822%,50.588989%);fill-opacity:1;" d="M 165.4375 110.433594 C 165.4375 117.066406 161.539062 123.269531 155.535156 126.117188 C 151.789062 127.890625 147.898438 127.765625 143.886719 127.765625 C 135.582031 127.765625 127.277344 127.765625 118.972656 127.765625 C 120.738281 129.53125 122.503906 131.292969 124.269531 133.058594 C 124.269531 117.976562 124.269531 102.894531 124.269531 87.8125 C 122.503906 89.578125 120.738281 91.34375 118.972656 93.105469 C 127.167969 93.105469 135.363281 93.105469 143.558594 93.105469 C 147.347656 93.105469 151.125 92.894531 154.71875 94.378906 C 161.277344 97.085938 165.257812 103.460938 165.4375 110.433594 C 165.613281 117.238281 176.203125 117.265625 176.027344 110.433594 C 175.601562 94.148438 162.742188 82.582031 146.761719 82.515625 C 137.5 82.476562 128.234375 82.515625 118.972656 82.515625 C 116.109375 82.515625 113.679688 84.941406 113.679688 87.8125 C 113.679688 102.894531 113.679688 117.976562 113.679688 133.058594 C 113.679688 135.921875 116.105469 138.355469 118.972656 138.355469 C 128.300781 138.355469 137.632812 138.40625 146.957031 138.355469 C 162.554688 138.269531 176.027344 126.589844 176.027344 110.433594 C 176.027344 103.621094 165.4375 103.605469 165.4375 110.433594 "/>
<path style=" stroke:none;fill-rule:nonzero;fill:rgb(100%,100%,100%);fill-opacity:1;" d="M 31.285156 110.433594 C 31.285156 122.929688 41.410156 133.058594 53.902344 133.058594 L 83.042969 133.058594 L 83.042969 87.8125 L 53.902344 87.8125 C 41.410156 87.8125 31.285156 97.941406 31.285156 110.433594 "/>
<path style=" stroke:none;fill-rule:nonzero;fill:rgb(0%,65.879822%,50.588989%);fill-opacity:1;" d="M 25.988281 110.433594 C 25.988281 126.589844 39.460938 138.269531 55.058594 138.355469 C 64.386719 138.40625 73.714844 138.355469 83.042969 138.355469 C 85.902344 138.355469 88.335938 135.929688 88.335938 133.058594 C 88.335938 117.976562 88.335938 102.894531 88.335938 87.8125 C 88.335938 84.949219 85.910156 82.515625 83.042969 82.515625 C 73.78125 82.515625 64.515625 82.464844 55.253906 82.515625 C 39.277344 82.601562 26.417969 94.136719 25.988281 110.433594 C 25.8125 117.253906 36.402344 117.25 36.578125 110.433594 C 36.757812 103.605469 40.546875 97.375 46.890625 94.566406 C 50.617188 92.914062 54.5 93.105469 58.457031 93.105469 C 66.652344 93.105469 74.847656 93.105469 83.042969 93.105469 C 81.277344 91.34375 79.511719 89.578125 77.75 87.8125 C 77.75 102.894531 77.75 117.976562 77.75 133.058594 C 79.511719 131.292969 81.277344 129.53125 83.042969 127.765625 C 74.738281 127.765625 66.433594 127.765625 58.128906 127.765625 C 54.277344 127.765625 50.511719 127.921875 46.890625 126.304688 C 40.671875 123.527344 36.578125 117.242188 36.578125 110.433594 C 36.578125 103.621094 25.988281 103.605469 25.988281 110.433594 "/>
<path style=" stroke:none;fill-rule:nonzero;fill:rgb(100%,100%,100%);fill-opacity:1;" d="M 69.59375 158.34375 L 69.59375 208.683594 L 135.746094 208.683594 L 135.746094 155.898438 L 69.59375 158.34375 "/>
<path style=" stroke:none;fill-rule:nonzero;fill:rgb(0%,65.879822%,50.588989%);fill-opacity:1;" d="M 64.300781 158.34375 C 64.300781 175.125 64.300781 191.902344 64.300781 208.683594 C 64.300781 211.546875 66.726562 213.980469 69.59375 213.980469 C 91.644531 213.980469 113.699219 213.980469 135.746094 213.980469 C 138.609375 213.980469 141.039062 211.550781 141.039062 208.683594 C 141.039062 191.089844 141.039062 173.492188 141.039062 155.898438 C 141.039062 149.082031 130.453125 149.074219 130.453125 155.898438 C 130.453125 173.492188 130.453125 191.089844 130.453125 208.683594 C 132.214844 206.917969 133.980469 205.152344 135.746094 203.386719 C 113.699219 203.386719 91.644531 203.386719 69.59375 203.386719 C 71.359375 205.152344 73.121094 206.917969 74.886719 208.683594 C 74.886719 191.902344 74.886719 175.125 74.886719 158.34375 C 74.886719 151.53125 64.300781 151.519531 64.300781 158.34375 "/>
<path style=" stroke:none;fill-rule:nonzero;fill:rgb(100%,100%,100%);fill-opacity:1;" d="M 100.8125 173.054688 C 74.152344 173.054688 52.542969 151.433594 52.542969 124.765625 L 52.542969 56.609375 L 149.085938 56.609375 L 149.085938 124.765625 C 149.085938 151.433594 127.472656 173.054688 100.8125 173.054688 "/>
<path style=" stroke:none;fill-rule:nonzero;fill:rgb(0%,65.879822%,50.588989%);fill-opacity:1;" d="M 100.8125 167.757812 C 76.40625 167.757812 57.898438 147.476562 57.835938 123.597656 C 57.792969 107.246094 57.835938 90.894531 57.835938 74.542969 C 57.835938 68.5625 57.835938 62.589844 57.835938 56.609375 C 56.070312 58.375 54.308594 60.140625 52.542969 61.90625 C 80.695312 61.90625 108.847656 61.90625 137 61.90625 C 141.03125 61.90625 145.054688 61.90625 149.085938 61.90625 C 147.320312 60.140625 145.554688 58.375 143.789062 56.609375 C 143.789062 70.878906 143.789062 85.144531 143.789062 99.414062 C 143.789062 115.300781 146.105469 133.140625 137.429688 147.285156 C 129.601562 160.042969 115.683594 167.574219 100.8125 167.757812 C 94.003906 167.84375 93.984375 178.4375 100.8125 178.351562 C 130.25 177.984375 154.070312 154.175781 154.378906 124.707031 C 154.546875 108.519531 154.378906 92.320312 154.378906 76.136719 C 154.378906 69.625 154.378906 63.121094 154.378906 56.609375 C 154.378906 53.746094 151.953125 51.3125 149.085938 51.3125 C 120.933594 51.3125 92.78125 51.3125 64.625 51.3125 C 60.597656 51.3125 56.570312 51.3125 52.542969 51.3125 C 49.679688 51.3125 47.25 53.742188 47.25 56.609375 C 47.25 72.414062 47.25 88.21875 47.25 104.019531 C 47.25 110.757812 47.195312 117.5 47.25 124.238281 C 47.339844 136.738281 51.328125 148.605469 59.148438 158.394531 C 69.167969 170.925781 84.777344 178.351562 100.8125 178.351562 C 107.625 178.351562 107.636719 167.757812 100.8125 167.757812 "/>
<path style=" stroke:none;fill-rule:nonzero;fill:rgb(100%,100%,100%);fill-opacity:1;" d="M 83.042969 193.085938 L 48.074219 193.085938 C 25.015625 193.085938 6.148438 213.542969 6.148438 238.542969 L 6.148438 363.449219 L 198.835938 363.449219 L 198.835938 238.542969 C 198.835938 213.542969 179.96875 193.085938 156.90625 193.085938 L 83.042969 193.085938 "/>
<g clip-path="url(#clip3)" clip-rule="nonzero">
<path style=" stroke:none;fill-rule:nonzero;fill:rgb(0%,65.879822%,50.588989%);fill-opacity:1;" d="M 83.042969 187.789062 C 76.34375 187.789062 69.644531 187.789062 62.945312 187.789062 C 55.632812 187.789062 48.058594 187.277344 40.808594 188.421875 C 16.578125 192.25 1.023438 215.53125 0.851562 239 C 0.632812 268.894531 0.851562 298.800781 0.851562 328.695312 C 0.851562 340.28125 0.851562 351.863281 0.851562 363.449219 C 0.851562 366.308594 3.277344 368.746094 6.148438 368.746094 C 27.859375 368.746094 49.566406 368.746094 71.277344 368.746094 C 105.871094 368.746094 140.464844 368.746094 175.054688 368.746094 C 182.984375 368.746094 190.910156 368.746094 198.835938 368.746094 C 201.699219 368.746094 204.128906 366.316406 204.128906 363.449219 C 204.128906 335.992188 204.128906 308.535156 204.128906 281.078125 C 204.128906 267.835938 204.128906 254.589844 204.128906 241.347656 C 204.128906 221.660156 195.613281 202.195312 177.398438 192.847656 C 168.246094 188.152344 158.871094 187.789062 148.894531 187.789062 C 140.933594 187.789062 132.972656 187.789062 125.011719 187.789062 C 118.199219 187.789062 118.1875 198.382812 125.011719 198.382812 C 131.480469 198.382812 137.945312 198.382812 144.414062 198.382812 C 151.257812 198.382812 158.640625 197.707031 165.320312 199.464844 C 184.179688 204.414062 193.539062 222.75 193.539062 241.066406 C 193.539062 271.199219 193.539062 301.324219 193.539062 331.453125 C 193.539062 342.117188 193.539062 352.78125 193.539062 363.449219 C 195.304688 361.683594 197.070312 359.917969 198.835938 358.152344 C 177.125 358.152344 155.417969 358.152344 133.707031 358.152344 C 99.109375 358.152344 64.519531 358.152344 29.925781 358.152344 C 22 358.152344 14.074219 358.152344 6.148438 358.152344 C 7.910156 359.917969 9.675781 361.683594 11.441406 363.449219 C 11.441406 336.695312 11.441406 309.941406 11.441406 283.1875 C 11.441406 269.65625 11.441406 256.125 11.441406 242.597656 C 11.441406 237.496094 11.542969 232.5 12.859375 227.503906 C 15.925781 215.863281 24.109375 205.421875 35.414062 200.84375 C 43.351562 197.625 52.007812 198.382812 60.382812 198.382812 C 67.9375 198.382812 75.492188 198.382812 83.042969 198.382812 C 89.855469 198.382812 89.867188 187.789062 83.042969 187.789062 "/>
</g>
<path style=" stroke:none;fill-rule:nonzero;fill:rgb(0%,65.879822%,50.588989%);fill-opacity:1;" d="M 42.753906 363.445312 C 42.753906 341.28125 42.753906 319.117188 42.753906 296.949219 C 42.753906 290.132812 32.164062 290.121094 32.164062 296.949219 C 32.164062 319.117188 32.164062 341.28125 32.164062 363.445312 C 32.164062 370.261719 42.753906 370.273438 42.753906 363.445312 "/>
<path style=" stroke:none;fill-rule:nonzero;fill:rgb(0%,65.879822%,50.588989%);fill-opacity:1;" d="M 42.753906 275.542969 C 42.753906 270.296875 42.753906 265.050781 42.753906 259.800781 C 42.753906 252.984375 32.164062 252.972656 32.164062 259.800781 C 32.164062 265.050781 32.164062 270.296875 32.164062 275.542969 C 32.164062 282.359375 42.753906 282.371094 42.753906 275.542969 "/>
<path style=" stroke:none;fill-rule:nonzero;fill:rgb(0%,65.879822%,50.588989%);fill-opacity:1;" d="M 107.734375 297.511719 C 107.734375 300.714844 105.136719 303.316406 101.929688 303.316406 C 98.726562 303.316406 96.125 300.714844 96.125 297.511719 C 96.125 294.304688 98.726562 291.703125 101.929688 291.703125 C 105.136719 291.703125 107.734375 294.304688 107.734375 297.511719 "/>
<path style=" stroke:none;fill-rule:nonzero;fill:rgb(0%,65.879822%,50.588989%);fill-opacity:1;" d="M 101.929688 292.144531 C 98.972656 292.144531 96.566406 294.550781 96.566406 297.511719 C 96.566406 300.46875 98.972656 302.875 101.929688 302.875 C 104.886719 302.875 107.292969 300.46875 107.292969 297.511719 C 107.292969 294.550781 104.886719 292.144531 101.929688 292.144531 Z M 101.929688 303.757812 C 98.488281 303.757812 95.683594 300.953125 95.683594 297.511719 C 95.683594 294.066406 98.488281 291.261719 101.929688 291.261719 C 105.375 291.261719 108.175781 294.066406 108.175781 297.511719 C 108.175781 300.953125 105.375 303.757812 101.929688 303.757812 "/>
<path style=" stroke:none;fill-rule:nonzero;fill:rgb(0%,65.879822%,50.588989%);fill-opacity:1;" d="M 107.734375 330.199219 C 107.734375 333.40625 105.136719 336.003906 101.929688 336.003906 C 98.726562 336.003906 96.125 333.40625 96.125 330.199219 C 96.125 326.992188 98.726562 324.390625 101.929688 324.390625 C 105.136719 324.390625 107.734375 326.992188 107.734375 330.199219 "/>
<path style=" stroke:none;fill-rule:nonzero;fill:rgb(0%,65.879822%,50.588989%);fill-opacity:1;" d="M 101.929688 324.832031 C 98.972656 324.832031 96.566406 327.238281 96.566406 330.199219 C 96.566406 333.15625 98.972656 335.5625 101.929688 335.5625 C 104.886719 335.5625 107.292969 333.15625 107.292969 330.199219 C 107.292969 327.238281 104.886719 324.832031 101.929688 324.832031 Z M 101.929688 336.445312 C 98.488281 336.445312 95.683594 333.644531 95.683594 330.199219 C 95.683594 326.753906 98.488281 323.949219 101.929688 323.949219 C 105.375 323.949219 108.175781 326.753906 108.175781 330.199219 C 108.175781 333.644531 105.375 336.445312 101.929688 336.445312 "/>
<path style=" stroke:none;fill-rule:nonzero;fill:rgb(0%,65.879822%,50.588989%);fill-opacity:1;" d="M 87.769531 71.292969 C 87.769531 71.292969 90.242188 82.289062 113.765625 88.335938 C 137.285156 94.382812 141.480469 120.855469 141.480469 120.855469 C 141.480469 120.855469 167.371094 99.472656 167.371094 57.152344 C 167.371094 14.824219 111.964844 11.960938 98.007812 11.960938 C 84.050781 11.960938 39.828125 15.167969 38.246094 57.785156 C 37.863281 68.105469 35.953125 88.601562 43.796875 98.785156 C 51.636719 108.96875 31.285156 125.269531 31.285156 125.269531 C 31.285156 125.269531 91.832031 121.894531 87.769531 71.292969 "/>
<g clip-path="url(#clip4)" clip-rule="nonzero">
<path style=" stroke:none;fill-rule:nonzero;fill:rgb(0%,65.879822%,50.588989%);fill-opacity:1;" d="M 160.875 23.992188 C 160.875 36.871094 150.441406 47.3125 137.570312 47.3125 C 124.695312 47.3125 114.257812 36.871094 114.257812 23.992188 C 114.257812 11.113281 124.695312 0.675781 137.570312 0.675781 C 150.441406 0.675781 160.875 11.113281 160.875 23.992188 "/>
</g>
<path style=" stroke:none;fill-rule:nonzero;fill:rgb(100%,100%,100%);fill-opacity:1;" d="M 152.660156 38.039062 L 117.664062 18.644531 C 115.671875 17.539062 114.945312 15.003906 116.046875 13.011719 L 116.847656 11.570312 C 117.949219 9.574219 120.484375 8.847656 122.476562 9.953125 L 157.46875 29.34375 C 159.464844 30.449219 160.191406 32.984375 159.085938 34.976562 L 158.289062 36.421875 C 157.183594 38.414062 154.652344 39.140625 152.660156 38.039062 "/>
<path style=" stroke:none;fill-rule:nonzero;fill:rgb(0%,65.879822%,50.588989%);fill-opacity:1;" d="M 154.195312 35.402344 C 143.542969 29.5 132.886719 23.597656 122.234375 17.695312 C 120.761719 16.875 117.992188 16.125 119.078125 13.828125 C 120.21875 11.417969 122.492188 13.445312 123.972656 14.261719 C 130.421875 17.839844 136.871094 21.414062 143.320312 24.988281 C 146.515625 26.753906 149.707031 28.523438 152.898438 30.296875 C 153.636719 30.703125 154.910156 31.132812 155.503906 31.738281 C 156.78125 33.046875 156.234375 36.175781 153.46875 35.097656 C 149.8125 33.671875 148.230469 39.566406 151.847656 40.976562 C 157.421875 43.148438 163.296875 37.863281 162.539062 32.066406 C 162.066406 28.402344 159.285156 26.867188 156.414062 25.273438 C 148.09375 20.664062 139.773438 16.050781 131.449219 11.4375 C 129.015625 10.089844 126.609375 8.582031 124.101562 7.367188 C 119.113281 4.953125 114.035156 8.035156 112.707031 13.234375 C 110.71875 21.023438 122.914062 25.039062 128.007812 27.859375 C 135.710938 32.132812 143.417969 36.398438 151.121094 40.667969 C 154.554688 42.570312 157.632812 37.308594 154.195312 35.402344 "/>
<path style=" stroke:none;fill-rule:nonzero;fill:rgb(0%,65.879822%,50.588989%);fill-opacity:1;" d="M 147.695312 191.675781 C 145.785156 199.773438 143.199219 207.757812 140.332031 215.558594 C 135.417969 228.945312 129.261719 243.148438 119.304688 253.597656 C 110.730469 262.601562 99.8125 265.429688 89.703125 257.074219 C 78.714844 247.988281 72.0625 233.558594 66.921875 220.582031 C 63.207031 211.199219 59.964844 201.503906 57.648438 191.675781 C 56.082031 185.042969 45.875 187.851562 47.433594 194.492188 C 49.5625 203.511719 52.496094 212.40625 55.800781 221.054688 C 61.542969 236.078125 68.753906 252.199219 80.785156 263.292969 C 91.996094 273.636719 107.1875 276.261719 119.992188 267.015625 C 133.226562 257.449219 141.046875 241.664062 147.175781 226.96875 C 151.550781 216.480469 155.296875 205.566406 157.90625 194.492188 C 159.464844 187.859375 149.261719 185.035156 147.695312 191.675781 "/>
<path style=" stroke:none;fill-rule:nonzero;fill:rgb(0%,65.879822%,50.588989%);fill-opacity:1;" d="M 65.367188 230.375 L 139.976562 230.375 C 139.976562 230.375 126.0625 267.671875 102.671875 267.671875 C 79.273438 267.671875 65.367188 230.375 65.367188 230.375 "/>
</g>
</defs>
<g id="surface1">
<use xlink:href="#surface5" transform="matrix(1,0,0,1,75,2)" mask="url(#mask0)"/>
</g>
</svg>
